<svg width="380" height="441" viewBox="0 0 380 441" fill="none" xmlns="http://www.w3.org/2000/svg">
<g clip-path="url(#clip0_4238_9540)">
<rect x="0.5" y="0.5" width="379" height="440" fill="url(#paint0_linear_4238_9540)" stroke="#DCDCDE"/>
<g filter="url(#filter0_f_4238_9540)">
<path d="M425.552 418.672L382.464 403.667C365.424 397.756 351.987 384.191 346.131 366.989L331.268 323.49C329.241 317.503 320.759 317.503 318.732 323.49L303.869 366.989C298.013 384.191 284.576 397.756 267.536 403.667L224.448 418.672C218.517 420.718 218.517 429.282 224.448 431.328L267.536 446.333C284.576 452.244 298.013 465.809 303.869 483.011L318.732 526.51C320.759 532.497 329.241 532.497 331.268 526.51L346.131 483.011C351.987 465.809 365.424 452.244 382.464 446.333L425.552 431.328C431.483 429.282 431.483 420.718 425.552 418.672ZM375.257 428.221L353.713 435.723C345.155 438.679 338.475 445.499 335.547 454.062L328.115 475.812C327.064 478.843 322.861 478.843 321.81 475.812L314.378 454.062C311.45 445.423 304.694 438.679 296.212 435.723L274.668 428.221C271.665 427.16 271.665 422.916 274.668 421.855L296.212 414.353C304.769 411.397 311.45 404.577 314.378 396.013L321.81 374.264C322.861 371.233 327.064 371.233 328.115 374.264L335.547 396.013C338.475 404.653 345.231 411.397 353.713 414.353L375.257 421.855C378.26 422.916 378.26 427.16 375.257 428.221Z" fill="#0011FF"/>
</g>
<path d="M232.115 227.903L213.854 221.746C206.632 219.32 200.937 213.753 198.456 206.694L192.156 188.843C191.297 186.386 187.703 186.386 186.844 188.843L180.544 206.694C178.063 213.753 172.368 219.32 165.146 221.746L146.885 227.903C144.372 228.743 144.372 232.257 146.885 233.097L165.146 239.254C172.368 241.68 178.063 247.247 180.544 254.306L186.844 272.157C187.703 274.614 191.297 274.614 192.156 272.157L198.456 254.306C200.937 247.247 206.632 241.68 213.854 239.254L232.115 233.097C234.628 232.257 234.628 228.743 232.115 227.903ZM210.8 231.822L201.669 234.901C198.042 236.113 195.211 238.912 193.97 242.427L190.82 251.352C190.375 252.596 188.593 252.596 188.18 251.352L185.03 242.427C183.789 238.881 180.926 236.113 177.331 234.901L168.2 231.822C166.928 231.386 166.928 229.645 168.2 229.209L177.331 226.131C180.958 224.918 183.789 222.119 185.03 218.605L188.18 209.679C188.625 208.435 190.407 208.435 190.82 209.679L193.97 218.605C195.211 222.15 198.074 224.918 201.669 226.131L210.8 229.209C212.072 229.645 212.072 231.386 210.8 231.822Z" fill="url(#paint1_linear_4238_9540)"/>
</g>
<defs>
<filter id="filter0_f_4238_9540" x="79" y="178" width="492" height="494" filterUnits="userSpaceOnUse" color-interpolation-filters="sRGB">
<feFlood flood-opacity="0" result="BackgroundImageFix"/>
<feBlend mode="normal" in="SourceGraphic" in2="BackgroundImageFix" result="shape"/>
<feGaussianBlur stdDeviation="70.5" result="effect1_foregroundBlur_4238_9540"/>
</filter>
<linearGradient id="paint0_linear_4238_9540" x1="190" y1="0" x2="190" y2="441" gradientUnits="userSpaceOnUse">
<stop stop-color="white"/>
<stop offset="1" stop-color="#EDEDFA"/>
</linearGradient>
<linearGradient id="paint1_linear_4238_9540" x1="173.5" y1="197" x2="206" y2="274" gradientUnits="userSpaceOnUse">
<stop stop-color="#000CB2"/>
<stop offset="1" stop-color="#EFEFFB"/>
</linearGradient>
<clipPath id="clip0_4238_9540">
<rect width="380" height="441" fill="white"/>
</clipPath>
</defs>
</svg>
