<svg width="897" height="616" viewBox="0 0 897 616" fill="none" xmlns="http://www.w3.org/2000/svg">
<path d="M17.8212 -60.9016C0.247254 -29.6714 -23.7215 100.426 67.4697 103.747C168.674 107.432 210.189 12.0517 158.548 -7.3923C122.943 -20.7984 -10.0063 86.7908 76.0922 193.889C162.191 300.988 435.642 78.3842 352.015 4.22232C268.389 -69.9396 99.2945 252.183 213.557 371.951C327.819 491.718 639.238 76.577 540.121 8.28395C441.005 -60.0091 227.318 367.377 357.414 466.726C518.314 589.6 793.145 237.772 690.706 131.748C588.268 25.724 405.006 458.834 549.213 596.416C693.42 733.997 910.437 359.368 829.046 289.145C747.655 218.923 618.662 504.955 761.296 611.57C878.192 698.947 1008.11 463.942 942.537 413.785C876.962 363.628 822.335 575.016 935.943 628.804C1026.83 671.835 1085.88 587.981 1104.05 540.675" stroke="#5AB7E8" stroke-opacity="0.3" stroke-width="2" stroke-linecap="round"/>
</svg>
