<svg width="563" height="100" viewBox="0 0 563 100" fill="none" xmlns="http://www.w3.org/2000/svg">
<rect width="563" height="100" rx="4" fill="#021A23"/>
<rect width="563" height="100" rx="4" fill="#029CD7" fill-opacity="0.04"/>
<rect width="563" height="100" rx="4" fill="url(#paint0_linear_6437_74891)" fill-opacity="0.2"/>
<g clip-path="url(#clip0_6437_74891)">
<path d="M230.53 63.0646C230.187 63.0646 230.01 62.8929 230.01 62.5439V37.4559C230.01 37.1124 230.181 36.9352 230.53 36.9352H238.43C242.047 36.9352 244.678 37.6775 246.329 39.1676C247.98 40.6577 248.799 42.8347 248.799 45.7096C248.799 48.5846 247.941 50.6175 246.229 52.1298C244.512 53.6476 241.931 54.4009 238.474 54.4009H235.721V62.5383C235.721 62.8818 235.549 63.059 235.2 63.059H230.536L230.53 63.0646ZM235.715 49.5817H238.385C239.953 49.5817 241.133 49.2825 241.914 48.6843C242.701 48.086 243.088 47.1111 243.088 45.7539C243.088 44.3968 242.701 43.3332 241.931 42.7239C241.161 42.1145 239.975 41.8043 238.38 41.8043H235.71V49.5817H235.715Z" fill="white"/>
<path d="M251.63 63.0647C251.287 63.0647 251.109 62.893 251.109 62.544V48.3465C251.109 47.5211 251.087 46.7456 251.049 46.0144C251.01 45.2832 250.949 44.5741 250.871 43.8817C250.816 43.5106 250.993 43.3222 251.392 43.3222H255.342C255.635 43.3222 255.818 43.4662 255.901 43.7598C256.006 44.2141 256.084 44.7292 256.139 45.3164C256.195 45.9036 256.233 46.4464 256.261 46.9505L256.66 49.3823V62.544C256.66 62.8874 256.488 63.0647 256.139 63.0647H251.63ZM256.256 51.5372L255.934 46.9118C256.466 46.1418 257.075 45.4493 257.768 44.84C258.46 44.2307 259.158 43.7432 259.862 43.3831C260.565 43.0231 261.224 42.8458 261.834 42.8458C262.26 42.8458 262.604 42.9012 262.87 43.0065C263.135 43.084 263.28 43.2724 263.307 43.5659C263.307 44.2584 263.302 45.0173 263.285 45.8371C263.268 46.6625 263.224 47.4325 263.147 48.1526C263.091 48.5514 262.892 48.7121 262.548 48.629C262.388 48.5791 262.188 48.5348 261.95 48.5071C261.712 48.4794 261.485 48.4683 261.274 48.4683C260.715 48.4683 260.144 48.5902 259.557 48.8284C258.97 49.0666 258.394 49.4045 257.823 49.8476C257.253 50.2853 256.726 50.8503 256.25 51.5427L256.256 51.5372Z" fill="white"/>
<path d="M273.683 63.5411C270.597 63.5411 268.321 62.8819 266.842 61.5691C265.363 60.2562 264.626 58.3064 264.626 55.725V51.1384C264.626 48.4241 265.363 46.3634 266.842 44.9564C268.315 43.5494 270.57 42.8403 273.6 42.8403C276.63 42.8403 278.779 43.5161 280.28 44.8733C281.782 46.2305 282.535 48.2246 282.535 50.8559V53.969C282.535 54.3125 282.363 54.4897 282.014 54.4897H270.127V55.6862C270.127 56.9104 270.398 57.8189 270.946 58.4172C271.489 59.0154 272.387 59.3145 273.639 59.3145C274.597 59.3145 275.356 59.1594 275.91 58.8548C276.464 58.5501 276.746 58.0903 276.746 57.481C276.746 57.1376 276.918 56.9603 277.267 56.9603H281.615C281.937 56.9603 282.108 57.132 282.136 57.481C282.191 59.5029 281.51 61.0151 280.103 62.0289C278.696 63.0426 276.552 63.5467 273.683 63.5467V63.5411ZM270.138 51.1384H277.117V50.939C277.117 49.6095 276.84 48.6401 276.281 48.0252C275.721 47.4159 274.857 47.1057 273.688 47.1057C272.437 47.1057 271.534 47.4159 270.974 48.0418C270.415 48.6678 270.138 49.6427 270.138 50.9722V51.1328V51.1384Z" fill="white"/>
<path d="M292.112 63.5411C289.32 63.5411 287.292 63.0204 286.029 61.9845C284.766 60.9486 284.201 59.3256 284.334 57.1209C284.362 56.7996 284.534 56.6445 284.855 56.6445H289.082C289.403 56.6445 289.558 56.8051 289.558 57.1209C289.558 57.9463 289.763 58.5556 290.179 58.9544C290.588 59.3533 291.237 59.5527 292.112 59.5527C293.042 59.5527 293.735 59.4087 294.183 59.1151C294.638 58.8215 294.859 58.3728 294.859 57.7579C294.859 57.2815 294.699 56.8882 294.383 56.5836C294.062 56.2789 293.53 55.9632 292.788 55.6474L288.201 53.692C286.871 53.1325 285.913 52.4512 285.332 51.6369C284.744 50.8281 284.456 49.7701 284.456 48.4683C284.456 46.5794 285.077 45.1724 286.312 44.2418C287.547 43.3111 289.469 42.8458 292.073 42.8458C294.677 42.8458 296.748 43.3333 298.033 44.3027C299.324 45.2721 299.967 46.7179 299.967 48.629C299.967 48.9724 299.795 49.1497 299.446 49.1497H295.258C294.915 49.1497 294.737 48.9392 294.737 48.5126C294.737 47.9532 294.532 47.5377 294.117 47.2552C293.702 46.9782 293.098 46.8342 292.3 46.8342C291.502 46.8342 290.915 46.9671 290.544 47.233C290.173 47.4989 289.985 47.9088 289.985 48.4683C289.985 48.8672 290.118 49.1885 290.383 49.4266C290.649 49.6648 291.153 49.9474 291.901 50.2631L296.449 52.1797C297.834 52.7392 298.837 53.4316 299.463 54.2515C300.089 55.0768 300.399 56.1681 300.399 57.5197C300.399 59.5139 299.695 61.0151 298.283 62.0288C296.876 63.0425 294.815 63.5466 292.101 63.5466L292.112 63.5411Z" fill="white"/>
<path d="M309.938 63.5411C307.146 63.5411 305.119 63.0204 303.856 61.9845C302.593 60.9486 302.028 59.3256 302.161 57.1209C302.188 56.7996 302.36 56.6445 302.681 56.6445H306.908C307.229 56.6445 307.384 56.8051 307.384 57.1209C307.384 57.9463 307.589 58.5556 308.005 58.9544C308.415 59.3533 309.063 59.5527 309.938 59.5527C310.869 59.5527 311.561 59.4087 312.01 59.1151C312.464 58.8215 312.685 58.3728 312.685 57.7579C312.685 57.2815 312.525 56.8882 312.209 56.5836C311.888 56.2789 311.356 55.9632 310.614 55.6474L306.027 53.692C304.698 53.1325 303.739 52.4512 303.158 51.6369C302.571 50.8281 302.282 49.7701 302.282 48.4683C302.282 46.5794 302.903 45.1724 304.138 44.2418C305.373 43.3111 307.296 42.8458 309.899 42.8458C312.503 42.8458 314.574 43.3333 315.86 44.3027C317.15 45.2721 317.793 46.7179 317.793 48.629C317.793 48.9724 317.621 49.1497 317.272 49.1497H313.084C312.741 49.1497 312.564 48.9392 312.564 48.5126C312.564 47.9532 312.359 47.5377 311.943 47.2552C311.528 46.9782 310.924 46.8342 310.126 46.8342C309.329 46.8342 308.741 46.9671 308.37 47.233C307.999 47.4989 307.811 47.9088 307.811 48.4683C307.811 48.8672 307.944 49.1885 308.21 49.4266C308.476 49.6648 308.98 49.9474 309.727 50.2631L314.275 52.1797C315.66 52.7392 316.663 53.4316 317.289 54.2515C317.915 55.0768 318.225 56.1681 318.225 57.5197C318.225 59.5139 317.521 61.0151 316.109 62.0288C314.702 63.0425 312.641 63.5466 309.927 63.5466L309.938 63.5411Z" fill="white"/>
<path d="M325.332 63.541C323.736 63.541 322.501 63.0535 321.62 62.0841C320.739 61.1147 320.302 59.7354 320.302 57.9572C320.302 56.5724 320.562 55.4534 321.077 54.5893C321.598 53.7251 322.462 53.0493 323.67 52.5563C324.877 52.0633 326.495 51.7365 328.517 51.5814L332.228 51.2213L332.189 54.2514L329.237 54.5284C327.88 54.6613 326.944 54.9327 326.423 55.3482C325.902 55.7581 325.647 56.4173 325.647 57.3202C325.647 58.0403 325.791 58.5555 326.085 58.8768C326.378 59.1981 326.816 59.3532 327.403 59.3532C328.146 59.3532 328.893 59.1261 329.636 58.6774C330.378 58.2231 331.286 57.4255 332.35 56.2843L332.588 59.5969C331.846 60.3669 331.104 61.0538 330.372 61.652C329.641 62.2503 328.871 62.7156 328.057 63.048C327.248 63.3803 326.334 63.5465 325.326 63.5465L325.332 63.541ZM332.993 63.0646C332.832 63.0646 332.716 63.0203 332.632 62.9261C332.555 62.8319 332.488 62.7045 332.433 62.5494C332.378 62.2558 332.311 61.8127 332.234 61.2144C332.156 60.6162 332.09 60.0235 332.034 59.4418L331.635 57.7689V49.7534C331.635 48.7452 331.442 48.0306 331.059 47.6207C330.672 47.2108 329.99 47.0003 329.004 47.0003C327.198 47.0003 326.334 47.6761 326.412 49.0333C326.439 49.3767 326.268 49.554 325.891 49.554H321.703C321.382 49.554 321.199 49.3435 321.144 48.9169C320.983 46.9781 321.604 45.4825 322.999 44.43C324.395 43.3775 326.462 42.8568 329.204 42.8568C331.946 42.8568 334.023 43.4218 335.286 44.5519C336.549 45.6819 337.18 47.4711 337.18 49.914V58.0126C337.18 58.8657 337.202 59.6523 337.241 60.3835C337.28 61.1147 337.341 61.8238 337.419 62.5162C337.474 62.8873 337.297 63.0757 336.898 63.0757H332.987L332.993 63.0646Z" fill="white"/>
<path d="M348.94 63.5411C347.849 63.5411 346.841 63.4802 345.91 63.3639C344.98 63.242 344.043 63.109 343.096 62.965C342.154 62.821 341.135 62.7047 340.044 62.6271V36.3426C340.044 35.9992 340.216 35.8219 340.565 35.8219H345.074C345.417 35.8219 345.594 35.9936 345.594 36.3426V58.6775C346.071 58.7551 346.558 58.8326 347.051 58.8991C347.544 58.9656 348.015 58.9988 348.469 58.9988C349.694 58.9988 350.597 58.6609 351.184 57.9795C351.765 57.3037 352.059 56.2956 352.059 54.9661V50.8559C352.059 49.7147 351.86 48.8894 351.461 48.3853C351.062 47.8812 350.447 47.6264 349.627 47.6264C348.962 47.6264 348.264 47.8203 347.533 48.2025C346.802 48.5902 345.932 49.2051 344.919 50.0582L345.041 45.9092C346.159 44.8733 347.273 44.1033 348.392 43.5937C349.511 43.0896 350.652 42.8348 351.821 42.8348C353.76 42.8348 355.211 43.3998 356.169 44.5299C357.128 45.6599 357.604 47.3937 357.604 49.7369V55.4425C357.604 58.179 356.9 60.2175 355.488 61.5469C354.081 62.8764 351.898 63.5411 348.946 63.5411H348.94Z" fill="white"/>
<path d="M360.59 63.0647C360.247 63.0647 360.069 62.893 360.069 62.544V36.3426C360.069 35.9992 360.241 35.8219 360.59 35.8219H365.099C365.443 35.8219 365.62 35.9936 365.62 36.3426V62.544C365.62 62.8875 365.448 63.0647 365.099 63.0647H360.59Z" fill="white"/>
<path d="M377.059 63.5411C373.973 63.5411 371.697 62.8819 370.218 61.5691C368.739 60.2562 368.002 58.3064 368.002 55.725V51.1384C368.002 48.4241 368.739 46.3634 370.218 44.9564C371.691 43.5494 373.946 42.8403 376.976 42.8403C380.006 42.8403 382.155 43.5161 383.656 44.8733C385.158 46.2305 385.911 48.2246 385.911 50.8559V53.969C385.911 54.3125 385.739 54.4897 385.39 54.4897H373.503V55.6862C373.503 56.9104 373.774 57.8189 374.322 58.4172C374.865 59.0154 375.763 59.3145 377.015 59.3145C377.973 59.3145 378.732 59.1594 379.286 58.8548C379.84 58.5501 380.122 58.0903 380.122 57.481C380.122 57.1376 380.294 56.9603 380.643 56.9603H384.991C385.313 56.9603 385.484 57.132 385.512 57.481C385.567 59.5029 384.886 61.0151 383.479 62.0289C382.072 63.0426 379.928 63.5467 377.059 63.5467V63.5411ZM373.508 51.1384H380.488V50.939C380.488 49.6095 380.211 48.6401 379.651 48.0252C379.092 47.4159 378.228 47.1057 377.059 47.1057C375.807 47.1057 374.904 47.4159 374.345 48.0418C373.785 48.6678 373.508 49.6427 373.508 50.9722V51.1328V51.1384Z" fill="white"/>
<path d="M206.867 35.4451H184.116V63.1643H206.867V35.4451Z" fill="white"/>
<path d="M215.137 29.9999H179.036C177.962 29.9999 177.086 30.8751 177.086 31.9498V68.0556C177.086 69.1303 177.962 70.0055 179.036 70.0055H200.025L217.092 52.9386V31.9498C217.092 30.8751 216.217 29.9999 215.142 29.9999H215.137ZM204.246 52.512C202.507 54.0686 199.853 54.8441 196.292 54.8441H193.899V62.4996C193.899 62.8098 193.649 63.0591 193.339 63.0591H187.877C187.567 63.0591 187.318 62.8098 187.318 62.4996V37.4947C187.318 37.1845 187.567 36.9352 187.877 36.9352H196.253C200.003 36.9352 202.706 37.7052 204.368 39.2507C206.03 40.7962 206.861 43.0286 206.861 45.9534C206.861 48.8782 205.991 50.961 204.246 52.512Z" fill="#DD3A03"/>
<path d="M199.282 43.3389C198.617 42.8182 197.592 42.5634 196.213 42.5634H193.897V49.266H196.213C197.515 49.266 198.517 49.0112 199.226 48.5071C199.93 48.0031 200.284 47.15 200.284 45.9535C200.284 44.757 199.952 43.8596 199.287 43.3389H199.282Z" fill="#DD3A03"/>
</g>
<defs>
<linearGradient id="paint0_linear_6437_74891" x1="-6.00001" y1="3.43696e-06" x2="143.379" y2="306.913" gradientUnits="userSpaceOnUse">
<stop stop-color="#A0DDF4"/>
<stop offset="0.595" stop-opacity="0"/>
<stop offset="1" stop-color="#A1DAF0"/>
</linearGradient>
<clipPath id="clip0_6437_74891">
<rect width="208.83" height="40.0001" fill="white" transform="translate(177.085 29.9999)"/>
</clipPath>
</defs>
</svg>
