<svg width="320" height="300" viewBox="0 0 320 300" fill="none" xmlns="http://www.w3.org/2000/svg">
<path fill-rule="evenodd" clip-rule="evenodd" d="M0.197952 417.762C-3.58999 330.883 93.3773 282.029 227.769 294.292C214.021 277.46 204.035 259.672 198.799 241.537C177.423 167.496 242.491 112.769 347.84 109.542C296.617 59.3503 314.164 -10.0283 387.886 -46.4156C462.529 -83.2575 566.493 -72.3276 620.097 -22.0029C673.701 28.3217 656.645 98.9842 582.003 135.826C567.146 143.159 551.128 148.599 534.576 152.213C598.275 184.129 646.862 230.47 660.967 279.325C681.644 350.944 621.439 404.492 522.132 410.839C582.588 458.815 621.364 515.133 623.657 567.729C628.129 670.29 492.188 719.86 320.024 678.447C147.861 637.035 4.66973 520.322 0.197952 417.762Z" fill="#873EFF"/>
</svg>
