<svg width="563" height="100" viewBox="0 0 563 100" fill="none" xmlns="http://www.w3.org/2000/svg">
<rect width="563" height="100" rx="4" fill="#101517"/>
<rect width="563" height="100" rx="4" fill="url(#paint0_linear_6633_11401)" fill-opacity="0.2"/>
<g clip-path="url(#clip0_6633_11401)">
<path fill-rule="evenodd" clip-rule="evenodd" d="M201.411 63.2097L206.087 49.7129C206.961 47.5324 207.252 45.7892 207.252 44.2389C207.252 43.676 207.215 43.1538 207.149 42.667C208.344 44.8438 209.024 47.3419 209.024 49.9994C209.024 55.6377 205.963 60.5609 201.411 63.2097V63.2097ZM195.825 42.8368C196.747 42.7885 197.578 42.6916 197.578 42.6916C198.403 42.5944 198.306 41.3839 197.48 41.4322C197.48 41.4322 195 41.6265 193.399 41.6265C191.895 41.6265 189.367 41.4322 189.367 41.4322C188.541 41.3839 188.444 42.6429 189.27 42.6916C189.27 42.6916 190.051 42.7885 190.876 42.8368L193.261 49.361L189.909 59.3918L184.335 42.8368C185.257 42.7885 186.087 42.6916 186.087 42.6916C186.912 42.5944 186.814 41.3839 185.989 41.4322C185.989 41.4322 183.509 41.6265 181.908 41.6265C181.621 41.6265 181.283 41.6192 180.922 41.6078C183.661 37.4591 188.366 34.7193 193.715 34.7193C197.701 34.7193 201.331 36.2405 204.054 38.732C203.989 38.7279 203.924 38.7196 203.856 38.7196C202.352 38.7196 201.285 40.0273 201.285 41.4322C201.285 42.6916 202.013 43.757 202.789 45.0168C203.371 46.0347 204.051 47.3422 204.051 49.2315C204.051 50.5402 203.663 52.1863 202.886 54.1727L201.359 59.2661L195.825 42.8368ZM193.716 65.285C192.214 65.285 190.763 65.0644 189.391 64.6624L193.986 51.3369L198.691 64.2076C198.722 64.2826 198.76 64.3519 198.801 64.418C197.21 64.9767 195.5 65.285 193.716 65.285V65.285ZM178.401 49.998C178.401 47.7821 178.877 45.6783 179.727 43.7778L187.031 63.7529C181.922 61.2759 178.401 56.048 178.401 49.998V49.998ZM193.715 33.001C184.325 33.001 176.686 40.6265 176.686 49.9996C176.686 59.3736 184.325 67 193.715 67C203.105 67 210.745 59.3736 210.745 49.9996C210.745 40.6265 203.105 33.001 193.715 33.001V33.001Z" fill="white"/>
<path fill-rule="evenodd" clip-rule="evenodd" d="M237.003 42.7155L233.607 55.7389L230.212 42.7155H226.784L227.582 45.5065L224.593 56.1797L221.343 42.7155H218.047L222.68 59.7247H226.272L229.047 50.631L231.647 59.7247H235.239L240.102 42.7155H237.003ZM335.737 59.724H338.749V56.6272H335.737V59.724ZM245.825 47.3597C241.68 47.3597 239.721 50.0257 239.721 53.7067C239.721 57.3879 241.68 60.0286 245.825 60.0286C249.945 60.0286 251.929 57.3879 251.929 53.7067C251.929 50.0257 249.945 47.3597 245.825 47.3597V47.3597ZM245.825 57.6168C243.866 57.6168 242.824 56.3477 242.824 53.707C242.824 51.0921 243.866 49.7971 245.825 49.7971C247.783 49.7971 248.801 51.0669 248.801 53.707C248.801 56.3224 247.783 57.6168 245.825 57.6168V57.6168ZM271.57 47.6402C270.679 47.4629 270.043 47.3609 269.306 47.3609C265.16 47.3609 262.897 50.1283 262.897 54.1651C262.897 58.1761 265.16 60.0299 267.831 60.0299C269.154 60.0299 270.756 59.4202 271.722 58.6079V59.7247H274.57V42.7155H271.57V47.6402ZM271.568 56.2494C270.601 57.1377 269.686 57.6203 268.719 57.6203C267.066 57.6203 265.998 56.5282 265.998 53.9644C265.998 51.197 267.32 49.7502 269.61 49.7502C270.321 49.7502 271.059 49.9276 271.568 50.1308V56.2494ZM283.84 42.7155H278.282V59.7247H281.487V53.8095H283.84C287.477 53.8095 290.123 51.8546 290.123 48.1991C290.123 44.5172 287.477 42.7155 283.84 42.7155V42.7155ZM283.869 51.3217H281.49V45.229H283.869C285.802 45.229 286.769 46.295 286.769 48.1994C286.769 50.0776 285.879 51.3217 283.869 51.3217V51.3217ZM306.419 47.3597C302.553 47.3597 300.544 50.3557 300.544 53.6304C300.544 58.1245 302.909 60.0286 306.745 60.0286C308.296 60.0286 309.637 59.8226 311.201 59.3429V56.8518C309.941 57.3131 308.805 57.5909 307.584 57.5909C305.347 57.5909 303.851 56.9818 303.774 54.3413H311.506C311.557 53.8593 311.608 53.4024 311.608 52.5646C311.608 50.0257 310.26 47.3597 306.419 47.3597V47.3597ZM303.802 52.3634C303.98 50.6877 304.896 49.6215 306.396 49.6215C307.998 49.6215 308.482 50.8912 308.482 52.3634H303.802ZM316.824 51.0413C316.824 50.1271 317.817 49.7721 318.884 49.7721C320.607 49.7721 322.241 50.3047 322.241 50.3047V47.8166C321.123 47.4867 319.978 47.3597 318.656 47.3597C315.756 47.3597 313.722 48.7306 313.722 50.9646C313.722 55.3061 319.724 54.1895 319.724 56.2964C319.724 57.3373 318.783 57.6166 317.41 57.6166C316.443 57.6166 314.892 57.2401 313.773 56.8518V59.3147C314.705 59.6806 316.011 60.0286 317.308 60.0286C320.131 60.0286 322.827 59.1905 322.827 56.1696C322.827 51.9804 316.824 53.0721 316.824 51.0413V51.0413ZM358.474 47.3597C354.328 47.3597 352.37 50.0257 352.37 53.7067C352.37 57.3879 354.328 60.0286 358.474 60.0286C362.594 60.0286 364.578 57.3879 364.578 53.7067C364.578 50.0257 362.594 47.3597 358.474 47.3597V47.3597ZM358.473 57.6168C356.515 57.6168 355.472 56.3477 355.472 53.707C355.472 51.0921 356.515 49.7971 358.473 49.7971C360.432 49.7971 361.449 51.0669 361.449 53.707C361.449 56.3224 360.432 57.6168 358.473 57.6168V57.6168ZM381.747 47.3597C380.45 47.3597 378.975 48.0705 377.627 48.9593L377.271 49.1879C376.635 47.8423 375.363 47.3597 373.965 47.3597C372.668 47.3597 371.193 48.0202 369.844 48.9087V47.6646H366.996V59.7235H370.023V51.0666C371.141 50.3304 372.337 49.8735 373.201 49.8735C374.194 49.8735 374.804 50.4063 374.804 52.1077V59.7235H377.805V51.0919C378.924 50.3557 380.12 49.8735 380.984 49.8735C381.976 49.8735 382.587 50.4063 382.587 52.1077V59.7235H385.588V51.3968C385.588 49.0607 384.189 47.3597 381.747 47.3597V47.3597ZM294.894 49.6499H294.792V47.6697H291.994V59.7285H294.995V52.544C295.936 50.7671 297.081 50.1831 298.988 50.1831H299.293V47.5683C299.293 47.5683 298.861 47.5173 298.479 47.5173C296.852 47.5173 295.733 48.1519 294.894 49.6499V49.6499ZM257.248 49.6499H257.146V47.6697H254.348V59.7285H257.349V52.544C258.29 50.7671 259.435 50.1831 261.342 50.1831H261.648V47.5683C261.648 47.5683 261.215 47.5173 260.834 47.5173C259.206 47.5173 258.087 48.1519 257.248 49.6499V49.6499ZM343.571 53.58C343.571 50.7621 345.122 49.7968 346.953 49.7968C348.174 49.7968 349.458 50.1528 350.323 50.4826V47.9439C349.305 47.6136 348.403 47.3597 346.903 47.3597C342.909 47.3597 340.442 49.7968 340.442 53.732C340.442 57.464 342.223 60.0286 346.724 60.0286C348.148 60.0286 349.254 59.7492 350.475 59.3429V56.8547C349.102 57.3879 348.047 57.5909 347.106 57.5909C345.122 57.5909 343.571 56.677 343.571 53.58V53.58ZM327.746 51.0413C327.746 50.1271 328.738 49.7721 329.807 49.7721C331.529 49.7721 333.164 50.3047 333.164 50.3047V47.8166C332.045 47.4867 330.9 47.3597 329.577 47.3597C326.678 47.3597 324.643 48.7306 324.643 50.9646C324.643 55.3061 330.646 54.1895 330.646 56.2964C330.646 57.3373 329.704 57.6166 328.331 57.6166C327.364 57.6166 325.814 57.2401 324.695 56.8518V59.3147C325.627 59.6806 326.932 60.0286 328.229 60.0286C331.053 60.0286 333.748 59.1905 333.748 56.1696C333.748 51.9804 327.746 53.0721 327.746 51.0413V51.0413Z" fill="white"/>
</g>
<defs>
<linearGradient id="paint0_linear_6633_11401" x1="0" y1="0" x2="563" y2="100" gradientUnits="userSpaceOnUse">
<stop stop-color="#737373"/>
<stop offset="0.5" stop-opacity="0"/>
<stop offset="1" stop-color="#B1B1B1"/>
</linearGradient>
<clipPath id="clip0_6633_11401">
<rect width="210.182" height="34" fill="white" transform="translate(176.409 33)"/>
</clipPath>
</defs>
</svg>
