<svg width="78" height="78" viewBox="0 0 78 78" fill="none" xmlns="http://www.w3.org/2000/svg">
<rect y="0.314514" width="77.371" height="77.371" rx="38.6855" fill="#F4B1FF"/>
<rect x="16.9766" y="39.2579" width="40.0132" height="25.0082" rx="5.97786" transform="rotate(-22.1764 16.9766 39.2579)" fill="white"/>
<rect x="10.9735" y="41.5632" width="38.0132" height="23.0082" rx="4.97786" transform="rotate(-36.6748 10.9735 41.5632)" stroke="#022836" stroke-width="2"/>
<circle cx="43.7292" cy="39.2769" r="3.60789" transform="rotate(-36.6748 43.7292 39.2769)" fill="#022836"/>
<circle cx="46.907" cy="36.5924" r="2.60789" transform="rotate(-36.6748 46.907 36.5924)" stroke="#022836" stroke-width="2"/>
<path d="M49.9841 16.7635C51.104 15.7614 53.4852 12.979 54.051 9.86672" stroke="#022836" stroke-width="2" stroke-linecap="round"/>
<path d="M31.9935 66.1226C32.2335 66.7905 33.0291 68.3262 34.291 69.1258" stroke="#022836" stroke-width="2" stroke-linecap="round"/>
<path d="M50.5724 20.8894C50.5724 20.8894 55.9364 20.1229 58.1761 15.1714" stroke="#022836" stroke-width="2" stroke-linecap="round"/>
<path d="M24.1869 65.2893C24.1869 65.2893 22.8749 67.4864 24.0275 69.7795" stroke="#022836" stroke-width="2" stroke-linecap="round"/>
</svg>
