<svg width="39" height="28" viewBox="0 0 39 28" fill="none" xmlns="http://www.w3.org/2000/svg">
	<path
		d="M25.1217 14.3588C25.2603 14.1488 25.3307 13.8515 25.3307 13.4743C25.3307 13.0975 25.2603 12.8008 25.1222 12.593C24.9848 12.3873 24.7775 12.2871 24.4885 12.2871C24.1988 12.2871 23.9926 12.3873 23.8579 12.593C23.7214 12.8008 23.6522 13.0975 23.6522 13.4743C23.6522 13.8515 23.7214 14.1493 23.8579 14.3588C23.9926 14.5671 24.1988 14.6678 24.4885 14.6678C24.7775 14.6678 24.9848 14.5666 25.1217 14.3588Z"
		fill="black" />
	<path
		d="M32.6409 12.5931C32.5516 12.7288 32.4937 12.9033 32.4628 13.1126H34.0337C34.018 12.9109 33.9784 12.7288 33.8876 12.5931C33.7506 12.3873 33.5596 12.2737 33.2704 12.2737C32.9813 12.2737 32.7758 12.3868 32.6409 12.5931Z"
		fill="black" />
	<path
		d="M15.0014 12.5931C14.9121 12.7288 14.8547 12.9033 14.8233 13.1126H16.3942C16.3784 12.9109 16.3389 12.7288 16.2485 12.5931C16.1111 12.3873 15.92 12.2737 15.631 12.2737C15.3419 12.2737 15.1362 12.3868 15.0014 12.5931Z"
		fill="black" />
	<path
		d="M9.93528 14.4245C9.96449 14.4689 9.97639 14.4862 10.0625 14.5549C10.0625 14.5549 10.26 14.7109 10.7083 14.6838C11.0233 14.6648 11.3026 14.6047 11.3026 14.6047V13.6034C11.3026 13.6034 11.0206 13.5567 10.705 13.5524C10.2557 13.5465 10.0663 13.7115 10.0663 13.7115C9.93364 13.8053 9.86978 13.9443 9.86978 14.1381C9.86978 14.2604 9.89194 14.3568 9.93528 14.4245Z"
		fill="black" />
	<path fill-rule="evenodd" clip-rule="evenodd"
		d="M21.2571 1.8205C19.3701 1.8205 17.6639 2.61249 16.4384 3.88943C15.0899 2.12637 12.9631 0.988525 10.57 0.988525C6.49389 0.988525 3.18919 4.28832 3.18919 8.35897C3.18919 9.40102 3.40627 10.3922 3.79653 11.2902C1.90087 12.3983 0.625 14.4693 0.625 16.8413C0.625 20.381 3.46472 23.2499 6.96755 23.2497C7.41468 23.2497 7.85044 23.2032 8.27103 23.1139C9.23347 25.7249 11.7408 27.5862 14.6828 27.5862C17.5079 27.5862 19.9319 25.8705 20.9723 23.4231C21.7637 23.8092 22.6526 24.0259 23.5924 24.0259C25.8371 24.0259 27.7929 22.789 28.8191 20.9585C29.3504 21.0657 29.8909 21.1196 30.4329 21.1193C34.9571 21.1193 38.625 17.4195 38.625 12.8551C38.625 8.29133 34.9571 4.59144 30.4329 4.59144C29.2533 4.59144 28.1323 4.84319 27.1195 5.29569C25.9541 3.21923 23.7654 1.8205 21.2571 1.8205ZM23.0548 10.2979C23.1383 10.3136 23.2022 10.3282 23.2725 10.3499C23.2877 10.3558 23.3305 10.3769 23.3131 10.4268L23.1448 10.8892C23.1307 10.9237 23.121 10.9448 23.049 10.9232C23.031 10.9177 23.0046 10.9102 22.9364 10.8956C22.8871 10.8852 22.8217 10.8778 22.7555 10.8778C22.6685 10.8778 22.5888 10.8885 22.519 10.9113C22.4508 10.9334 22.3885 10.9719 22.3344 11.026C22.2796 11.0812 22.2147 11.1619 22.1802 11.261C22.1114 11.4599 22.0781 11.6694 22.0674 11.7366L22.0637 11.7578H22.7679C22.827 11.7578 22.8453 11.7849 22.84 11.8288L22.7578 12.2867C22.7451 12.3532 22.684 12.3511 22.684 12.3511H21.9587L21.4623 15.159C21.4103 15.449 21.3448 15.6981 21.2685 15.8984C21.1916 16.1014 21.111 16.2496 20.9826 16.3916C20.8636 16.5225 20.7294 16.6194 20.5757 16.6752C20.4225 16.7303 20.2373 16.759 20.0349 16.759C19.938 16.759 19.8347 16.7574 19.7122 16.7287C19.624 16.7077 19.5758 16.6925 19.5108 16.6697C19.4834 16.6595 19.4616 16.6253 19.4768 16.5816C19.4925 16.5377 19.6224 16.1808 19.6404 16.1339C19.663 16.077 19.7198 16.0986 19.7198 16.0986C19.7594 16.1154 19.787 16.1268 19.839 16.1371C19.8915 16.1478 19.9623 16.1567 20.0154 16.1567C20.1112 16.1567 20.199 16.1447 20.2746 16.1192C20.3667 16.0884 20.4199 16.0354 20.476 15.9639C20.5346 15.8891 20.5816 15.7868 20.6298 15.6504C20.6792 15.5119 20.7235 15.3295 20.7619 15.1075L21.2555 12.3511H20.769C20.7106 12.3511 20.6916 12.3235 20.6975 12.2801L20.7792 11.8217C20.7923 11.7557 20.8529 11.7578 20.8529 11.7578H21.353L21.3801 11.6089C21.4547 11.1667 21.6036 10.8305 21.823 10.6097C22.0432 10.3877 22.3572 10.2751 22.7557 10.2751C22.8699 10.2751 22.9704 10.2828 23.0548 10.2979ZM13.3695 15.1801C13.4064 15.1801 13.4329 15.1503 13.4329 15.1136V10.4126C13.4329 10.3759 13.4064 10.3461 13.3695 10.3461H12.7854C12.7486 10.3461 12.7227 10.3759 12.7227 10.4126V15.1136C12.7227 15.1503 12.7486 15.1801 12.7854 15.1801H13.3695ZM6.13966 14.8617C6.1283 14.8508 6.10944 14.833 6.12914 14.7816L6.28301 14.3549C6.30735 14.2814 6.36312 14.3057 6.3853 14.3199C6.40326 14.3306 6.41936 14.3411 6.43615 14.352C6.45881 14.3667 6.4827 14.3821 6.51412 14.4004C6.9672 14.6867 7.38672 14.6895 7.51825 14.6895C7.85713 14.6895 8.06714 14.5099 8.06714 14.2684V14.2554C8.06714 13.9915 7.74466 13.8924 7.37005 13.7772L7.28604 13.7514C6.77122 13.6043 6.22181 13.393 6.22181 12.7418V12.7289C6.22181 12.1112 6.7198 11.6804 7.43324 11.6804L7.51117 11.6799C7.93012 11.6799 8.33505 11.8017 8.62789 11.9798C8.6544 11.996 8.68038 12.0262 8.66578 12.0675C8.65224 12.1053 8.5223 12.4549 8.50717 12.494C8.47955 12.567 8.40431 12.5183 8.40431 12.5183C8.14774 12.3765 7.74933 12.2649 7.41372 12.2649C7.11167 12.2649 6.9168 12.4252 6.9168 12.6429V12.6563C6.9168 12.9108 7.24985 13.0189 7.63609 13.1445L7.70331 13.1662C8.21595 13.3281 8.7621 13.5523 8.7621 14.1694V14.1824C8.7621 14.8498 8.27817 15.2643 7.4987 15.2643C7.116 15.2643 6.75003 15.2044 6.36246 14.9987L6.31705 14.9731C6.25935 14.9408 6.202 14.9089 6.14538 14.8676L6.13966 14.8617ZM17.5509 14.8617C17.5397 14.8508 17.5207 14.833 17.5405 14.7816L17.6943 14.3549C17.7169 14.2852 17.783 14.3105 17.797 14.3199L17.8231 14.3366C17.8535 14.3565 17.8825 14.3755 17.9254 14.4004C18.3784 14.6867 18.798 14.6895 18.9294 14.6895C19.2683 14.6895 19.4789 14.5099 19.4789 14.2684V14.2554C19.4789 13.9917 19.1562 13.8925 18.7819 13.7775L18.6973 13.7514C18.1824 13.6043 17.6329 13.393 17.6329 12.7418V12.7289C17.6329 12.1112 18.1309 11.6804 18.8444 11.6804L18.9223 11.6799C19.3414 11.6799 19.7463 11.8017 20.039 11.9798C20.0656 11.996 20.0917 12.0262 20.077 12.0675C20.0634 12.1053 19.9335 12.4549 19.9183 12.494C19.8908 12.567 19.8155 12.5183 19.8155 12.5183C19.559 12.3765 19.1605 12.2649 18.8249 12.2649C18.5228 12.2649 18.328 12.4252 18.328 12.6429V12.6563C18.328 12.9106 18.661 13.0189 19.0469 13.1443L19.1146 13.1662C19.6272 13.3281 20.1734 13.5523 20.1734 14.1694V14.1824C20.1734 14.8498 19.6894 15.2643 18.9099 15.2643C18.5273 15.2643 18.1613 15.2044 17.7737 14.9987L17.7281 14.973C17.6706 14.9408 17.6132 14.9089 17.5568 14.8676L17.5537 14.8641L17.5509 14.8617ZM25.6853 12.2097C25.8178 12.3682 25.9175 12.5587 25.9814 12.7748C26.0451 12.9897 26.0772 13.2251 26.0772 13.4742C26.0772 13.7233 26.0453 13.9587 25.9814 14.1736C25.9175 14.3895 25.8178 14.5802 25.6853 14.7387C25.5527 14.8978 25.3842 15.0251 25.1856 15.1155C24.9865 15.2058 24.7521 15.2519 24.4885 15.2519C24.2242 15.2519 23.9898 15.2058 23.7907 15.1155C23.592 15.0251 23.4236 14.8978 23.291 14.7387C23.1578 14.5797 23.0588 14.389 22.9944 14.1736C22.931 13.9592 22.899 13.7238 22.899 13.4742C22.899 13.2246 22.931 12.9897 22.9944 12.7748C23.0588 12.5594 23.1585 12.3689 23.2904 12.2097C23.4236 12.0506 23.5915 11.9228 23.7907 11.8297C23.9893 11.7371 24.2242 11.6901 24.4885 11.6901C24.7521 11.6901 24.987 11.7371 25.1856 11.8297C25.3848 11.9228 25.5527 12.0506 25.6853 12.2097ZM31.2416 14.5275C31.2416 14.5275 31.3027 14.5037 31.3243 14.567L31.4841 15.0082C31.5047 15.0629 31.4575 15.0856 31.4575 15.0856C31.2119 15.1825 30.8697 15.2502 30.5364 15.2502C29.9722 15.2502 29.5397 15.0873 29.2518 14.7667C28.9644 14.4473 28.8188 14.011 28.8188 13.4714C28.8188 13.2218 28.8543 12.9859 28.9248 12.771C28.9956 12.5555 29.1017 12.3649 29.2414 12.2059C29.381 12.0466 29.5575 11.919 29.7655 11.8264C29.9738 11.7333 30.2173 11.6866 30.4908 11.6866C30.6737 11.6866 30.8383 11.698 30.9791 11.7198C31.1295 11.7424 31.3287 11.796 31.4131 11.829C31.4283 11.835 31.4705 11.8561 31.4532 11.9053C31.4126 12.0217 31.3801 12.1109 31.3461 12.2047L31.2934 12.3504C31.2691 12.4175 31.2178 12.3953 31.2178 12.3953C31.0034 12.3276 30.7987 12.2967 30.5303 12.2967C30.2082 12.2967 29.9669 12.4045 29.8081 12.6145C29.6485 12.8256 29.5598 13.1028 29.5585 13.4714C29.5575 13.8763 29.6582 14.1756 29.838 14.3608C30.0171 14.546 30.2672 14.6396 30.5823 14.6396C30.7105 14.6396 30.8302 14.631 30.939 14.6142C31.0461 14.5974 31.1468 14.5638 31.2416 14.5275ZM34.3714 12.1368C34.4614 12.2332 34.5984 12.4437 34.6535 12.652C34.7856 13.1161 34.7298 13.521 34.7202 13.5913L34.7189 13.601C34.7129 13.6573 34.655 13.6583 34.655 13.6583L32.4526 13.6563C32.4666 13.9907 32.5462 14.2278 32.7091 14.3891C32.8677 14.5467 33.121 14.6474 33.4625 14.6479C33.9394 14.6489 34.1676 14.5615 34.3236 14.5018L34.3666 14.4855C34.3666 14.4855 34.4279 14.4632 34.4495 14.5233L34.5934 14.9267C34.6227 14.9949 34.5994 15.0187 34.5751 15.0322C34.4371 15.1085 34.102 15.2504 33.4658 15.2524C33.1568 15.2531 32.8877 15.2087 32.6664 15.1231C32.4433 15.0372 32.2571 14.9137 32.1127 14.7562C31.9676 14.5997 31.8603 14.4109 31.7933 14.1964C31.7266 13.9837 31.6931 13.7471 31.6931 13.4932C31.6931 13.2438 31.7256 13.0071 31.79 12.7902C31.8539 12.572 31.9544 12.3798 32.0883 12.2185C32.222 12.0566 32.3925 11.9267 32.5954 11.8314C32.7979 11.7362 33.0475 11.6901 33.3224 11.6901C33.5584 11.6901 33.774 11.7411 33.9536 11.8179C34.0911 11.8775 34.2296 11.9841 34.3714 12.1368ZM16.732 12.1368C16.8218 12.2332 16.9583 12.4437 17.0134 12.652C17.1455 13.1144 17.0907 13.5181 17.0809 13.5904L17.0795 13.601C17.0736 13.6573 17.0156 13.6583 17.0156 13.6583L14.8131 13.6563C14.8272 13.9907 14.9067 14.2278 15.0697 14.3891C15.2283 14.5467 15.4816 14.6474 15.8227 14.6479C16.3002 14.6489 16.5282 14.5615 16.6841 14.5018L16.7272 14.4855C16.7272 14.4855 16.7883 14.4632 16.8106 14.5233L16.9539 14.9267C16.9831 14.9949 16.96 15.0187 16.9356 15.0322C16.7975 15.1085 16.4625 15.2504 15.8264 15.2524C15.5173 15.2531 15.2483 15.2087 15.0269 15.1231C14.8039 15.0372 14.6177 14.9137 14.4731 14.7562C14.3281 14.5997 14.2209 14.4109 14.1538 14.1964C14.0872 13.9837 14.0536 13.7471 14.0536 13.4932C14.0536 13.2438 14.0866 13.0071 14.1505 12.7902C14.2144 12.572 14.3151 12.3798 14.4488 12.2185C14.5825 12.0566 14.753 11.9267 14.956 11.8314C15.1584 11.7362 15.4085 11.6901 15.6829 11.6901C15.919 11.6901 16.1344 11.7411 16.3142 11.8179C16.4517 11.8775 16.5902 11.9841 16.732 12.1368ZM10.5951 12.9971C10.7336 12.9971 10.8495 13.0009 10.9388 13.0073C10.9388 13.0073 11.1126 13.023 11.302 13.0502V12.9569C11.302 12.6636 11.2409 12.5245 11.1207 12.4325C10.9973 12.3377 10.8144 12.2902 10.5761 12.2902C10.5761 12.2902 10.0403 12.2831 9.61642 12.5137C9.5969 12.5251 9.58013 12.5316 9.58013 12.5316C9.58013 12.5316 9.52761 12.5499 9.50812 12.4959L9.35222 12.0768C9.3284 12.0162 9.37168 11.9891 9.37168 11.9891C9.56982 11.8343 10.051 11.7412 10.051 11.7412C10.2102 11.7093 10.476 11.6865 10.6411 11.6865C11.0811 11.6865 11.4216 11.7889 11.6528 11.9913C11.885 12.1943 12.003 12.5218 12.003 12.9634L12.0041 14.9778C12.0041 14.9778 12.0084 15.0362 11.9537 15.0496C11.9025 15.0636 11.8511 15.0768 11.7995 15.0892C11.7259 15.106 11.4606 15.1595 11.2446 15.1965C11.0265 15.2338 10.8013 15.2521 10.5756 15.2521C10.3612 15.2521 10.1653 15.2322 9.99257 15.1927C9.81722 15.1531 9.66617 15.0876 9.54384 14.9983C9.42045 14.909 9.32356 14.7931 9.25642 14.6541C9.18928 14.5154 9.15574 14.346 9.15574 14.1511C9.15574 13.9596 9.19526 13.7884 9.27321 13.6433C9.35032 13.4994 9.4596 13.3751 9.59257 13.2801C9.72574 13.1849 9.88056 13.1129 10.0527 13.0669C10.2237 13.0208 10.4062 12.9971 10.5951 12.9971ZM28.6706 11.7934C28.6852 11.7987 28.7203 11.8226 28.7035 11.8725C28.683 11.9324 28.5759 12.234 28.5379 12.3347C28.5239 12.3731 28.5001 12.3991 28.4579 12.3943C28.4579 12.3943 28.3311 12.3646 28.2159 12.3646C28.1358 12.3646 28.0227 12.3748 27.9204 12.4062C27.8202 12.437 27.7287 12.4917 27.648 12.5696C27.5679 12.6482 27.5029 12.7576 27.4554 12.894C27.4067 13.032 27.3822 13.2517 27.3822 13.472V15.1132C27.3824 15.131 27.3753 15.1481 27.3628 15.1605C27.3504 15.1731 27.3335 15.1804 27.3157 15.1804H26.737C26.7003 15.1804 26.6699 15.1502 26.6699 15.1132V11.8281C26.6699 11.7906 26.6965 11.7609 26.7332 11.7609H27.2977C27.3347 11.7609 27.3611 11.7906 27.3611 11.8281V12.096C27.4456 11.9829 27.5972 11.8832 27.7335 11.8215C27.8712 11.7599 28.0249 11.7132 28.3014 11.73C28.446 11.7393 28.6332 11.7789 28.6706 11.7934Z"
		fill="black" />
</svg>