<svg width="1040" height="176" viewBox="0 0 1040 176" fill="none" xmlns="http://www.w3.org/2000/svg">
    <path d="M45.4 41.6001C68.8 41.6001 87.8 60.6001 87.8 84.0001V87.9001H6.90001C4.80001 87.9001 3.1 86.2001 3 84.0001C3 60.6001 22 41.6001 45.4 41.6001Z" fill="#F6B704"/>
    <path d="M134 45.4C134 68.8 115 87.8 91.6001 87.8H87.8V6.89999C87.8 4.79999 89.5001 3 91.6001 3C115.1 3 134 22 134 45.4Z" fill="#E54335"/>
    <path d="M130.2 134.1C106.8 134.1 87.8 115.1 87.8 91.7V87.8H168.7C170.8 87.8 172.6 89.5 172.6 91.6C172.6 115.1 153.6 134.1 130.2 134.1Z" fill="#4280EF"/>
    <path d="M41.6001 130.2C41.6001 106.8 60.6001 87.8 84.0001 87.8H87.9001V168.7C87.9001 170.8 86.2001 172.5 84.0001 172.6C60.5001 172.6 41.6001 153.6 41.6001 130.2Z" fill="#34A353"/>
    <path d="M669.8 136.2V44.5999H701C716.2 44.5999 729.7 55.8999 729.7 71.8999C729.7 87.8999 716.3 99.1999 701 99.1999H681.6V136.2H669.8ZM701.3 87.7999C710.1 87.7999 717.3 80.5999 717.3 71.7999C717.3 62.9999 710.1 55.7999 701.3 55.7999H681.6V87.7999H701.3Z" fill="#757575"/>
    <path d="M749.6 73.4999L749.1 82.1999H749.6C752.9 76.3999 760.9 71.3999 769.4 71.3999C785.4 71.3999 793.3 82.2999 793.3 97.7999V136.2H781.5V99.5999C781.5 86.5999 775 82.1999 766 82.1999C755.8 82.1999 749.5 91.8999 749.5 101.5V136.2H737.8V44.5999H749.6V73.4999Z" fill="#757575"/>
    <path d="M867.6 104.8C867.6 123.9 854.2 138.2 835.4 138.2C816.6 138.2 803.2 123.9 803.2 104.8C803.2 85.6999 816.6 71.3999 835.4 71.3999C854.2 71.3999 867.6 85.7999 867.6 104.8ZM855.8 104.8C855.8 90.4999 845.8 82.1999 835.3 82.1999C824.8 82.1999 814.8 90.4999 814.8 104.8C814.8 119.1 824.8 127.5 835.3 127.5C845.8 127.5 855.8 119.2 855.8 104.8Z" fill="#757575"/>
    <path d="M881.8 117.1V84.1998H870.8V73.4998H881.8V54.2998H893.6V73.4998H908.9V84.1998H893.6V116.2C893.6 123.2 896.5 126.4 902 126.4C903.8 126.5 905.7 126.1 907.4 125.4L911.5 135.5C908.5 136.7 905.3 137.3 902 137.2C888.8 137.2 881.8 129.9 881.8 117.1Z" fill="#757575"/>
    <path d="M979.6 104.8C979.6 123.9 966.2 138.2 947.4 138.2C928.6 138.2 915.2 123.9 915.2 104.8C915.2 85.6999 928.6 71.3999 947.4 71.3999C966.2 71.3999 979.6 85.7999 979.6 104.8ZM967.8 104.8C967.8 90.4999 957.8 82.1999 947.3 82.1999C936.8 82.1999 926.8 90.4999 926.8 104.8C926.8 119.1 936.8 127.5 947.3 127.5C957.8 127.5 967.8 119.2 967.8 104.8Z" fill="#757575"/>
    <path d="M984.8 120.3L995.3 115.9C998.6 123.8 1004.8 127.7 1012.3 127.7C1019.6 127.7 1024.8 124.1 1024.8 118.9C1024.8 115.7 1022.9 112.3 1016.2 110.6L1003.5 107.5C997.7 106.1 986.7 101.1 986.7 90.0999C986.7 78.6999 998.5 71.3999 1011.5 71.3999C1022.4 71.3999 1031.8 76.3999 1035.7 85.9999L1025.5 90.1999C1023.1 84.2999 1017.3 81.8999 1011.2 81.8999C1004.5 81.8999 998.8 84.8999 998.8 89.9999C998.8 93.9999 1002.1 96.0999 1007.1 97.2999L1019.5 100.2C1031.9 103.1 1036.8 110.8 1036.8 118.5C1036.8 129.6 1026.8 138.2 1012.1 138.2C997 138.2 988.5 129.3 984.8 120.3Z" fill="#757575"/>
    <path d="M222.5 85.8C222.5 56.9 246.8 33.3 275.7 33.3C289.2 33.1 302.1 38.3 311.7 47.8L301.6 57.9C294.7 51.2 285.4 47.5 275.7 47.7C254.6 47.7 238.1 64.7 238.1 85.9C238.1 107.1 254.6 124 275.7 124C289.4 124 297.2 118.5 302.2 113.5C306.3 109.4 309 103.5 310 95.5H275.8V81.1H324.1C324.6 84.1 324.9 87.1 324.9 90.1C324.9 100.9 322 114.2 312.5 123.6C303.3 133.2 291.5 138.3 275.9 138.3C246.8 138.2 222.5 114.7 222.5 85.8Z" fill="#757575"/>
    <path d="M363.8 70.7C345.1 70.7 329.9 84.9 329.9 104.5C329.9 124.1 345.1 138.2 363.8 138.2C382.5 138.2 397.7 123.9 397.7 104.4C397.7 84.8999 382.5 70.7 363.8 70.7ZM363.8 124.9C353.6 124.9 344.7 116.5 344.7 104.4C344.7 92.2999 353.5 83.8999 363.8 83.8999C374.1 83.8999 382.9 92.1999 382.9 104.4C382.9 116.6 374 124.9 363.8 124.9Z" fill="#757575"/>
    <path d="M437.8 70.7C419.1 70.7 403.9 84.9 403.9 104.5C403.9 124.1 419.1 138.2 437.8 138.2C456.5 138.2 471.7 123.9 471.7 104.4C471.7 84.8999 456.5 70.7 437.8 70.7ZM437.8 124.9C427.6 124.9 418.7 116.5 418.7 104.4C418.7 92.2999 427.5 83.8999 437.8 83.8999C448.1 83.8999 456.9 92.1999 456.9 104.4C456.9 116.6 448 124.9 437.8 124.9Z" fill="#757575"/>
    <path d="M528.6 72.7001V78.2001H528.1C524.8 74.2001 518.4 70.6001 510.3 70.6001C493.4 70.6001 477.9 85.5001 477.9 104.5C477.9 123.5 493.4 138.2 510.3 138.2C518.4 138.2 524.8 134.6 528.1 130.5H528.6V135.4C528.6 148.3 521.7 155.2 510.6 155.2C501.5 155.2 495.9 148.7 493.6 143.2L480.7 148.6C485.7 160.7 497.5 168.7 510.7 168.6C528.1 168.6 542.8 158.4 542.8 133.4V72.7001H528.6ZM511.6 124.9C501.4 124.9 492.8 116.3 492.8 104.5C492.8 92.7001 501.4 83.9001 511.6 83.9001C521.8 83.9001 529.6 92.6001 529.6 104.5C529.6 116.4 521.7 124.9 511.6 124.9Z" fill="#757575"/>
    <path d="M567.8 36.8999H553V136.2H567.8V36.8999Z" fill="#757575"/>
    <path d="M608.5 124.9C600.9 124.9 595.6 121.4 592.1 114.7L637.3 96L635.8 92.2C633 84.6 624.4 70.7 606.9 70.7C589.4 70.7 575 84.4 575 104.5C575 123.5 589.3 138.3 608.5 138.3C619.8 138.4 630.4 132.7 636.7 123.3L625.2 115.6C621.3 121.2 616.1 124.9 608.5 124.9ZM607.4 83.7C613.3 83.7 618.3 86.5999 619.9 90.8999L589.7 103.4C589.3 90.3999 599.8 83.7 607.4 83.7Z" fill="#757575"/>
</svg>
