<svg width="150" height="110" viewBox="0 0 150 110" fill="none" xmlns="http://www.w3.org/2000/svg">
<g clip-path="url(#clip0_2_15069)">
<path d="M69.6562 84.226H107.262V100.875H69.6562V84.226Z" fill="#546FF3"/>
<path d="M41.4299 8.01562H137.79V86.0241H36.7583V12.6956C36.7583 11.4559 37.2502 10.2668 38.1261 9.38934C39.0019 8.51192 40.1901 8.01786 41.4299 8.01562Z" fill="#C3C4C7"/>
<path d="M45.1396 17.5003H128.952V76.5487H45.1396V17.5003Z" fill="white"/>
<path d="M130.912 76.9013C123.558 77.6335 116.213 77.5294 108.869 77.5482H86.8378L64.8431 77.2913C57.4987 77.1863 50.1543 77.206 42.8193 76.3875V75.9113C50.1731 75.1885 57.5175 75.2935 64.8618 75.2644H86.8931L108.888 75.5625C116.232 75.6769 123.577 75.6563 130.912 76.5141V76.9013ZM118.734 101.745C113.793 102.31 108.818 102.526 103.846 102.392H88.92C83.9447 102.392 78.9693 102.268 73.9931 102.154C68.9933 102.206 63.9961 101.904 59.039 101.25V100.775C63.9944 100.211 68.9831 99.9943 73.9687 100.125H88.8909C93.8672 100.125 98.8518 100.296 103.846 100.373C108.834 100.343 113.819 100.66 118.763 101.323L118.734 101.745Z" fill="#546FF3"/>
<path d="M129.912 81.1819C128.909 81.6685 127.827 81.9714 126.716 82.0763C125.647 82.2155 124.57 82.2981 123.491 82.3238H120.266C119.169 82.3106 118.077 82.17 117.012 81.9048C116.962 81.8906 116.915 81.8666 116.874 81.8342C116.832 81.8018 116.798 81.7616 116.772 81.7158C116.747 81.6701 116.731 81.6198 116.724 81.5678C116.718 81.5157 116.722 81.463 116.737 81.4126C116.755 81.3521 116.786 81.2967 116.829 81.2505C116.872 81.2043 116.925 81.1687 116.984 81.1463C118.023 80.7948 119.099 80.5649 120.191 80.461C121.265 80.3466 122.331 80.2519 123.406 80.1947C124.484 80.1376 125.563 80.1376 126.641 80.1947C127.755 80.2053 128.858 80.4215 129.894 80.8323C129.919 80.8425 129.942 80.8576 129.962 80.8768C129.982 80.896 129.997 80.9189 130.008 80.9442C130.019 80.9695 130.024 80.9966 130.024 81.024C130.025 81.0515 130.019 81.0787 130.009 81.1041C129.984 81.1377 129.951 81.1645 129.912 81.1819Z" fill="white"/>
<path d="M23.2593 45.84C24.2943 45.84 25.1334 45.001 25.1334 43.966C25.1334 42.931 24.2943 42.0919 23.2593 42.0919C22.2243 42.0919 21.3853 42.931 21.3853 43.966C21.3853 45.001 22.2243 45.84 23.2593 45.84Z" fill="#C3C4C7"/>
<path d="M23.2593 37.8394C24.2943 37.8394 25.1334 37.0004 25.1334 35.9654C25.1334 34.9304 24.2943 34.0913 23.2593 34.0913C22.2243 34.0913 21.3853 34.9304 21.3853 35.9654C21.3853 37.0004 22.2243 37.8394 23.2593 37.8394Z" fill="#C3C4C7"/>
<path d="M23.2593 29.3156C24.2943 29.3156 25.1334 28.4766 25.1334 27.4416C25.1334 26.4066 24.2943 25.5675 23.2593 25.5675C22.2243 25.5675 21.3853 26.4066 21.3853 27.4416C21.3853 28.4766 22.2243 29.3156 23.2593 29.3156Z" fill="#C3C4C7"/>
<path d="M30.9273 29.3156C31.9623 29.3156 32.8013 28.4766 32.8013 27.4416C32.8013 26.4066 31.9623 25.5675 30.9273 25.5675C29.8923 25.5675 29.0532 26.4066 29.0532 27.4416C29.0532 28.4766 29.8923 29.3156 30.9273 29.3156Z" fill="#C3C4C7"/>
<path d="M109.697 66.2081H65.1084V33.3872H112.674V63.24C112.672 64.0281 112.357 64.783 111.799 65.3394C111.241 65.8957 110.485 66.2081 109.697 66.2081Z" fill="#DCDCDE"/>
<path d="M70.0453 25.9387H107.737C109.041 25.9389 110.292 26.4548 111.217 27.3737C112.142 28.2926 112.666 29.54 112.674 30.8437V34.3125H65.1084V30.8437C65.1166 29.5398 65.6403 28.2922 66.5653 27.3731C67.4903 26.4541 68.7414 25.9384 70.0453 25.9387Z" fill="#2A46CE"/>
<path d="M68.3334 51.7762C72.1186 50.812 76.0592 50.6207 79.92 51.2137C83.7393 51.7212 87.4993 52.6036 91.1456 53.8481C94.797 55.0662 98.3349 56.6014 101.719 58.4362C105.049 60.3384 108.375 62.4412 110.776 65.7422C110.838 65.8699 110.856 66.015 110.825 66.1539C110.794 66.2927 110.718 66.417 110.607 66.5065C110.497 66.596 110.359 66.6454 110.217 66.6465C110.075 66.6476 109.936 66.6005 109.824 66.5128V66.4556C108.643 65.07 107.271 63.8592 105.75 62.8594C104.226 61.8083 102.638 60.8551 100.993 60.0056C97.6247 58.2863 94.1257 56.8358 90.5287 55.6678C86.9998 54.4474 83.371 53.5377 79.6837 52.949C78.7322 52.8159 77.8378 52.74 76.9153 52.6256C75.9928 52.5112 75.0694 52.559 74.1469 52.4925C73.2244 52.4259 72.3103 52.5694 71.3878 52.5975C70.4653 52.6256 69.5803 52.8928 68.6765 53.0353H68.6484C68.4919 53.0542 68.334 53.0143 68.2051 52.9236C68.0762 52.8328 67.9855 52.6975 67.9505 52.5438C67.9156 52.39 67.9388 52.2288 68.0158 52.0912C68.0927 51.9536 68.2179 51.8494 68.3672 51.7987L68.3334 51.7762ZM20.129 102.511C19.1198 102.511 18.1519 102.11 17.4383 101.396C16.7246 100.683 16.3237 99.7148 16.3237 98.7056V55.4672C16.324 54.4581 16.725 53.4904 17.4386 52.777C18.1522 52.0636 19.12 51.6628 20.129 51.6628H40.1072C40.6068 51.6627 41.1017 51.761 41.5633 51.9521C42.025 52.1433 42.4445 52.4235 42.7979 52.7767C43.1512 53.13 43.4316 53.5495 43.6228 54.0111C43.814 54.4727 43.9125 54.9675 43.9125 55.4672V98.7337C43.9125 99.743 43.5116 100.711 42.7979 101.424C42.0843 102.138 41.1164 102.539 40.1072 102.539H23.6306" fill="white"/>
<path d="M16.3901 60H43.8936V94.1147H16.3901V60Z" fill="#DCDCDE"/>
<path d="M105.187 45.9263C104.821 46.4023 104.365 46.8013 103.844 47.1001C103.323 47.3988 102.748 47.5916 102.153 47.6672C100.935 47.8312 99.7008 47.5174 98.7092 46.7916C98.2137 46.4216 97.7959 45.9577 97.4796 45.4263C97.1634 44.8949 96.9549 44.3063 96.8661 43.6943C96.7773 43.0823 96.8099 42.4588 96.9621 41.8595C97.1143 41.2601 97.383 40.6965 97.753 40.201C97.7698 40.1775 97.7877 40.155 97.8055 40.1325C98.3808 39.3854 99.1683 38.8295 100.065 38.5376C100.962 38.2457 101.925 38.2315 102.83 38.4968C103.735 38.7621 104.539 39.2946 105.136 40.0244C105.733 40.7542 106.096 41.6474 106.176 42.5869C106.281 43.7851 105.928 44.9785 105.187 45.9263ZM104.236 45.1454C104.688 44.5766 104.93 43.8692 104.921 43.1426C104.912 42.416 104.653 41.7148 104.187 41.1571C103.721 40.5995 103.077 40.2197 102.364 40.0818C101.651 39.9439 100.911 40.0563 100.271 40.4001C99.6312 40.744 99.1293 41.2981 98.8503 41.9691C98.5713 42.64 98.5324 43.3867 98.74 44.083C98.9476 44.7793 99.3892 45.3827 99.9901 45.7913C100.591 46.1998 101.314 46.3886 102.038 46.3257C102.885 46.217 103.656 45.7837 104.189 45.1172L104.236 45.1454ZM38.0998 77.986C37.3558 78.9432 36.2644 79.5687 35.0623 79.7269C34.1467 79.8516 33.2146 79.7045 32.3818 79.304C31.549 78.9035 30.8522 78.2672 30.378 77.474C29.9037 76.6809 29.6729 75.766 29.7142 74.8428C29.7555 73.9196 30.067 73.0289 30.6102 72.2813C30.6336 72.2504 30.6561 72.2194 30.6795 72.1875C31.2497 71.4283 32.037 70.8601 32.9372 70.5582C33.8374 70.2562 34.8081 70.2348 35.7208 70.4967C36.6334 70.7586 37.445 71.2915 38.0482 72.0249C38.6513 72.7582 39.0175 73.6574 39.0983 74.6035C39.2111 75.8173 38.8537 77.028 38.0998 77.986ZM37.1014 77.1957C37.3664 76.8596 37.5589 76.4722 37.6669 76.058C37.7748 75.6438 37.7958 75.2118 37.7286 74.7891C37.6341 74.1799 37.3633 73.6117 36.9495 73.1547C36.5357 72.6977 35.9971 72.3719 35.4002 72.2176C34.8034 72.0632 34.1744 72.0871 33.5909 72.2862C33.0075 72.4854 32.4951 72.8511 32.1172 73.3381C31.7392 73.8252 31.5122 74.4123 31.4642 75.0269C31.4162 75.6415 31.5492 76.2567 31.8469 76.7966C32.1447 77.3364 32.594 77.7772 33.1394 78.0646C33.6848 78.3519 34.3025 78.4732 34.9161 78.4135C35.3428 78.3652 35.7557 78.2327 36.1308 78.0237C36.506 77.8146 36.8359 77.5332 37.1014 77.1957Z" fill="#C3C4C7"/>
<path d="M16.7427 60H43.5411V66.1453H16.7427V60Z" fill="#2A46CE"/>
<path d="M19.6349 85.8056C21.7924 85.0114 24.0891 84.665 26.3849 84.7875C28.6482 84.864 30.8893 85.2611 33.0411 85.9668C35.2415 86.6606 37.3069 87.7257 39.148 89.1159C41.0084 90.5359 42.4595 92.4234 43.3536 94.5862C43.4133 94.7441 43.4088 94.9191 43.3412 95.0738C43.2736 95.2284 43.1482 95.3505 42.9918 95.414C42.8484 95.4707 42.6894 95.4733 42.5443 95.4216C42.3991 95.3699 42.2776 95.2673 42.2024 95.1328C41.1815 93.3234 39.7674 91.7663 38.0643 90.5765C36.3596 89.3611 34.4795 88.4127 32.489 87.764C30.4832 87.0976 28.4033 86.6791 26.2958 86.5181C24.204 86.3231 22.0942 86.4816 20.0549 86.9869C19.895 87.0388 19.721 87.0251 19.5713 86.9488C19.4215 86.8725 19.3081 86.7399 19.2561 86.58C19.2042 86.4201 19.2179 86.2461 19.2942 86.0963C19.3705 85.9465 19.5031 85.8332 19.663 85.7812L19.6349 85.8056Z" fill="white"/>
<path d="M20.1291 102.986C19.2668 102.993 18.4226 102.74 17.7065 102.259C16.9903 101.779 16.4356 101.094 16.1147 100.294C15.9471 99.8691 15.8538 99.4188 15.8391 98.9625V97.7925L15.7725 95.5425L15.63 86.3334L15.4491 67.9968L15.375 58.8262V55.3725C15.3816 54.8838 15.4648 54.3992 15.6216 53.9362C15.9356 53.0091 16.5244 52.1994 17.3096 51.6148C18.0947 51.0303 19.0392 50.6984 20.0175 50.6634L38.3869 50.6062H40.1091C40.3545 50.5968 40.6002 50.616 40.8413 50.6634C41.8271 50.8003 42.7452 51.2429 43.4663 51.929C44.1766 52.616 44.6637 53.501 44.8641 54.4687C44.9413 54.9179 44.9762 55.3733 44.9681 55.829V66.1415C44.9681 72.2587 44.9681 78.3665 44.8744 84.4828L44.76 93.6347L44.7122 98.22V98.8125C44.7062 99.0426 44.6808 99.2719 44.6362 99.4978C44.5596 99.9567 44.4086 100.4 44.1891 100.81C43.8691 101.425 43.4102 101.958 42.8488 102.364C42.2874 102.771 41.6388 103.042 40.9547 103.154C40.5327 103.216 40.1058 103.238 39.6797 103.221H37.3866L32.8013 103.154L23.6306 103.001C23.5046 103.001 23.3837 102.951 23.2945 102.862C23.2054 102.773 23.1553 102.652 23.1553 102.526C23.1553 102.4 23.2054 102.279 23.2945 102.19C23.3837 102.101 23.5046 102.051 23.6306 102.051L32.8013 101.907L37.3866 101.841H39.6787C40.0136 101.848 40.3483 101.823 40.6781 101.765C40.9775 101.7 41.2652 101.589 41.5312 101.437C42.0637 101.136 42.4942 100.682 42.7678 100.134C42.8995 99.8641 42.9896 99.5756 43.035 99.2784C43.0491 99.1297 43.0491 98.98 43.035 98.8312V98.2687L43.0153 93.6356L42.9581 84.4837C42.8822 78.3675 42.9009 72.2597 42.8728 66.1425V56.9803C42.8989 56.2921 42.8766 55.6029 42.8063 54.9178C42.69 54.3868 42.4158 53.9035 42.0197 53.5312C41.625 53.1535 41.1229 52.9075 40.5825 52.8272C40.4464 52.8178 40.3098 52.8178 40.1737 52.8272H38.4619L20.1291 52.7334C19.5557 52.7418 18.9994 52.93 18.5387 53.2715C18.078 53.6129 17.7361 54.0904 17.5613 54.6365C17.4726 54.9006 17.4212 55.1758 17.4084 55.454V58.8694L17.3325 68.04L17.1562 86.3287L17.0137 95.5378V98.9437C17.0221 99.2683 17.0832 99.5894 17.1947 99.8944C17.4179 100.502 17.8163 101.029 18.3394 101.41C18.8626 101.791 19.4871 102.009 20.1337 102.035C20.198 102.032 20.2622 102.042 20.3224 102.065C20.3826 102.087 20.4376 102.122 20.4841 102.166C20.5306 102.211 20.5676 102.264 20.5928 102.323C20.6181 102.382 20.6311 102.446 20.6311 102.51C20.6311 102.575 20.6181 102.638 20.5928 102.698C20.5676 102.757 20.5306 102.81 20.4841 102.855C20.4376 102.899 20.3826 102.934 20.3224 102.956C20.2622 102.979 20.198 102.989 20.1337 102.986H20.1291Z" fill="#3858E9"/>
</g>
<defs>
<clipPath id="clip0_2_15069">
<rect width="150" height="109.5" fill="white"/>
</clipPath>
</defs>
</svg>