<svg width="150" height="110" viewBox="0 0 150 110" fill="none" xmlns="http://www.w3.org/2000/svg">
<g clip-path="url(#clip0_2_15090)">
<path d="M79.2347 20.25C79.1282 20.2386 79.0204 20.2483 78.9176 20.2785C78.8148 20.3087 78.7189 20.3589 78.6355 20.4262C78.5521 20.4935 78.4828 20.5766 78.4315 20.6707C78.3802 20.7648 78.348 20.8681 78.3366 20.9747L75.3882 48.7706L97.5591 48.8344H98.5313V49.801L98.5135 56.1244L137.344 60.241C137.45 60.2524 137.558 60.2427 137.661 60.2124C137.764 60.1821 137.86 60.1318 137.943 60.0644C138.027 59.997 138.096 59.9138 138.147 59.8196C138.199 59.7254 138.231 59.622 138.242 59.5153L141.703 26.8669L79.2347 20.25Z" fill="#546FF3"/>
<path d="M104.639 60.375C103.841 65.1797 103.131 69.9984 102.373 74.8125C101.615 79.6266 100.939 84.4472 100.229 89.265L99.2277 96.5025L98.2958 103.75C98.2805 103.91 98.3272 104.07 98.4262 104.197C98.5252 104.324 98.669 104.408 98.8281 104.432C98.9873 104.456 99.1495 104.418 99.2816 104.326C99.4136 104.234 99.5054 104.095 99.538 103.938L100.794 96.7388L101.983 89.5303C102.733 84.7191 103.506 79.9106 104.218 75.0928C104.93 70.275 105.668 65.4609 106.33 60.6356C106.503 59.4288 106.674 58.2222 106.841 57.0159L105.212 56.8425C105.02 58.0175 104.829 59.195 104.639 60.375ZM40.5674 45.4491C40.7949 47.1953 41.0261 48.9416 41.2611 50.6878C41.8311 50.6916 42.4008 50.6994 42.9702 50.7112C42.6983 48.9037 42.4227 47.0938 42.1433 45.2812M49.3021 95.5734L48.1518 86.8125L47.8199 84.4378C47.2133 84.4284 46.8449 84.4219 46.2411 84.4031L46.3958 87.0619L47.7346 95.7909L49.1408 104.51C49.1662 104.673 49.2545 104.819 49.3869 104.917C49.5192 105.016 49.6849 105.058 49.8482 105.035C50.0115 105.013 50.1593 104.926 50.2597 104.796C50.3601 104.665 50.4051 104.5 50.3849 104.336L49.3021 95.5734Z" fill="#C3C4C7"/>
<path d="M6.58707 15.2184L69.0602 8.61938L72.5093 41.2688C72.5318 41.4841 72.468 41.6995 72.3317 41.8678C72.1955 42.036 71.998 42.1433 71.7827 42.1659L9.30957 48.7659L5.86051 16.1156C5.8492 16.0091 5.85901 15.9013 5.88936 15.7986C5.91971 15.6958 5.97002 15.6 6.03741 15.5167C6.1048 15.4334 6.18794 15.3641 6.2821 15.313C6.37625 15.2618 6.47956 15.2297 6.58613 15.2184H6.58707Z" fill="#3858E9"/>
<path d="M64.8087 88.4485C64.7899 91.1119 64.8349 93.7754 64.8546 96.4379C64.9137 99.1004 64.9709 101.764 65.1152 104.427C65.1215 104.59 65.1905 104.744 65.3077 104.856C65.4249 104.969 65.5812 105.032 65.7438 105.032C65.9065 105.032 66.0628 104.969 66.18 104.856C66.2972 104.744 66.3661 104.59 66.3724 104.427C66.5149 101.764 66.5712 99.1004 66.6321 96.4379C66.6527 93.7754 66.6977 91.1119 66.678 88.4485C66.663 87.0347 66.6612 85.621 66.6518 84.2063L64.8387 84.2485C64.8265 85.6491 64.8246 87.0488 64.8087 88.4485Z" fill="#C3C4C7"/>
<path d="M97.5602 48.8344L50.8239 48.7003H42.7896L41.9711 48.7434C40.8794 48.8408 39.8103 49.1121 38.8043 49.5469C37.2953 50.2063 35.975 51.2321 34.963 52.5312C33.9511 53.8303 33.2796 55.3615 33.0096 56.9859C32.9195 57.5236 32.8709 58.0674 32.8643 58.6125V60.0788L32.9308 83.4478V84.4397H33.918L46.2339 84.4078C50.3402 84.4078 54.4464 84.3694 58.5499 84.3216L64.7083 84.2531L70.8668 84.1116C74.9724 84.0241 79.0777 83.8831 83.1827 83.6888V83.22C79.0777 83.0281 74.9724 82.8872 70.8668 82.7972L64.7083 82.6556L58.5499 82.5872C54.4446 82.5366 50.3383 82.4935 46.2339 82.5009L34.908 82.4709L34.9689 60.0881L34.9755 58.6341C34.9849 58.205 35.0262 57.7773 35.0993 57.3544C35.2503 56.5108 35.5351 55.6968 35.943 54.9431C36.785 53.4379 38.0941 52.2477 39.6724 51.5522C40.459 51.2191 41.2934 51.0125 42.1446 50.94L42.7849 50.9091H50.8174L96.5861 50.7778L96.6115 59.4825L96.7258 69.1594C96.7427 70.7728 96.7605 72.3853 96.813 73.9978C96.8544 74.7559 96.8166 75.5163 96.7005 76.2666C96.492 77.3828 96.0608 78.4456 95.4326 79.3916C94.8045 80.3376 93.9922 81.1473 93.0443 81.7725C91.7768 82.6397 90.2458 83.1019 88.6802 83.2172V83.686C92.0008 83.88 95.4461 82.0134 97.0943 78.9553C97.5098 78.1945 97.8249 77.3831 98.0318 76.5413C98.2081 75.7039 98.298 74.8507 98.2999 73.995C98.3505 72.3825 98.3702 70.77 98.3861 69.1566L98.5005 59.4797L98.5286 49.8028V48.8372L97.5602 48.8344Z" fill="#3858E9"/>
<path d="M24.627 104.42C24.4243 102.96 23.966 101.547 23.2732 100.246C22.5841 98.9456 21.6795 97.7437 20.7579 96.4772L20.7523 96.4688C20.6649 96.3473 20.6231 96.199 20.6342 96.0498C20.6453 95.9006 20.7086 95.7601 20.813 95.6529C20.9174 95.5457 21.0562 95.4787 21.205 95.4637C21.3539 95.4486 21.5032 95.4865 21.627 95.5706C23.0287 96.5498 24.166 97.8611 24.9373 99.3872C25.7248 100.919 26.1316 102.721 25.8823 104.438C25.8604 104.588 25.785 104.726 25.6698 104.826C25.5546 104.925 25.4074 104.98 25.2551 104.98C25.1028 104.98 24.9555 104.925 24.8404 104.826C24.7252 104.726 24.6498 104.588 24.6279 104.438L24.627 104.42ZM31.3882 100.437C31.227 99.0984 30.8445 97.8038 30.4141 96.5419C29.9688 95.2881 29.4089 94.078 28.7416 92.9269C28.1504 91.908 27.4835 90.935 26.7466 90.0159C27.2587 89.5025 27.6065 88.8485 27.7459 88.1369C27.8854 87.4253 27.81 86.6884 27.5296 86.0197C27.2491 85.3511 26.7761 84.7809 26.1708 84.3817C25.5655 83.9825 24.8552 83.7723 24.1301 83.7778C23.1391 83.7877 22.1923 84.1895 21.4966 84.8953C20.8237 85.5782 20.4496 86.5005 20.4566 87.4592C20.4637 88.4179 20.8513 89.3346 21.5341 90.0075L21.5932 90.0647C21.9333 90.379 22.3332 90.6215 22.769 90.7777C23.2049 90.934 23.6678 91.0007 24.1301 90.9741C24.6382 91.0141 25.1487 90.9348 25.6207 90.7425C26.157 91.7494 26.6951 92.7422 27.176 93.7594C27.7263 94.8844 28.2166 96.0272 28.662 97.1822C29.0914 98.3383 29.4391 99.5231 29.7026 100.728C29.9567 101.933 30.1075 103.158 30.1535 104.39V104.398C30.1602 104.555 30.225 104.704 30.3354 104.815C30.4458 104.927 30.5937 104.993 30.7505 105.001C30.9072 105.01 31.0614 104.959 31.1829 104.86C31.3045 104.761 31.3847 104.62 31.4079 104.465C31.5898 103.128 31.5832 101.772 31.3882 100.437ZM22.1679 87.5278C22.1979 87.0184 22.4137 86.5377 22.7745 86.1769C23.1367 85.8277 23.6223 85.636 24.1254 85.6434C25.1229 85.6434 26.0332 86.4966 26.0548 87.5278C26.142 88.5516 25.2851 89.5903 24.1254 89.7159C22.9601 89.6222 22.0929 88.5656 22.1688 87.5288L22.1679 87.5278Z" fill="#C3C4C7"/>
<path d="M16.1174 103.799C25.1999 103.698 34.2824 103.623 43.3649 103.572L70.6124 103.494L97.8599 103.54L111.483 103.634L125.106 103.798C125.272 103.798 125.432 103.864 125.55 103.982C125.667 104.1 125.734 104.26 125.734 104.426C125.734 104.593 125.667 104.753 125.55 104.87C125.432 104.988 125.272 105.054 125.106 105.054L111.483 105.218L97.8599 105.312L70.6124 105.358L43.3649 105.281C34.2824 105.244 25.1999 105.168 16.1174 105.054C15.9508 105.054 15.791 104.988 15.6732 104.87C15.5554 104.753 15.4893 104.593 15.4893 104.426C15.4893 104.26 15.5554 104.1 15.6732 103.982C15.791 103.864 15.9508 103.798 16.1174 103.798V103.799Z" fill="#8C8F94"/>
<path d="M92.2274 41.611C92.2658 41.2585 92.3877 41.0026 92.5958 40.8413C92.8039 40.6801 93.088 40.6201 93.4489 40.6585C93.8099 40.6969 94.0564 40.8169 94.2299 41.0213C94.4033 41.2257 94.4708 41.5004 94.4314 41.8444C94.4233 41.9884 94.3858 42.1291 94.3213 42.2581C94.2568 42.3871 94.1667 42.5015 94.0564 42.5944C93.8427 42.7651 93.5639 42.8322 93.2202 42.796C92.8671 42.7579 92.6042 42.6354 92.4317 42.4285C92.2592 42.2216 92.1911 41.9491 92.2274 41.611ZM105.424 43.921L102.944 43.6604L99.6796 36.2747L99.6224 36.2691C99.5717 37.5066 99.5186 38.3879 99.463 38.9129L99.0046 43.2422L97.2608 43.0547L98.2367 33.8513L100.698 34.1119L103.963 41.4244H104.007C104.07 40.2226 104.127 39.3738 104.18 38.8782L104.642 34.5235L106.399 34.711L105.424 43.921ZM114.07 44.8379L108.77 44.2754L109.746 35.0747L115.046 35.6372L114.873 37.2357L111.524 36.8804L111.31 38.9007L114.425 39.2307L114.252 40.8291L111.137 40.5001L110.885 42.8729L114.233 43.2282L114.07 44.8379ZM120.57 45.526L118.619 45.3197L119.422 37.7429L116.924 37.4785L117.097 35.8547L124.045 36.5907L123.872 38.2144L121.373 37.9501L120.57 45.526ZM22.4183 33.481C22.3821 33.1285 22.4483 32.8522 22.6171 32.6522C22.7858 32.4522 23.0511 32.3332 23.413 32.2951C23.7599 32.2576 24.0392 32.3222 24.2511 32.4826C24.463 32.6429 24.5867 32.9016 24.6214 33.2457C24.6445 33.3882 24.6381 33.534 24.6026 33.6739C24.5671 33.8139 24.5033 33.9451 24.4152 34.0594C24.2427 34.2713 23.9842 34.3963 23.6399 34.4344C23.2955 34.4726 23.0142 34.4082 22.7961 34.2413C22.5817 34.0757 22.4558 33.8222 22.4183 33.481ZM35.1899 28.3763C35.3511 29.9001 35.0974 31.1107 34.4286 32.0082C33.7599 32.9057 32.7211 33.4291 31.3124 33.5785C29.9024 33.7272 28.7774 33.4326 27.9374 32.6944C27.0974 31.9563 26.5974 30.8213 26.4374 29.2894C26.2749 27.7582 26.5299 26.5485 27.2024 25.6604C27.8749 24.7722 28.918 24.2538 30.3317 24.1051C31.7455 23.9551 32.8705 24.2476 33.7067 24.9826C34.543 25.7176 35.0374 26.8488 35.1899 28.3763ZM28.4764 29.0841C28.5852 30.1122 28.8624 30.8657 29.308 31.3444C29.7536 31.8232 30.3642 32.0216 31.1399 31.9397C32.6961 31.776 33.3652 30.6597 33.1471 28.591C32.9289 26.5222 32.0452 25.5682 30.4958 25.7288C29.7196 25.8107 29.1621 26.1335 28.8233 26.6972C28.4846 27.261 28.3689 28.0566 28.4764 29.0841ZM40.1952 28.9416L40.5702 32.4732L38.6183 32.6794L37.6461 23.4779L40.3274 23.1966C41.5774 23.0647 42.5264 23.1947 43.1746 23.5866C43.8227 23.9785 44.1958 24.6379 44.2939 25.5647C44.3562 26.0806 44.2531 26.6028 43.9996 27.0563C43.7242 27.5314 43.3224 27.9209 42.8389 28.1813L45.9692 31.9051L43.8008 32.1338L41.2292 28.8376L40.1952 28.9416ZM40.0311 27.3554L40.6602 27.2888C41.2771 27.2232 41.7214 27.0722 41.9933 26.836C42.2652 26.5997 42.378 26.2613 42.3317 25.8207C42.2855 25.3832 42.1027 25.0885 41.7833 24.9366C41.4639 24.7847 40.9896 24.7416 40.3602 24.8072L39.7686 24.8701L40.0311 27.3554ZM51.1049 26.1347L54.7555 25.7494L55.2589 30.5194C54.7335 30.7586 54.1891 30.9536 53.6314 31.1026C53.1079 31.2357 52.5752 31.3297 52.0377 31.3838C50.6502 31.5307 49.5467 31.2347 48.7274 30.496C47.908 29.7572 47.418 28.6241 47.2574 27.0966C47.0999 25.6116 47.4021 24.4088 48.1639 23.4882C48.9258 22.5676 50.0602 22.0272 51.5671 21.8672C52.5051 21.7666 53.4539 21.8601 54.3542 22.1419L53.8714 23.7713C53.1869 23.5101 52.4505 23.4137 51.7217 23.4901C50.8817 23.5801 50.2374 23.9376 49.7886 24.5626C49.3399 25.1876 49.1664 25.9757 49.2683 26.9269C49.3739 27.9269 49.6592 28.6682 50.1242 29.1507C50.5892 29.6332 51.2117 29.8335 51.9917 29.7516C52.4085 29.7058 52.8196 29.6185 53.2189 29.491L53.0155 27.5719L51.2717 27.7594L51.1049 26.1347Z" fill="white"/>
<path d="M46.8008 70.8329C46.8008 70.4775 46.8945 70.2104 47.082 70.0285C47.2695 69.8466 47.5508 69.7557 47.9108 69.7557C48.2708 69.7557 48.5323 69.8494 48.7245 70.0369C48.9167 70.2244 49.0123 70.4888 49.0123 70.8347C49.0203 70.979 48.9985 71.1233 48.9483 71.2588C48.8982 71.3942 48.8207 71.5179 48.7208 71.6222C48.5264 71.8135 48.2564 71.9094 47.9108 71.91C47.5652 71.9107 47.2908 71.8169 47.0877 71.6288C46.8964 71.4388 46.8008 71.1735 46.8008 70.8329ZM55.572 63.9844C54.8339 63.9844 54.2623 64.2619 53.8573 64.8169C53.4523 65.3719 53.2498 66.145 53.2498 67.1363C53.2498 69.1988 54.0239 70.23 55.572 70.23C56.2227 70.23 57.0098 70.0679 57.9336 69.7435V71.3907C57.1256 71.7169 56.2605 71.8782 55.3892 71.865C54.043 71.865 53.0136 71.4569 52.3011 70.6407C51.5886 69.8244 51.2323 68.6525 51.2323 67.125C51.2323 66.1632 51.4077 65.3194 51.7583 64.5938C52.0816 63.8993 52.6075 63.3189 53.2667 62.9288C53.923 62.5425 54.692 62.3494 55.5739 62.3494C56.515 62.3609 57.4412 62.5853 58.2833 63.0057L57.6495 64.5994C57.3107 64.4364 56.9634 64.2918 56.6089 64.1663C56.276 64.0475 55.9255 63.986 55.572 63.9844ZM69.2098 67.0988C69.2098 68.6307 68.8302 69.8079 68.0708 70.6304C67.3114 71.4529 66.223 71.8641 64.8055 71.8641C63.3873 71.8641 62.2989 71.4529 61.5402 70.6304C60.7814 69.8079 60.4017 68.6266 60.4011 67.0866C60.4011 65.546 60.7817 64.3697 61.543 63.5579C62.3042 62.746 63.3961 62.3397 64.8186 62.3391C66.2398 62.3391 67.3273 62.7485 68.0811 63.5672C68.8348 64.386 69.2111 65.5632 69.2098 67.0988ZM62.4598 67.0988C62.4598 68.1325 62.6564 68.9107 63.0495 69.4332C63.4427 69.9557 64.028 70.2175 64.8055 70.2188C66.368 70.2188 67.1492 69.1779 67.1492 67.096C67.1492 65.0141 66.3711 63.9735 64.8148 63.9741C64.0342 63.9741 63.4455 64.2366 63.0486 64.7616C62.6517 65.2866 62.453 66.0679 62.4523 67.1054L62.4598 67.0988ZM76.0817 71.7375L73.8542 64.4794H73.797C73.8764 65.9563 73.9164 66.9416 73.917 67.4354V71.7385H72.1648V62.4854H74.8348L77.0248 69.5625H77.0623L79.3855 62.4872H82.0555V71.7375H80.2273V67.3585C80.2273 67.1522 80.2305 66.9138 80.2367 66.6432C80.243 66.3725 80.272 65.6538 80.3239 64.4869H80.2667L77.8808 71.7375H76.0817Z" fill="#1F3286"/>
</g>
<defs>
<clipPath id="clip0_2_15090">
<rect width="150" height="109.5" fill="white"/>
</clipPath>
</defs>
</svg>
