<svg width="150" height="110" viewBox="0 0 150 110" fill="none" xmlns="http://www.w3.org/2000/svg">
<g clip-path="url(#clip0_2_15139)">
<path d="M20.0361 102.595V16.0809C20.036 15.2206 20.2054 14.3686 20.5346 13.5737C20.8638 12.7788 21.3463 12.0566 21.9547 11.4482C22.563 10.8398 23.2853 10.3573 24.0802 10.0281C24.8751 9.69891 25.727 9.52954 26.5874 9.52966H123.425C125.16 9.53289 126.823 10.2245 128.049 11.4528C129.275 12.681 129.964 14.3455 129.964 16.0809V102.595H20.0361Z" fill="white"/>
<path d="M19.7906 102.853L19.3378 85.0106L18.9703 66.8634C18.8231 54.6178 18.6271 42.4453 18.6028 30.1265V16.439C18.5802 15.5359 18.7002 14.6349 18.9581 13.769C19.3604 12.425 20.1081 11.2099 21.1267 10.2451C22.1453 9.28026 23.3992 8.59946 24.7631 8.27061C25.6129 8.09708 26.48 8.02314 27.3468 8.05029H75.0065L111.314 7.86279H122.665C123.549 7.82998 124.433 7.90395 125.299 8.08311C127.169 8.5146 128.828 9.58975 129.986 11.1206C130.562 11.8781 130.997 12.7325 131.272 13.6434C131.406 14.0963 131.504 14.5589 131.566 15.0272C131.62 15.4939 131.644 15.9636 131.639 16.4334V29.9915L131.492 102.595V104.114H129.961C111.471 104.114 92.9184 104.114 74.489 103.845C65.2678 103.734 56.0475 103.657 46.9368 103.453C37.8262 103.249 28.7428 103.086 19.7906 102.853ZM20.2931 102.351C29.6681 102.106 38.9381 101.906 48.1031 101.751C57.3112 101.542 66.4706 101.469 75.5081 101.359C93.7171 101.138 111.804 101.151 129.964 101.09L128.458 102.595L128.323 29.9915V16.4362C128.345 16.1304 128.345 15.8234 128.323 15.5175C128.291 15.2394 128.234 14.9648 128.152 14.6972C127.979 14.1635 127.718 13.6625 127.38 13.215C126.706 12.2966 125.723 11.6529 124.612 11.4028C123.234 11.2521 121.847 11.2029 120.461 11.2556H111.314L75.0065 11.1094L38.6981 11.0353H27.3468C26.7068 10.9976 26.0646 11.043 25.4362 11.1703C24.5801 11.3722 23.7913 11.7933 23.1471 12.3922C22.503 12.9912 22.0257 13.7474 21.7621 14.5865C21.5725 15.1841 21.4857 15.8096 21.5053 16.4362V29.9306C21.5053 41.8697 21.285 53.8369 21.1378 65.8462L20.6971 83.9456L20.2931 102.351Z" fill="#C3C4C7"/>
<path d="M135.425 26.7469C125.36 27.7387 115.281 27.6647 105.215 27.7266L75.0064 27.8859L44.7842 27.7266C34.7183 27.7266 24.6402 27.7266 14.5742 26.7469V26.1347C24.6402 25.1428 34.7183 25.2159 44.7842 25.155L75.0064 25.0078L105.194 25.155C115.26 25.2159 125.338 25.155 135.404 26.1347L135.425 26.7469Z" fill="#1F3286"/>
<path d="M51.375 53.6138H118.726V72.5944H51.375V53.6138ZM51.375 77.4919H118.726V92.7253H51.375V77.4919Z" fill="#DCDCDE"/>
<path d="M115.049 59.1234V68.9203H106.599L115.049 59.1234Z" fill="#2A46CE"/>
<path d="M58.9394 40.7812H118.658V48.8625H51.3109V48.3478C51.3125 47.3523 51.5102 46.3668 51.8928 45.4477C52.2753 44.5286 52.8351 43.6938 53.5403 42.9911C54.2454 42.2883 55.0821 41.7314 56.0026 41.3521C56.923 40.9727 57.9092 40.7785 58.9047 40.7803L58.9394 40.7812ZM128.519 33.4087H20.7578V27.2812H128.519V33.4087Z" fill="#C3C4C7"/>
<path d="M40.3506 101.983H20.7568V33.4078H40.3506V101.983Z" fill="#2A46CE"/>
</g>
<defs>
<clipPath id="clip0_2_15139">
<rect width="150" height="109.5" fill="white"/>
</clipPath>
</defs>
</svg>
