<svg width="150" height="110" viewBox="0 0 150 110" fill="none" xmlns="http://www.w3.org/2000/svg">
<g clip-path="url(#clip0_2_15161)">
<path d="M19.1045 87.6528C24.0995 70.5978 41.6617 50.7247 55.1711 51.3997C70.7964 52.1816 77.462 61.5678 89.4601 60.1719C110.32 57.7728 106.508 11.12 130.914 11.12V106.077H19.1045V87.6528Z" fill="#DCDCDE"/>
<path d="M59.7751 68.7668C60.2931 69.8367 60.6211 70.9886 60.7445 72.1709C60.8776 73.3081 60.8682 74.4462 60.932 75.575C61.0257 77.8503 61.0913 80.1162 61.0913 82.3915C61.0913 84.6668 61.0295 86.9243 60.932 89.1997C60.8691 90.3368 60.8785 91.4656 60.7445 92.6037C60.6264 93.787 60.2981 94.9398 59.7751 96.0078H59.0729C58.5517 94.9385 58.2208 93.7866 58.0951 92.6037C57.9713 91.4656 57.9713 90.3368 57.9179 89.1997C57.8241 86.9243 57.7576 84.6575 57.7491 82.3915C57.7407 80.1256 57.8204 77.8503 57.9179 75.575C57.9798 74.45 57.9713 73.3081 58.0951 72.1709C58.2215 70.9882 58.5524 69.8364 59.0729 68.7668H59.7751ZM96.571 75.0143C97.0865 75.8208 97.4173 76.7313 97.5395 77.6806C97.6726 78.5693 97.6642 79.4618 97.727 80.3478C97.8207 82.129 97.8873 83.84 97.8873 85.5912C97.8873 87.3425 97.8245 89.0928 97.727 90.8412C97.6651 91.73 97.6735 92.6225 97.5498 93.5075C97.4212 94.4567 97.0876 95.3665 96.572 96.1737H95.8698C95.3542 95.3665 95.0205 94.4567 94.892 93.5075C94.7673 92.6187 94.7767 91.7262 94.7138 90.8412C94.6201 89.06 94.5545 87.3397 94.5545 85.5912C94.5545 83.8428 94.6163 82.0897 94.7138 80.3478C94.7767 79.4581 94.7673 78.5665 94.892 77.6806C95.0215 76.7317 95.3551 75.8221 95.8698 75.0143H96.571Z" fill="#F6F7F7"/>
<path d="M130.896 105.864C126.238 106.433 121.572 106.691 116.915 106.833C112.257 106.976 107.591 106.958 102.935 107.01C93.6111 107.127 84.2699 107.144 74.9643 107.18C65.6586 107.216 56.2996 107.127 46.9949 107.01C42.3374 106.958 37.6714 106.958 33.0139 106.833C28.3564 106.708 23.6905 106.438 19.0311 105.864V105.114C23.6877 104.545 28.3452 104.287 33.0111 104.145C37.6771 104.004 42.3346 104.021 46.9921 103.967C56.3146 103.852 65.6558 103.834 74.9614 103.798C84.2671 103.763 93.6261 103.852 102.932 103.967C107.588 104.021 112.246 104.021 116.912 104.145C121.578 104.27 126.235 104.545 130.893 105.114L130.896 105.864ZM18.7705 87.5553C20.3117 81.0322 23.0841 74.8633 26.9389 69.38C30.7061 63.7689 35.4381 58.87 40.9152 54.9106C43.7332 52.8688 46.8894 51.3404 50.2386 50.3956C51.9773 49.94 53.7767 49.76 55.5711 49.8622C57.2825 49.9439 58.9867 50.1368 60.673 50.4397C64.0289 51.0754 67.3066 52.0708 70.4493 53.4088C73.5599 54.6791 76.5111 56.1369 79.4793 57.186C82.3413 58.2972 85.4083 58.7822 88.4736 58.6081C91.4245 58.4593 94.2176 57.2307 96.3215 55.1563C98.5003 52.9436 100.302 50.3888 101.654 47.5935C103.139 44.7669 104.401 41.7631 105.627 38.705C106.853 35.6469 108.045 32.5906 109.351 29.5335C110.637 26.4278 112.173 23.4317 113.945 20.5747C115.754 17.6114 118.179 15.0713 121.055 13.1263C123.981 11.2614 127.443 10.4206 130.898 10.7356V11.4378C127.733 11.6687 124.707 12.828 122.197 14.7706C120.969 15.7291 119.862 16.8334 118.9 18.0594C117.904 19.2843 117.013 20.5922 116.24 21.9688C113.022 27.47 110.862 33.6735 108.458 39.815C107.232 42.8994 106.006 46.0194 104.477 49.041C102.988 52.1871 100.971 55.0548 98.5133 57.5197C97.1956 58.7866 95.6744 59.8232 94.0133 60.5863C92.3309 61.3373 90.5266 61.7782 88.6874 61.8875C85.1595 62.1235 81.6227 61.586 78.3243 60.3125C75.0974 59.1481 72.1471 57.6463 69.1696 56.4285C66.2661 55.1574 63.2361 54.198 60.1302 53.5663C58.5826 53.2627 57.0167 53.061 55.4427 52.9625C53.9501 52.8558 52.45 52.9877 50.9989 53.3535C47.9917 54.1737 45.1518 55.5153 42.6083 57.3172C39.9767 59.1483 37.5301 61.2319 35.3033 63.5384C33.0526 65.835 30.9562 68.2778 29.0277 70.8509C25.0825 76.015 21.869 81.699 19.4783 87.7419L18.7705 87.5553Z" fill="#1F3286"/>
<path d="M114.937 20.8795C114.908 19.9728 115.11 19.0737 115.524 18.2666C115.964 17.525 116.461 16.8194 117.012 16.1563C118.083 14.7594 119.359 13.5335 120.799 12.5207C122.278 11.5067 123.93 10.7718 125.674 10.3523C126.545 10.1255 127.44 9.99754 128.34 9.9707C129.266 9.97538 130.171 10.25 130.943 10.761V11.4688C130.592 11.7476 130.207 11.9807 129.798 12.1626C129.447 12.3401 129.081 12.4857 128.704 12.5976C128.34 12.7129 127.985 12.8291 127.628 12.9088C127.274 13.0038 126.924 13.1164 126.58 13.2463C125.214 13.7572 123.918 14.4382 122.722 15.2732C121.497 16.1248 120.352 17.0856 119.3 18.1438L118.51 18.9876C118.263 19.2836 117.998 19.5653 117.719 19.8313C117.434 20.1211 117.12 20.3803 116.781 20.6048C116.413 20.8701 116.013 21.088 115.591 21.2535L114.937 20.8795Z" fill="#1F3286"/>
<path d="M58.122 56.1998C60.4976 56.1998 62.4233 54.1145 62.4233 51.5423C62.4233 48.97 60.4976 46.8848 58.122 46.8848C55.7465 46.8848 53.8208 48.97 53.8208 51.5423C53.8208 54.1145 55.7465 56.1998 58.122 56.1998Z" fill="#546FF3"/>
<path d="M95.6196 62.4304C97.9951 62.4304 99.9209 60.3451 99.9209 57.7729C99.9209 55.2006 97.9951 53.1154 95.6196 53.1154C93.2441 53.1154 91.3184 55.2006 91.3184 57.7729C91.3184 60.3451 93.2441 62.4304 95.6196 62.4304Z" fill="#546FF3"/>
<path d="M130.895 15.7775C133.271 15.7775 135.197 13.6923 135.197 11.12C135.197 8.54776 133.271 6.46252 130.895 6.46252C128.52 6.46252 126.594 8.54776 126.594 11.12C126.594 13.6923 128.52 15.7775 130.895 15.7775Z" fill="#546FF3"/>
<path d="M19.1045 92.3104C21.48 92.3104 23.4057 90.2251 23.4057 87.6529C23.4057 85.0806 21.48 82.9954 19.1045 82.9954C16.729 82.9954 14.8032 85.0806 14.8032 87.6529C14.8032 90.2251 16.729 92.3104 19.1045 92.3104Z" fill="#546FF3"/>
</g>
<defs>
<clipPath id="clip0_2_15161">
<rect width="150" height="109.5" fill="white" transform="translate(0 0.5)"/>
</clipPath>
</defs>
</svg>