<svg width="150" height="110" viewBox="0 0 150 110" fill="none" xmlns="http://www.w3.org/2000/svg">
<g clip-path="url(#clip0_2_15152)">
<path d="M121.267 53.1604C121.233 77.3254 101.616 96.8872 77.4506 96.8535C75.3772 96.8504 73.3067 96.7 71.2546 96.4035C65.1009 95.5157 57.7771 102.348 33.6431 100.583C44.8218 88.9129 41.5518 77.8588 41.5518 77.8588C27.8784 57.9688 32.9165 30.7607 52.8065 17.0872C72.6965 3.41379 99.9046 8.45285 113.578 28.3438C118.597 35.6454 121.279 44.3 121.267 53.1604Z" fill="white"/>
<path d="M121.81 53.1603C121.816 57.9517 121.151 62.7204 119.836 67.3278C118.509 72.0067 116.45 76.4461 113.735 80.4809C112.367 82.5208 110.811 84.4274 109.086 86.1753C107.372 87.9568 105.488 89.5663 103.461 90.9809C99.4004 93.8355 94.8909 95.9903 90.1192 97.3559C85.3479 98.7422 80.3835 99.3456 75.4192 99.1428C74.176 99.1428 72.9432 98.9965 71.7104 98.8503L70.8329 98.735C70.624 98.7237 70.4146 98.7237 70.2057 98.735C69.7441 98.7357 69.2831 98.7708 68.8267 98.84C66.8579 99.1531 64.5751 99.8844 62.2764 100.527C57.5931 101.858 52.7875 102.712 47.9326 103.077C43.0988 103.441 38.2446 103.448 33.4098 103.097L28.186 102.753L31.8329 98.9094C34.5463 96.1626 36.679 92.8978 38.1038 89.3094C38.7706 87.559 39.2061 85.7292 39.3995 83.8662C39.4952 82.9502 39.5231 82.0283 39.4829 81.1081C39.4829 80.6487 39.4829 80.1987 39.3685 79.76L39.2635 79.1122C39.2468 78.9418 39.212 78.7736 39.1595 78.6106L39.4932 79.3212C25.0445 58.3756 30.3113 29.6825 51.257 15.2337C55.1333 12.5591 59.397 10.4948 63.8992 9.1128C70.8075 7.03721 78.1034 6.5937 85.2123 7.81717C92.3065 9.02913 99.0044 11.9319 104.739 16.28C110.373 20.645 114.811 26.363 117.642 32.9028C120.416 39.2951 121.835 46.1924 121.81 53.1603ZM120.766 53.1603C120.745 46.4246 118.943 39.8142 115.542 33.9997C110.477 25.5117 102.85 18.8486 93.7585 14.9684C86.2675 11.8435 78.0227 10.9915 70.051 12.5187C62.0792 14.0459 54.733 17.8846 48.9273 23.5569C46.6206 25.7959 44.5868 28.2998 42.8682 31.0166C41.1308 33.7206 39.7274 36.6252 38.6888 39.6669C36.6069 45.7651 35.9633 52.2621 36.8082 58.6503C37.6452 65.0447 39.9791 71.1513 43.6201 76.4741L43.861 76.8191L43.9548 77.1847C44.0495 77.5285 44.1262 77.8772 44.1845 78.229C44.2473 78.5319 44.2885 78.8356 44.3307 79.1281C44.4038 79.7337 44.4564 80.3187 44.477 80.9037C44.5277 82.0715 44.4891 83.2415 44.3617 84.4034C44.1174 86.6949 43.5757 88.9448 42.7501 91.0962C41.09 95.3014 38.6035 99.131 35.4376 102.358L33.8185 98.18C38.397 98.5437 42.9961 98.5681 47.5782 98.2531C52.1314 97.9232 56.6398 97.1355 61.0351 95.9019C63.3805 95.1873 65.7623 94.598 68.1704 94.1366C68.8619 94.0312 69.5607 93.9823 70.2601 93.9903C70.641 93.9975 71.0213 94.0253 71.3992 94.0737L72.2767 94.1994C73.3735 94.3456 74.491 94.4497 75.5992 94.5022C80.0798 94.7255 84.5672 94.2244 88.8882 93.0181C97.5719 90.487 105.312 85.4411 111.131 78.5169C114.111 75.0162 116.487 71.0441 118.163 66.7634C119.006 64.6069 119.643 62.375 120.064 60.0978C120.468 57.8067 120.684 55.4866 120.712 53.1603H120.766Z" fill="#3858E9"/>
<path d="M63.3392 56.7165C63.6859 54.5807 62.2355 52.5683 60.0997 52.2216C57.9639 51.8749 55.9515 53.3253 55.6048 55.461C55.2581 57.5968 56.7085 59.6093 58.8442 59.956C60.98 60.3027 62.9925 58.8523 63.3392 56.7165Z" fill="#2A46CE"/>
<path d="M79.4871 60.0041C81.6509 60.0041 83.405 58.25 83.405 56.0863C83.405 53.9225 81.6509 52.1685 79.4871 52.1685C77.3234 52.1685 75.5693 53.9225 75.5693 56.0863C75.5693 58.25 77.3234 60.0041 79.4871 60.0041Z" fill="#2A46CE"/>
<path d="M99.494 60.0041C101.658 60.0041 103.412 58.25 103.412 56.0863C103.412 53.9225 101.658 52.1685 99.494 52.1685C97.3302 52.1685 95.5762 53.9225 95.5762 56.0863C95.5762 58.25 97.3302 60.0041 99.494 60.0041Z" fill="#2A46CE"/>
</g>
<defs>
<clipPath id="clip0_2_15152">
<rect width="150" height="109.5" fill="white" transform="translate(0 0.5)"/>
</clipPath>
</defs>
</svg>
