<svg width="150" height="106" viewBox="0 0 150 106" fill="none" xmlns="http://www.w3.org/2000/svg">
<path fill-rule="evenodd" clip-rule="evenodd" d="M134.706 97.2668H13.9707V10.2086C13.9707 6.77569 16.7538 3.99341 20.1867 3.99341H134.706V97.2668Z" fill="#ADBAF3"/>
<path fill-rule="evenodd" clip-rule="evenodd" d="M24.603 87.1285V28.2059H125.054V87.1285H30.0339" fill="#DCDCDE"/>
<path fill-rule="evenodd" clip-rule="evenodd" d="M24.603 27.9094V14.1111H125.054V27.9094H30.0339" fill="#546FF3"/>
<path fill-rule="evenodd" clip-rule="evenodd" d="M117.399 42.4733V87.1288H87.25V37.5199H117.399" fill="white"/>
<path fill-rule="evenodd" clip-rule="evenodd" d="M74.9596 87.3231H32.5713V37.7142H81.8236V87.3231" fill="white"/>
<path fill-rule="evenodd" clip-rule="evenodd" d="M111.507 69.0833C106.475 69.0833 105.807 71.257 104.729 73.6758C103.871 75.6018 100.859 76.9604 97.5866 77.6135C94.2489 78.2795 93.1372 80.8741 93.1372 82.861H111.666L111.507 69.0833Z" fill="#ADBAF3"/>
<path fill-rule="evenodd" clip-rule="evenodd" d="M142.137 104.68H5.35388C2.97788 104.68 1.05273 102.754 1.05273 100.378V96.7101H147.474V99.3424C147.474 102.29 145.084 104.68 142.137 104.68Z" fill="#3858E9"/>
<path fill-rule="evenodd" clip-rule="evenodd" d="M83.9324 100.695H64.5935C62.7592 100.695 61.2729 99.2083 61.2729 97.374V96.7106H87.253V97.374C87.253 99.2083 85.7667 100.695 83.9324 100.695Z" fill="#1F3286"/>
<path fill-rule="evenodd" clip-rule="evenodd" d="M128.461 28.1237C119.553 28.866 110.641 28.8643 101.73 28.9543L74.9958 29.2182L48.2607 29.2508C39.349 29.2594 30.4381 29.3614 21.5221 28.7168L21.5195 28.2883C30.4278 27.5451 39.3395 27.5477 48.2504 27.4568L74.9847 27.1937L101.72 27.1602C110.632 27.1517 119.543 27.0523 128.458 27.6951L128.461 28.1237Z" fill="#1F3286"/>
<path fill-rule="evenodd" clip-rule="evenodd" d="M93.2793 57.5872H97.727V53.9949H93.2793V57.5872Z" fill="#ADBAF3"/>
<path fill-rule="evenodd" clip-rule="evenodd" d="M99.9805 56.1163H104.428V50.5663H99.9805V56.1163Z" fill="#ADBAF3"/>
<path fill-rule="evenodd" clip-rule="evenodd" d="M106.683 53.9949H111.13V45.6223H106.683V53.9949Z" fill="#ADBAF3"/>
<path fill-rule="evenodd" clip-rule="evenodd" d="M93.2793 61.1443H97.727V58.4443H93.2793V61.1443Z" fill="#2A46CE"/>
<path fill-rule="evenodd" clip-rule="evenodd" d="M99.9805 61.1444H104.428V56.9735H99.9805V61.1444Z" fill="#2A46CE"/>
<path fill-rule="evenodd" clip-rule="evenodd" d="M106.683 61.1443H111.13V54.8512H106.683V61.1443Z" fill="#2A46CE"/>
<path fill-rule="evenodd" clip-rule="evenodd" d="M37.7144 53.0785H77.1429V42.719H37.7144V53.0785Z" fill="#ADBAF3"/>
<g opacity="0.499888">
<mask id="mask0_2_15114" style="mask-type:luminance" maskUnits="userSpaceOnUse" x="37" y="57" width="41" height="27">
<g opacity="0.499888">
<path d="M37.7144 57.4286H77.1429V83.1429H37.7144V57.4286Z" fill="white"/>
</g>
</mask>
<g mask="url(#mask0_2_15114)">
<path fill-rule="evenodd" clip-rule="evenodd" d="M70.0977 83.1429H37.7144V57.4286H77.1429V75.4365C77.1429 79.6913 73.9882 83.1429 70.0977 83.1429Z" fill="#7B90FF"/>
</g>
</g>
</svg>
