<svg width="150" height="110" viewBox="0 0 150 110" fill="none" xmlns="http://www.w3.org/2000/svg">
<g clip-path="url(#clip0_2_15175)">
<path d="M53.9997 104.321C51.4685 104.573 48.9372 104.647 46.406 104.668C43.8734 104.71 41.3407 104.594 38.8226 104.321C38.6523 104.299 38.4959 104.216 38.3824 104.087C38.269 103.959 38.2064 103.793 38.2064 103.621C38.2064 103.45 38.269 103.284 38.3824 103.155C38.4959 103.027 38.6523 102.944 38.8226 102.922C41.3407 102.649 43.8734 102.533 46.406 102.575C48.9372 102.575 51.4685 102.669 53.9997 102.922C54.17 102.944 54.3264 103.027 54.4399 103.155C54.5533 103.284 54.6159 103.45 54.6159 103.621C54.6159 103.793 54.5533 103.959 54.4399 104.087C54.3264 104.216 54.17 104.299 53.9997 104.321ZM92.5554 13.4948C96.7619 13.3785 100.968 13.2735 105.176 13.2313H106.795C107.391 13.2368 107.984 13.3111 108.562 13.4526C109.705 13.7345 110.778 14.2448 111.718 14.9526C112.679 15.6639 113.486 16.562 114.092 17.5931C114.697 18.6241 115.088 19.7668 115.241 20.9526C115.326 22.0476 115.351 23.1465 115.314 24.2442V33.7129C115.251 37.9204 115.188 42.127 115.033 46.3335C115.027 46.5204 114.948 46.6974 114.812 46.8257C114.676 46.9541 114.495 47.0232 114.308 47.0179C114.131 47.0074 113.964 46.9316 113.84 46.8052C113.716 46.6787 113.643 46.5107 113.635 46.3335C113.478 42.127 113.415 37.9204 113.354 33.7129V21.2038C113.243 20.2923 112.95 19.4125 112.491 18.6173C112.032 17.8221 111.417 17.1279 110.683 16.5763C109.539 15.728 108.168 15.2385 106.745 15.1701H105.197C100.99 15.1701 96.7835 15.0342 92.576 14.9179C92.3901 14.9096 92.2147 14.8292 92.0871 14.6937C91.9595 14.5583 91.8897 14.3784 91.8926 14.1923C91.8939 14.0136 91.9632 13.8422 92.0862 13.7126C92.2093 13.5831 92.377 13.5052 92.5554 13.4948ZM38.8226 13.4948C41.7466 13.3682 44.6604 13.2632 47.5835 13.2632C50.5066 13.2632 53.4316 13.2107 56.3547 13.1788C59.2779 13.147 62.1926 13.1788 65.1157 13.1788C68.0388 13.1788 70.9638 13.3054 73.8766 13.4601C73.9733 13.453 74.0703 13.466 74.1618 13.4981C74.2532 13.5302 74.337 13.5809 74.408 13.6469C74.479 13.7128 74.5356 13.7927 74.5743 13.8816C74.613 13.9704 74.633 14.0663 74.633 14.1632C74.633 14.2601 74.613 14.356 74.5743 14.4448C74.5356 14.5337 74.479 14.6136 74.408 14.6796C74.337 14.7456 74.2532 14.7962 74.1618 14.8283C74.0703 14.8605 73.9733 14.8734 73.8766 14.8663C70.9638 15.0248 68.0397 15.0876 65.1157 15.1476C62.1916 15.2076 59.2685 15.2217 56.3547 15.2001C53.441 15.1785 50.5076 15.2001 47.5835 15.1167C44.6594 15.0332 41.7466 14.9901 38.8226 14.8635C38.645 14.8505 38.4788 14.7708 38.3576 14.6404C38.2363 14.51 38.1689 14.3385 38.1689 14.1604C38.1689 13.9823 38.2363 13.8108 38.3576 13.6804C38.4788 13.55 38.645 13.4703 38.8226 13.4573V13.4948Z" fill="#C3C4C7"/>
<path d="M38.1184 103.625C38.0021 99.3341 37.9075 95.0535 37.8662 90.7626C37.825 86.4716 37.7725 82.191 37.7725 77.9104C37.7725 73.6298 37.7725 69.3388 37.825 65.0582C37.8775 60.7776 37.9506 56.4866 38.1062 52.1957C38.1278 52.0255 38.2108 51.869 38.3396 51.7556C38.4683 51.6421 38.634 51.5796 38.8056 51.5796C38.9772 51.5796 39.1429 51.6421 39.2716 51.7556C39.4004 51.869 39.4833 52.0255 39.505 52.1957C39.6728 56.4866 39.7356 60.7673 39.7993 65.0582C39.8631 69.3491 39.8725 73.6298 39.8725 77.9104C39.8725 82.191 39.8725 86.4819 39.789 90.7626C39.7056 95.0432 39.6418 99.3341 39.5256 103.625C39.504 103.795 39.421 103.952 39.2922 104.065C39.1635 104.179 38.9978 104.241 38.8262 104.241C38.6546 104.241 38.4889 104.179 38.3602 104.065C38.2314 103.952 38.1485 103.795 38.1268 103.625H38.1184ZM86.634 34.6757C88.1593 34.5501 89.6837 34.476 91.209 34.4235C92.7343 34.371 94.2587 34.371 95.784 34.3391C97.3093 34.3073 98.8337 34.3391 100.359 34.3926C101.884 34.446 103.409 34.5182 104.934 34.6738C105.112 34.6868 105.278 34.7665 105.399 34.8969C105.52 35.0274 105.588 35.1989 105.588 35.3769C105.588 35.555 105.52 35.7265 105.399 35.8569C105.278 35.9874 105.112 36.0671 104.934 36.0801C103.409 36.2376 101.883 36.3004 100.359 36.3613C98.8346 36.4223 97.3084 36.4344 95.784 36.4138C94.2596 36.3932 92.7343 36.4138 91.209 36.3294C89.6837 36.2451 88.1593 36.2029 86.634 36.0773C86.4564 36.0643 86.2903 35.9846 86.169 35.8541C86.0478 35.7237 85.9804 35.5522 85.9804 35.3741C85.9804 35.196 86.0478 35.0246 86.169 34.8941C86.2903 34.7637 86.4564 34.684 86.634 34.671V34.6757ZM81.8378 45.6773C83.3631 45.5404 84.8884 45.4776 86.4128 45.4251C87.9371 45.3726 89.4634 45.4251 90.9878 45.3407C92.5121 45.2563 94.0384 45.3407 95.5628 45.3407C97.0872 45.3407 98.6134 45.4776 100.138 45.6351C100.324 45.6535 100.495 45.7451 100.613 45.8896C100.732 46.0341 100.788 46.2197 100.77 46.4057V46.4132C100.753 46.574 100.681 46.724 100.566 46.8374C100.451 46.9507 100.3 47.0202 100.139 47.0338C98.6143 47.1913 97.089 47.2551 95.5637 47.3282C94.0384 47.4013 92.514 47.4023 90.9887 47.3282C89.4634 47.2541 87.939 47.3282 86.4137 47.2344C84.8884 47.1407 83.364 47.1191 81.8387 46.9823C81.6552 46.9691 81.4845 46.8835 81.3641 46.7444C81.2436 46.6054 81.1834 46.4242 81.1965 46.2407V46.2248C81.23 46.0765 81.3105 45.9431 81.4261 45.8444C81.5417 45.7457 81.6861 45.6871 81.8378 45.6773ZM50.665 67.7844C52.5475 67.6579 54.43 67.5848 56.3134 67.5313C58.1968 67.4779 60.0784 67.4788 61.9609 67.4479C63.8434 67.4169 65.7259 67.4479 67.6084 67.4479C69.4909 67.4479 71.3734 67.5735 73.2559 67.7291C73.3468 67.7355 73.4356 67.7598 73.5172 67.8006C73.5987 67.8413 73.6714 67.8978 73.7311 67.9666C73.7909 68.0355 73.8364 68.1155 73.8652 68.202C73.8941 68.2884 73.9055 68.3798 73.899 68.4707V68.4857C73.8867 68.6519 73.8151 68.8082 73.6972 68.926C73.5793 69.0439 73.4231 69.1155 73.2568 69.1279C71.3743 69.2957 69.4918 69.3585 67.6093 69.4223C65.7268 69.486 63.8443 69.4954 61.9618 69.4223C60.0793 69.3491 58.1968 69.4223 56.3143 69.3285C54.4318 69.2348 52.5484 69.2123 50.6659 69.0763C50.4957 69.0547 50.3392 68.9717 50.2258 68.843C50.1124 68.7142 50.0498 68.5485 50.0498 68.3769C50.0498 68.2054 50.1124 68.0397 50.2258 67.9109C50.3392 67.7822 50.4957 67.6992 50.6659 67.6776L50.665 67.7844ZM46.9946 78.7813C48.5931 78.6444 50.1503 78.5713 51.7909 78.5188C53.4315 78.4663 54.9456 78.5188 56.5862 78.4344C58.2268 78.3501 59.7418 78.4344 61.3825 78.4344C63.0231 78.4344 64.5371 78.5601 66.1637 78.7288C66.256 78.7366 66.3458 78.7625 66.428 78.8051C66.5102 78.8476 66.5832 78.9059 66.6429 78.9767C66.7025 79.0475 66.7476 79.1294 66.7756 79.2176C66.8036 79.3059 66.8139 79.3988 66.8059 79.491V79.4966C66.7875 79.6594 66.7138 79.8109 66.5971 79.9257C66.4803 80.0406 66.3277 80.1118 66.1646 80.1276C64.5765 80.2851 63.01 80.3488 61.3834 80.4088C59.7568 80.4688 58.2278 80.4819 56.5871 80.4088C54.9465 80.3357 53.4325 80.4088 51.7918 80.3244C50.1512 80.2401 48.6362 80.1988 46.9956 80.0723C46.8254 80.0506 46.6689 79.9677 46.5555 79.8389C46.442 79.7102 46.3795 79.5445 46.3795 79.3729C46.3795 79.2013 46.442 79.0356 46.5555 78.9069C46.6689 78.7781 46.8254 78.6951 46.9956 78.6735L46.9946 78.7813ZM46.9946 89.7716C48.148 89.5419 49.3211 89.4257 50.4971 89.4248C51.6749 89.3838 52.8528 89.5005 53.9996 89.7716C54.1835 89.8181 54.3414 89.9356 54.4388 90.0983C54.5362 90.2611 54.565 90.4558 54.519 90.6398V90.6557C54.4871 90.7797 54.4226 90.8929 54.332 90.9834C54.2415 91.0739 54.1283 91.1385 54.0043 91.1704C52.8576 91.442 51.6796 91.5587 50.5018 91.5173C49.3258 91.5173 48.1526 91.4011 46.9993 91.1704C46.814 91.1302 46.6522 91.018 46.5495 90.8586C46.4469 90.6991 46.4117 90.5054 46.4518 90.3201C46.4811 90.187 46.5477 90.0651 46.6438 89.9686C46.74 89.8721 46.8617 89.8051 46.9946 89.7754V89.7716Z" fill="#C3C4C7"/>
<path d="M62.4233 90.5853H77.5687V110H62.4233V90.5853ZM85.2458 65.2812H100.39V110H85.2458V65.2812ZM108.058 54.875H123.202V110H108.058V54.875Z" fill="#546FF3"/>
<path d="M62.4233 99.3463H77.5687V110H62.4233V99.3463ZM85.2458 86.0104H100.39V110H85.2458V86.0104ZM108.058 76.671H123.202V110H108.058V76.671Z" fill="#1F3286"/>
<path d="M67.8083 36.1804C68.8601 34.2454 69.9748 32.3516 71.0998 30.4616C72.2248 28.5716 73.3929 26.707 74.5817 24.8366C75.7704 22.9663 76.9376 21.1241 78.1255 19.2735C79.3133 17.4229 80.5761 15.6173 81.8755 13.836C81.9884 13.6872 82.1551 13.5884 82.34 13.5609C82.5248 13.5334 82.7131 13.5793 82.8645 13.6888C83.0004 13.7883 83.0956 13.9337 83.1323 14.098C83.1691 14.2624 83.1449 14.4344 83.0642 14.5823C82.0123 16.5388 80.9604 18.4316 79.8036 20.3245C78.6467 22.2173 77.5217 24.0904 76.3348 25.941C75.1479 27.7916 73.9911 29.6638 72.7592 31.4835C71.5273 33.3032 70.3086 35.1398 69.0251 36.9416C68.9176 37.0934 68.7543 37.1963 68.5711 37.2279C68.3878 37.2596 68.1995 37.2173 68.0473 37.1104C67.8952 37.0161 67.7854 36.8667 67.7409 36.6934C67.6963 36.5201 67.7205 36.3363 67.8083 36.1804ZM49.0142 31.1423C50.6236 31.9993 52.1764 32.9585 53.6633 34.0138C55.1574 35.0428 56.5643 36.1929 57.8698 37.4526C57.9843 37.5725 58.0535 37.7285 58.0656 37.8939C58.0778 38.0592 58.0321 38.2237 57.9365 38.3591C57.8408 38.4945 57.7011 38.5925 57.5412 38.6363C57.3813 38.68 57.2111 38.6669 57.0598 38.5991C55.4621 37.7673 53.9368 36.8033 52.4998 35.7173C51.0241 34.663 49.6175 33.5154 48.2886 32.2813C48.1907 32.1664 48.1324 32.0231 48.122 31.8726C48.1117 31.722 48.15 31.5721 48.2312 31.4449C48.3124 31.3177 48.4324 31.2199 48.5733 31.1659C48.7142 31.112 48.8688 31.1047 49.0142 31.1451V31.1423ZM30.4095 43.0485C31.344 41.193 32.3767 39.3885 33.5033 37.6429C34.6027 35.8741 35.8331 34.19 37.1839 32.6048C37.2991 32.4839 37.453 32.4071 37.6189 32.3878C37.7848 32.3684 37.9523 32.4078 38.0922 32.4989C38.2321 32.5901 38.3358 32.7274 38.3851 32.887C38.4344 33.0465 38.4264 33.2183 38.3623 33.3726C37.4521 35.2538 36.397 37.0614 35.2067 38.7791C34.0815 40.5269 32.8553 42.2075 31.5345 43.8126C31.417 43.9147 31.2691 43.9749 31.1137 43.984C30.9583 43.9931 30.8044 43.9504 30.6758 43.8627C30.5473 43.7749 30.4514 43.6471 30.4032 43.4991C30.3551 43.3511 30.3573 43.1914 30.4095 43.0448V43.0485Z" fill="#3858E9"/>
<path d="M85.7191 11.6432C87.3454 11.6432 88.6638 10.3248 88.6638 8.69847C88.6638 7.07217 87.3454 5.75378 85.7191 5.75378C84.0928 5.75378 82.7744 7.07217 82.7744 8.69847C82.7744 10.3248 84.0928 11.6432 85.7191 11.6432Z" fill="#C3C4C7"/>
<path d="M85.7193 12.4429C88.1067 12.4429 90.0421 10.5075 90.0421 8.12005C90.0421 5.73263 88.1067 3.79724 85.7193 3.79724C83.3319 3.79724 81.3965 5.73263 81.3965 8.12005C81.3965 10.5075 83.3319 12.4429 85.7193 12.4429Z" fill="#2A46CE"/>
<path d="M64.0435 46.7187C66.4309 46.7187 68.3663 44.7834 68.3663 42.3959C68.3663 40.0085 66.4309 38.0731 64.0435 38.0731C61.6561 38.0731 59.7207 40.0085 59.7207 42.3959C59.7207 44.7834 61.6561 46.7187 64.0435 46.7187Z" fill="#2A46CE"/>
<path d="M42.7564 30.9847C45.1438 30.9847 47.0792 29.0493 47.0792 26.6619C47.0792 24.2745 45.1438 22.3391 42.7564 22.3391C40.369 22.3391 38.4336 24.2745 38.4336 26.6619C38.4336 29.0493 40.369 30.9847 42.7564 30.9847Z" fill="#2A46CE"/>
<path d="M27.3702 53.5026C29.7576 53.5026 31.693 51.5672 31.693 49.1797C31.693 46.7923 29.7576 44.8569 27.3702 44.8569C24.9828 44.8569 23.0474 46.7923 23.0474 49.1797C23.0474 51.5672 24.9828 53.5026 27.3702 53.5026Z" fill="#2A46CE"/>
</g>
<defs>
<clipPath id="clip0_2_15175">
<rect width="150" height="109.5" fill="white" transform="translate(0 0.5)"/>
</clipPath>
</defs>
</svg>
