<svg width="150" height="110" viewBox="0 0 150 110" fill="none" xmlns="http://www.w3.org/2000/svg">
<g clip-path="url(#clip0_2_15191)">
<path d="M99.0329 19.6962C99.322 19.6945 99.6067 19.6246 99.8638 19.4922C100.121 19.3598 100.343 19.1685 100.512 18.934C100.679 18.71 100.786 18.4475 100.824 18.1709C100.852 17.8787 100.852 17.5846 100.824 17.2925L100.5 13.4778C100.5 12.8422 100.431 12.2178 100.419 11.57C100.44 11.0095 100.408 10.4484 100.326 9.89372C100.256 9.70216 100.144 9.52885 99.9979 9.38679C99.8518 9.24472 99.6754 9.13758 99.4819 9.0734C99.3875 9.04334 99.291 9.02016 99.1932 9.00403H97.8291L82.5479 9.09778C82.3606 9.09025 82.1744 9.12839 82.0052 9.20891C81.8359 9.28943 81.6889 9.40992 81.5766 9.55997C81.4525 9.70076 81.3686 9.87241 81.3338 10.0568C81.3094 10.299 81.3094 10.5431 81.3338 10.7853V16.5415C81.2936 17.093 81.3131 17.6471 81.3919 18.1943C81.4519 18.3837 81.5552 18.5565 81.6935 18.699C81.8318 18.8415 82.0014 18.9499 82.1888 19.0156C82.2777 19.0553 82.3729 19.0788 82.4701 19.085H87.1285C88.5619 19.085 89.9954 19.085 91.441 19.2003C93.9957 19.3878 96.5504 19.6972 99.0929 19.6972L99.0329 19.6962ZM93.8888 20.3525C93.0788 20.4218 92.2585 20.4912 91.4513 20.54C90.0066 20.6215 88.5732 20.6337 87.1388 20.6562V24.3547H94.1701C93.9868 23.0293 93.8929 21.6932 93.8888 20.3553V20.3525Z" fill="white"/>
<path d="M101.888 10.0212C101.869 9.80161 101.826 9.58471 101.76 9.37434C101.62 8.96022 101.388 8.58303 101.082 8.27077C100.776 7.95851 100.403 7.7192 99.9919 7.57059C99.7873 7.49555 99.5735 7.44886 99.3563 7.43184C99.2491 7.41497 99.14 7.41497 99.0328 7.43184H97.875L82.5366 7.29309C82.0903 7.30561 81.6521 7.41556 81.2527 7.61524C80.8534 7.81491 80.5025 8.09949 80.2247 8.44903C79.9285 8.77983 79.7146 9.17588 79.6003 9.60497C79.5272 9.98564 79.5038 10.3742 79.531 10.7609V18.0209C79.5517 18.2454 79.6025 18.4661 79.6819 18.6772C79.8235 19.0975 80.0596 19.4797 80.3722 19.7944C80.6847 20.109 81.0654 20.3478 81.4847 20.4922C81.6954 20.5626 81.9123 20.6129 82.1325 20.6422C82.24 20.6543 82.3485 20.6543 82.456 20.6422H85.635V24.3415H86.9475V20.644C88.381 20.644 89.8144 20.644 91.26 20.5287C92.0691 20.5287 92.8894 20.4134 93.6975 20.3412C93.7669 21.6472 93.8485 22.9662 93.9638 24.364H94.5535C94.6575 23.2081 94.741 21.9828 94.7841 20.7453V20.2484C96.1482 20.1443 97.5244 20.0403 98.8885 20.0609C99.2528 20.0736 99.6154 20.0044 99.9495 19.8583C100.284 19.7123 100.581 19.4932 100.819 19.2172C101.052 18.9415 101.228 18.623 101.339 18.2797C101.418 17.9462 101.461 17.6051 101.466 17.2625L101.767 13.4365C101.767 12.8009 101.836 12.1531 101.836 11.5175V10.565C101.87 10.3857 101.887 10.2037 101.888 10.0212ZM91.4063 19.2687C89.9607 19.1881 88.5394 19.175 87.0938 19.1534H82.4213L82.14 19.084C81.9525 19.0182 81.7829 18.9098 81.6445 18.7673C81.506 18.6248 81.4026 18.4521 81.3422 18.2628C81.2651 17.6921 81.2459 17.1151 81.285 16.5406V10.7609C81.256 10.519 81.256 10.2744 81.285 10.0325C81.359 9.87024 81.4652 9.72478 81.5972 9.60497C81.7143 9.46055 81.8622 9.3441 82.0301 9.26414C82.198 9.18418 82.3816 9.14272 82.5675 9.14278L97.861 9.03872H99.1903C99.2936 9.0463 99.3951 9.0697 99.4913 9.10809C99.6813 9.1762 99.8541 9.28486 99.9979 9.42652C100.142 9.56818 100.253 9.73944 100.324 9.9284C100.417 10.4819 100.449 11.0442 100.418 11.6047C100.405 12.2416 100.432 12.8788 100.498 13.5125L100.823 17.2925C100.856 17.5843 100.856 17.8791 100.823 18.1709C100.789 18.4468 100.685 18.7095 100.522 18.934C100.35 19.1689 100.126 19.3602 99.867 19.4926C99.6081 19.625 99.3217 19.6947 99.031 19.6962C96.4875 19.6962 93.8869 19.384 91.4016 19.2115L91.4063 19.2687Z" fill="#3858E9"/>
<path d="M116.395 51.9941L115.528 34.955C115.472 33.2949 115.059 31.6664 114.317 30.1803C113.575 28.6942 112.521 27.3854 111.228 26.3431C109.716 25.0878 107.818 24.3901 105.852 24.3669H44.0899C42.8334 24.3614 41.5925 24.644 40.4623 25.193C39.3321 25.742 38.3429 26.5428 37.5705 27.5338C35.6556 29.8355 34.5507 32.7031 34.4261 35.6947L33.6283 52.6991L25.3521 85.401H124.915L116.395 51.9941ZM106.082 30.6547C106.316 30.6441 106.545 30.7214 106.725 30.8713C106.905 31.0212 107.022 31.2328 107.053 31.4647L107.758 46.0991C107.763 46.2538 107.734 46.4077 107.672 46.5496C107.61 46.6915 107.517 46.8178 107.4 46.9194C107.148 47.1506 106.817 47.2784 106.475 47.2775H63.5795V46.7188L63.2814 30.6547H106.082ZM43.188 45.5441L43.9052 30.6547H56.3664C56.6014 30.6385 56.8336 30.7137 57.0144 30.8647C57.1952 31.0156 57.3107 31.2306 57.3367 31.4647L56.9786 46.0991C56.9827 46.2527 56.9538 46.4053 56.894 46.5468C56.8342 46.6883 56.7448 46.8153 56.6317 46.9194C56.3736 47.1495 56.04 47.2769 55.6942 47.2775H43.188V45.5441ZM52.3314 79.2744H47.2108V74.4772C47.2108 74.3272 47.3983 74.1885 47.627 74.1885H52.3314V79.2744ZM52.3314 71.1828H47.2108V66.3857C47.2108 66.2357 47.3983 66.0969 47.627 66.0969H52.3314V71.1828ZM52.3314 63.0913H47.2108V58.2941C47.2108 58.1441 47.3983 58.0128 47.627 58.0128H52.3314V63.0913ZM62.4461 79.2744H57.3255V74.4772C57.3255 74.3272 57.5224 74.1885 57.7417 74.1885H62.4461V79.2744ZM62.4461 71.1828H57.3255V66.3857C57.3255 66.2357 57.5224 66.0969 57.7417 66.0969H62.4461V71.1828ZM62.4461 63.0913H57.3255V58.2941C57.3255 58.1441 57.5224 58.0128 57.7417 58.0128H62.4461V63.0913ZM72.5711 79.2744H67.4514V74.4772C67.4514 74.3272 67.6389 74.1885 67.8677 74.1885H72.573L72.5711 79.2744ZM72.5711 71.1828H67.4514V66.3857C67.4514 66.2357 67.6389 66.0969 67.8677 66.0969H72.573L72.5711 71.1828ZM72.5711 63.0913H67.4514V58.2941C67.4514 58.1441 67.6389 58.0128 67.8677 58.0128H72.573L72.5711 63.0913ZM82.6961 79.2744H77.5783V74.4772C77.5783 74.3272 77.7658 74.1885 77.9946 74.1885H82.6989L82.6961 79.2744ZM82.6961 71.1828H77.5783V66.3857C77.5783 66.2357 77.7658 66.0969 77.9946 66.0969H82.6989L82.6961 71.1828ZM82.6961 63.0913H77.5783V58.2941C77.5783 58.1441 77.7658 58.0128 77.9946 58.0128H82.6989L82.6961 63.0913ZM92.8371 79.2744H87.7155V74.4772C87.7155 74.3272 87.903 74.1885 88.1317 74.1885H92.8371V79.2744ZM92.8371 71.1828H87.7155V66.3857C87.7155 66.2357 87.903 66.0969 88.1317 66.0969H92.8371V71.1828ZM92.8371 63.0913H87.7155V58.2941C87.7155 58.1441 87.903 58.0128 88.1317 58.0128H92.8371V63.0913ZM102.951 79.2744H97.8302V74.4772C97.8302 74.3272 98.027 74.1885 98.2464 74.1885H102.951V79.2744ZM102.951 71.1828H97.8302V66.3857C97.8302 66.2357 98.027 66.0969 98.2464 66.0969H102.951V71.1828ZM102.951 63.0913H97.8302V58.2941C97.8302 58.1441 98.027 58.0128 98.2464 58.0128H102.951V63.0913ZM107.76 53.0113C102.392 53.6672 96.9841 53.9416 91.5771 53.8325C86.2014 53.901 80.8258 53.9263 75.393 53.9591C69.9602 53.9919 64.6427 53.9591 59.2099 53.8325C53.8046 53.9301 48.399 53.6557 43.0314 53.0113V52.5032C48.4 51.8524 53.8076 51.5779 59.2146 51.6819C64.5892 51.6125 69.9649 51.5882 75.3977 51.5544C80.8305 51.5207 86.1602 51.5544 91.5817 51.6819C96.9886 51.5841 102.396 51.8585 107.765 52.5032L107.76 53.0113Z" fill="#DCDCDE"/>
<path d="M124.903 85.4009H23.3721V109.977H27.1877L75.3911 109.827C92.4761 109.896 109.55 109.907 126.624 110V85.4009H124.903ZM93.2065 100.209C93.2065 101.284 93.1127 102.359 93.0564 103.434C93.0443 103.491 93.013 103.542 92.9678 103.578C92.9225 103.615 92.8662 103.635 92.808 103.635C92.7499 103.635 92.6935 103.615 92.6483 103.578C92.603 103.542 92.5717 103.491 92.5596 103.434C92.5596 102.359 92.4555 101.284 92.4086 100.209C92.3618 99.1334 92.4086 98.3824 92.3149 97.4693C89.5174 97.5387 86.7086 97.5846 83.9224 97.5846L75.0218 97.654L66.1436 97.5846C63.3227 97.5846 60.5027 97.504 57.6939 97.4112C57.6939 98.3487 57.6124 99.2609 57.543 100.186C57.4736 101.111 57.4277 101.77 57.3696 102.498C57.3688 102.515 57.3645 102.532 57.357 102.547C57.3494 102.562 57.3388 102.576 57.3257 102.586C57.3126 102.597 57.2975 102.605 57.2811 102.61C57.2648 102.615 57.2476 102.616 57.2308 102.613C57.2023 102.61 57.1759 102.597 57.1567 102.576C57.1375 102.554 57.1268 102.527 57.1268 102.498C57.0583 101.724 57.0002 100.926 56.9393 100.186C56.8821 99.1109 56.8239 98.0356 56.778 96.9378C56.7764 96.8801 56.7861 96.8228 56.8067 96.7689C56.8273 96.715 56.8582 96.6658 56.8978 96.6239C56.9375 96.582 56.9849 96.5484 57.0376 96.5248C57.0902 96.5013 57.1469 96.4884 57.2046 96.4868C60.1755 96.3715 63.1343 96.2899 66.1052 96.2899L75.0002 96.2187L83.9008 96.2881C86.8605 96.2881 89.8314 96.3574 92.7902 96.4268C92.9201 96.4437 93.0395 96.5068 93.1266 96.6046C93.2138 96.7024 93.2627 96.8284 93.2646 96.9593C93.2871 98.0356 93.2524 99.1249 93.2065 100.209Z" fill="#546FF3"/>
<path d="M63.5797 47.2662H106.407C106.749 47.2643 107.078 47.1369 107.332 46.9081C107.451 46.8081 107.545 46.6819 107.607 46.5395C107.67 46.397 107.698 46.242 107.69 46.0868L107.042 31.4524C107.013 31.2196 106.897 31.0065 106.717 30.8563C106.537 30.706 106.306 30.6299 106.072 30.6434H63.3022L63.6022 45.544L63.5797 47.2662Z" fill="#2A46CE"/>
<path d="M113.967 52.6644C107.541 53.4031 101.073 53.7163 94.6051 53.6019C88.1429 53.6956 81.6929 53.7172 75.2429 53.7406C68.7929 53.7641 62.3307 53.7406 55.8807 53.6019C49.4131 53.7167 42.9449 53.4036 36.5186 52.6644V52.0869C42.9449 51.3477 49.4131 51.0345 55.8807 51.1494C62.3307 51.0556 68.7807 51.0341 75.2429 51.0106C81.7051 50.9872 88.1429 51.0106 94.6051 51.1494C101.073 51.0345 107.541 51.3477 113.967 52.0869V52.6644Z" fill="#3858E9"/>
</g>
<defs>
<clipPath id="clip0_2_15191">
<rect width="150" height="109.5" fill="white" transform="translate(0 0.5)"/>
</clipPath>
</defs>
</svg>
