<svg width="150" height="110" viewBox="0 0 150 110" fill="none" xmlns="http://www.w3.org/2000/svg">
<g clip-path="url(#clip0_2_15204)">
<path d="M19.438 105.047V16.4376C19.4376 15.5567 19.6108 14.6844 19.9478 13.8705C20.2847 13.0567 20.7787 12.3172 21.4016 11.6943C22.0244 11.0714 22.7639 10.5774 23.5778 10.2405C24.3917 9.90357 25.264 9.73034 26.1449 9.73071H125.317C126.198 9.73034 127.071 9.90356 127.885 10.2405C128.698 10.5774 129.438 11.0714 130.061 11.6942C130.684 12.3171 131.178 13.0566 131.515 13.8705C131.852 14.6844 132.025 15.5567 132.025 16.4376V105.047H19.438Z" fill="#DCDCDE"/>
<path d="M19.438 27.3003V16.1947C19.438 11.7969 22.438 8.24097 26.1449 8.24097H125.317C129.023 8.24097 132.025 11.8082 132.025 16.1947V27.3003H19.438Z" fill="#546FF3"/>
<path d="M133.849 27.3125C131.424 27.5319 129 27.6706 126.588 27.7859L122.951 27.9247L121.139 27.9819L119.327 28.0278C116.903 28.0747 114.478 28.0972 112.066 28.1094L104.805 28.1553L97.5432 28.2012L93.9075 28.2247L90.271 28.2359L75.7397 28.2706L61.2085 28.2359L57.5719 28.2247L53.9353 28.2012L46.6697 28.1562L39.4088 28.1103C36.9844 28.0981 34.56 28.0756 32.1479 28.0287L30.3357 27.9828L28.5235 27.9256L24.8869 27.7812C22.4625 27.6659 20.0382 27.5272 17.626 27.3078V26.7997C20.0504 26.5803 22.4738 26.4425 24.8869 26.3262L28.5235 26.1884L30.3357 26.1303L32.1479 26.0844C34.5722 26.0381 36.9925 26.0112 39.4088 26.0037L46.6697 25.9569L53.9307 25.9109L57.5672 25.8884L61.2038 25.8762L75.735 25.8416L90.2663 25.8762L93.9028 25.8884L97.5385 25.9109L104.8 25.9569L112.061 26.0037C114.485 26.015 116.905 26.0419 119.322 26.0844L121.134 26.1303L122.947 26.1884L126.583 26.3262C129.008 26.4425 131.432 26.5803 133.844 26.7997L133.849 27.3125Z" fill="#1F3286"/>
<path d="M122.109 94.5078H88.4814V37.9062H122.109" fill="white"/>
<path d="M109.318 61.7123H96.6431V49.9148C96.6433 48.4759 97.215 47.096 98.2323 46.0784C99.2497 45.0609 100.629 44.489 102.068 44.4885H114.963V56.0788C114.96 57.5741 114.364 59.0073 113.306 60.0635C112.248 61.1198 110.813 61.7128 109.318 61.7123ZM114.721 89.5326H96.6431V68.7651H114.952V89.2907C114.953 89.3218 114.947 89.3528 114.936 89.3818C114.925 89.4109 114.908 89.4375 114.887 89.46C114.865 89.4825 114.84 89.5005 114.811 89.513C114.783 89.5254 114.752 89.5321 114.721 89.5326Z" fill="#2A46CE"/>
<path d="M76.7646 94.9466H28.0381V54.6248H81.7053V94.9466" fill="white"/>
<path d="M76.7646 47.525H28.0381V43.8537C28.038 43.0744 28.1914 42.3027 28.4896 41.5827C28.7878 40.8627 29.2249 40.2086 29.776 39.6575C30.3271 39.1065 30.9814 38.6695 31.7014 38.3714C32.4214 38.0733 33.1932 37.92 33.9725 37.9203H81.7053V47.525" fill="#1F3286"/>
<path d="M64.0545 83.4491C64.0545 83.4491 63.0617 80.7594 60.4302 80.286C59.0792 80.0441 57.9139 80.4013 57.0936 80.7941C56.9119 80.886 56.753 81.0174 56.6284 81.1785C56.5039 81.3397 56.4169 81.5266 56.3738 81.7257C56.3307 81.9247 56.3325 82.1309 56.3792 82.3291C56.4259 82.5274 56.5162 82.7127 56.6436 82.8716C57.2324 83.5878 58.167 84.396 59.5761 84.6528C60.3649 84.8005 61.1767 84.7693 61.9518 84.5614C62.7269 84.3536 63.4455 83.9744 64.0545 83.4519V83.4491ZM71.6849 85.7582C71.8551 85.6425 71.9972 85.49 72.1003 85.3119C72.2035 85.1338 72.2652 84.9347 72.2808 84.7294C72.2963 84.5242 72.2654 84.3181 72.1904 84.1264C72.1153 83.9348 71.9979 83.7626 71.847 83.6225C71.1542 82.9757 70.0658 82.2716 68.6492 82.2828C65.9708 82.295 64.4061 84.4063 64.4061 84.4063C64.4061 84.4063 65.8377 86.7378 68.5958 86.7378C69.7029 86.7343 70.7825 86.3921 71.6895 85.7572L71.6849 85.7582ZM72.793 79.2238C72.9722 79.1214 73.1262 78.98 73.2433 78.81C73.3605 78.64 73.4378 78.4459 73.4697 78.2419C73.5016 78.0379 73.4871 77.8294 73.4274 77.6318C73.3677 77.4342 73.2643 77.2525 73.1249 77.1003C72.478 76.3963 71.4617 75.6107 70.0536 75.4953C67.3874 75.276 65.6474 77.2616 65.6474 77.2616C65.6474 77.2616 66.883 79.7094 69.642 79.9288C70.7402 80.0287 71.8421 79.7822 72.793 79.2238ZM75.4602 73.5219C75.6587 73.4648 75.8419 73.3638 75.9961 73.2265C76.1504 73.0891 76.2719 72.9189 76.3516 72.7283C76.4314 72.5377 76.4673 72.3317 76.4568 72.1254C76.4462 71.9191 76.3895 71.7177 76.2908 71.5363C75.8295 70.6925 75.0327 69.7007 73.6827 69.2507C71.143 68.4069 68.9839 69.92 68.9839 69.92C68.9839 69.92 69.6074 72.5863 72.2389 73.4525C73.2785 73.8144 74.4059 73.8387 75.4602 73.5219ZM65.5442 77.0535C65.5442 77.0535 65.5095 74.1875 63.1874 72.8516C62.1858 72.2864 61.0269 72.0642 59.8874 72.2188C59.6852 72.243 59.4911 72.3123 59.3194 72.4217C59.1477 72.531 59.0027 72.6776 58.8952 72.8505C58.7878 73.0234 58.7205 73.2182 58.6985 73.4206C58.6765 73.623 58.7002 73.8277 58.768 74.0197C59.1472 75.1398 59.9174 76.0857 60.9374 76.6841C61.6288 77.0858 62.4014 77.3274 63.1984 77.3913C63.9955 77.4553 64.7967 77.3398 65.5433 77.0535H65.5442ZM68.8255 70.7507C68.8255 70.7507 69.2174 67.911 67.1286 66.2375C66.3397 65.6183 65.3902 65.2377 64.392 65.1407C64.131 65.1112 63.8667 65.1468 63.6228 65.2441C63.3788 65.3415 63.1626 65.4976 62.9936 65.6987C62.8245 65.8998 62.7078 66.1395 62.6538 66.3966C62.5997 66.6537 62.6101 66.9201 62.6839 67.1722C62.9516 68.1616 63.524 69.0417 64.3199 69.6875C64.9418 70.1925 65.6699 70.5504 66.4496 70.7345C67.2293 70.9186 68.0405 70.9241 68.8227 70.7507H68.8255Z" fill="white" stroke="#C3C4C7" stroke-width="10.95" stroke-miterlimit="10"/>
<path d="M64.0545 83.4491C64.0545 83.4491 63.0617 80.7594 60.4302 80.286C59.0792 80.0441 57.9139 80.4013 57.0936 80.7941C56.9119 80.886 56.753 81.0174 56.6284 81.1785C56.5039 81.3397 56.4169 81.5266 56.3738 81.7257C56.3307 81.9247 56.3325 82.1309 56.3792 82.3291C56.4259 82.5274 56.5162 82.7127 56.6436 82.8716C57.2324 83.5878 58.167 84.396 59.5761 84.6528C60.3649 84.8005 61.1767 84.7693 61.9518 84.5614C62.7269 84.3536 63.4455 83.9744 64.0545 83.4519V83.4491ZM71.6849 85.7582C71.8551 85.6425 71.9972 85.49 72.1003 85.3119C72.2035 85.1338 72.2652 84.9347 72.2808 84.7294C72.2963 84.5242 72.2654 84.3181 72.1904 84.1264C72.1153 83.9348 71.9979 83.7626 71.847 83.6225C71.1542 82.9757 70.0658 82.2716 68.6492 82.2828C65.9708 82.295 64.4061 84.4063 64.4061 84.4063C64.4061 84.4063 65.8377 86.7378 68.5958 86.7378C69.7029 86.7343 70.7825 86.3921 71.6895 85.7572L71.6849 85.7582ZM72.793 79.2238C72.9722 79.1214 73.1262 78.98 73.2433 78.81C73.3605 78.64 73.4378 78.4459 73.4697 78.2419C73.5016 78.0379 73.4871 77.8294 73.4274 77.6318C73.3677 77.4342 73.2643 77.2525 73.1249 77.1003C72.478 76.3963 71.4617 75.6107 70.0536 75.4953C67.3874 75.276 65.6474 77.2616 65.6474 77.2616C65.6474 77.2616 66.883 79.7094 69.642 79.9288C70.7402 80.0287 71.8421 79.7822 72.793 79.2238ZM75.4602 73.5219C75.6587 73.4648 75.8418 73.3638 75.9961 73.2265C76.1504 73.0891 76.2719 72.9189 76.3516 72.7283C76.4314 72.5377 76.4673 72.3317 76.4568 72.1254C76.4462 71.9191 76.3895 71.7177 76.2908 71.5363C75.8295 70.6925 75.0327 69.7007 73.6827 69.2507C71.143 68.4069 68.9839 69.92 68.9839 69.92C68.9839 69.92 69.6074 72.5863 72.2389 73.4525C73.2785 73.8144 74.4059 73.8387 75.4602 73.5219ZM65.5442 77.0535C65.5442 77.0535 65.5095 74.1875 63.1874 72.8516C62.1858 72.2864 61.0269 72.0642 59.8874 72.2188C59.6852 72.243 59.4911 72.3123 59.3194 72.4217C59.1477 72.531 59.0027 72.6776 58.8952 72.8505C58.7878 73.0234 58.7205 73.2182 58.6985 73.4206C58.6765 73.623 58.7002 73.8277 58.768 74.0197C59.1472 75.1398 59.9174 76.0857 60.9374 76.6841C61.6288 77.0858 62.4014 77.3274 63.1984 77.3913C63.9955 77.4553 64.7967 77.3398 65.5433 77.0535H65.5442ZM68.8255 70.7507C68.8255 70.7507 69.2174 67.911 67.1286 66.2375C66.3397 65.6183 65.3902 65.2377 64.392 65.1407C64.131 65.1112 63.8667 65.1468 63.6228 65.2441C63.3788 65.3415 63.1626 65.4976 62.9936 65.6987C62.8245 65.8998 62.7078 66.1395 62.6538 66.3966C62.5997 66.6537 62.6101 66.9201 62.6839 67.1722C62.9516 68.1616 63.524 69.0417 64.3199 69.6875C64.9418 70.1925 65.6699 70.5504 66.4496 70.7345C67.2293 70.9186 68.0405 70.9241 68.8227 70.7507H68.8255Z" stroke="#C3C4C7" stroke-width="12.43" stroke-miterlimit="10"/>
<path d="M47.4552 88.3673C47.2366 87.4387 47.178 86.4796 47.2817 85.5313C47.3662 84.5813 47.5321 83.6404 47.7777 82.7188C48.0243 81.8046 48.3376 80.9097 48.7152 80.0413C49.0958 79.1751 49.5458 78.3323 50.1692 77.5935L50.5273 77.8016C50.3886 78.2404 50.2386 78.6791 50.0886 79.1057L49.6498 80.3985C49.3611 81.2648 49.107 82.1301 48.8998 83.0235C48.6926 83.9169 48.4686 84.7813 48.297 85.6776C48.2033 86.1276 48.1245 86.5663 48.0205 87.0163C47.9623 87.2357 47.9164 87.4663 47.8592 87.6969C47.8055 87.9286 47.736 88.1563 47.6511 88.3785L47.4552 88.3673Z" fill="#C3C4C7"/>
<path d="M47.1664 88.3672C47.1116 88.1932 47.069 88.0155 47.0389 87.8356C47.0239 87.6551 47.0202 87.4738 47.0277 87.2928C47.0533 86.9275 47.1392 86.5689 47.2817 86.2315C47.5471 85.5605 47.9303 84.9423 48.4133 84.4062C48.8783 83.8931 49.3881 83.4225 49.9367 83C50.4656 82.5886 51.025 82.2182 51.6102 81.8918L51.8989 82.1806C51.7247 82.4821 51.5199 82.7649 51.2877 83.0243C51.0683 83.2775 50.8367 83.5203 50.6061 83.7509C50.1449 84.2131 49.7061 84.6884 49.3021 85.1712C48.8995 85.6376 48.5402 86.1397 48.2286 86.6712C48.1592 86.809 48.0664 86.9365 48.0092 87.0753L47.9061 87.2815L47.848 87.3856L47.8021 87.4897C47.7439 87.6284 47.6633 87.7784 47.5939 87.9284C47.5333 88.0878 47.4599 88.242 47.3746 88.3897L47.1664 88.3672Z" fill="#C3C4C7"/>
<path d="M28.0381 90.814C41.9028 85.0653 71.8587 88.8284 81.7053 94.939L28.0381 94.7656V90.814Z" fill="#546FF3"/>
<path d="M64.2186 89.3253C64.1492 88.8059 64.1145 88.2941 64.0686 87.7784C64.0226 87.2628 64.0217 86.7388 64.0105 86.2194C63.9992 85.1806 64.0451 84.1419 64.137 83.1031C64.1717 82.5837 64.2533 82.0644 64.3245 81.5562C64.3958 81.0481 64.4867 80.525 64.5786 80.0094C64.6705 79.4937 64.798 78.9781 64.9133 78.4737C65.0286 77.9694 65.1795 77.4575 65.3408 76.9616C65.9698 74.9535 66.8585 73.0364 67.9845 71.2588C69.1101 69.4885 70.516 67.913 72.147 66.5938L72.4358 66.8938C72.1123 67.2978 71.7795 67.6784 71.4542 68.0591C71.143 68.4631 70.8308 68.8672 70.5167 69.26L69.6561 70.4966C69.3908 70.9241 69.1142 71.3403 68.8601 71.7781C67.845 73.5151 67.042 75.3678 66.4686 77.2962C66.3298 77.7809 66.1686 78.2544 66.0523 78.7512C65.9361 79.2481 65.7992 79.7319 65.7064 80.2288C65.6136 80.7256 65.487 81.2094 65.4176 81.7175C65.3483 82.2256 65.2451 82.7103 65.187 83.2175C65.1289 83.7247 65.037 84.2216 64.9911 84.7297C64.9451 85.2378 64.8636 85.745 64.8036 86.2531L64.722 87.0153C64.6873 87.2694 64.6536 87.5234 64.6283 87.7775C64.5701 88.2847 64.513 88.8088 64.4323 89.3122H64.2186V89.3253Z" fill="#C3C4C7"/>
<path d="M30.2662 19.266C31.178 19.266 31.9171 18.5268 31.9171 17.615C31.9171 16.7033 31.178 15.9641 30.2662 15.9641C29.3544 15.9641 28.6152 16.7033 28.6152 17.615C28.6152 18.5268 29.3544 19.266 30.2662 19.266Z" fill="#DCDCDE"/>
<path d="M38.9937 19.266C39.9055 19.266 40.6446 18.5268 40.6446 17.615C40.6446 16.7033 39.9055 15.9641 38.9937 15.9641C38.0819 15.9641 37.3428 16.7033 37.3428 17.615C37.3428 18.5268 38.0819 19.266 38.9937 19.266Z" fill="#C3C4C7"/>
<path d="M47.7086 19.266C48.6203 19.266 49.3595 18.5268 49.3595 17.615C49.3595 16.7033 48.6203 15.9641 47.7086 15.9641C46.7968 15.9641 46.0576 16.7033 46.0576 17.615C46.0576 18.5268 46.7968 19.266 47.7086 19.266Z" fill="#C3C4C7"/>
</g>
<defs>
<clipPath id="clip0_2_15204">
<rect width="150" height="109.5" fill="white" transform="translate(0 0.5)"/>
</clipPath>
</defs>
</svg>
