<svg width="150" height="110" viewBox="0 0 150 110" fill="none" xmlns="http://www.w3.org/2000/svg">
<path d="M22.725 99.9562C22.0875 93.45 22.125 86.9437 22.0781 80.4375L21.9375 60.9187L22.0031 41.4C22.0312 34.8937 21.9656 28.3875 22.575 21.8812H22.9594C23.5969 28.3875 23.5594 34.8937 23.6063 41.4L23.7469 60.9187L23.6906 80.4375C23.6625 86.9437 23.7281 93.45 23.1188 99.9562H22.725ZM128.831 99.1687L128.756 62.4468C128.7 56.325 128.7 50.2031 128.587 44.0906C128.503 37.9687 128.391 31.8469 128.194 25.7344H127.809C127.613 31.8562 127.5 37.9781 127.416 44.0906C127.303 50.2125 127.313 56.3343 127.247 62.4468L127.172 98.3343L105.375 98.2687L82.7437 98.325L60.1125 98.4C52.5656 98.475 45.0281 98.5406 37.4812 98.9812V99.3656C45.0281 99.8062 52.5656 99.8718 60.1125 99.9468L82.7437 100.022L105.375 100.078L128.006 100.003H128.841L128.831 99.1687Z" fill="#C3C4C7"/>
<path d="M22.0029 25.7344V15.7406C22.0029 12.2531 24.8248 9.43127 28.3123 9.43127H121.687C125.175 9.43127 127.997 12.2531 127.997 15.7406V25.7344H22.0029ZM39.3748 54.7781C35.7842 54.7781 32.8686 57.6938 32.8686 61.2844C32.8686 64.875 35.7842 67.7906 39.3748 67.7906C42.9654 67.7906 45.8811 64.875 45.8811 61.2844C45.8811 57.6938 42.9748 54.7781 39.3748 54.7781Z" fill="#C3C4C7"/>
<path d="M133.266 25.9218C123.553 26.5031 113.841 26.5031 104.128 26.5312L75.0001 26.6437L45.8626 26.5312C36.1501 26.4937 26.4376 26.5031 16.7251 25.9218V25.5375C26.4376 24.9562 36.1501 24.9562 45.8626 24.9281L75.0001 24.825L104.138 24.9281C113.85 24.9656 123.563 24.9562 133.275 25.5375V25.9218H133.266Z" fill="#1F3286"/>
<path d="M115.003 44.3531H51.4971V35.7281H117.497V41.8594C117.497 43.2375 116.381 44.3531 115.003 44.3531ZM117.497 90.0656V77.5032H51.4971V92.5594H115.003C116.381 92.5594 117.497 91.4438 117.497 90.0656ZM117.497 67.7438V51.4313H51.4971V70.2375H115.003C116.381 70.2375 117.497 69.1219 117.497 67.7438Z" fill="#DCDCDE"/>
<path d="M39.3655 48.6281C39.5718 48.9469 39.6562 49.275 39.6937 49.6031C39.7312 49.9313 39.7593 50.2594 39.7593 50.5969C39.7593 50.925 39.7405 51.2531 39.7218 51.5906C39.6937 51.9188 39.6468 52.2469 39.5155 52.575C39.478 52.6594 39.3843 52.6969 39.2999 52.6688C39.253 52.65 39.2249 52.6219 39.2062 52.5844L39.1968 52.575C39.0562 52.2469 38.9905 51.9188 38.953 51.5906C38.9155 51.2625 38.8874 50.9438 38.878 50.6156C38.8687 50.2875 38.878 49.9688 38.9062 49.6406C38.9343 49.3125 38.9999 48.9844 39.1968 48.6469C39.2155 48.6 39.2718 48.5906 39.3187 48.6094C39.3468 48.6 39.3562 48.6188 39.3655 48.6281ZM39.3187 69.7594C39.2718 69.7406 39.2249 69.7688 39.2155 69.8063C39.028 70.3594 38.9718 70.8938 38.9437 71.4375C38.9155 71.9813 38.9062 72.525 38.9062 73.0594C38.9437 74.1469 38.9249 75.225 39.1405 76.3125C39.1499 76.3688 39.1968 76.4156 39.253 76.4344C39.3374 76.4625 39.4218 76.4063 39.4499 76.3219C39.6093 75.7781 39.6749 75.2344 39.7124 74.6906C39.7499 74.1469 39.7687 73.6031 39.778 73.05C39.778 72.5063 39.7593 71.9625 39.7124 71.4188C39.6655 70.875 39.5812 70.3313 39.3655 69.7969C39.3562 69.7875 39.3374 69.7688 39.3187 69.7594Z" fill="#C3C4C7"/>
<path d="M33.7688 18.9563C34.6387 18.9563 35.3438 18.2511 35.3438 17.3813C35.3438 16.5114 34.6387 15.8063 33.7688 15.8063C32.899 15.8063 32.1938 16.5114 32.1938 17.3813C32.1938 18.2511 32.899 18.9563 33.7688 18.9563Z" fill="white"/>
<path d="M45.8812 39.8812C45.8812 43.4719 42.9655 46.3875 39.3749 46.3875C35.7843 46.3875 32.8687 43.4719 32.8687 39.8812C32.8687 36.2906 35.7843 33.375 39.3749 33.375C42.9655 33.375 45.8812 36.2906 45.8812 39.8812ZM39.3749 78.4781C35.7843 78.4781 32.8687 81.3937 32.8687 84.9844C32.8687 88.575 35.7843 91.4906 39.3749 91.4906C42.9655 91.4906 45.8812 88.575 45.8812 84.9844C45.8812 81.3937 42.9749 78.4781 39.3749 78.4781Z" fill="#2A46CE"/>
<path d="M43.6124 17.3812C43.6124 18.2531 42.9093 18.9562 42.0374 18.9562C41.1655 18.9562 40.4624 18.2531 40.4624 17.3812C40.4624 16.5094 41.1655 15.8063 42.0374 15.8063C42.9093 15.8063 43.6124 16.5094 43.6124 17.3812ZM50.3061 15.7969C49.4343 15.7969 48.7312 16.5 48.7312 17.3719C48.7312 18.2438 49.4343 18.9469 50.3061 18.9469C51.178 18.9469 51.8812 18.2438 51.8812 17.3719C51.8905 16.5094 51.178 15.7969 50.3061 15.7969Z" fill="#DCDCDE"/>
</svg>
