<svg width="150" height="110" viewBox="0 0 150 110" fill="none" xmlns="http://www.w3.org/2000/svg">
<g clip-path="url(#clip0_2_15233)">
<path d="M50.916 70.9809V11.5312C50.916 10.3378 51.3901 9.19318 52.234 8.34927C53.078 7.50536 54.2225 7.03125 55.416 7.03125H121.953C123.147 7.03125 124.291 7.50536 125.135 8.34927C125.979 9.19318 126.453 10.3378 126.453 11.5312V70.9809H50.916Z" fill="#546FF3"/>
<path d="M58.6438 29.4291H81.6285V61.0866H58.6438V29.4291ZM90.3773 29.4291H117.336V62.8181H90.3754L90.3773 29.4291ZM50.916 22.3566V11.5312C50.916 10.3378 51.3901 9.19318 52.234 8.34927C53.078 7.50536 54.2225 7.03125 55.416 7.03125H121.953C123.147 7.03125 124.291 7.50536 125.135 8.34927C125.979 9.19318 126.453 10.3378 126.453 11.5312V22.3566H50.916Z" fill="#3858E9"/>
<path d="M23.4375 104.922V46.0922C23.4402 45.5051 23.5585 44.9242 23.7857 44.3828C24.0129 43.8414 24.3445 43.3501 24.7616 42.9368C25.1787 42.5236 25.6731 42.1965 26.2165 41.9743C26.76 41.7521 27.3419 41.6392 27.9291 41.6419H94.4737C95.6584 41.6382 96.7961 42.1047 97.637 42.9391C98.4779 43.7735 98.9533 44.9076 98.9588 46.0922V104.922H23.4375Z" fill="#C3C4C7"/>
<path d="M80.2757 56.4843H31.52V54.6421C31.518 53.5897 31.9328 52.5793 32.6736 51.8318C33.4144 51.0843 34.4211 50.6605 35.4735 50.6531H80.2757V56.4843ZM52.3644 68.2143H31.52V62.3906H57.8019V62.7768C57.8019 64.2189 57.229 65.602 56.2093 66.6217C55.1896 67.6415 53.8065 68.2143 52.3644 68.2143Z" fill="#DCDCDE"/>
<path d="M23.4375 77.8604H63.405V104.922H23.4375V77.8604Z" fill="#546FF3"/>
<path d="M61.2041 77.8604H98.5166V104.922H61.2041V77.8604Z" fill="white"/>
<path d="M98.519 77.8604V104.531H61.2065" stroke="#C3C4C7" stroke-width="11.41" stroke-miterlimit="10"/>
<path d="M91.7506 82.6284V98.7881H74.6797" fill="#2A46CE"/>
<path d="M100.451 78.1022C97.1702 78.5297 93.8823 78.7228 90.6077 78.8334C87.333 78.9441 84.0386 78.9272 80.7639 78.9713C74.1948 79.0547 67.6539 79.065 61.0642 79.0959C54.4745 79.1269 47.9542 79.0547 41.3711 78.9713C38.0898 78.93 34.8086 78.9234 31.5273 78.8334C28.2461 78.7434 24.9648 78.5644 21.6836 78.1022V77.5641C24.9648 77.1291 28.2461 76.9359 31.5273 76.8253C34.8086 76.7147 38.0955 76.7316 41.3711 76.6875C47.9402 76.605 54.482 76.5938 61.0642 76.5638C67.6464 76.5338 74.1742 76.605 80.7639 76.6875C84.0452 76.7288 87.3264 76.7363 90.6077 76.8253C93.8995 76.9 97.1853 77.1466 100.451 77.5641V78.1022Z" fill="#1F3286"/>
</g>
<defs>
<clipPath id="clip0_2_15233">
<rect width="150" height="109.5" fill="white"/>
</clipPath>
</defs>
</svg>
