<svg width="150" height="110" viewBox="0 0 150 110" fill="none" xmlns="http://www.w3.org/2000/svg">
<g clip-path="url(#clip0_2_15248)">
<path d="M106.843 109.5H20.1133V48.5973C20.1269 44.2178 21.8772 40.0225 24.9802 36.9318C28.0831 33.8412 32.2853 32.1076 36.6648 32.1113H88.9895C98.8333 32.1113 106.814 40.0726 106.843 49.9126V109.5Z" fill="#DCDCDE"/>
<path d="M106.422 24.9938L69.017 36.5626C69.017 36.5626 65.9382 32.3663 69.5307 24.0113C73.1232 15.6563 86.3579 7.48131 99.8176 5.17881C105.748 4.35647 111.724 3.91806 117.711 3.86631C125.921 3.67881 132.184 11.5763 130.75 20.1788C130 24.5055 128.366 28.6307 125.948 32.296" fill="#C3C4C7"/>
<path d="M64.0316 96.5138C76.0137 96.5138 85.7272 86.8003 85.7272 74.8182C85.7272 62.836 76.0137 53.1226 64.0316 53.1226C52.0494 53.1226 42.3359 62.836 42.3359 74.8182C42.3359 86.8003 52.0494 96.5138 64.0316 96.5138Z" fill="#2A46CE"/>
<path d="M42.3481 62.1488H85.7272V74.8182H42.3481V62.1488Z" fill="#2A46CE"/>
<path d="M64.0316 84.1989C76.0137 84.1989 85.7272 74.4854 85.7272 62.5032C85.7272 50.5211 76.0137 40.8076 64.0316 40.8076C52.0494 40.8076 42.3359 50.5211 42.3359 62.5032C42.3359 74.4854 52.0494 84.1989 64.0316 84.1989Z" fill="#546FF3"/>
<path d="M55.6371 64.3847C57.8205 66.3713 59.9496 68.416 62.0702 70.4635L60.7577 70.5422C62.8633 67.7663 64.9418 64.951 67.113 62.2144C69.2843 59.4778 71.4377 56.7282 73.6877 54.0703C73.7984 53.9612 73.9448 53.8958 74.0999 53.8861C74.255 53.8765 74.4084 53.9232 74.5318 54.0178C74.6551 54.1124 74.7401 54.2484 74.7711 54.4007C74.802 54.553 74.7769 54.7114 74.7002 54.8466C72.7399 57.7144 70.6483 60.5428 68.5296 63.3328C66.4108 66.1228 64.2668 68.8716 62.1227 71.6344C61.9796 71.8192 61.769 71.9398 61.5372 71.9695C61.3054 71.9992 61.0712 71.9356 60.8861 71.7928L60.7924 71.6991C58.7299 69.5872 56.7036 67.4428 54.7136 65.266C54.5943 65.1449 54.5273 64.9818 54.5273 64.8118C54.5273 64.6418 54.5943 64.4786 54.7136 64.3575C54.8401 64.2394 55.008 64.176 55.181 64.1811C55.3539 64.1862 55.5178 64.2594 55.6371 64.3847Z" fill="white"/>
<path d="M99.5279 19.2441C72.1885 24.0591 57.7941 49.741 63.1529 51.2279C68.5116 52.7148 79.3885 32.2951 95.2425 30.8091C107.479 29.6513 105.427 35.177 98.4132 38.2688C88.0032 42.8438 86.2004 46.952 87.7791 49.8338C89.3579 52.7157 108.62 47.0045 120.329 38.2688C124.599 34.9661 127.739 30.4195 129.315 25.2563" fill="#C3C4C7"/>
<path d="M99.647 19.862C92.3959 21.2144 85.5183 24.1036 79.4767 28.3351C76.4577 30.4176 73.6547 32.7969 71.1095 35.4376C68.5634 38.0566 66.3776 41.0031 64.6098 44.1995C63.726 45.7039 63.1451 47.3667 62.8998 49.0941C62.8698 49.4275 62.91 49.7635 63.0179 50.0804C63.0519 50.173 63.11 50.2549 63.1864 50.3174C63.2627 50.3799 63.3545 50.4207 63.452 50.4357C64.1636 50.4996 64.8753 50.3136 65.4648 49.9098C66.9535 48.9013 68.3375 47.7465 69.5964 46.4626L73.5432 42.5157C76.206 39.8392 79.0755 37.3766 82.1251 35.1507C85.2326 32.8649 88.7582 31.2105 92.5023 30.2813C94.3977 29.8875 96.3292 29.6936 98.2651 29.7029C99.2524 29.6871 100.239 29.7618 101.213 29.926C102.371 30.0515 103.459 30.5443 104.318 31.3323C104.565 31.6018 104.754 31.92 104.872 32.2666C104.989 32.6132 105.033 32.9805 105.001 33.3451C104.929 33.9614 104.703 34.5497 104.345 35.056C103.745 35.9103 102.996 36.6499 102.134 37.2395C100.533 38.2914 98.8267 39.1733 97.0426 39.871C95.4002 40.6283 93.8169 41.508 92.3064 42.5026C90.8436 43.4281 89.6032 44.665 88.6735 46.1251C88.2936 46.7718 88.1365 47.5254 88.2264 48.2701C88.2786 48.6296 88.3945 48.9768 88.5685 49.2957C88.7289 49.4239 88.9187 49.5099 89.1207 49.546C90.8617 49.6896 92.6144 49.5384 94.3051 49.0988C97.9039 48.2925 101.426 47.1742 104.83 45.7566C108.252 44.3823 111.573 42.7689 114.768 40.9285C117.992 39.2034 120.927 36.9836 123.464 34.3501C125.884 31.641 127.706 28.4528 128.813 24.9929C128.879 24.8527 128.995 24.7414 129.137 24.6793C129.279 24.6173 129.439 24.6086 129.587 24.655C129.736 24.7014 129.862 24.7997 129.944 24.9319C130.025 25.064 130.056 25.2212 130.031 25.3745C128.921 29.088 127.025 32.5197 124.474 35.4376C123.207 36.8777 121.786 38.1748 120.237 39.3057C118.716 40.4232 117.14 41.4639 115.514 42.4238C112.261 44.3222 108.881 45.9928 105.397 47.4235C101.913 48.8859 98.3132 50.0522 94.6342 50.9101C93.6996 51.114 92.7552 51.2705 91.8048 51.3788C90.7885 51.5298 89.7555 51.5298 88.7392 51.3788C88.4332 51.3245 88.1365 51.2269 87.8579 51.0891C87.4871 50.906 87.1834 50.6108 86.9898 50.2454C86.7105 49.7304 86.5278 49.1686 86.4507 48.5879C86.3029 47.4689 86.5245 46.3323 87.0817 45.3507C88.1324 43.6332 89.5584 42.1758 91.2526 41.0879C92.8336 40.0122 94.4965 39.0621 96.2261 38.2463C97.8977 37.5645 99.4975 36.7182 101.002 35.7198C101.677 35.2564 102.268 34.6813 102.75 34.0191C102.932 33.7663 103.05 33.4728 103.092 33.1641C103.103 33.063 103.091 32.9606 103.057 32.8648C103.023 32.769 102.967 32.6822 102.894 32.611C102.32 32.161 101.633 31.8787 100.908 31.7954C100.038 31.6566 99.1577 31.5864 98.2764 31.5854C96.482 31.5806 94.6917 31.7568 92.9326 32.1113C89.4427 32.9758 86.1569 34.5182 83.2623 36.6507C80.2821 38.809 77.4757 41.1976 74.8689 43.7945L70.921 47.7413C69.571 49.1177 68.0757 50.3436 66.4614 51.3976C65.5145 52.0689 64.3481 52.3557 63.1979 52.2001C62.8417 52.1256 62.5082 51.9678 62.2247 51.7397C61.9412 51.5116 61.7157 51.2196 61.5667 50.8876C61.3501 50.3268 61.2648 49.7239 61.3173 49.1251C61.5742 47.1506 62.2276 45.2485 63.2382 43.5329C65.0918 40.2067 67.3838 37.1446 70.0529 34.4288C72.6753 31.7023 75.5772 29.2592 78.7107 27.1398C84.9671 22.8637 92.0698 19.9829 99.5373 18.6929C99.7021 18.6631 99.8721 18.7 100.01 18.7955C100.147 18.8909 100.241 19.0371 100.271 19.202V19.2198C100.273 19.3026 100.258 19.385 100.228 19.4622C100.198 19.5394 100.153 19.61 100.096 19.6698C100.039 19.7296 99.9699 19.7775 99.894 19.8108C99.8181 19.8441 99.7364 19.8621 99.6535 19.8638L99.647 19.862ZM97.5151 13.8498C94.7469 14.4741 92.0359 15.3293 89.4104 16.4063C86.7905 17.4724 84.2602 18.7468 81.8439 20.2173C79.439 21.6909 77.1711 23.3774 75.0676 25.2563C72.9541 27.1063 71.1077 29.2407 69.5814 31.5985C69.5377 31.669 69.4807 31.7303 69.4134 31.7787C69.3461 31.8271 69.2699 31.8619 69.1892 31.8808C69.1085 31.8998 69.0248 31.9027 68.943 31.8893C68.8612 31.876 68.7828 31.8466 68.7123 31.8029C68.7079 31.8009 68.7038 31.7984 68.7001 31.7954C68.5674 31.709 68.4712 31.5767 68.4299 31.4238C68.3885 31.2709 68.405 31.1082 68.476 30.9666C69.8708 28.3406 71.689 25.9625 73.8573 23.9279C76.0001 21.9046 78.3506 20.1135 80.8698 18.5841C83.3731 17.0624 86.0168 15.7847 88.7645 14.7685C91.5166 13.7409 94.3701 13.0087 97.277 12.5841C97.3589 12.5713 97.4426 12.5748 97.5232 12.5944C97.6038 12.6139 97.6797 12.6492 97.7467 12.6981C97.8136 12.747 97.8703 12.8087 97.9134 12.8796C97.9565 12.9504 97.9852 13.0291 97.9979 13.111C97.9984 13.1154 97.9984 13.1198 97.9979 13.1241C98.0262 13.284 97.9919 13.4486 97.9019 13.5837C97.812 13.7189 97.6735 13.8141 97.5151 13.8498ZM68.9776 23.6935C70.2608 21.4018 71.93 19.3489 73.9117 17.6251C75.8224 15.8963 77.8635 14.3173 80.0167 12.902C82.1356 11.4869 84.3318 10.1911 86.5951 9.0207C88.8781 7.85726 91.2336 6.84203 93.647 5.98133C93.8041 5.92384 93.9777 5.93104 94.1295 6.00134C94.2814 6.07164 94.3991 6.19931 94.457 6.35633L94.4626 6.3732C94.5112 6.52239 94.5047 6.68404 94.4443 6.82885C94.3839 6.97367 94.2737 7.09206 94.1335 7.16258C91.8751 8.25758 89.6251 9.38914 87.437 10.6126C85.2489 11.836 83.161 13.0735 81.0695 14.4807C78.9754 15.8379 76.9672 17.3232 75.0564 18.9282C73.1613 20.4792 71.4957 22.291 70.1092 24.3095C70.0236 24.4543 69.8841 24.5592 69.7212 24.6011C69.5583 24.6431 69.3854 24.6186 69.2406 24.533C69.0957 24.4475 68.9908 24.3079 68.9489 24.1451C68.907 23.9822 68.9314 23.8093 69.017 23.6645L68.9776 23.6935Z" fill="#1F3286"/>
</g>
<defs>
<clipPath id="clip0_2_15248">
<rect width="150" height="109.5" fill="white"/>
</clipPath>
</defs>
</svg>
