<svg width="150" height="110" viewBox="0 0 150 110" fill="none" xmlns="http://www.w3.org/2000/svg">
<g clip-path="url(#clip0_2_15260)">
<path d="M14.0269 48.375V25.6519C14.0267 25.0164 14.1518 24.3871 14.3949 23.8C14.638 23.2129 14.9944 22.6794 15.4437 22.23C15.893 21.7806 16.4264 21.4241 17.0135 21.1809C17.6006 20.9377 18.2298 20.8125 18.8653 20.8125H46.334V48.375H14.0269Z" fill="#546FF3"/>
<path d="M78.3476 37.0987L78.0476 22.3903L77.9707 14.9681V14.0006C77.9699 13.6557 77.9925 13.3112 78.0382 12.9693C78.1468 12.2635 78.3882 11.5846 78.7498 10.9687C79.4743 9.74887 80.6206 8.83671 81.972 8.40464C82.3143 8.30541 82.6633 8.23116 83.0163 8.18246C83.3389 8.16558 83.6622 8.16558 83.9848 8.18246H111.118C111.375 8.18246 111.621 8.28439 111.802 8.46583C111.983 8.64727 112.085 8.89336 112.085 9.14996V36.75C112.085 37.0066 111.983 37.2526 111.802 37.4341C111.621 37.6155 111.375 37.7175 111.118 37.7175C105.621 37.7175 100.125 37.6237 94.6676 37.5525L78.3476 37.0987ZM79.2579 36.18L95.3107 35.8696C100.604 35.7928 105.878 35.7243 111.154 35.7056L110.187 36.6731L110.167 9.03652L111.136 10.004H83.2151C82.9698 10.0332 82.7271 10.0818 82.4895 10.1493C81.5323 10.4472 80.719 11.0883 80.2057 11.9493C79.9517 12.3779 79.7809 12.8505 79.7023 13.3425C79.6628 13.5955 79.6434 13.8513 79.6442 14.1075V14.9878L79.5673 22.019L79.2579 36.18Z" fill="#C3C4C7"/>
<path d="M103.701 49.7653V27.045C103.701 25.7617 104.21 24.5311 105.118 23.6237C106.025 22.7163 107.256 22.2065 108.539 22.2065H135.973V49.769L103.701 49.7653Z" fill="#DCDCDE"/>
<path d="M102.259 97.7521V75.0318C102.259 73.7486 102.769 72.5179 103.676 71.6105C104.583 70.7031 105.814 70.1934 107.097 70.1934H134.531V97.7559L102.259 97.7521Z" fill="#3858E9"/>
<path d="M20.9175 87.2625C22.0687 86.8753 122.851 87.2625 122.851 87.2625C122.851 87.2625 129.315 66.0515 112.139 61.5937C106.991 60.2578 104.011 60.7612 102.462 61.4062C102.227 61.5096 101.961 61.5155 101.722 61.4227C101.483 61.3299 101.29 61.1459 101.186 60.9112C101.154 60.8372 101.131 60.7594 101.118 60.6797C100.749 56.4515 98.3212 44.7618 82.8094 44.7618C65.73 44.7618 58.2469 60.825 58.2469 60.825C58.2469 60.825 54.434 55.2806 47.699 54.7387C27.7781 53.1328 22.8909 75.1668 22.8909 75.1668" fill="white"/>
<path d="M20.8011 86.9146C20.9666 86.8796 21.1346 86.857 21.3036 86.8471H24.1001L27.2876 86.7787L33.6626 86.6849L46.3976 86.4524C54.8933 86.3755 63.3898 86.3174 71.8855 86.3362H122.853L122.009 86.9559C123.1 83.0225 123.393 78.9105 122.87 74.8621C122.664 72.8871 122.05 70.9764 121.067 69.2507C120.084 67.5251 118.754 66.022 117.161 64.8365C115.522 63.7248 113.691 62.9275 111.761 62.4852C109.818 61.9638 107.812 61.7099 105.8 61.7306C104.862 61.763 103.935 61.9427 103.053 62.2631L102.898 62.3212C102.783 62.3699 102.663 62.4054 102.54 62.4271C102.158 62.4995 101.763 62.4605 101.403 62.3147C101.042 62.1689 100.732 61.9225 100.507 61.6049C100.352 61.3668 100.255 61.0948 100.226 60.8118V60.4143L100.132 59.6699C99.8673 57.6815 99.2789 55.7497 98.3905 53.9512C97.5118 52.1718 96.2758 50.5927 94.7595 49.3124C93.2158 48.0512 91.4361 47.1104 89.5245 46.5449C87.5816 45.9441 85.5643 45.6178 83.5311 45.5756C81.4934 45.5205 79.4564 45.7093 77.4636 46.1381C69.4808 47.8406 62.697 53.879 59.0783 61.1465C58.9742 61.3505 58.7941 61.5055 58.5768 61.5779C58.3595 61.6504 58.1224 61.6345 57.9167 61.5337C57.7843 61.4792 57.6653 61.3967 57.568 61.2918C55.3399 58.2085 51.9901 56.1236 48.2398 55.4859C44.4038 54.9623 40.4977 55.5191 36.9608 57.0937C33.4594 58.796 30.4588 61.3764 28.2514 64.5834C25.9593 67.8085 24.2498 71.4101 23.2001 75.2249C23.1822 75.2891 23.1395 75.3434 23.0815 75.3761C23.0235 75.4088 22.9549 75.4172 22.8908 75.3993C22.8295 75.3832 22.7771 75.3437 22.7445 75.2894C22.7119 75.2352 22.7018 75.1703 22.7164 75.1087C23.6551 71.1884 25.2768 67.4641 27.507 64.1062C29.7516 60.6858 32.8504 57.9109 36.4967 56.0559C40.2319 54.3084 44.3806 53.6379 48.4761 54.1199C49.5177 54.2408 50.543 54.4743 51.5342 54.8165C52.5215 55.1737 53.4711 55.6274 54.3692 56.1712C56.1452 57.2545 57.701 58.6629 58.9554 60.3224L57.4751 60.449C58.4705 58.5178 59.678 56.7034 61.0751 55.0396C62.4312 53.3674 63.9338 51.8194 65.5648 50.414C68.8553 47.5604 72.7912 45.551 77.0323 44.5593C79.1505 44.0903 81.3171 43.876 83.4861 43.9209C85.6723 43.9399 87.845 44.2655 89.9408 44.8884C92.0803 45.5007 94.0746 46.5375 95.8048 47.9371C97.5236 49.364 98.9303 51.1294 99.9373 53.1234C100.918 55.0951 101.572 57.213 101.873 59.3943L101.979 60.2165V60.6037C101.985 60.5879 101.985 60.5707 101.979 60.5549H102.086L102.289 60.4781C103.378 60.0781 104.525 59.859 105.685 59.8293C107.884 59.7883 110.078 60.0652 112.198 60.6515C114.362 61.174 116.41 62.096 118.236 63.3702C120.067 64.6803 121.574 66.3913 122.643 68.3727C123.679 70.3345 124.36 72.4637 124.655 74.6624C124.949 76.8143 125.001 78.9922 124.81 81.1555C124.63 83.3187 124.248 85.4603 123.668 87.5521C123.617 87.7326 123.508 87.8912 123.358 88.0032C123.207 88.1153 123.024 88.1745 122.837 88.1718L71.8695 87.9102L46.3761 87.7499L33.6317 87.6562H20.8817C20.7868 87.6584 20.6948 87.623 20.626 87.5577C20.5571 87.4923 20.5169 87.4023 20.5142 87.3074C20.5014 87.2175 20.5243 87.1261 20.5779 87.0528C20.6314 86.9794 20.7115 86.9298 20.8011 86.9146Z" fill="#C3C4C7"/>
<path d="M112.526 30.0637H130.553V34.4278H109.178V33.4022C109.181 32.5159 109.535 31.6668 110.162 31.041C110.79 30.4151 111.64 30.0637 112.526 30.0637ZM119.906 38.4534H130.144V42.8081H116.599V41.7918C116.602 40.9128 116.95 40.0699 117.569 39.4454C118.188 38.8208 119.027 38.4645 119.906 38.4534Z" fill="white"/>
<path d="M20.0942 43.0791C20.9221 40.8999 22.4546 39.0601 24.4481 37.852C26.4417 36.6439 28.7819 36.1369 31.0967 36.4116C33.1453 36.6998 35.2331 36.3535 37.079 35.4195C38.9249 34.4854 40.4403 33.0082 41.4214 31.1869C41.4606 31.1189 41.5209 31.0657 41.5932 31.0353C41.6655 31.005 41.7458 30.9992 41.8217 31.0189C41.8976 31.0386 41.965 31.0827 42.0134 31.1444C42.0619 31.206 42.0887 31.2819 42.0899 31.3603V43.0791H20.0942Z" fill="#C3C4C7"/>
<path d="M45.0796 18.0553H50.4309V25.6612H42.2446V20.8903C42.2446 20.1384 42.5433 19.4173 43.075 18.8857C43.6066 18.354 44.3277 18.0553 45.0796 18.0553ZM88.2478 23.639H92.1178V30.1312H85.1803V26.7187C85.1793 25.9038 85.5017 25.1217 86.0769 24.5443C86.652 23.9669 87.4328 23.6413 88.2478 23.639Z" fill="#DCDCDE"/>
<path d="M90.5796 18.0937C90.866 17.813 91.2098 17.5976 91.5873 17.4623C91.9649 17.327 92.3672 17.275 92.7668 17.31C93.5018 17.2425 94.2274 17.1937 94.9633 17.1937C95.6993 17.1937 96.424 17.2425 97.1505 17.31C97.5499 17.2752 97.9521 17.3272 98.3295 17.4625C98.7068 17.5978 99.0505 17.8131 99.3368 18.0937V18.5775C99.0496 18.8575 98.7061 19.0731 98.3292 19.21C97.9522 19.3469 97.5504 19.402 97.1505 19.3715C96.424 19.439 95.689 19.4775 94.9633 19.4775C94.2377 19.4775 93.5018 19.4775 92.7668 19.3715C92.3667 19.402 91.9648 19.3469 91.5877 19.21C91.2106 19.0731 90.8669 18.8575 90.5796 18.5775V18.0937Z" fill="#1F3286"/>
<path d="M41.0542 106.374V83.6531C41.0542 82.3699 41.564 81.1392 42.4713 80.2318C43.3787 79.3245 44.6094 78.8147 45.8926 78.8147H73.3614V106.422L41.0542 106.374Z" fill="#2A46CE"/>
<path d="M54.3018 88.1727L62.4683 93.2812L54.3018 98.7965V88.1727Z" fill="white"/>
</g>
<defs>
<clipPath id="clip0_2_15260">
<rect width="150" height="109.5" fill="white"/>
</clipPath>
</defs>
</svg>