<svg xmlns="http://www.w3.org/2000/svg" width="612" height="481" viewBox="0 0 612 481" fill="none">
<path fill-rule="evenodd" clip-rule="evenodd" d="M740 201.562C803.895 113.693 747.587 -36.1481 614.233 -133.117C480.879 -230.086 320.977 -237.462 257.083 -149.593C215.699 -92.6806 224.741 -9.77085 272.482 67.932C159.185 18.8235 41.3482 38.862 8.57472 113.133C-24.4023 187.866 41.2313 289.207 155.171 339.485C168.447 345.343 181.793 350.249 195.064 354.228C152.216 372.331 124.244 406.327 127.105 442.968C131.057 493.586 192.356 530.085 264.02 524.491C335.684 518.896 390.575 473.326 386.623 422.707C384.573 396.439 367.079 373.974 340.707 359.22C378.235 348.341 407.324 326.626 421.188 295.206C432.705 269.108 432.195 239.764 421.801 210.484C545.962 282.594 682.227 281.013 740 201.562Z" fill="#873EFF"/>
</svg>
