<svg
	xmlns="http://www.w3.org/2000/svg"
	width="165"
	height="26"
	viewBox="0 0 165 26"
	fill="none"
>
	<g clip-path="url(#clip0_6666_26542)">
		<path
			fill-rule="evenodd"
			clip-rule="evenodd"
			d="M66.2697 4.63574V20.4791H68.93V14.517H73.1343C74.1953 14.517 75.1137 14.2954 75.8897 13.852C76.6656 13.4086 77.2594 12.8147 77.6712 12.0705C78.0829 11.3104 78.2887 10.479 78.2887 9.5764C78.2887 8.67378 78.0829 7.85033 77.6712 7.10607C77.2594 6.34597 76.6656 5.74422 75.8897 5.30083C75.1296 4.85744 74.2111 4.63574 73.1343 4.63574H66.2697ZM68.93 12.1655H72.778C73.3164 12.1655 73.7915 12.0626 74.2032 11.8567C74.6308 11.635 74.9633 11.3262 75.2008 10.9303C75.4384 10.5344 75.5571 10.0831 75.5571 9.5764C75.5571 9.06966 75.4384 8.61835 75.2008 8.22247C74.9633 7.82658 74.6308 7.52571 74.2032 7.31985C73.7915 7.09815 73.3164 6.9873 72.778 6.9873H68.93V12.1655Z"
			fill="black"
		/>
		<path
			d="M150.491 20.0279C150.982 20.5188 151.703 20.7642 152.653 20.7642C153.191 20.7642 153.65 20.6929 154.03 20.5504C154.411 20.4237 154.719 20.2495 154.957 20.0279L154.387 18.2226C154.276 18.3493 154.11 18.4522 153.888 18.5314C153.682 18.6106 153.468 18.6502 153.247 18.6502C152.93 18.6502 152.677 18.5393 152.487 18.3176C152.296 18.0959 152.186 17.7951 152.154 17.415V11.0967H154.482V9.0064H152.154V5.87098H149.755V9.0064H147.855V11.0967H149.755V17.8663C149.755 18.8006 150 19.5211 150.491 20.0279Z"
			fill="black"
		/>
		<path
			d="M158.126 18.3888C157.397 18.0721 156.827 17.692 156.415 17.2486L155.299 18.9826C155.885 19.5527 156.598 19.9961 157.437 20.3128C158.292 20.6137 159.21 20.7641 160.192 20.7641C161.19 20.7641 162.037 20.6137 162.734 20.3128C163.446 19.9961 163.985 19.5685 164.349 19.0301C164.729 18.4759 164.919 17.8425 164.919 17.1299C164.919 16.3381 164.713 15.7126 164.301 15.2534C163.89 14.7783 163.399 14.4378 162.829 14.232C162.259 14.0103 161.522 13.7886 160.62 13.5669C160.002 13.4244 159.519 13.2977 159.171 13.1868C158.822 13.076 158.529 12.9256 158.292 12.7355C158.07 12.5297 157.959 12.2684 157.959 11.9517C157.959 11.54 158.157 11.2232 158.553 11.0016C158.949 10.764 159.48 10.6453 160.145 10.6453C160.841 10.6453 161.491 10.7719 162.092 11.0253C162.694 11.2787 163.177 11.6112 163.541 12.0229L164.563 10.3365C164.009 9.84556 163.359 9.4576 162.615 9.17256C161.871 8.87169 161.039 8.72125 160.121 8.72125C159.202 8.72125 158.403 8.8796 157.722 9.19631C157.041 9.51302 156.526 9.94058 156.178 10.479C155.83 11.0174 155.655 11.627 155.655 12.308C155.655 13.0364 155.845 13.6223 156.225 14.0657C156.621 14.4933 157.088 14.81 157.627 15.0158C158.181 15.2217 158.902 15.4276 159.788 15.6334C160.422 15.7759 160.921 15.9105 161.285 16.0372C161.665 16.1639 161.982 16.3381 162.235 16.5598C162.488 16.7656 162.615 17.0428 162.615 17.3911C162.615 17.692 162.52 17.9533 162.33 18.175C162.156 18.3967 161.902 18.5709 161.57 18.6976C161.237 18.8084 160.841 18.8638 160.382 18.8638C159.622 18.8638 158.87 18.7055 158.126 18.3888Z"
			fill="black"
		/>
		<path
			d="M136.347 20.4791V9.00629H138.746V10.5716C139.196 10.0983 139.703 9.70317 140.266 9.38634C141.042 8.94295 141.929 8.72125 142.926 8.72125C144.003 8.72125 144.803 8.9667 145.325 9.4576C145.848 9.93266 146.172 10.4552 146.299 11.0253C146.426 11.5795 146.489 12.1734 146.489 12.8068V20.4791H144.09V13.6144C144.09 13.1077 144.051 12.6643 143.971 12.2842C143.908 11.9042 143.71 11.5716 143.378 11.2866C143.045 10.9857 142.538 10.8353 141.857 10.8353C141.129 10.8353 140.48 11.0095 139.91 11.3578C139.442 11.6439 139.054 11.9939 138.746 12.408V20.4791H136.347Z"
			fill="black"
		/>
		<path
			fill-rule="evenodd"
			clip-rule="evenodd"
			d="M125.786 20.0277C126.704 20.5186 127.733 20.7641 128.873 20.7641C129.776 20.7641 130.631 20.6216 131.439 20.3365C132.246 20.0515 132.935 19.6319 133.505 19.0776L132.413 17.5099C132.001 17.9216 131.494 18.2463 130.892 18.4838C130.307 18.7055 129.713 18.8163 129.111 18.8163C128.288 18.8163 127.591 18.6342 127.021 18.27C126.451 17.9058 126.023 17.4228 125.738 16.8211C125.547 16.4183 125.42 15.9908 125.357 15.5384H134.289V14.9446C134.289 13.7569 134.06 12.6959 133.6 11.7617C133.141 10.8115 132.484 10.0673 131.629 9.52886C130.774 8.99045 129.792 8.72125 128.683 8.72125C127.575 8.72125 126.577 8.99045 125.691 9.52886C124.804 10.0673 124.107 10.7957 123.6 11.7141C123.109 12.6168 122.864 13.6223 122.864 14.7308C122.864 15.9184 123.125 16.9715 123.648 17.89C124.17 18.8084 124.883 19.521 125.786 20.0277ZM131.988 13.8282H125.355C125.407 13.4291 125.503 13.049 125.643 12.688C125.865 12.1021 126.229 11.6191 126.736 11.2391C127.242 10.859 127.884 10.669 128.66 10.669C129.483 10.669 130.14 10.859 130.631 11.2391C131.138 11.6191 131.494 12.0784 131.7 12.6168C131.853 13.0162 131.949 13.42 131.988 13.8282Z"
			fill="black"
		/>
		<path
			d="M118.396 12.9493C118.396 12.3001 118.238 11.7854 117.921 11.4054C117.62 11.0253 117.161 10.8353 116.544 10.8353C115.973 10.8353 115.443 10.9857 114.952 11.2866C114.461 11.5875 114.065 11.9517 113.764 12.3792V20.4791H111.365V12.9493C111.365 12.3001 111.207 11.7854 110.89 11.4054C110.589 11.0253 110.13 10.8353 109.513 10.8353C108.958 10.8353 108.444 10.9857 107.969 11.2866C107.494 11.5875 107.098 11.9517 106.781 12.3792L106.757 12.4149V20.4791H104.358V9.00629H106.757V10.5772C106.897 10.3663 107.111 10.1357 107.399 9.88515C107.779 9.56845 108.238 9.29924 108.776 9.07755C109.331 8.84001 109.924 8.72125 110.558 8.72125C111.239 8.72125 111.817 8.86377 112.292 9.14881C112.767 9.41801 113.123 9.80598 113.361 10.3127C113.451 10.4868 113.525 10.6709 113.585 10.865C113.922 10.3145 114.417 9.83749 115.071 9.43384C115.831 8.95878 116.686 8.72125 117.636 8.72125C118.317 8.72125 118.887 8.86377 119.346 9.14881C119.822 9.41801 120.178 9.81389 120.415 10.3365C120.653 10.859 120.772 11.4766 120.772 12.1892V20.4791H118.396V12.9493Z"
			fill="black"
		/>
		<path
			d="M93.2426 22.9732C93.0526 22.9415 92.9022 22.894 92.7913 22.8307L92.4113 24.9685C92.6013 25.016 92.8309 25.0555 93.1001 25.0872C93.3693 25.1189 93.6306 25.1347 93.884 25.1347C94.4699 25.1347 94.9925 25.0555 95.4517 24.8972C95.9109 24.7388 96.3226 24.4776 96.6869 24.1133C97.0511 23.7491 97.3599 23.2741 97.6132 22.6882V22.6406C97.6291 22.6406 97.637 22.6327 97.637 22.6169L103.219 9.00634H100.654L97.2332 17.7237L93.8127 9.00634H91.2711L95.9816 20.608L95.3804 21.9993C95.2221 22.3635 95.0162 22.6248 94.7628 22.7832C94.5095 22.9415 94.1928 23.0207 93.8127 23.0207C93.6227 23.0207 93.4327 23.0049 93.2426 22.9732Z"
			fill="black"
		/>
		<path
			fill-rule="evenodd"
			clip-rule="evenodd"
			d="M84.025 20.7641C83.0432 20.7641 82.1643 20.5266 81.3884 20.0515C80.6125 19.5606 80.0028 18.8638 79.5594 17.9612C79.1319 17.0586 78.9181 15.9897 78.9181 14.7545C78.9181 13.5352 79.1319 12.4742 79.5594 11.5716C80.0028 10.6532 80.6125 9.94849 81.3884 9.4576C82.1643 8.9667 83.0432 8.72125 84.025 8.72125C84.8168 8.72125 85.561 8.91919 86.2578 9.31508C86.8473 9.63662 87.3461 10.0715 87.7542 10.6198V9.00629H90.1296V20.4791H87.7542V18.8698C87.3437 19.4113 86.8449 19.8527 86.2578 20.194C85.5769 20.5741 84.8326 20.7641 84.025 20.7641ZM87.7542 17.065V12.4755C87.5034 12.0782 87.1234 11.7294 86.6141 11.4291C85.9965 11.0491 85.3631 10.859 84.7138 10.859C84.0488 10.859 83.4628 11.0253 82.9561 11.3578C82.4494 11.6904 82.0614 12.1496 81.7922 12.7355C81.5388 13.3214 81.4122 13.9944 81.4122 14.7545C81.4122 15.9105 81.7051 16.8527 82.291 17.5812C82.8928 18.2938 83.7004 18.6501 84.7138 18.6501C85.3631 18.6501 85.9965 18.4759 86.6141 18.1275C87.1234 17.8272 87.5034 17.473 87.7542 17.065Z"
			fill="black"
		/>
		<path
			d="M8.06119 20.7596C9.9057 20.7596 11.3859 19.8487 12.5017 17.7537L14.9838 13.1083V17.0478C14.9838 19.3705 16.4867 20.7596 18.8095 20.7596C20.6312 20.7596 21.9747 19.9626 23.2727 17.7537L28.9884 8.09851C30.2409 5.98074 29.3528 4.38672 26.5974 4.38672C25.1172 4.38672 24.1608 4.86493 23.2955 6.48172L19.356 13.8825V7.3015C19.356 5.34313 18.4223 4.38672 16.6917 4.38672C15.3254 4.38672 14.2323 4.97878 13.3898 6.61835L9.67799 13.8825V7.36982C9.67799 5.27482 8.81266 4.38672 6.71766 4.38672H2.43658C0.819782 4.38672 0 5.13819 0 6.52726C0 7.91634 0.865326 8.71335 2.43658 8.71335H4.19V17.025C4.19 19.3705 5.76125 20.7596 8.06119 20.7596Z"
			fill="#873EFF"
		/>
		<path
			fill-rule="evenodd"
			clip-rule="evenodd"
			d="M37.3468 4.38672C32.6786 4.38672 29.1035 7.87079 29.1035 12.5845C29.1035 17.2983 32.7014 20.7596 37.3468 20.7596C41.9923 20.7596 45.5447 17.2755 45.5674 12.5845C45.5674 7.87079 41.9923 4.38672 37.3468 4.38672ZM37.3468 15.727C35.5934 15.727 34.3865 14.4063 34.3865 12.5845C34.3865 10.7628 35.5934 9.41927 37.3468 9.41927C39.1003 9.41927 40.3072 10.7628 40.3072 12.5845C40.3072 14.4063 39.123 15.727 37.3468 15.727Z"
			fill="#873EFF"
		/>
		<path
			fill-rule="evenodd"
			clip-rule="evenodd"
			d="M46.7272 12.5845C46.7272 7.87079 50.3023 4.38672 54.9478 4.38672C59.5932 4.38672 63.1684 7.89357 63.1684 12.5845C63.1684 17.2755 59.5932 20.7596 54.9478 20.7596C50.3023 20.7596 46.7272 17.2983 46.7272 12.5845ZM52.0102 12.5845C52.0102 14.4063 53.1716 15.727 54.9478 15.727C56.7012 15.727 57.9081 14.4063 57.9081 12.5845C57.9081 10.7628 56.7012 9.41927 54.9478 9.41927C53.1943 9.41927 52.0102 10.7628 52.0102 12.5845Z"
			fill="#873EFF"
		/>
	</g>
	<defs>
		<clipPath id="clip0_6666_26542">
			<rect width="165" height="25.1461" fill="white" />
		</clipPath>
	</defs>
</svg>
