<svg width="24" height="24" viewBox="0 0 24 24" fill="none" xmlns="http://www.w3.org/2000/svg">
<g id="Woo Icon">
<path id="Vector" d="M8.35565 16.8743C9.35568 16.8743 10.1557 16.378 10.7631 15.2372L12.1039 12.726V14.8594C12.1039 16.1113 12.9187 16.8743 14.1854 16.8743C15.1632 16.8743 15.8818 16.4298 16.5929 15.2372L19.6967 10.0149C20.3782 8.87409 19.8967 8 18.4003 8C17.6003 8 17.0818 8.26667 16.6151 9.14077L14.4743 13.1483V9.58522C14.4743 8.51853 13.9706 8 13.0298 8C12.2965 8 11.7113 8.31853 11.252 9.20743L9.23716 13.1409V9.62226C9.23716 8.48149 8.77048 8 7.62971 8H5.31855C4.44445 8 4 8.40742 4 9.16299C4 9.91856 4.45927 10.3408 5.31855 10.3408H6.26672V14.852C6.27413 16.1113 7.11118 16.8743 8.35565 16.8743Z" fill="#C4E2F5"/>
</g>
</svg>
