<svg width="655" height="904" viewBox="0 0 655 904" fill="none" xmlns="http://www.w3.org/2000/svg">
<g clip-path="url(#clip0_6433_13856)">
<g clip-path="url(#clip1_6433_13856)">
<rect x="785.035" y="468.617" width="456.865" height="456.865" rx="228.433" transform="rotate(-165 785.035 468.617)" fill="#C4E2F5"/>
<path d="M1078.35 192.178C988.008 -19.4345 961.803 -76.0174 897.181 -156.81C832.558 -237.602 834.381 -211.498 860.11 -80.6761C885.838 50.1457 898.184 96.1097 988.53 307.722C1078.88 519.335 1100.61 553.217 1165.24 634.009C1229.86 714.802 1218.14 675.079 1218.17 596.075C1218.21 515.579 1168.7 403.786 1078.35 192.178Z" stroke="#EBF4FA" stroke-width="2" stroke-miterlimit="10"/>
<path d="M1083.75 194.601C993.483 -24.4304 967.134 -83.1514 900.111 -169.012C833.089 -254.873 834.148 -228.55 857.391 -95.3845C880.634 37.7804 892.378 84.8177 982.644 303.844C1072.91 522.869 1095.23 558.482 1162.25 644.348C1229.27 730.214 1217.99 689.495 1220.78 610.234C1223.62 529.468 1174.01 413.632 1083.75 194.601Z" stroke="#EBF4FA" stroke-width="2" stroke-miterlimit="10"/>
<path d="M1089.47 197.432C999.554 -29.0348 973.127 -89.9097 903.68 -181.038C834.233 -272.167 834.466 -245.679 854.94 -110.346C875.414 24.9866 886.47 73.0517 976.39 299.518C1066.31 525.985 1089.19 563.374 1158.63 654.502C1228.07 745.629 1217.3 703.944 1223.08 624.629C1228.97 543.81 1179.39 423.899 1089.47 197.432Z" stroke="#EBF4FA" stroke-width="2" stroke-miterlimit="10"/>
<path d="M1095.57 200.698C1006.29 -33.2038 979.839 -96.2445 907.966 -192.84C836.093 -289.435 835.414 -262.839 852.825 -125.533C870.236 11.7733 880.505 60.8182 969.79 294.715C1059.07 528.611 1082.5 567.827 1154.37 664.423C1226.24 761.018 1216.05 718.387 1225.07 639.239C1234.26 558.593 1184.86 434.601 1095.57 200.698Z" stroke="#EBF4FA" stroke-width="2" stroke-miterlimit="10"/>
<path d="M1102.04 204.434C1013.69 -36.8762 987.313 -102.092 913 -204.35C838.688 -306.609 837.025 -279.979 851.056 -140.922C865.088 -1.86464 874.477 48.1016 962.816 289.416C1051.15 530.73 1075.1 571.812 1149.42 674.071C1223.73 776.33 1214.2 732.802 1226.7 654.059C1239.44 573.824 1190.38 445.744 1102.04 204.434Z" stroke="#EBF4FA" stroke-width="2" stroke-miterlimit="10"/>
<path d="M1108.91 208.666C1021.85 -40.0114 995.614 -107.404 918.86 -215.525C842.106 -323.646 839.383 -297.051 849.7 -156.493C860.012 -15.9361 868.419 34.8969 955.485 283.575C1042.55 532.252 1067 575.254 1143.75 683.373C1220.5 791.493 1211.72 747.113 1227.98 669.041C1244.54 589.495 1195.98 457.344 1108.91 208.666Z" stroke="#EBF4FA" stroke-width="2" stroke-miterlimit="10"/>
<path d="M1116.19 213.424C1030.76 -42.5519 1004.75 -112.117 925.574 -226.305C846.395 -340.493 842.523 -314.008 848.768 -172.22C855.014 -30.4328 862.326 21.1979 947.752 277.168C1033.18 533.139 1058.1 578.103 1137.28 692.291C1216.46 806.479 1208.52 761.293 1228.81 684.175C1249.49 605.593 1201.61 469.399 1116.19 213.424Z" stroke="#EBF4FA" stroke-width="2" stroke-miterlimit="10"/>
<path d="M1123.88 218.723C1040.47 -44.4479 1014.8 -116.178 933.2 -236.629C851.605 -357.08 846.498 -330.8 848.304 -188.074C850.11 -45.3492 856.212 6.98803 939.614 270.165C1023.02 533.341 1048.38 580.298 1129.98 700.749C1211.57 821.2 1204.57 775.278 1229.19 699.413C1254.27 622.107 1207.28 481.9 1123.88 218.723Z" stroke="#EBF4FA" stroke-width="2" stroke-miterlimit="10"/>
<path d="M1132.03 224.636C1051.06 -45.6082 1025.81 -119.488 941.82 -246.402C857.828 -373.315 851.394 -347.329 848.37 -203.997C845.345 -60.6645 850.111 -7.69891 931.073 262.545C1012.04 532.789 1037.81 581.795 1121.8 708.708C1205.8 835.621 1199.82 789.032 1229.08 714.741C1258.89 639.048 1212.99 494.88 1132.03 224.636Z" stroke="#EBF4FA" stroke-width="2" stroke-miterlimit="10"/>
<path d="M1140.61 231.149C1062.53 -46.0099 1037.81 -122.007 951.463 -255.591C865.115 -389.176 857.253 -363.578 848.987 -219.997C840.715 -76.4178 844.028 -22.9213 922.101 254.237C1000.17 531.394 1026.33 582.476 1112.68 716.06C1199.03 849.645 1194.19 802.448 1228.41 730.09C1263.27 656.362 1218.69 508.304 1140.61 231.149Z" stroke="#EBF4FA" stroke-width="2" stroke-miterlimit="10"/>
<path d="M1149.64 238.336C1074.92 -45.5442 1050.85 -123.632 962.189 -264.076C873.523 -404.521 864.136 -379.42 850.193 -235.982C836.25 -92.5444 837.961 -38.6231 912.679 245.258C987.396 529.138 1013.89 582.336 1102.55 722.774C1191.21 863.212 1187.63 815.509 1227.13 745.454C1267.38 674.074 1224.36 522.217 1149.64 238.336Z" stroke="#EBF4FA" stroke-width="2" stroke-miterlimit="10"/>
<path d="M1159.18 246.218C1088.33 -44.1557 1065.04 -124.294 974.106 -271.793C883.176 -419.292 872.152 -394.812 852.083 -251.935C832.013 -109.059 831.978 -54.834 902.833 235.545C973.687 525.924 1000.46 581.266 1091.39 728.763C1182.31 876.261 1180.12 828.129 1225.25 760.78C1271.24 692.156 1230.04 536.599 1159.18 246.218Z" stroke="#EBF4FA" stroke-width="2" stroke-miterlimit="10"/>
<path d="M1169.2 254.831C1102.75 -41.7754 1080.38 -123.906 987.245 -278.653C894.112 -433.4 881.346 -409.656 854.667 -267.801C827.993 -125.945 826.063 -71.5387 892.517 225.063C958.971 521.664 985.977 579.184 1079.11 733.929C1172.23 888.674 1171.54 840.222 1222.67 776.005C1274.76 710.572 1235.66 551.438 1169.2 254.831Z" stroke="#EBF4FA" stroke-width="2" stroke-miterlimit="10"/>
<path d="M1179.75 264.224C1118.26 -38.3037 1096.95 -122.372 1001.69 -284.556C906.424 -446.74 891.798 -423.87 858.023 -283.525C824.248 -143.18 820.264 -88.7399 881.746 213.787C943.229 516.315 970.408 576.03 1065.67 738.213C1160.92 900.395 1161.86 851.724 1219.36 791.1C1277.94 729.323 1241.23 566.751 1179.75 264.224Z" stroke="#EBF4FA" stroke-width="2" stroke-miterlimit="10"/>
<path d="M1190.81 274.424C1134.91 -33.6779 1114.8 -119.604 1017.5 -289.41C920.204 -459.216 903.595 -437.357 862.194 -299.055C820.795 -160.759 814.594 -106.433 870.489 201.662C926.385 509.758 953.68 571.692 1050.98 741.498C1148.28 911.304 1150.98 862.544 1215.24 805.992C1280.72 748.365 1246.71 582.526 1190.81 274.424Z" stroke="#EBF4FA" stroke-width="2" stroke-miterlimit="10"/>
<path d="M1202.41 285.475C1152.74 -27.7968 1134.01 -115.511 1034.77 -293.111C935.53 -470.711 916.818 -450.016 867.248 -314.339C817.678 -178.662 809.083 -124.619 858.753 188.653C908.423 501.925 935.759 566.091 1035 743.692C1134.24 921.292 1138.86 872.578 1210.28 820.616C1283.05 767.668 1252.08 598.753 1202.41 285.475Z" stroke="#EBF4FA" stroke-width="2" stroke-miterlimit="10"/>
<path d="M1214.55 297.44C1171.8 -20.566 1154.61 -109.96 1053.55 -295.522C952.484 -481.084 931.538 -461.714 873.235 -329.276C814.932 -196.837 803.755 -143.255 846.513 174.751C889.271 492.757 916.58 559.165 1017.64 744.732C1118.7 930.299 1125.39 881.759 1204.4 834.938C1284.89 787.227 1257.31 615.445 1214.55 297.44Z" stroke="#EBF4FA" stroke-width="2" stroke-miterlimit="10"/>
<path d="M1227.28 310.343C1192.16 -11.8943 1176.7 -102.859 1073.94 -296.552C971.18 -490.245 947.871 -472.363 880.235 -343.82C812.598 -215.276 798.653 -162.348 833.776 159.884C868.899 482.116 896.094 550.78 998.851 744.473C1101.61 938.166 1110.53 889.966 1197.56 848.864C1286.23 806.981 1262.4 632.579 1227.28 310.343Z" stroke="#EBF4FA" stroke-width="2" stroke-miterlimit="10"/>
<path d="M1240.58 324.241C1213.86 -1.67019 1200.32 -94.0924 1096.02 -296.063C991.724 -498.033 965.9 -481.828 888.321 -357.889C810.741 -233.949 793.82 -181.885 820.543 144.032C847.266 469.948 874.268 540.853 978.571 742.83C1082.87 944.807 1094.2 897.108 1189.69 862.341C1286.97 826.905 1267.31 650.158 1240.58 324.241Z" stroke="#EBF4FA" stroke-width="2" stroke-miterlimit="10"/>
<path d="M1254.44 339.158C1236.92 10.1816 1225.51 -83.5489 1119.83 -293.949C1014.14 -504.349 985.67 -490.004 897.502 -371.426C809.333 -252.842 789.23 -201.862 806.745 127.115C824.261 456.092 850.973 529.25 956.656 739.649C1062.34 950.048 1076.25 903.035 1180.66 875.25C1287.05 846.938 1271.95 668.14 1254.44 339.158Z" stroke="#EBF4FA" stroke-width="2" stroke-miterlimit="10"/>
<path d="M1268.93 355.16C1261.47 23.7916 1252.41 -71.0966 1145.52 -290.051C1038.64 -509.005 1007.36 -496.729 907.941 -384.314C808.511 -271.895 785.01 -222.238 792.465 109.13C799.921 440.499 826.242 515.878 933.127 734.832C1040.01 953.786 1056.69 907.652 1170.5 887.533C1286.47 867.039 1276.39 686.529 1268.93 355.16Z" stroke="#EBF4FA" stroke-width="2" stroke-miterlimit="10"/>
<path d="M1284.01 372.295C1287.5 39.2763 1281.02 -56.6014 1173.13 -284.224C1065.24 -511.847 1031.02 -501.86 919.635 -396.462C808.253 -291.065 781.121 -242.992 777.625 90.0266C774.129 423.046 799.941 500.631 907.832 728.253C1015.72 955.876 1035.35 910.83 1159.05 899.111C1285.11 887.173 1280.51 705.314 1284.01 372.295Z" stroke="#EBF4FA" stroke-width="2" stroke-miterlimit="10"/>
<path d="M1299.73 390.616C1315.12 56.755 1311.46 -39.921 1202.8 -276.32C1094.13 -512.72 1056.8 -505.243 932.74 -407.778C808.681 -310.313 777.681 -264.098 762.292 69.7631C746.904 403.624 772.095 483.385 880.759 719.784C989.422 956.184 1012.21 912.447 1146.32 909.886C1282.98 907.276 1284.35 724.477 1299.73 390.616Z" stroke="#EBF4FA" stroke-width="2" stroke-miterlimit="10"/>
<path d="M1316.08 410.157C1344.36 76.3324 1343.77 -20.9362 1234.57 -266.193C1125.37 -511.449 1084.75 -506.724 947.279 -418.161C809.805 -329.598 774.686 -285.534 746.408 48.2847C718.129 382.103 742.58 464.008 851.776 709.263C960.971 954.518 987.126 912.334 1132.16 919.739C1279.95 927.282 1287.81 743.982 1316.08 410.157Z" stroke="#EBF4FA" stroke-width="2" stroke-miterlimit="10"/>
<path d="M1333.07 430.98C1375.27 98.154 1378.03 0.524497 1268.56 -253.666C1159.09 -507.856 1115.03 -506.132 963.36 -427.501C811.689 -348.87 772.198 -307.267 729.995 25.554C687.791 358.38 711.359 442.369 820.829 696.553C930.299 950.738 960.032 910.362 1116.53 928.57C1275.98 947.13 1290.87 763.801 1333.07 430.98Z" stroke="#EBF4FA" stroke-width="2" stroke-miterlimit="10"/>
<path d="M1350.7 453.132C1407.92 122.346 1414.31 24.5914 1304.86 -238.577C1195.41 -501.744 1147.73 -503.294 981.063 -435.674C814.398 -368.055 770.263 -329.256 713.047 1.53209C655.826 332.318 678.371 418.336 787.819 681.509C897.267 944.682 930.81 906.374 1099.32 936.282C1271.01 966.75 1293.49 783.925 1350.7 453.132Z" stroke="#EBF4FA" stroke-width="2" stroke-miterlimit="10"/>
<path d="M1368.98 476.672C1442.36 149.046 1452.67 51.4405 1343.55 -220.736C1234.44 -492.913 1182.96 -498.016 1000.47 -442.561C817.983 -387.112 768.934 -351.465 695.557 -23.8336C622.18 303.798 643.544 391.775 752.656 663.952C861.769 936.128 899.361 900.194 1080.43 942.728C1264.94 986.059 1295.61 804.298 1368.98 476.672Z" stroke="#EBF4FA" stroke-width="2" stroke-miterlimit="10"/>
<path d="M1387.93 501.648C1478.65 178.39 1493.2 81.2301 1384.76 -199.957C1276.33 -481.145 1220.87 -490.091 1021.7 -448.028C822.537 -405.964 768.282 -373.845 677.549 -50.5884C586.821 272.669 606.839 362.523 715.277 643.717C823.716 924.911 865.596 891.647 1059.81 947.782C1257.71 1004.99 1297.2 824.905 1387.93 501.648Z" stroke="#EBF4FA" stroke-width="2" stroke-miterlimit="10"/>
<path d="M1407.52 528.105C1516.85 210.527 1535.96 114.127 1428.57 -176.056C1321.18 -466.239 1261.55 -479.333 1044.83 -451.938C828.104 -424.543 768.343 -396.351 659.011 -78.7733C549.678 238.805 568.184 330.453 675.57 620.635C782.956 910.816 829.381 880.561 1037.33 951.322C1249.23 1023.43 1298.19 845.69 1407.52 528.105Z" stroke="#EBF4FA" stroke-width="2" stroke-miterlimit="10"/>
<path d="M1427.79 556.128C1557.03 245.626 1581.04 150.331 1475.09 -148.796C1369.14 -447.922 1305.16 -465.497 1069.97 -454.121C834.784 -442.745 769.214 -418.91 639.975 -108.407C510.737 202.096 527.538 295.42 633.486 594.546C739.433 893.673 790.659 866.771 1012.95 953.227C1239.44 1041.32 1298.55 866.631 1427.79 556.128Z" stroke="#EBF4FA" stroke-width="2" stroke-miterlimit="10"/>
<path d="M1448.7 585.733C1599.21 283.812 1628.49 189.987 1524.41 -118.012C1420.33 -426.012 1351.79 -448.395 1097.21 -454.467C842.623 -460.54 770.925 -441.499 620.415 -139.578C469.905 162.343 484.812 257.226 588.885 565.219C692.959 873.212 749.266 850.031 986.492 953.297C1228.22 1058.52 1298.19 887.654 1448.7 585.733Z" stroke="#EBF4FA" stroke-width="2" stroke-miterlimit="10"/>
<path d="M1470.27 617.006C1643.46 325.276 1678.38 233.315 1576.63 -83.4338C1474.89 -400.183 1401.59 -427.742 1126.65 -452.766C851.713 -477.789 773.555 -464.011 600.36 -172.286C427.164 119.439 439.964 215.747 541.708 532.496C643.452 849.245 705.112 830.171 957.904 951.424C1215.48 1074.97 1297.07 908.737 1470.27 617.006Z" stroke="#EBF4FA" stroke-width="2" stroke-miterlimit="10"/>
<path d="M1492.51 649.973C1689.87 370.156 1730.81 280.488 1631.89 -44.8775C1532.97 -370.243 1454.71 -403.343 1158.43 -448.888C862.154 -494.432 777.204 -486.426 579.843 -206.609C382.481 73.207 392.957 170.783 491.874 496.148C590.791 821.514 658.102 806.958 927.086 947.402C1201.16 1090.51 1295.14 929.788 1492.51 649.973Z" stroke="#EBF4FA" stroke-width="2" stroke-miterlimit="10"/>
<path d="M1515.38 684.708C1738.44 418.639 1785.81 331.715 1690.25 -2.08202C1594.69 -335.879 1511.26 -374.905 1192.64 -442.633C874.012 -510.357 781.919 -508.64 558.855 -242.567C335.79 23.5065 343.713 122.178 439.269 455.974C534.825 789.769 608.082 780.173 893.901 941.083C1185.14 1105.04 1292.31 950.776 1515.38 684.708Z" stroke="#EBF4FA" stroke-width="2" stroke-miterlimit="10"/>
<path d="M1538.88 721.25C1789.25 470.886 1843.48 387.197 1751.83 45.192C1660.19 -296.813 1571.38 -342.175 1229.38 -433.815C887.373 -525.454 787.782 -530.575 537.415 -280.211C287.047 -29.8464 292.172 69.7454 383.809 411.749C475.446 753.754 554.967 749.572 858.262 932.266C1167.31 1118.42 1288.52 971.615 1538.88 721.25Z" stroke="#EBF4FA" stroke-width="2" stroke-miterlimit="10"/>
</g>
<g clip-path="url(#clip2_6433_13856)">
<rect x="217.267" y="112.714" width="314.399" height="314.399" rx="157.2" transform="rotate(-75 217.267 112.714)" fill="#EBF4FA"/>
<path d="M130.146 -116.336C100.816 -6.8745 145.426 -9.2124 186.037 96.585C226.649 202.382 191.933 230.493 286.975 292.213C382.018 353.933 393.579 310.787 506.745 304.852C619.911 298.917 635.923 340.625 723.992 269.307C812.061 197.99 774.597 173.66 803.927 64.1991C833.257 -45.2621 877.867 -47.6 837.256 -153.397C796.644 -259.195 761.929 -231.084 666.886 -292.804C571.844 -354.524 583.406 -397.674 470.241 -391.743C357.076 -385.812 384.838 -330.695 286.732 -273.975C187.871 -216.812 159.476 -225.797 130.146 -116.336Z" stroke="#C4E2F5" stroke-width="2" stroke-miterlimit="10"/>
<path d="M140.111 -118.799C111.069 -10.4112 154.992 -12.712 195.205 92.0447C235.419 196.801 201.238 224.483 295.345 285.6C389.453 346.717 400.838 304.228 512.895 298.357C624.951 292.485 640.718 333.545 727.922 262.93C815.127 192.311 778.239 168.357 807.282 59.9691C836.324 -48.4185 880.248 -50.7236 840.034 -155.48C799.822 -260.241 765.641 -232.56 671.529 -293.674C577.42 -354.787 588.804 -397.272 476.747 -391.401C364.69 -385.53 392.094 -331.217 294.962 -275.03C197.127 -218.432 169.155 -227.19 140.111 -118.799Z" stroke="#C4E2F5" stroke-width="2" stroke-miterlimit="10"/>
<path d="M150.083 -121.24C121.328 -13.9263 164.564 -16.1901 204.383 87.5312C244.201 191.253 210.547 218.502 303.726 279.009C396.904 339.517 408.11 297.697 519.059 291.885C630.008 286.073 645.525 326.494 731.867 256.572C818.208 186.651 781.897 163.073 810.651 55.7586C839.406 -51.5553 882.643 -53.8233 842.829 -157.543C803.015 -261.264 769.366 -234.018 676.188 -294.529C583.01 -355.041 594.216 -396.861 483.266 -391.045C372.316 -385.229 399.359 -331.725 303.203 -276.067C206.386 -220.031 178.837 -228.554 150.083 -121.24Z" stroke="#C4E2F5" stroke-width="2" stroke-miterlimit="10"/>
<path d="M160.046 -123.698C131.579 -17.4579 174.129 -19.6846 213.548 83.0002C252.967 185.685 219.85 212.496 312.094 272.401C404.337 332.306 415.366 291.147 525.208 285.391C635.05 279.634 650.32 319.415 735.796 250.196C821.272 180.977 785.538 157.77 814.006 51.5253C842.474 -54.7193 885.024 -56.9459 845.61 -159.634C806.194 -262.317 773.076 -235.502 680.832 -295.407C588.589 -355.312 599.617 -396.471 489.775 -390.715C379.933 -384.959 406.615 -332.26 311.436 -277.134C215.641 -221.646 188.515 -229.943 160.046 -123.698Z" stroke="#C4E2F5" stroke-width="2" stroke-miterlimit="10"/>
<path d="M170.015 -126.156C141.834 -20.9855 183.703 -23.1824 222.719 78.4647C261.735 180.112 229.157 206.494 320.471 265.794C411.785 325.093 422.635 284.599 531.365 278.901C640.094 273.204 655.121 312.342 739.734 243.821C824.35 175.301 789.188 152.468 817.368 47.2971C845.549 -57.8739 887.417 -60.0666 848.396 -161.715C809.376 -263.363 776.797 -236.977 685.484 -296.28C594.17 -355.579 605.022 -396.077 496.291 -390.375C387.561 -384.678 413.877 -332.79 319.675 -278.192C224.899 -223.256 198.194 -231.323 170.015 -126.156Z" stroke="#C4E2F5" stroke-width="2" stroke-miterlimit="10"/>
<path d="M179.978 -128.607C152.085 -24.5096 193.267 -26.6694 231.888 73.9423C270.509 174.554 238.462 200.505 328.842 259.198C419.222 317.891 429.899 278.059 537.517 272.42C645.134 266.78 659.917 305.28 743.665 237.457C827.418 169.635 792.832 147.178 820.725 43.0807C848.618 -61.0166 889.799 -63.1722 851.177 -163.784C812.556 -264.396 780.509 -238.444 690.129 -297.137C599.749 -355.829 610.418 -395.663 502.8 -390.024C395.183 -384.385 421.133 -333.304 327.908 -279.238C234.153 -224.863 207.871 -232.704 179.978 -128.607Z" stroke="#C4E2F5" stroke-width="2" stroke-miterlimit="10"/>
<path d="M189.939 -131.053C162.334 -28.0289 202.829 -30.1516 241.052 69.4193C279.276 168.99 247.763 194.512 337.212 252.603C426.661 310.694 437.157 271.523 543.667 265.943C650.176 260.363 664.711 298.219 747.595 231.098C830.478 163.978 796.474 141.893 824.079 38.8692C851.684 -64.1545 892.18 -66.2772 853.956 -165.848C815.733 -265.419 784.222 -239.902 694.772 -297.989C605.323 -356.08 615.817 -395.248 509.307 -389.664C402.796 -384.08 428.386 -333.808 336.138 -280.275C243.405 -226.461 217.544 -234.076 189.939 -131.053Z" stroke="#C4E2F5" stroke-width="2" stroke-miterlimit="10"/>
<path d="M199.905 -133.516C172.587 -31.566 212.396 -33.6516 250.22 64.8829C288.044 163.417 257.062 188.504 345.582 245.99C434.101 303.475 444.419 264.969 549.817 259.443C655.216 253.918 669.507 291.135 751.531 224.713C833.555 158.292 800.122 136.582 827.44 34.6315C854.757 -67.3186 894.566 -69.4043 856.742 -167.939C818.918 -266.473 787.937 -241.387 699.418 -298.872C610.898 -356.358 621.216 -394.864 515.818 -389.339C410.415 -383.815 435.643 -334.349 344.371 -281.343C252.657 -228.082 227.222 -235.466 199.905 -133.516Z" stroke="#C4E2F5" stroke-width="2" stroke-miterlimit="10"/>
<path d="M209.878 -135.962C182.848 -35.0853 221.971 -37.1381 259.398 60.3652C296.826 157.868 266.377 182.52 353.962 239.399C441.548 296.278 451.687 258.436 555.982 252.972C660.277 247.507 674.311 284.082 755.476 218.36C836.635 152.637 803.78 131.298 830.81 30.4211C857.84 -70.4555 896.963 -72.5082 859.538 -170.006C822.113 -267.504 791.663 -242.849 704.077 -299.727C616.492 -356.606 626.632 -394.448 522.337 -388.983C418.046 -383.517 442.908 -334.858 352.614 -282.385C261.92 -229.681 236.907 -236.838 209.878 -135.962Z" stroke="#C4E2F5" stroke-width="2" stroke-miterlimit="10"/>
<path d="M219.841 -138.419C193.099 -38.6158 231.539 -40.6304 268.565 55.8311C305.59 152.292 275.68 176.515 362.336 232.789C448.991 289.062 458.953 251.886 562.136 246.475C665.32 241.065 679.111 277.002 759.411 211.977C839.711 146.953 807.428 125.989 834.17 26.1858C860.912 -73.6172 899.352 -75.6317 862.323 -172.094C825.293 -268.557 795.382 -244.334 708.727 -300.607C622.071 -356.881 632.034 -394.061 528.851 -388.655C425.668 -383.248 450.174 -335.397 360.852 -283.454C271.17 -231.295 246.583 -238.222 219.841 -138.419Z" stroke="#C4E2F5" stroke-width="2" stroke-miterlimit="10"/>
<path d="M229.809 -140.865C203.354 -42.1353 241.108 -44.1128 277.734 51.3122C314.361 146.737 284.986 170.526 370.707 226.197C456.427 281.867 466.213 245.348 568.287 240.001C670.362 234.655 683.906 269.943 763.341 205.622C842.778 141.296 811.071 120.706 837.525 21.9771C863.98 -76.7522 901.733 -78.7297 865.102 -174.156C828.472 -269.582 799.092 -245.79 713.37 -301.456C627.65 -357.127 637.434 -393.642 535.358 -388.291C433.283 -382.941 457.428 -335.899 369.083 -284.488C280.428 -232.893 256.263 -239.594 229.809 -140.865Z" stroke="#C4E2F5" stroke-width="2" stroke-miterlimit="10"/>
<path d="M239.775 -143.326C213.608 -45.6704 250.675 -47.6108 286.907 46.7745C323.14 141.16 294.291 164.521 379.087 219.583C463.883 274.645 473.485 238.794 574.448 233.501C675.412 228.209 688.711 262.864 767.284 199.236C845.856 135.608 814.725 115.394 840.892 17.7383C867.059 -79.9174 904.127 -81.862 867.894 -176.247C831.661 -270.633 802.817 -247.275 718.027 -302.34C633.236 -357.405 642.842 -393.255 541.88 -387.967C440.916 -382.674 464.695 -336.439 377.327 -285.556C289.681 -234.513 265.942 -240.982 239.775 -143.326Z" stroke="#C4E2F5" stroke-width="2" stroke-miterlimit="10"/>
<path d="M249.74 -145.784C223.861 -49.2023 260.24 -51.1056 296.074 42.2432C331.908 135.592 303.595 158.519 387.456 212.978C471.317 267.438 480.745 232.249 580.597 227.015C680.448 221.781 693.504 255.793 771.212 192.867C848.919 129.942 818.366 110.099 844.245 13.5173C870.124 -83.0648 906.505 -84.9723 870.671 -178.321C834.838 -271.67 806.525 -248.743 722.668 -303.201C638.807 -357.661 648.236 -392.85 548.384 -387.616C448.529 -382.383 471.946 -336.954 385.555 -286.602C298.94 -236.122 275.619 -242.366 249.74 -145.784Z" stroke="#C4E2F5" stroke-width="2" stroke-miterlimit="10"/>
<path d="M259.701 -148.231C234.108 -52.7183 269.803 -54.5929 305.238 37.7193C340.672 130.032 312.898 152.53 395.825 206.383C478.752 260.235 488.003 225.712 586.747 220.533C685.492 215.355 698.3 248.727 775.148 186.501C851.995 124.274 822.014 104.806 847.607 9.29341C873.199 -86.2193 908.893 -88.0897 873.459 -180.402C838.024 -272.714 810.247 -250.221 727.316 -304.075C644.389 -357.928 653.641 -392.456 554.897 -387.282C456.154 -382.107 479.205 -337.484 393.792 -287.666C308.188 -237.726 285.293 -243.744 259.701 -148.231Z" stroke="#C4E2F5" stroke-width="2" stroke-miterlimit="10"/>
<path d="M269.677 -150.683C244.372 -56.2443 279.38 -58.0819 314.42 33.195C349.459 124.472 322.213 146.534 404.209 199.785C486.205 253.037 495.28 219.17 592.915 214.055C690.55 208.94 703.111 241.669 779.095 180.14C855.078 118.612 825.674 99.5196 850.979 5.0805C876.284 -89.3586 911.291 -91.192 876.255 -182.468C841.22 -273.744 813.974 -251.681 731.976 -304.929C649.979 -358.176 659.054 -392.043 561.417 -386.924C463.782 -381.809 486.471 -337.991 402.034 -288.701C317.454 -239.331 294.98 -245.118 269.677 -150.683Z" stroke="#C4E2F5" stroke-width="2" stroke-miterlimit="10"/>
<path d="M279.641 -153.139C254.624 -59.7738 288.95 -61.5732 323.586 28.666C358.222 118.905 331.516 140.534 412.578 193.179C493.64 245.824 502.537 212.622 599.065 207.563C695.594 202.503 707.906 234.592 783.026 173.762C858.146 112.932 829.317 94.2147 854.334 0.849215C879.352 -92.5163 913.677 -94.3157 879.036 -184.552C844.394 -274.788 817.684 -253.16 736.622 -305.805C655.559 -358.449 664.455 -391.647 567.927 -386.592C471.4 -381.536 493.723 -338.525 410.268 -289.766C326.706 -240.945 304.659 -246.505 279.641 -153.139Z" stroke="#C4E2F5" stroke-width="2" stroke-miterlimit="10"/>
<path d="M289.604 -155.593C264.874 -63.3007 298.513 -65.063 332.755 24.1366C366.998 113.336 340.818 134.533 420.95 186.572C501.083 238.611 509.801 206.075 605.217 201.074C700.633 196.073 712.703 227.519 786.958 167.391C861.212 107.263 832.961 88.9178 857.691 -3.3741C882.42 -95.666 916.059 -97.4283 881.817 -186.628C847.575 -275.828 821.399 -254.629 741.266 -306.668C661.134 -358.707 669.852 -391.244 574.436 -386.243C479.019 -381.242 500.978 -339.042 418.5 -290.815C335.959 -242.555 314.333 -247.885 289.604 -155.593Z" stroke="#C4E2F5" stroke-width="2" stroke-miterlimit="10"/>
<path d="M299.568 -158.045C275.126 -66.8264 308.078 -68.5516 341.921 19.6115C375.765 107.775 350.119 128.542 429.318 179.974C508.516 231.407 517.06 199.536 611.365 194.594C705.669 189.652 717.494 220.459 790.886 161.025C864.277 101.595 836.603 83.621 861.044 -7.59309C885.485 -98.8072 918.438 -100.537 884.595 -188.7C850.751 -276.863 825.106 -256.095 745.909 -307.532C666.711 -358.968 675.247 -390.841 580.942 -385.894C486.637 -380.948 508.23 -339.558 426.725 -291.86C345.209 -244.16 324.01 -249.263 299.568 -158.045Z" stroke="#C4E2F5" stroke-width="2" stroke-miterlimit="10"/>
<path d="M309.534 -160.5C285.38 -70.3553 317.646 -72.0476 351.09 15.079C384.534 102.206 359.425 122.539 437.694 173.366C515.963 224.192 524.326 192.982 617.522 188.099C710.718 183.216 722.296 213.38 794.823 154.648C867.35 95.9167 840.252 78.3179 864.407 -11.8268C888.561 -101.972 920.827 -103.664 887.383 -190.79C853.939 -277.917 828.83 -257.584 750.561 -308.41C672.292 -359.237 680.655 -390.447 587.459 -385.564C494.263 -380.682 515.493 -340.093 434.965 -292.928C354.467 -245.772 333.688 -250.645 309.534 -160.5Z" stroke="#C4E2F5" stroke-width="2" stroke-miterlimit="10"/>
<path d="M319.498 -162.955C295.632 -73.884 327.211 -75.5393 360.261 10.5519C393.31 96.6431 368.732 116.541 446.066 166.766C523.4 216.99 531.589 186.442 623.673 181.617C715.757 176.793 727.093 206.314 798.76 148.281C870.423 90.2478 843.902 73.0245 867.768 -16.0466C891.635 -105.118 923.214 -106.773 890.169 -192.863C857.124 -278.953 832.546 -259.051 755.208 -309.276C677.87 -359.501 686.054 -390.046 593.969 -385.218C501.884 -380.389 522.75 -340.612 443.199 -293.978C363.721 -247.38 343.365 -252.026 319.498 -162.955Z" stroke="#C4E2F5" stroke-width="2" stroke-miterlimit="10"/>
<path d="M329.467 -165.403C305.889 -77.4052 336.781 -79.0233 369.433 6.02714C402.084 91.0776 378.036 110.549 454.444 160.169C530.852 209.788 538.855 179.903 629.837 175.135C720.818 170.368 731.901 199.248 802.703 141.918C873.505 84.5876 847.557 67.7344 871.136 -20.2631C894.715 -108.261 925.609 -109.883 892.962 -194.932C860.315 -279.982 836.272 -260.513 759.864 -310.133C683.456 -359.752 691.467 -389.635 600.486 -384.868C509.505 -380.1 530.013 -341.126 451.439 -295.021C372.977 -248.985 353.047 -253.404 329.467 -165.403Z" stroke="#C4E2F5" stroke-width="2" stroke-miterlimit="10"/>
<path d="M339.434 -167.858C316.143 -80.9345 346.353 -82.5144 378.601 1.49837C410.849 85.5112 387.341 104.55 462.815 153.563C538.289 202.576 546.118 173.357 635.987 168.648C725.856 163.938 736.695 192.18 806.634 135.548C876.572 78.9158 851.2 62.4382 874.491 -24.4857C897.782 -111.41 927.994 -112.994 895.742 -197.008C863.49 -281.022 839.982 -261.983 764.509 -311C689.036 -360.017 696.864 -389.232 606.995 -384.523C517.126 -379.813 537.268 -341.646 459.671 -296.073C382.228 -250.59 362.725 -254.782 339.434 -167.858Z" stroke="#C4E2F5" stroke-width="2" stroke-miterlimit="10"/>
<path d="M349.4 -170.321C326.396 -84.4704 355.921 -86.0175 387.773 -3.03584C419.625 79.9458 396.65 98.5452 471.189 146.956C545.728 195.366 553.381 166.804 642.142 162.154C730.903 157.504 741.495 185.103 810.569 129.168C879.643 73.2343 854.848 57.1323 877.852 -28.7223C900.857 -114.577 930.381 -116.12 898.529 -199.101C866.676 -282.079 843.7 -263.475 769.159 -311.881C694.619 -360.287 702.271 -388.845 613.51 -384.196C524.749 -379.546 544.526 -342.186 467.905 -297.141C391.486 -252.209 372.405 -256.175 349.4 -170.321Z" stroke="#C4E2F5" stroke-width="2" stroke-miterlimit="10"/>
<path d="M359.361 -172.765C336.644 -87.9842 365.483 -89.4984 396.937 -7.55753C428.39 74.3834 405.945 92.556 479.558 140.362C553.172 188.168 560.643 160.27 648.292 155.679C735.94 151.087 746.289 178.043 814.498 122.811C882.709 67.575 858.489 51.8484 881.206 -32.9325C903.923 -117.713 932.761 -119.223 901.307 -201.164C869.854 -283.105 847.412 -264.931 773.802 -312.732C700.191 -360.533 707.666 -388.429 620.016 -383.834C532.366 -379.238 551.778 -342.689 476.134 -298.176C400.732 -253.807 382.077 -257.542 359.361 -172.765Z" stroke="#C4E2F5" stroke-width="2" stroke-miterlimit="10"/>
<path d="M369.336 -175.214C346.906 -91.5069 375.058 -92.9841 406.113 -12.0797C437.168 68.8247 415.262 86.5645 487.938 133.763C560.613 180.961 567.914 153.73 654.452 149.193C740.989 144.656 751.093 170.977 818.439 116.439C885.786 61.9013 862.143 46.5503 884.572 -37.157C907.001 -120.864 935.152 -122.337 904.098 -203.242C873.043 -284.146 851.132 -266.403 778.457 -313.601C705.782 -360.799 713.074 -388.032 626.536 -383.495C539.999 -378.958 559.044 -343.215 484.377 -299.23C409.994 -255.413 391.765 -258.922 369.336 -175.214Z" stroke="#C4E2F5" stroke-width="2" stroke-miterlimit="10"/>
<path d="M379.291 -177.677C357.149 -95.0437 384.614 -96.4838 415.275 -16.619C445.936 63.2458 424.557 80.5535 496.301 127.15C568.046 173.747 575.165 147.176 660.595 142.699C746.025 138.221 755.882 163.899 822.367 110.064C888.852 56.2297 865.783 41.2488 887.924 -41.3849C910.066 -124.019 937.531 -125.459 906.875 -205.322C876.218 -285.186 854.843 -267.877 783.093 -314.471C711.344 -361.064 718.466 -387.629 633.037 -383.152C547.607 -378.675 566.286 -343.738 492.596 -300.286C419.238 -257.025 401.431 -260.307 379.291 -177.677Z" stroke="#C4E2F5" stroke-width="2" stroke-miterlimit="10"/>
<path d="M389.262 -180.126C367.408 -98.5662 394.191 -99.9681 424.448 -21.1409C454.706 57.6862 433.866 74.5653 504.682 120.552C575.498 166.539 582.438 140.638 666.761 136.216C751.084 131.794 760.692 156.831 826.314 103.695C891.935 50.5586 869.442 35.9532 891.296 -45.6069C913.15 -127.167 939.932 -128.569 909.671 -207.397C879.409 -286.225 858.57 -269.35 787.754 -315.337C716.938 -361.324 723.88 -387.229 639.558 -382.812C555.236 -378.394 573.554 -344.263 500.84 -301.339C428.496 -258.631 411.116 -261.686 389.262 -180.126Z" stroke="#C4E2F5" stroke-width="2" stroke-miterlimit="10"/>
<path d="M399.231 -182.587C377.665 -102.101 403.762 -103.47 433.62 -25.6789C463.478 52.1117 443.174 68.5568 513.055 113.941C582.936 159.325 589.7 134.081 672.914 129.723C756.128 125.365 765.489 149.759 830.247 97.3202C895.004 44.8818 873.088 30.6478 894.654 -49.8387C916.221 -130.325 942.318 -131.694 912.455 -209.486C882.593 -287.278 862.284 -270.834 792.402 -316.214C722.52 -361.594 729.285 -386.838 646.07 -382.476C562.855 -378.113 580.808 -344.793 509.075 -302.396C437.751 -260.246 420.797 -263.074 399.231 -182.587Z" stroke="#C4E2F5" stroke-width="2" stroke-miterlimit="10"/>
<path d="M409.191 -185.037C387.913 -105.624 413.323 -106.956 442.786 -30.2009C472.25 46.5543 452.476 62.5685 521.429 107.343C590.381 152.117 596.966 127.542 679.068 123.239C761.171 118.935 770.288 142.69 834.182 90.9497C898.076 39.2095 876.736 25.351 898.014 -54.0619C919.293 -133.475 944.703 -134.807 915.24 -211.562C885.776 -288.317 866.003 -272.303 797.052 -317.082C728.101 -361.86 734.686 -386.435 652.584 -382.136C570.481 -377.832 588.068 -345.318 517.308 -303.454C446.997 -261.849 430.47 -264.45 409.191 -185.037Z" stroke="#C4E2F5" stroke-width="2" stroke-miterlimit="10"/>
<path d="M419.157 -187.495C398.166 -109.156 422.889 -110.451 451.954 -34.732C481.018 40.9867 461.776 56.5659 529.798 100.739C597.819 144.912 604.227 120.998 685.217 116.753C766.212 112.508 775.082 135.62 838.11 84.5818C901.139 33.5438 880.377 20.0566 901.368 -58.2827C922.359 -136.622 947.082 -137.917 918.018 -213.635C888.953 -289.354 869.711 -273.771 801.693 -317.943C733.676 -362.115 740.08 -386.03 659.089 -381.784C578.099 -377.539 595.319 -345.827 525.536 -304.496C456.249 -263.461 440.148 -265.834 419.157 -187.495Z" stroke="#C4E2F5" stroke-width="2" stroke-miterlimit="10"/>
<path d="M429.132 -189.944C408.428 -112.678 432.465 -113.936 461.131 -39.2581C489.798 35.4198 471.091 50.5691 538.178 94.1355C605.266 137.702 611.495 114.453 691.379 110.263C771.262 106.073 779.887 128.55 842.053 78.2061C904.219 27.862 884.031 14.7545 904.735 -62.5112C925.438 -139.777 949.476 -141.039 920.809 -215.717C892.143 -290.395 873.437 -275.25 806.35 -318.816C739.263 -362.382 745.493 -385.635 665.611 -381.449C585.728 -377.264 602.582 -346.359 533.776 -305.555C465.509 -265.063 449.835 -267.21 429.132 -189.944Z" stroke="#C4E2F5" stroke-width="2" stroke-miterlimit="10"/>
<path d="M439.083 -192.395C418.668 -116.203 442.018 -117.423 470.289 -43.7808C498.56 29.8618 480.384 44.5802 546.542 87.5409C612.699 130.502 618.752 107.914 697.522 103.786C776.297 99.6602 784.675 121.489 845.98 71.8488C907.281 22.207 887.671 9.47085 908.087 -66.7212C928.502 -142.913 951.853 -144.138 923.586 -217.78C895.319 -291.421 877.144 -276.707 810.986 -319.668C744.829 -362.628 750.881 -385.216 672.111 -381.089C593.34 -376.961 609.824 -346.864 542 -306.592C474.751 -266.666 459.499 -268.587 439.083 -192.395Z" stroke="#C4E2F5" stroke-width="2" stroke-miterlimit="10"/>
<path d="M449.059 -194.842C428.93 -119.719 451.6 -120.91 479.468 -48.3053C507.336 24.2996 489.7 38.5852 554.922 80.9434C620.145 123.302 626.02 101.375 703.687 97.3081C781.35 93.2361 789.485 114.427 849.926 65.4844C910.367 16.5418 891.329 4.17996 911.458 -70.9427C931.587 -146.065 954.255 -147.252 926.383 -219.858C898.511 -292.464 880.875 -278.179 815.648 -320.538C750.426 -362.896 756.3 -384.819 678.632 -380.748C600.969 -376.676 617.09 -347.384 550.239 -307.645C484.013 -268.267 469.189 -269.965 449.059 -194.842Z" stroke="#C4E2F5" stroke-width="2" stroke-miterlimit="10"/>
<path d="M459.027 -197.304C439.186 -123.255 461.169 -124.408 488.642 -52.8388C516.115 18.7307 499.006 32.58 563.299 74.3325C627.592 116.085 633.289 94.8236 709.844 90.8112C786.4 86.7988 794.286 107.35 853.863 59.1055C913.44 10.861 894.979 -1.12533 914.82 -75.1744C934.661 -149.224 956.643 -150.373 929.17 -221.943C901.697 -293.512 884.591 -279.657 820.299 -321.41C756.006 -363.163 761.703 -384.424 685.147 -380.412C608.592 -376.399 624.348 -347.914 558.477 -308.702C493.268 -269.886 478.869 -271.353 459.027 -197.304Z" stroke="#C4E2F5" stroke-width="2" stroke-miterlimit="10"/>
<path d="M468.986 -199.752C449.432 -126.777 470.728 -127.893 497.803 -57.3646C524.878 13.1642 508.303 26.5879 571.666 67.7349C635.025 108.881 640.544 88.2844 715.991 84.3316C791.439 80.3788 799.078 100.286 857.791 52.7397C916.504 5.19333 898.619 -6.41746 918.173 -79.393C937.726 -152.368 959.022 -153.485 931.947 -224.014C904.872 -294.543 888.298 -281.123 824.941 -322.273C761.582 -363.419 767.102 -384.02 691.653 -380.063C616.205 -376.106 631.595 -348.431 566.701 -309.747C502.511 -271.484 488.54 -272.728 468.986 -199.752Z" stroke="#C4E2F5" stroke-width="2" stroke-miterlimit="10"/>
<path d="M478.957 -202.215C459.691 -130.313 480.3 -131.392 506.976 -61.9002C533.652 7.59209 517.613 20.5818 580.042 61.122C642.471 101.662 647.813 81.7269 722.148 77.8326C796.483 73.9383 803.88 93.2029 861.728 46.3588C919.576 -0.4853 902.268 -11.7248 921.534 -83.6267C940.8 -155.529 961.409 -156.608 934.733 -226.1C908.057 -295.593 892.019 -282.607 829.59 -323.147C767.161 -363.688 772.503 -383.623 698.168 -379.729C623.832 -375.834 638.855 -348.958 574.938 -310.806C511.764 -273.101 498.223 -274.117 478.957 -202.215Z" stroke="#C4E2F5" stroke-width="2" stroke-miterlimit="10"/>
<path d="M488.927 -204.66C469.948 -133.831 489.872 -134.878 516.151 -66.4168C542.431 2.04426 526.925 14.5947 588.419 54.5323C649.913 94.47 655.082 75.1968 728.305 71.361C801.528 67.5252 808.68 86.1513 865.665 40.0053C922.649 -6.14075 905.918 -17.0089 924.896 -87.8372C943.875 -158.665 963.797 -159.708 937.521 -228.168C911.245 -296.624 895.738 -284.069 834.242 -324.003C772.744 -363.941 777.908 -383.212 704.683 -379.371C631.455 -375.533 646.113 -349.467 583.172 -311.843C521.019 -274.699 507.905 -275.488 488.927 -204.66Z" stroke="#C4E2F5" stroke-width="2" stroke-miterlimit="10"/>
<path d="M498.892 -207.11C480.202 -137.356 499.438 -138.365 525.32 -70.9449C551.202 -3.52452 536.229 8.6003 596.795 47.9282C657.36 87.256 662.345 68.6511 734.462 64.8707C806.578 61.0902 813.482 79.0768 869.606 33.63C925.727 -11.818 909.572 -22.3106 928.263 -92.0653C946.953 -161.82 966.194 -162.829 940.312 -230.249C914.435 -297.668 899.462 -285.543 838.894 -324.876C778.33 -364.209 783.316 -382.818 711.2 -379.037C639.084 -375.257 653.37 -349.994 591.407 -312.903C530.266 -276.305 517.583 -276.865 498.892 -207.11Z" stroke="#C4E2F5" stroke-width="2" stroke-miterlimit="10"/>
<path d="M508.857 -209.562C490.454 -140.881 509.008 -141.853 534.486 -75.47C559.965 -9.0873 545.528 2.60356 605.163 41.33C664.797 80.0565 669.605 62.1126 740.613 58.3917C811.622 54.6709 818.278 72.0136 873.538 27.2691C928.797 -17.4754 913.216 -27.5979 931.619 -96.279C950.022 -164.96 968.576 -165.932 943.093 -232.315C917.611 -298.699 903.173 -287.004 843.539 -325.731C783.904 -364.457 788.712 -382.401 717.704 -378.68C646.696 -374.959 660.616 -350.504 599.629 -313.94C539.52 -277.905 527.26 -278.243 508.857 -209.562Z" stroke="#C4E2F5" stroke-width="2" stroke-miterlimit="10"/>
<path d="M518.82 -212.02C500.704 -144.413 518.572 -145.347 543.656 -80.004C568.741 -14.6608 554.835 -3.4009 613.535 34.723C672.235 72.8427 676.865 55.564 746.766 51.8986C816.662 48.2362 823.075 64.9404 877.472 20.8898C931.867 -23.1567 916.862 -32.9036 934.978 -100.511C953.093 -168.119 970.961 -169.057 945.876 -234.4C920.792 -299.743 906.887 -288.488 848.187 -326.607C789.486 -364.727 794.117 -382.01 724.217 -378.349C654.321 -374.686 667.87 -351.034 607.865 -315.002C548.769 -279.516 536.936 -279.632 518.82 -212.02Z" stroke="#C4E2F5" stroke-width="2" stroke-miterlimit="10"/>
<path d="M528.787 -214.478C510.959 -147.944 528.14 -148.841 552.825 -84.5345C577.511 -20.2278 564.14 -9.39769 621.911 28.1164C679.681 65.6305 684.134 49.0128 752.922 45.4101C821.711 41.8031 827.876 57.8677 881.407 14.5194C934.939 -28.829 920.51 -38.2004 938.338 -104.734C956.166 -171.268 973.347 -172.17 948.661 -236.476C923.976 -300.783 910.606 -289.957 852.835 -327.471C795.066 -364.989 799.518 -381.607 730.729 -378C661.94 -374.393 675.124 -351.552 616.095 -316.048C558.016 -281.124 546.615 -281.012 528.787 -214.478Z" stroke="#C4E2F5" stroke-width="2" stroke-miterlimit="10"/>
<path d="M538.75 -216.931C521.208 -151.466 537.704 -152.335 561.991 -89.0649C586.277 -25.7948 573.442 -15.3987 630.278 21.5129C687.118 58.4256 691.393 42.4689 759.07 38.9204C826.751 35.373 832.669 50.7939 885.336 8.14359C938.004 -34.5067 924.152 -43.5026 941.693 -108.967C959.234 -174.432 975.729 -175.296 951.442 -238.566C927.156 -301.836 914.316 -291.441 857.481 -328.353C800.641 -365.265 804.915 -381.218 737.24 -377.674C669.564 -374.129 682.375 -352.087 624.324 -317.115C567.261 -282.732 556.291 -282.395 538.75 -216.931Z" stroke="#C4E2F5" stroke-width="2" stroke-miterlimit="10"/>
<path d="M548.72 -219.375C531.467 -154.984 547.275 -155.816 571.167 -93.5811C595.058 -31.3464 582.751 -21.3865 638.661 14.9206C694.567 51.2265 698.664 35.9351 765.233 32.4462C831.802 28.9573 837.477 43.7354 889.279 1.78741C941.082 -40.1606 927.807 -48.7851 945.06 -113.176C962.314 -177.567 978.122 -178.394 954.234 -240.628C930.347 -302.861 918.043 -292.896 862.137 -329.202C806.231 -365.508 810.328 -380.8 743.759 -377.311C677.19 -373.822 689.636 -352.586 632.562 -318.147C576.51 -284.323 565.972 -283.762 548.72 -219.375Z" stroke="#C4E2F5" stroke-width="2" stroke-miterlimit="10"/>
<path d="M558.685 -221.838C541.719 -158.521 556.846 -159.314 580.334 -98.1169C603.822 -36.9199 592.054 -27.3886 647.03 8.31176C702.006 44.0121 705.925 29.3859 771.383 25.9512C836.844 22.5219 842.27 36.6604 893.214 -4.59255C944.158 -45.8455 931.454 -54.0915 948.42 -117.409C965.386 -180.726 980.511 -181.515 957.018 -242.713C933.526 -303.911 921.758 -294.38 866.781 -330.081C811.805 -365.781 815.725 -380.411 750.269 -376.981C684.812 -373.551 696.882 -353.119 640.789 -319.207C585.757 -285.94 575.651 -285.155 558.685 -221.838Z" stroke="#C4E2F5" stroke-width="2" stroke-miterlimit="10"/>
<path d="M568.65 -224.286C551.972 -162.042 566.412 -162.799 589.502 -102.642C612.592 -42.4859 601.358 -33.3844 655.401 1.70919C709.443 36.8028 713.185 22.8375 777.538 19.4678C841.887 16.097 847.07 29.5928 897.149 -10.9579C947.228 -51.5085 935.101 -59.3832 951.779 -121.627C968.457 -183.871 982.897 -184.627 959.802 -244.784C936.708 -304.942 925.476 -295.844 871.429 -330.939C817.383 -366.034 821.13 -380.002 756.776 -376.628C692.422 -373.254 704.131 -353.633 649.014 -320.249C595.011 -287.536 585.327 -286.525 568.65 -224.286Z" stroke="#C4E2F5" stroke-width="2" stroke-miterlimit="10"/>
<path d="M578.615 -226.752C562.225 -165.581 575.978 -166.301 598.673 -107.18C621.368 -48.0588 610.666 -39.3924 663.778 -4.90017C716.889 29.592 720.454 16.2878 783.696 12.9723C846.937 9.65688 851.872 22.5131 901.087 -17.3395C950.303 -57.1921 938.753 -64.6955 955.142 -125.861C971.532 -187.027 985.286 -187.751 962.59 -246.872C939.895 -305.992 929.193 -297.326 876.082 -331.818C822.971 -366.31 826.534 -379.61 763.294 -376.299C700.052 -372.984 711.386 -354.167 657.249 -321.31C604.258 -289.156 595.006 -287.922 578.615 -226.752Z" stroke="#C4E2F5" stroke-width="2" stroke-miterlimit="10"/>
<path d="M588.579 -229.2C572.476 -169.104 585.543 -169.79 607.84 -111.706C630.136 -53.6214 619.969 -45.3848 672.146 -11.4993C724.323 22.3861 727.71 9.74705 789.844 6.49121C851.974 3.23424 856.664 15.452 905.016 -23.7025C953.367 -62.857 942.393 -69.9849 958.496 -130.081C974.599 -190.178 987.666 -190.864 965.37 -248.949C943.074 -307.033 932.903 -298.797 880.725 -332.683C828.548 -366.568 831.935 -379.207 769.801 -375.952C707.667 -372.696 718.633 -354.681 665.47 -322.357C613.501 -290.751 604.682 -289.297 588.579 -229.2Z" stroke="#C4E2F5" stroke-width="2" stroke-miterlimit="10"/>
<path d="M598.543 -231.652C582.728 -172.629 595.108 -173.278 617.009 -116.229C638.91 -59.1802 629.271 -51.3799 680.518 -18.1C731.766 15.1798 734.975 3.20601 795.996 0.00864527C857.018 -3.18872 861.462 8.38517 908.949 -30.0713C956.436 -68.5277 946.039 -75.28 961.854 -134.303C977.669 -193.326 990.05 -193.975 968.153 -251.023C946.256 -308.071 936.619 -300.265 885.373 -333.549C834.126 -366.833 837.335 -378.807 776.312 -375.605C715.29 -372.408 725.881 -355.198 673.698 -323.401C622.742 -292.359 614.358 -290.675 598.543 -231.652Z" stroke="#C4E2F5" stroke-width="2" stroke-miterlimit="10"/>
<path d="M608.518 -234.099C592.99 -176.15 604.684 -176.762 626.187 -120.754C647.69 -64.7455 638.585 -57.3749 688.902 -24.6965C739.22 7.97775 742.251 -3.33506 802.161 -6.47395C862.074 -9.61172 866.271 1.31834 912.893 -36.4358C959.515 -74.1899 949.696 -80.571 965.223 -138.52C980.751 -196.47 992.445 -197.086 970.946 -253.093C949.447 -309.1 940.344 -301.734 890.03 -334.407C839.712 -367.081 842.744 -378.394 782.834 -375.255C722.92 -372.117 733.143 -355.705 681.939 -324.445C631.998 -293.956 624.046 -292.053 608.518 -234.099Z" stroke="#C4E2F5" stroke-width="2" stroke-miterlimit="10"/>
<path d="M618.48 -236.557C603.24 -179.682 614.251 -180.256 635.351 -125.285C656.451 -70.3143 647.885 -63.3724 697.269 -31.3049C746.653 0.762576 749.506 -9.88503 808.308 -12.9643C867.11 -16.0478 871.061 -5.752 916.825 -42.8111C962.588 -79.866 953.34 -85.8727 968.58 -142.748C983.82 -199.624 994.832 -200.202 973.728 -255.174C952.624 -310.146 944.059 -303.208 894.672 -335.281C845.289 -367.352 848.142 -378 789.34 -374.917C730.537 -371.833 740.385 -356.23 690.157 -325.498C641.24 -295.565 633.72 -293.433 618.48 -236.557Z" stroke="#C4E2F5" stroke-width="2" stroke-miterlimit="10"/>
<path d="M628.443 -239.005C613.491 -183.203 623.815 -183.74 644.52 -129.805C665.225 -75.8697 657.191 -69.3629 705.64 -37.8979C754.088 -6.43297 756.769 -16.4185 814.459 -19.4435C872.149 -22.4685 875.858 -12.8154 920.756 -49.1722C965.655 -85.5291 956.984 -91.1602 971.937 -146.966C986.889 -202.769 997.214 -203.31 976.51 -257.249C955.805 -311.184 947.772 -304.677 899.319 -336.144C850.865 -367.61 853.541 -377.596 795.851 -374.571C738.161 -371.546 747.633 -356.748 698.386 -326.542C650.484 -297.163 643.396 -294.812 628.443 -239.005Z" stroke="#C4E2F5" stroke-width="2" stroke-miterlimit="10"/>
<path d="M638.412 -241.468C623.746 -186.736 633.386 -187.244 653.692 -134.345C673.997 -81.4466 666.495 -75.3749 714.018 -44.5144C761.538 -13.655 764.035 -22.9764 820.622 -25.9407C877.204 -28.9062 880.666 -19.8969 924.7 -55.5556C968.735 -91.2144 960.64 -96.47 975.305 -151.203C989.971 -205.935 999.609 -206.439 979.303 -259.338C958.998 -312.237 951.494 -306.161 903.976 -337.024C856.457 -367.884 858.955 -377.205 802.368 -374.241C745.782 -371.277 754.887 -357.28 706.616 -327.603C659.732 -298.773 653.076 -296.197 638.412 -241.468Z" stroke="#C4E2F5" stroke-width="2" stroke-miterlimit="10"/>
</g>
</g>
<defs>
<clipPath id="clip0_6433_13856">
<rect width="973.955" height="1038.3" fill="white" transform="translate(0.25 -92.9221) rotate(-15)"/>
</clipPath>
<clipPath id="clip1_6433_13856">
<rect x="785.035" y="468.617" width="456.865" height="456.865" rx="228.433" transform="rotate(-165 785.035 468.617)" fill="white"/>
</clipPath>
<clipPath id="clip2_6433_13856">
<rect x="217.267" y="112.714" width="314.399" height="314.399" rx="157.2" transform="rotate(-75 217.267 112.714)" fill="white"/>
</clipPath>
</defs>
</svg>
