<svg width="1334" height="378" viewBox="0 0 1334 378" fill="none" xmlns="http://www.w3.org/2000/svg">
<g clip-path="url(#clip0_6433_13026)">
<mask id="path-1-inside-1_6433_13026" fill="white">
<path d="M0 0H1334V418H0V0Z"/>
</mask>
<path d="M0 0H1334V418H0V0Z" fill="#EBF4FA"/>
<path d="M1334 417H0V419H1334V417Z" fill="#DCDCDE" mask="url(#path-1-inside-1_6433_13026)"/>
<g clip-path="url(#clip1_6433_13026)">
<rect x="920" y="-150" width="281" height="281" rx="140.5" fill="#C4E2F5"/>
<path d="M820.157 52.0667C874.479 98.3273 888.938 109.97 908.684 116.888C928.431 123.807 921.424 114.78 886.852 75.4377C852.28 36.0954 840.241 23.4539 785.92 -22.81C731.598 -69.0738 723.141 -73.8836 703.394 -80.8051C683.648 -87.7234 694.014 -77.1773 715.404 -47.8671C737.2 -18.0002 765.836 5.8029 820.157 52.0667Z" stroke="#EBF4FA" stroke-width="2" stroke-miterlimit="10"/>
<path d="M819.675 53.0894C876.006 102.13 891.038 114.513 912.078 122.456C933.121 130.399 926.026 121.015 890.737 79.9178C855.448 38.8206 843.098 25.5635 786.769 -23.4768C730.441 -72.5171 721.532 -77.7689 700.489 -85.712C679.446 -93.6551 690.1 -82.5786 711.65 -52.1911C733.613 -21.2241 763.343 4.04904 819.675 53.0894Z" stroke="#EBF4FA" stroke-width="2" stroke-miterlimit="10"/>
<path d="M819.093 54.0817C877.448 106.003 893.06 119.156 915.448 128.189C937.837 137.222 930.673 127.482 894.703 84.5935C858.737 41.7054 846.085 27.8229 787.73 -24.0987C729.375 -76.0203 720.004 -81.7304 697.615 -90.7638C675.227 -99.7972 686.159 -88.1805 707.824 -56.7027C729.905 -24.6324 760.738 2.1601 819.093 54.0817Z" stroke="#EBF4FA" stroke-width="2" stroke-miterlimit="10"/>
<path d="M818.421 55.0423C878.81 109.947 895.01 123.898 918.797 134.09C942.584 144.283 935.361 134.179 898.759 89.4668C862.158 44.7549 849.215 30.2275 788.826 -24.6769C728.438 -79.5812 718.589 -85.7726 694.802 -95.9651C671.016 -106.158 682.223 -93.9842 703.947 -61.4162C726.087 -28.2326 758.033 0.134691 818.421 55.0423Z" stroke="#EBF4FA" stroke-width="2" stroke-miterlimit="10"/>
<path d="M817.623 55.9691C880.051 113.961 896.841 128.737 922.082 140.164C947.322 151.588 940.057 141.12 902.869 94.5551C865.681 47.99 852.46 32.8045 790.035 -25.1841C727.61 -83.1727 717.27 -89.8716 692.03 -101.298C666.789 -112.722 678.262 -99.9789 699.992 -66.3206C722.132 -32.0238 755.195 -2.02274 817.623 55.9691Z" stroke="#EBF4FA" stroke-width="2" stroke-miterlimit="10"/>
<path d="M816.701 56.8482C881.166 118.026 898.548 133.663 925.295 146.393C952.042 159.123 944.753 148.289 907.035 99.8411C869.317 51.3934 855.83 35.5366 791.369 -25.641C726.907 -86.8186 716.066 -94.0479 689.32 -106.778C662.573 -119.508 674.298 -106.179 695.973 -71.4301C718.054 -36.0233 752.236 -4.32946 816.701 56.8482Z" stroke="#EBF4FA" stroke-width="2" stroke-miterlimit="10"/>
<path d="M815.658 57.6814C882.153 122.15 900.131 138.674 928.439 152.786C956.748 166.897 949.453 155.697 911.27 105.34C873.086 54.9835 859.348 38.4457 792.857 -26.0224C726.365 -90.4906 715.01 -98.2765 686.702 -112.388C658.393 -126.5 670.364 -112.578 691.911 -76.7391C713.864 -40.2257 749.163 -6.78676 815.658 57.6814Z" stroke="#EBF4FA" stroke-width="2" stroke-miterlimit="10"/>
<path d="M814.476 58.4472C882.984 126.307 901.562 143.752 931.488 159.324C961.413 174.899 954.132 163.332 915.549 111.047C876.966 58.7615 862.996 41.5263 794.487 -26.3338C725.979 -94.194 714.097 -102.563 684.171 -118.138C654.245 -133.713 666.448 -119.182 687.799 -82.2663C709.552 -44.6495 745.967 -9.40974 814.476 58.4472Z" stroke="#EBF4FA" stroke-width="2" stroke-miterlimit="10"/>
<path d="M813.142 59.1672C883.648 130.521 902.818 148.912 934.417 166.032C966.016 183.153 958.767 171.219 919.86 116.985C880.953 62.7523 866.769 44.81 796.267 -26.5437C725.764 -97.8974 713.342 -106.875 681.743 -123.996C650.145 -141.116 662.563 -125.967 683.639 -87.9833C705.118 -49.2795 742.639 -12.1833 813.142 59.1672Z" stroke="#EBF4FA" stroke-width="2" stroke-miterlimit="10"/>
<path d="M811.656 59.8105C884.126 134.756 903.889 154.126 937.217 172.874C970.541 191.625 963.354 179.327 924.209 123.133C885.063 66.9384 870.686 48.279 798.216 -26.6665C725.746 -101.612 712.773 -111.228 679.449 -129.979C646.125 -148.73 658.743 -132.949 679.459 -93.9177C700.567 -54.1432 739.186 -15.1349 811.656 59.8105Z" stroke="#EBF4FA" stroke-width="2" stroke-miterlimit="10"/>
<path d="M810.009 60.3715C884.411 139.007 904.76 159.385 939.869 179.852C974.978 200.319 967.873 187.664 928.576 129.499C889.283 71.3334 874.739 51.9438 800.337 -26.6883C725.936 -105.32 712.403 -115.608 677.298 -136.075C642.192 -156.541 654.991 -140.125 675.258 -100.062C695.908 -59.24 735.607 -18.2639 810.009 60.3715Z" stroke="#EBF4FA" stroke-width="2" stroke-miterlimit="10"/>
<path d="M808.188 60.8467C884.476 143.267 905.405 164.683 942.35 186.961C979.292 209.238 972.302 196.23 932.957 136.084C893.611 75.9405 878.93 55.8176 802.642 -26.6028C726.354 -109.023 712.252 -120.001 675.31 -142.279C638.368 -164.556 651.327 -147.491 671.047 -106.42C691.14 -64.5732 731.9 -21.5737 808.188 60.8467Z" stroke="#EBF4FA" stroke-width="2" stroke-miterlimit="10"/>
<path d="M806.187 61.2286C884.305 147.529 905.806 170.009 944.638 194.189C983.469 218.368 976.623 205.01 937.336 142.893C898.05 80.7753 883.257 59.9091 805.139 -26.3911C727.021 -112.691 712.336 -124.393 673.505 -148.573C634.673 -172.752 647.767 -155.033 666.835 -112.989C686.267 -70.1437 728.065 -25.0716 806.187 61.2286Z" stroke="#EBF4FA" stroke-width="2" stroke-miterlimit="10"/>
<path d="M803.986 61.5069C883.872 151.779 905.93 175.353 946.707 201.533C987.483 227.713 980.81 214.014 941.701 149.922C902.591 85.8306 887.719 64.2244 807.837 -26.0474C727.954 -116.319 712.68 -128.771 671.903 -154.951C631.127 -181.131 644.335 -162.75 662.641 -119.764C681.294 -75.9619 724.1 -28.7649 803.986 61.5069Z" stroke="#EBF4FA" stroke-width="2" stroke-miterlimit="10"/>
<path d="M801.593 61.663C883.172 155.991 905.777 180.688 948.547 208.967C991.318 237.246 984.855 223.216 946.049 157.167C907.244 91.1173 892.33 68.7614 810.755 -25.5671C729.179 -119.896 713.306 -133.13 670.535 -161.409C627.765 -189.687 641.055 -170.638 658.48 -126.755C676.236 -82.0398 720.018 -32.6655 801.593 61.663Z" stroke="#EBF4FA" stroke-width="2" stroke-miterlimit="10"/>
<path d="M798.967 61.6976C882.15 160.165 905.282 186.014 950.102 216.49C994.922 246.966 988.701 232.618 950.338 164.631C911.975 96.6427 897.058 73.5337 813.874 -24.9333C730.691 -123.4 714.216 -137.45 669.399 -167.926C624.582 -198.401 637.921 -178.688 654.341 -133.95C671.069 -88.3668 715.784 -36.7694 798.967 61.6976Z" stroke="#EBF4FA" stroke-width="2" stroke-miterlimit="10"/>
<path d="M796.138 61.595C880.83 164.282 904.466 191.304 951.382 224.085C998.297 256.866 992.361 242.214 954.587 172.307C916.81 102.401 901.935 78.5453 817.243 -24.1388C732.55 -126.823 715.469 -141.717 668.553 -174.498C621.638 -207.279 635 -186.891 650.277 -141.357C665.842 -94.9589 711.445 -41.0924 796.138 61.595Z" stroke="#EBF4FA" stroke-width="2" stroke-miterlimit="10"/>
<path d="M793.063 61.3395C879.15 168.316 903.271 196.539 952.334 231.733C1001.4 266.927 995.786 251.981 958.758 180.195C921.731 108.409 906.941 83.8068 820.851 -23.1698C734.76 -130.146 717.067 -145.911 668.007 -181.105C618.947 -216.299 632.289 -195.24 646.283 -148.966C660.538 -101.818 706.972 -45.637 793.063 61.3395Z" stroke="#EBF4FA" stroke-width="2" stroke-miterlimit="10"/>
<path d="M789.744 60.9268C877.105 172.264 901.681 201.709 952.935 239.421C1004.19 277.132 998.95 261.914 962.839 188.288C926.728 114.662 912.077 89.3202 824.716 -22.0175C737.354 -133.355 719.045 -150.024 667.792 -187.736C616.538 -225.447 629.825 -203.714 642.381 -156.772C655.173 -108.943 702.383 -50.4077 789.744 60.9268Z" stroke="#EBF4FA" stroke-width="2" stroke-miterlimit="10"/>
<path d="M786.154 60.3463C874.648 176.104 899.649 206.796 953.136 247.137C1006.62 287.478 1001.8 272.007 966.796 196.594C931.788 121.18 917.323 95.1047 828.829 -20.6498C740.335 -136.404 721.407 -154.01 667.921 -194.354C614.434 -234.698 627.619 -212.303 638.578 -164.768C649.749 -116.334 697.66 -55.4115 786.154 60.3463Z" stroke="#EBF4FA" stroke-width="2" stroke-miterlimit="10"/>
<path d="M782.301 59.5755C871.774 179.806 897.165 211.765 952.931 254.849C1008.7 297.934 1004.34 282.235 970.634 205.092C936.927 127.95 922.707 101.154 833.234 -19.0763C743.761 -139.307 724.218 -157.878 668.456 -200.962C612.693 -244.047 625.731 -220.997 634.922 -172.955C644.289 -124.003 692.828 -60.6549 782.301 59.5755Z" stroke="#EBF4FA" stroke-width="2" stroke-miterlimit="10"/>
<path d="M778.16 58.606C868.438 183.355 894.186 216.597 952.263 262.543C1010.34 308.49 1006.51 292.58 974.308 213.778C942.106 134.976 928.198 107.473 837.92 -17.2726C747.641 -142.018 727.482 -161.588 669.405 -207.534C611.328 -253.48 624.169 -229.775 631.412 -181.318C638.792 -131.943 687.878 -66.1427 778.16 58.606Z" stroke="#EBF4FA" stroke-width="2" stroke-miterlimit="10"/>
<path d="M773.724 57.4152C864.624 186.715 890.677 221.261 951.104 270.183C1011.53 319.105 1008.28 303.02 977.808 222.639C947.336 142.258 933.804 114.068 842.907 -15.2351C752.009 -144.538 731.241 -165.133 670.814 -214.055C610.386 -262.977 622.975 -238.634 628.083 -189.862C633.288 -140.167 682.826 -71.8845 773.724 57.4152Z" stroke="#EBF4FA" stroke-width="2" stroke-miterlimit="10"/>
<path d="M768.963 55.996C860.276 189.876 886.59 225.738 949.402 277.755C1012.21 329.771 1009.6 313.538 981.092 231.674C952.591 149.81 939.504 120.949 848.191 -12.9315C756.878 -146.812 735.508 -168.467 672.7 -220.484C609.891 -272.5 622.173 -247.531 624.94 -198.56C627.762 -148.665 677.65 -77.8842 768.963 55.996Z" stroke="#EBF4FA" stroke-width="2" stroke-miterlimit="10"/>
<path d="M763.884 54.3276C855.384 192.805 881.911 229.993 947.129 285.228C1012.35 340.463 1010.43 324.112 984.15 240.87C957.868 157.627 945.305 128.117 853.806 -10.3566C762.306 -148.831 740.34 -171.576 675.122 -226.811C609.904 -282.046 621.815 -256.465 622.035 -207.418C622.26 -157.442 672.385 -84.1496 763.884 54.3276Z" stroke="#EBF4FA" stroke-width="2" stroke-miterlimit="10"/>
<path d="M758.473 52.4028C849.917 195.477 876.592 234.004 944.242 292.575C1011.89 351.147 1010.74 334.72 986.95 250.214C963.157 165.708 951.2 135.586 859.756 -7.49138C768.312 -150.569 745.766 -174.428 678.115 -232.999C610.465 -291.57 621.937 -265.403 619.387 -216.412C616.79 -166.491 667.029 -90.6746 758.473 52.4028Z" stroke="#EBF4FA" stroke-width="2" stroke-miterlimit="10"/>
<path d="M752.691 50.1875C843.811 197.852 870.574 237.725 940.677 299.754C1010.78 361.783 1010.47 345.32 989.445 259.684C968.425 174.049 957.162 143.341 866.042 -4.32391C774.922 -151.988 751.807 -177 681.704 -239.029C611.601 -301.057 622.569 -274.331 617.013 -225.536C611.352 -175.821 661.571 -97.4769 752.691 50.1875Z" stroke="#EBF4FA" stroke-width="2" stroke-miterlimit="10"/>
<path d="M746.556 47.6838C837.064 199.916 863.846 241.131 936.411 306.748C1008.98 372.366 1009.57 355.906 991.627 269.289C973.684 182.671 963.201 151.416 872.696 -0.816319C782.192 -153.048 758.52 -179.232 685.955 -244.849C613.39 -310.466 623.775 -283.196 614.968 -234.761C605.993 -185.41 656.049 -104.545 746.556 47.6838Z" stroke="#EBF4FA" stroke-width="2" stroke-miterlimit="10"/>
<path d="M740.044 44.8524C829.625 201.612 856.355 244.173 931.389 313.497C1006.42 382.821 1008 366.414 993.454 278.977C978.903 191.541 969.303 159.779 879.722 3.01847C790.141 -153.742 765.936 -181.13 690.905 -250.45C615.874 -319.771 625.592 -291.999 613.278 -244.092C600.728 -195.278 650.463 -111.908 740.044 44.8524Z" stroke="#EBF4FA" stroke-width="2" stroke-miterlimit="10"/>
<path d="M733.121 41.6883C821.442 202.921 848.034 246.824 925.537 319.978C1003.04 393.133 1005.69 376.834 994.87 288.756C984.049 200.678 975.438 168.457 887.118 7.2212C798.798 -154.015 774.081 -182.631 696.582 -255.785C619.082 -328.94 628.047 -300.694 611.955 -253.497C595.558 -205.406 644.798 -119.548 733.121 41.6883Z" stroke="#EBF4FA" stroke-width="2" stroke-miterlimit="10"/>
<path d="M725.796 38.1668C812.493 203.803 838.859 249.036 918.824 326.145C998.789 403.255 1002.59 387.117 995.862 298.593C989.127 210.07 981.613 177.44 894.916 11.8066C808.22 -153.826 783.019 -183.7 703.057 -260.81C623.096 -337.919 631.222 -309.244 611.07 -262.954C590.534 -215.787 639.1 -127.469 725.796 38.1668Z" stroke="#EBF4FA" stroke-width="2" stroke-miterlimit="10"/>
<path d="M718.038 34.2647C802.724 204.21 828.77 250.762 911.184 331.951C993.598 413.14 998.647 397.225 996.371 308.469C994.096 219.713 987.796 186.736 903.11 16.7905C818.424 -153.155 792.771 -184.305 710.36 -265.494C627.95 -346.684 635.143 -317.619 610.633 -272.449C585.661 -226.42 633.352 -135.68 718.038 34.2647Z" stroke="#EBF4FA" stroke-width="2" stroke-miterlimit="10"/>
<path d="M709.843 29.9654C792.1 204.111 817.723 251.96 902.56 337.353C987.396 422.746 993.784 407.116 996.364 318.36C998.944 229.607 993.981 196.345 911.727 22.2024C829.474 -151.94 803.399 -184.39 718.562 -269.784C633.725 -355.177 639.881 -325.778 610.705 -281.95C580.979 -237.291 627.586 -144.18 709.843 29.9654Z" stroke="#EBF4FA" stroke-width="2" stroke-miterlimit="10"/>
<path d="M701.189 25.2473C780.568 203.456 805.661 252.585 892.891 342.3C980.121 432.015 987.943 416.741 995.795 328.244C1003.65 239.747 1000.15 206.272 920.771 28.063C841.392 -150.146 814.937 -183.916 727.707 -273.631C640.477 -363.346 645.486 -333.669 611.327 -291.429C576.519 -248.387 621.811 -152.965 701.189 25.2473Z" stroke="#EBF4FA" stroke-width="2" stroke-miterlimit="10"/>
<path d="M692.071 20.0717C768.097 202.193 792.538 252.566 882.119 346.721C971.7 440.876 981.061 426.034 994.616 338.071C1008.17 250.107 1006.28 216.495 930.256 34.3732C854.23 -147.748 827.434 -182.854 737.853 -277.012C648.272 -371.17 652.024 -341.268 612.541 -300.874C572.312 -259.715 616.048 -162.05 692.071 20.0717Z" stroke="#EBF4FA" stroke-width="2" stroke-miterlimit="10"/>
<path d="M682.458 14.4318C754.621 200.283 778.286 251.864 870.169 350.58C962.052 449.296 973.053 434.961 992.773 347.826C1012.49 260.691 1012.35 227.026 940.19 41.1784C868.028 -144.669 840.941 -181.134 749.058 -279.849C657.175 -378.565 659.546 -348.509 614.389 -310.237C568.377 -271.238 610.296 -171.419 682.458 14.4318Z" stroke="#EBF4FA" stroke-width="2" stroke-miterlimit="10"/>
<path d="M672.34 8.29277C740.099 197.663 762.854 250.417 856.97 353.805C951.086 457.193 963.848 443.454 990.209 357.472C1016.57 271.489 1018.33 237.864 950.575 48.4896C882.816 -140.884 855.487 -178.711 761.368 -282.102C667.249 -385.493 668.11 -355.351 616.919 -319.496C564.761 -282.957 604.582 -181.081 672.34 8.29277Z" stroke="#EBF4FA" stroke-width="2" stroke-miterlimit="10"/>
<path d="M661.735 1.63584C724.51 194.294 746.208 248.163 842.491 356.338C938.775 464.513 953.403 451.459 986.908 366.976C1020.41 282.49 1024.24 249.002 961.464 56.3437C898.689 -136.314 871.173 -175.526 774.893 -283.7C678.613 -391.875 677.831 -361.73 620.225 -328.602C561.526 -294.846 598.96 -191.025 661.735 1.63584Z" stroke="#EBF4FA" stroke-width="2" stroke-miterlimit="10"/>
<path d="M650.579 -5.56393C707.759 190.116 728.248 245.047 826.604 358.113C924.96 471.18 941.586 458.908 982.759 376.295C1023.93 293.678 1029.99 260.435 972.812 64.7552C915.632 -130.925 887.995 -171.518 789.639 -284.584C691.283 -397.651 688.72 -367.587 624.307 -337.518C558.673 -306.881 593.396 -201.244 650.579 -5.56393Z" stroke="#EBF4FA" stroke-width="2" stroke-miterlimit="10"/>
<path d="M638.892 -13.3437C689.828 185.06 708.943 240.99 809.276 359.046C909.609 477.102 928.351 465.721 977.745 385.373C1027.14 305.026 1035.61 272.146 984.669 73.7423C933.733 -124.662 906.047 -166.646 805.714 -284.703C705.38 -402.759 700.892 -372.872 629.263 -346.217C556.272 -319.058 587.956 -211.748 638.892 -13.3437Z" stroke="#EBF4FA" stroke-width="2" stroke-miterlimit="10"/>
<path d="M626.632 -21.7241C670.636 179.073 688.202 235.926 790.392 359.073C892.582 482.221 913.572 471.835 971.761 394.182C1029.95 316.529 1041.01 284.138 997.004 83.3403C953 -117.457 925.336 -160.833 823.147 -283.981C720.957 -407.128 714.382 -377.517 635.115 -354.647C554.342 -331.341 582.627 -222.522 626.632 -21.7241Z" stroke="#EBF4FA" stroke-width="2" stroke-miterlimit="10"/>
<path d="M613.809 -30.7315C650.152 172.096 665.986 229.79 769.904 358.114C873.823 486.438 897.2 477.166 964.776 402.665C1032.35 328.165 1046.2 296.396 1009.86 93.5719C973.521 -109.252 945.956 -154.02 842.041 -282.344C738.126 -410.668 729.302 -381.443 641.957 -362.754C552.952 -343.708 577.466 -233.559 613.809 -30.7315Z" stroke="#EBF4FA" stroke-width="2" stroke-miterlimit="10"/>
<path d="M600.402 -40.3982C628.311 164.053 642.217 222.494 747.717 356.083C853.216 489.671 879.118 481.633 956.709 410.774C1034.3 339.915 1051.14 308.912 1023.23 104.464C995.321 -99.9878 967.949 -146.134 862.45 -279.719C756.95 -413.305 745.713 -384.584 649.839 -370.489C552.151 -356.132 572.493 -244.846 600.402 -40.3982Z" stroke="#EBF4FA" stroke-width="2" stroke-miterlimit="10"/>
<path d="M586.399 -50.7515C605.062 154.879 616.832 213.971 723.75 352.896C830.667 491.822 859.241 485.153 947.493 418.448C1035.74 351.744 1055.79 321.667 1037.12 116.037C1018.46 -89.5929 991.373 -137.107 884.455 -276.036C777.538 -414.965 763.708 -386.867 658.836 -377.81C551.984 -368.58 567.733 -256.385 586.399 -50.7515Z" stroke="#EBF4FA" stroke-width="2" stroke-miterlimit="10"/>
<path d="M571.792 -61.827C580.354 144.497 589.767 204.126 697.919 348.458C806.071 492.789 837.467 487.626 937.057 425.629C1036.65 363.637 1060.11 334.65 1051.55 128.323C1042.99 -78.0046 1016.29 -126.871 908.14 -271.203C799.988 -415.534 783.375 -388.202 669.028 -384.646C552.517 -381.018 563.23 -268.151 571.792 -61.827Z" stroke="#EBF4FA" stroke-width="2" stroke-miterlimit="10"/>
<path d="M556.562 -73.6494C554.12 132.842 560.946 192.88 670.13 342.673C779.313 492.465 813.685 488.952 925.314 432.257C1036.94 375.562 1064.06 347.843 1066.51 141.351C1068.95 -65.1399 1042.75 -115.336 933.568 -265.132C824.382 -414.928 804.796 -388.499 680.476 -390.932C553.796 -393.413 559.005 -280.141 556.562 -73.6494Z" stroke="#EBF4FA" stroke-width="2" stroke-miterlimit="10"/>
<path d="M540.71 -86.249C526.311 119.83 530.305 180.143 640.3 335.446C750.296 490.749 787.805 489.037 912.2 438.261C1036.59 387.486 1067.61 361.224 1082.01 155.145C1096.41 -50.9339 1070.83 -102.436 960.834 -257.74C850.842 -413.043 828.077 -387.678 693.267 -396.613C555.899 -405.718 555.107 -292.331 540.71 -86.249Z" stroke="#EBF4FA" stroke-width="2" stroke-miterlimit="10"/>
<path d="M524.207 -99.6711C496.855 105.373 497.759 165.811 608.32 326.657C718.882 487.503 759.694 487.759 897.608 443.561C1035.52 399.363 1070.68 374.764 1098.04 169.72C1125.39 -35.324 1100.55 -88.0936 989.989 -248.94C879.427 -409.786 853.276 -385.649 707.452 -401.627C558.867 -417.909 551.56 -304.715 524.207 -99.6711Z" stroke="#EBF4FA" stroke-width="2" stroke-miterlimit="10"/>
<path d="M507.07 -113.93C465.714 89.4018 463.258 149.803 574.121 316.219C684.984 482.635 729.267 485.021 881.483 448.102C1033.7 411.183 1073.26 388.457 1114.62 185.125C1155.98 -18.2067 1132.01 -72.2041 1021.16 -238.616C910.295 -405.029 880.533 -382.293 723.158 -405.88C562.796 -429.916 548.426 -317.262 507.07 -113.93Z" stroke="#EBF4FA" stroke-width="2" stroke-miterlimit="10"/>
<path d="M489.278 -129.076C432.822 71.8128 426.719 132.005 537.589 303.99C648.458 475.975 696.392 480.68 863.718 451.779C1031.04 422.878 1075.28 402.251 1131.74 201.365C1188.2 0.478803 1165.26 -54.7006 1054.39 -226.685C943.522 -398.67 909.926 -377.523 740.439 -409.318C567.744 -441.712 545.735 -329.965 489.278 -129.076Z" stroke="#EBF4FA" stroke-width="2" stroke-miterlimit="10"/>
<path d="M470.818 -145.122C398.109 52.536 388.061 112.325 498.622 289.88C609.184 467.434 660.949 474.64 844.219 454.534C1027.49 434.427 1076.68 416.148 1149.39 218.49C1222.1 20.8324 1200.35 -35.47 1089.78 -213.024C979.223 -390.579 941.55 -371.215 759.389 -411.834C573.777 -453.223 543.531 -342.779 470.818 -145.122Z" stroke="#EBF4FA" stroke-width="2" stroke-miterlimit="10"/>
<path d="M451.703 -162.117C361.536 31.464 347.228 90.6477 457.138 273.745C567.048 456.843 622.827 466.747 822.904 456.263C1022.98 445.776 1077.42 430.096 1167.59 236.511C1257.75 42.9268 1237.34 -14.4331 1127.43 -197.531C1017.53 -380.628 975.532 -363.265 780.111 -413.363C580.987 -464.41 541.87 -355.699 451.703 -162.117Z" stroke="#EBF4FA" stroke-width="2" stroke-miterlimit="10"/>
<path d="M431.922 -180.086C323.033 8.5125 304.138 66.8645 413.026 255.463C521.915 444.061 581.898 456.872 799.672 456.872C1017.45 456.872 1077.43 444.061 1186.32 255.463C1295.21 66.8645 1276.31 8.5125 1167.42 -180.086C1058.54 -368.684 1011.96 -353.541 802.687 -413.798C589.448 -475.195 540.807 -368.684 431.922 -180.086Z" stroke="#EBF4FA" stroke-width="2" stroke-miterlimit="10"/>
</g>
<g clip-path="url(#clip2_6433_13026)">
<rect x="1532.76" y="-44" width="470.757" height="470.757" rx="235.378" transform="rotate(90 1532.76 -44)" fill="#EBF4FA"/>
<path d="M1747.52 253.513C1747.52 83.8322 1683.91 104.501 1584.17 -32.7753C1484.44 -170.052 1523.75 -224.162 1362.37 -276.596C1201 -329.029 1201 -262.146 1039.62 -209.706C878.251 -157.267 838.93 -211.384 739.193 -74.1071C639.456 63.1695 703.069 83.8387 703.069 253.519C703.069 423.199 639.456 443.868 739.193 581.145C838.93 718.422 878.245 664.311 1039.62 716.745C1201 769.178 1201 836.067 1362.37 783.634C1523.75 731.201 1462.24 662.242 1582.14 542.189C1702.98 421.202 1747.52 423.193 1747.52 253.513Z" stroke="#C4E2F5" stroke-width="2" stroke-miterlimit="10"/>
<path d="M1734.07 260.937C1734.07 92.9206 1671.43 113.27 1572.67 -22.6558C1473.92 -158.581 1512.63 -211.863 1352.83 -263.787C1193.04 -315.711 1193.04 -249.847 1033.25 -197.929C873.454 -146.012 834.739 -199.287 735.981 -63.3611C637.224 72.5712 699.858 92.9206 699.858 260.937C699.858 428.953 637.224 449.309 735.981 585.234C834.739 721.167 873.447 667.885 1033.25 719.803C1193.04 771.72 1193.04 837.578 1352.83 785.661C1512.62 733.743 1451.94 665.809 1570.65 546.905C1690.22 427.132 1734.07 428.959 1734.07 260.937Z" stroke="#C4E2F5" stroke-width="2" stroke-miterlimit="10"/>
<path d="M1720.59 268.333C1720.59 101.981 1658.93 122.01 1561.15 -12.5711C1463.36 -147.152 1501.48 -199.605 1343.27 -251.007C1185.05 -302.409 1185.05 -237.582 1026.84 -186.18C868.625 -134.778 830.517 -187.225 732.738 -52.6368C634.96 81.951 696.615 101.981 696.615 268.332C696.615 434.684 634.96 454.72 732.738 589.302C830.517 723.883 868.625 671.437 1026.84 722.845C1185.05 774.254 1185.05 839.081 1343.26 787.672C1501.48 736.264 1441.63 669.361 1559.13 551.599C1677.44 433.033 1720.59 434.684 1720.59 268.333Z" stroke="#C4E2F5" stroke-width="2" stroke-miterlimit="10"/>
<path d="M1707.13 275.748C1707.13 111.061 1646.46 130.771 1549.65 -2.46624C1452.84 -135.703 1490.35 -187.314 1333.72 -238.207C1177.1 -289.1 1177.1 -225.298 1020.46 -174.405C863.828 -123.512 826.327 -175.129 729.528 -41.8924C632.728 91.3445 693.404 111.061 693.404 275.755C693.404 440.449 632.728 460.159 729.528 593.402C826.327 726.639 863.835 675.022 1020.46 725.915C1177.09 776.808 1177.09 840.61 1333.72 789.717C1490.36 738.824 1431.35 672.946 1547.64 556.332C1664.68 438.955 1707.13 440.443 1707.13 275.748Z" stroke="#C4E2F5" stroke-width="2" stroke-miterlimit="10"/>
<path d="M1693.67 283.167C1693.67 120.137 1633.96 139.54 1538.14 7.64772C1442.32 -124.245 1479.22 -175.027 1324.17 -225.404C1169.12 -275.782 1169.12 -213.01 1014.07 -162.633C859.024 -112.256 822.124 -163.038 726.303 -31.1453C630.475 100.747 690.179 120.144 690.179 283.173C690.179 446.203 630.475 465.6 726.303 597.492C822.13 729.385 859.024 678.596 1014.07 728.98C1169.12 779.357 1169.12 842.135 1324.17 791.751C1479.22 741.374 1421.05 676.527 1536.13 561.055C1651.92 444.872 1693.67 446.19 1693.67 283.167Z" stroke="#C4E2F5" stroke-width="2" stroke-miterlimit="10"/>
<path d="M1680.21 290.572C1680.21 129.206 1621.48 148.29 1526.64 17.7418C1431.79 -112.806 1468.08 -162.759 1314.62 -212.621C1161.16 -262.483 1161.15 -200.737 1007.69 -150.875C854.226 -101.013 817.926 -150.966 723.084 -20.4182C628.235 110.13 686.96 129.206 686.96 290.572C686.96 451.938 628.235 471.014 723.084 601.562C817.932 732.11 854.226 682.157 1007.69 732.019C1161.15 781.881 1161.16 843.627 1314.62 793.765C1468.08 743.904 1410.75 680.082 1524.63 565.758C1639.16 450.783 1680.21 451.938 1680.21 290.572Z" stroke="#C4E2F5" stroke-width="2" stroke-miterlimit="10"/>
<path d="M1666.75 297.97C1666.75 138.268 1609 157.032 1515.13 27.835C1421.26 -101.362 1456.95 -150.486 1305.07 -199.839C1153.19 -249.192 1153.19 -188.47 1001.3 -139.124C849.42 -89.7776 813.727 -138.895 719.864 -9.69849C626.001 119.498 683.74 138.262 683.74 297.963C683.74 457.665 625.994 476.428 719.864 605.625C813.733 734.822 849.42 685.704 1001.3 735.051C1153.19 784.403 1153.19 845.119 1305.07 795.766C1456.95 746.413 1400.46 683.622 1513.13 570.448C1626.4 456.679 1666.75 457.671 1666.75 297.97Z" stroke="#C4E2F5" stroke-width="2" stroke-miterlimit="10"/>
<path d="M1653.29 305.395C1653.29 147.357 1596.52 165.801 1503.63 37.9485C1410.74 -89.904 1445.83 -138.193 1295.52 -187.03C1145.22 -235.867 1145.22 -176.177 994.925 -127.34C844.628 -78.5024 809.535 -126.791 716.645 1.06118C623.754 128.914 680.521 147.357 680.521 305.395C680.521 463.432 623.754 481.875 716.645 609.728C809.535 737.58 844.621 689.291 994.925 738.129C1145.23 786.966 1145.23 846.656 1295.52 797.819C1445.83 748.982 1390.17 687.216 1501.64 575.184C1613.64 462.609 1653.29 463.432 1653.29 305.395Z" stroke="#C4E2F5" stroke-width="2" stroke-miterlimit="10"/>
<path d="M1639.81 312.797C1639.81 156.424 1584.03 174.554 1492.11 48.0396C1400.19 -78.475 1434.68 -125.929 1285.96 -174.25C1137.24 -222.572 1137.24 -163.912 988.517 -115.591C839.793 -67.2692 805.321 -114.729 713.403 11.7788C621.491 138.287 677.279 156.417 677.279 312.79C677.279 469.163 621.491 487.294 713.403 613.802C805.314 740.31 839.8 692.85 988.517 741.171C1137.23 789.493 1137.23 848.152 1285.96 799.831C1434.68 751.509 1379.86 690.768 1490.12 579.884C1600.86 468.511 1639.81 469.17 1639.81 312.797Z" stroke="#C4E2F5" stroke-width="2" stroke-miterlimit="10"/>
<path d="M1626.36 320.211C1626.36 165.503 1571.54 183.313 1480.61 58.1497C1389.68 -67.0139 1423.55 -113.639 1276.41 -161.445C1129.27 -209.251 1129.27 -151.622 982.134 -103.81C834.996 -55.9974 801.124 -102.629 710.185 22.535C619.245 147.699 674.061 165.509 674.061 320.218C674.061 474.927 619.245 492.737 710.185 617.901C801.124 743.064 834.996 696.44 982.134 744.246C1129.27 792.052 1129.27 849.687 1276.41 801.881C1423.55 754.075 1369.56 694.364 1478.62 584.623C1588.11 474.431 1626.36 474.92 1626.36 320.211Z" stroke="#C4E2F5" stroke-width="2" stroke-miterlimit="10"/>
<path d="M1612.89 327.612C1612.89 174.567 1559.05 192.058 1469.1 68.239C1379.14 -55.5802 1412.41 -101.37 1266.86 -148.667C1121.3 -195.963 1121.3 -139.353 975.746 -92.0629C830.188 -44.7725 796.922 -90.5619 706.962 33.2508C617.002 157.07 670.839 174.561 670.839 327.605C670.839 480.65 617.002 498.141 706.962 621.96C796.922 745.779 830.194 699.983 975.746 747.274C1121.3 794.571 1121.3 851.174 1266.86 803.877C1412.42 756.58 1359.26 697.901 1467.11 589.308C1575.34 480.33 1612.89 480.656 1612.89 327.612Z" stroke="#C4E2F5" stroke-width="2" stroke-miterlimit="10"/>
<path d="M1599.43 335.034C1599.43 183.654 1546.57 200.825 1457.59 78.3568C1368.61 -44.1114 1401.28 -89.0784 1257.3 -135.853C1113.32 -182.628 1113.33 -127.056 969.354 -80.2743C825.382 -33.493 792.717 -78.46 703.736 44.0148C614.755 166.49 667.612 183.66 667.612 335.041C667.612 486.421 614.755 503.599 703.736 626.067C792.717 748.535 825.382 703.575 969.354 750.356C1113.33 797.137 1113.33 852.71 1257.3 805.935C1401.27 759.154 1348.96 701.499 1455.61 594.048C1562.59 486.258 1599.43 486.415 1599.43 335.034Z" stroke="#C4E2F5" stroke-width="2" stroke-miterlimit="10"/>
<path d="M1585.97 342.451C1585.97 192.735 1534.09 209.587 1446.09 88.4628C1358.08 -32.661 1390.15 -76.7926 1247.76 -123.058C1105.36 -169.324 1105.36 -114.776 962.976 -68.5106C820.589 -22.2448 788.524 -66.3765 700.522 54.7473C612.52 175.871 664.399 192.729 664.399 342.445C664.399 492.161 612.52 509.019 700.522 630.142C788.524 751.266 820.589 707.135 962.976 753.4C1105.37 799.666 1105.37 854.214 1247.76 807.948C1390.15 761.682 1338.68 705.053 1444.11 598.75C1549.82 492.174 1585.97 492.167 1585.97 342.451Z" stroke="#C4E2F5" stroke-width="2" stroke-miterlimit="10"/>
<path d="M1572.51 349.85C1572.51 201.792 1521.61 218.336 1434.59 98.5567C1347.56 -21.2226 1379.01 -64.5254 1238.21 -110.276C1097.4 -156.026 1097.4 -102.509 956.592 -56.7525C815.785 -10.9958 784.327 -54.2986 697.298 65.4808C610.268 185.26 661.174 201.798 661.174 349.856C661.174 497.915 610.274 514.453 697.298 634.232C784.321 754.011 815.778 710.715 956.592 756.465C1097.4 802.215 1097.4 855.739 1238.21 809.988C1379.01 764.238 1328.38 708.633 1432.61 603.479C1537.06 498.078 1572.51 497.908 1572.51 349.85Z" stroke="#C4E2F5" stroke-width="2" stroke-miterlimit="10"/>
<path d="M1559.03 357.263C1559.03 210.869 1509.11 227.093 1423.06 108.658C1337.01 -9.77644 1367.87 -52.2438 1228.64 -97.485C1089.41 -142.726 1089.41 -90.2276 950.183 -44.993C810.955 0.241593 780.104 -42.2258 694.053 76.2091C608.003 194.644 657.93 210.862 657.93 357.256C657.93 503.65 608.009 519.868 694.053 638.303C780.098 756.738 810.955 714.271 950.183 759.505C1089.41 804.74 1089.41 857.238 1228.64 811.997C1367.87 766.763 1318.07 712.182 1421.09 608.171C1524.29 503.99 1559.03 503.65 1559.03 357.263Z" stroke="#C4E2F5" stroke-width="2" stroke-miterlimit="10"/>
<path d="M1545.57 364.677C1545.57 219.947 1496.62 235.852 1411.56 118.761C1326.49 1.671 1356.74 -39.961 1219.09 -84.6866C1081.45 -129.412 1081.45 -77.9448 943.803 -33.2192C806.154 11.5063 775.911 -30.1323 690.839 86.9582C605.767 204.049 654.715 219.947 654.715 364.677C654.715 509.407 605.767 525.311 690.839 642.395C775.911 759.479 806.161 717.847 943.803 762.573C1081.45 807.298 1081.45 858.759 1219.09 814.04C1356.74 769.321 1307.79 715.765 1409.59 612.903C1511.53 509.909 1545.57 509.407 1545.57 364.677Z" stroke="#C4E2F5" stroke-width="2" stroke-miterlimit="10"/>
<path d="M1532.11 372.086C1532.11 229.02 1484.15 244.605 1400.05 128.866C1315.96 13.126 1345.61 -27.6772 1209.55 -71.8871C1073.48 -116.097 1073.48 -65.6609 937.421 -21.451C801.358 22.759 771.715 -18.0442 687.622 97.6953C603.529 213.435 651.498 229.02 651.498 372.085C651.498 515.151 603.529 530.736 687.622 646.476C771.715 762.215 801.358 721.412 937.421 765.622C1073.48 809.832 1073.48 860.268 1209.55 816.058C1345.61 771.848 1297.5 719.324 1398.09 617.609C1498.77 515.823 1532.11 515.151 1532.11 372.086Z" stroke="#C4E2F5" stroke-width="2" stroke-miterlimit="10"/>
<path d="M1518.65 379.493C1518.65 238.092 1471.66 253.357 1388.55 138.962C1305.44 24.567 1334.48 -15.4073 1200 -59.1016C1065.52 -102.796 1065.52 -53.391 931.041 -9.69668C796.564 33.9977 767.521 -5.97664 684.407 108.425C601.293 222.82 648.284 238.092 648.284 379.487C648.284 520.881 601.293 536.153 684.407 650.548C767.521 764.943 796.564 724.969 931.041 768.67C1065.52 812.371 1065.52 861.776 1200 818.075C1334.48 774.374 1287.21 722.881 1386.6 622.309C1486.01 521.73 1518.65 520.895 1518.65 379.493Z" stroke="#C4E2F5" stroke-width="2" stroke-miterlimit="10"/>
<path d="M1505.19 386.907C1505.19 247.17 1459.18 262.122 1377.04 149.071C1294.91 36.0206 1323.34 -3.11834 1190.45 -46.2971C1057.55 -89.4759 1057.55 -41.0956 924.653 2.08319C791.755 45.262 763.319 6.12305 681.185 119.174C599.05 232.224 645.061 247.176 645.061 386.913C645.061 526.65 599.05 541.603 681.185 654.653C763.319 767.704 791.755 728.565 924.653 771.744C1057.55 814.922 1057.55 863.303 1190.45 820.124C1323.34 776.945 1276.91 726.47 1375.1 627.046C1473.25 527.649 1505.19 526.644 1505.19 386.907Z" stroke="#C4E2F5" stroke-width="2" stroke-miterlimit="10"/>
<path d="M1491.73 394.319C1491.73 256.246 1446.7 270.878 1365.54 159.172C1284.37 47.4662 1312.21 9.16263 1180.9 -33.5071C1049.59 -76.1768 1049.58 -28.8211 918.267 13.8421C786.956 56.5052 759.121 18.2017 677.958 129.908C596.802 241.614 641.834 256.246 641.834 394.319C641.834 532.392 596.802 547.024 677.958 658.73C759.114 770.437 786.949 732.126 918.267 774.796C1049.59 817.466 1049.59 864.815 1180.9 822.145C1312.21 779.476 1266.61 730.031 1363.6 631.757C1460.49 533.56 1491.73 532.392 1491.73 394.319Z" stroke="#C4E2F5" stroke-width="2" stroke-miterlimit="10"/>
<path d="M1478.26 401.722C1478.26 265.314 1434.21 279.626 1354.02 169.271C1273.84 58.9159 1301.08 21.4347 1171.34 -20.7195C1041.6 -62.8736 1041.6 -16.5491 911.866 25.605C782.127 67.7592 754.905 30.2845 674.722 140.64C594.538 250.995 638.598 265.314 638.598 401.722C638.598 538.131 594.545 552.45 674.722 662.805C754.899 773.16 782.127 735.686 911.866 777.84C1041.6 819.994 1041.6 866.319 1171.34 824.164C1301.08 782.01 1256.31 733.591 1352.09 636.458C1447.72 539.469 1478.26 538.138 1478.26 401.722Z" stroke="#C4E2F5" stroke-width="2" stroke-miterlimit="10"/>
<path d="M1464.8 409.137C1464.8 274.392 1421.72 288.385 1342.52 179.374C1263.32 70.3633 1289.94 33.7174 1161.79 -7.92111C1033.64 -49.5597 1033.64 -4.26633 905.483 37.3722C777.33 79.0107 750.709 42.3649 671.504 151.376C592.3 260.386 635.381 274.386 635.381 409.13C635.381 543.874 592.3 557.874 671.504 666.884C750.709 775.895 777.33 739.249 905.483 780.894C1033.64 822.539 1033.64 867.826 1161.79 826.188C1289.94 784.549 1246.02 737.154 1340.59 641.17C1434.96 545.375 1464.8 543.881 1464.8 409.137Z" stroke="#C4E2F5" stroke-width="2" stroke-miterlimit="10"/>
<path d="M1451.34 416.56C1451.34 283.48 1409.24 297.159 1331.01 189.486C1252.79 81.8134 1278.81 46.0094 1152.24 4.87995C1025.67 -36.2495 1025.67 8.02568 899.1 49.1486C772.526 90.2716 746.512 54.4611 668.286 162.127C590.061 269.794 632.163 283.473 632.163 416.56C632.163 549.647 590.061 563.319 668.286 670.992C746.512 778.658 772.533 742.848 899.1 783.971C1025.67 825.094 1025.67 869.363 1152.24 828.24C1278.81 787.117 1235.73 740.746 1329.09 645.905C1422.2 551.304 1451.34 549.647 1451.34 416.56Z" stroke="#C4E2F5" stroke-width="2" stroke-miterlimit="10"/>
<path d="M1437.88 423.956C1437.88 292.533 1396.75 305.899 1319.51 199.577C1242.26 93.2556 1267.68 58.274 1142.69 17.6601C1017.69 -22.9538 1017.7 20.2902 892.713 60.8976C767.726 101.505 742.312 66.5299 665.065 172.845C587.819 279.167 628.942 292.527 628.941 423.949C628.941 555.372 587.819 568.731 665.065 675.053C742.312 781.375 767.726 746.393 892.713 787.001C1017.7 827.608 1017.7 870.852 1142.69 830.238C1267.68 789.624 1225.44 744.285 1317.59 650.592C1409.45 557.199 1437.88 555.372 1437.88 423.956Z" stroke="#C4E2F5" stroke-width="2" stroke-miterlimit="10"/>
<path d="M1424.4 431.363C1424.4 301.605 1384.26 314.651 1307.99 209.674C1231.72 104.696 1256.53 70.5501 1133.13 30.4518C1009.73 -9.64654 1009.72 32.5663 886.319 72.6646C762.917 112.763 738.104 78.6102 661.836 183.588C585.569 288.565 625.713 301.605 625.712 431.363C625.712 561.121 585.569 574.161 661.836 679.138C738.104 784.116 762.917 749.963 886.319 790.061C1009.72 830.16 1009.73 872.373 1133.13 832.274C1256.53 792.176 1215.13 747.862 1306.08 655.31C1396.68 563.112 1424.4 561.121 1424.4 431.363Z" stroke="#C4E2F5" stroke-width="2" stroke-miterlimit="10"/>
<path d="M1410.96 438.784C1410.96 310.69 1371.79 323.416 1296.5 219.79C1221.2 116.163 1245.42 82.846 1123.59 43.2568C1001.77 3.66752 1001.77 44.8557 879.949 84.4385C758.127 124.021 733.921 90.7038 658.625 194.33C583.33 297.957 622.502 310.683 622.502 438.777C622.502 566.871 583.337 579.598 658.625 683.224C733.914 786.851 758.121 753.533 879.949 793.116C1001.78 832.699 1001.77 873.88 1123.59 834.298C1245.42 794.715 1204.86 751.425 1294.6 660.023C1383.93 569.025 1410.96 566.871 1410.96 438.784Z" stroke="#C4E2F5" stroke-width="2" stroke-miterlimit="10"/>
<path d="M1397.49 446.19C1397.49 319.76 1359.29 332.167 1284.98 229.885C1210.67 127.603 1234.27 95.1146 1114.03 56.0475C993.787 16.9803 993.787 57.1308 873.545 96.2045C753.302 135.278 729.702 102.79 655.386 205.072C581.07 307.354 619.262 319.76 619.262 446.19C619.262 572.62 581.07 585.027 655.386 687.309C729.702 789.591 753.302 757.109 873.545 796.176C993.787 835.243 993.787 875.4 1114.03 836.333C1234.27 797.266 1194.55 755.001 1283.08 664.74C1371.16 574.937 1397.49 572.62 1397.49 446.19Z" stroke="#C4E2F5" stroke-width="2" stroke-miterlimit="10"/>
<path d="M1384.02 453.612C1384.02 328.846 1346.81 340.94 1273.48 240.002C1200.15 139.065 1223.14 107.412 1104.48 68.8535C985.825 30.2954 985.825 69.4278 867.162 107.979C748.499 146.531 725.506 114.878 652.169 215.815C578.831 316.753 616.045 328.846 616.045 453.612C616.045 578.377 578.831 590.471 652.169 691.408C725.506 792.346 748.505 760.693 867.162 799.244C985.819 837.796 985.819 876.928 1104.48 838.37C1223.15 799.812 1184.27 758.578 1271.58 669.46C1358.41 580.857 1384.02 578.377 1384.02 453.612Z" stroke="#C4E2F5" stroke-width="2" stroke-miterlimit="10"/>
<path d="M1370.57 461.015C1370.57 337.914 1334.33 349.688 1261.97 250.095C1189.61 150.502 1212.01 119.677 1094.93 81.6414C977.851 43.6054 977.851 81.7001 860.774 119.743C743.696 157.785 721.304 126.961 648.946 226.554C576.587 326.147 612.822 337.921 612.822 461.022C612.822 584.123 576.587 595.897 648.946 695.49C721.304 795.083 743.696 764.259 860.774 802.301C977.851 840.344 977.851 878.439 1094.93 840.403C1212.01 802.36 1173.97 762.151 1260.09 674.181C1345.65 586.76 1370.57 584.117 1370.57 461.015Z" stroke="#C4E2F5" stroke-width="2" stroke-miterlimit="10"/>
<path d="M1357.1 468.433C1357.1 346.996 1321.85 358.45 1250.47 260.201C1179.09 161.952 1200.88 131.963 1085.38 94.4364C969.886 56.9095 969.886 93.9795 854.394 131.506C738.896 169.033 717.111 139.044 645.732 237.287C574.352 335.529 609.608 346.989 609.608 468.426C609.608 589.863 574.352 601.317 645.732 699.566C717.111 797.814 738.903 767.819 854.394 805.346C969.886 842.873 969.892 879.943 1085.38 842.416C1200.88 804.889 1163.68 765.698 1248.59 678.877C1332.9 592.676 1357.1 589.87 1357.1 468.433Z" stroke="#C4E2F5" stroke-width="2" stroke-miterlimit="10"/>
<path d="M1343.63 475.84C1343.63 356.068 1309.35 367.202 1238.95 270.304C1168.55 173.406 1189.73 144.246 1075.82 107.235C961.909 70.2235 961.909 106.262 847.997 143.28C734.085 180.298 712.9 151.132 642.499 248.036C572.099 344.94 606.376 356.074 606.376 475.847C606.376 595.62 572.099 606.76 642.499 703.658C712.9 800.556 734.085 771.402 847.997 808.413C961.909 845.425 961.909 881.47 1075.82 844.459C1189.73 807.448 1153.38 769.281 1237.08 683.602C1320.12 598.583 1343.63 595.613 1343.63 475.84Z" stroke="#C4E2F5" stroke-width="2" stroke-miterlimit="10"/>
<path d="M1330.18 483.242C1330.18 365.133 1296.88 375.947 1227.46 280.394C1158.03 184.841 1178.61 156.51 1066.28 120.014C953.948 83.5181 953.948 118.532 841.622 155.028C729.289 191.524 708.711 163.199 639.283 258.752C569.862 354.306 603.159 365.126 603.159 483.235C603.159 601.344 569.862 612.164 639.283 707.718C708.705 803.271 729.289 774.946 841.622 811.442C953.954 847.938 953.954 882.952 1066.28 846.456C1178.61 809.961 1143.1 772.819 1225.59 688.289C1307.38 604.483 1330.18 601.35 1330.18 483.242Z" stroke="#C4E2F5" stroke-width="2" stroke-miterlimit="10"/>
<path d="M1316.7 490.647C1316.7 374.196 1284.38 384.704 1215.94 290.495C1147.49 196.286 1167.46 168.79 1056.72 132.803C945.97 96.8167 945.97 130.806 835.217 166.786C724.47 202.773 704.492 175.277 636.043 269.486C567.594 363.695 599.92 374.196 599.92 490.647C599.92 607.098 567.594 617.599 636.043 711.808C704.492 806.016 724.463 778.521 835.217 814.507C945.963 850.494 945.963 884.477 1056.72 848.49C1167.46 812.504 1132.8 776.386 1214.08 693.005C1294.6 610.387 1316.7 607.098 1316.7 490.647Z" stroke="#C4E2F5" stroke-width="2" stroke-miterlimit="10"/>
<path d="M1303.24 498.07C1303.24 383.284 1271.89 393.471 1204.42 300.607C1136.95 207.742 1156.33 181.082 1047.16 145.611C937.997 110.14 937.997 143.098 828.829 178.569C719.662 214.04 700.292 187.373 632.821 280.238C565.351 373.102 596.698 383.283 596.698 498.07C596.698 612.857 565.351 623.038 632.821 715.902C700.292 808.767 719.662 782.1 828.829 817.571C937.997 853.042 937.997 886 1047.16 850.529C1156.33 815.058 1122.51 779.966 1202.58 697.726C1281.85 616.316 1303.24 612.857 1303.24 498.07Z" stroke="#C4E2F5" stroke-width="2" stroke-miterlimit="10"/>
<path d="M1289.79 505.471C1289.79 392.349 1259.42 402.216 1192.93 310.703C1126.44 219.19 1145.21 193.351 1037.62 158.396C930.037 123.44 930.037 155.368 822.449 190.323C714.861 225.279 696.098 199.447 629.606 290.967C563.115 382.487 593.483 392.348 593.483 505.471C593.483 618.593 563.115 628.461 629.606 719.975C696.098 811.488 714.868 785.657 822.449 820.619C930.03 855.574 930.03 887.508 1037.62 852.546C1145.21 817.584 1112.22 783.522 1191.09 702.425C1269.1 622.209 1289.79 618.593 1289.79 505.471Z" stroke="#C4E2F5" stroke-width="2" stroke-miterlimit="10"/>
<path d="M1276.32 512.896C1276.32 401.438 1246.93 410.986 1181.42 320.817C1115.91 230.648 1134.07 205.646 1028.07 171.206C922.066 136.766 922.066 167.668 816.064 202.108C710.062 236.548 691.899 211.552 626.387 301.721C560.875 391.89 590.263 401.438 590.263 512.896C590.263 624.354 560.875 633.903 626.387 724.072C691.899 814.241 710.062 789.244 816.064 823.684C922.066 858.124 922.066 889.027 1028.07 854.587C1134.07 820.147 1101.93 787.097 1179.59 707.149C1256.34 628.133 1276.32 624.354 1276.32 512.896Z" stroke="#C4E2F5" stroke-width="2" stroke-miterlimit="10"/>
<path d="M1262.85 520.295C1262.85 410.502 1234.44 419.736 1169.9 330.905C1105.36 242.074 1122.92 217.914 1018.51 183.983C914.089 150.052 914.082 179.93 809.666 213.854C705.25 247.778 687.688 223.611 623.154 312.436C558.621 401.26 587.031 410.495 587.031 520.289C587.031 630.083 558.621 639.311 623.154 728.142C687.688 816.967 705.25 792.8 809.666 826.724C914.089 860.655 914.089 890.526 1018.51 856.595C1122.93 822.664 1091.63 790.646 1168.08 711.839C1243.58 634.031 1262.85 630.089 1262.85 520.295Z" stroke="#C4E2F5" stroke-width="2" stroke-miterlimit="10"/>
<path d="M1249.38 527.702C1249.38 419.573 1221.95 428.488 1158.39 341.008C1094.83 253.528 1111.79 230.189 1008.95 196.78C906.115 163.372 906.115 192.212 803.278 225.627C700.441 259.042 683.486 235.704 619.925 323.184C556.371 410.664 583.801 419.579 583.801 527.709C583.801 635.838 556.364 644.754 619.925 732.234C683.479 819.714 700.435 796.375 803.278 829.791C906.115 863.206 906.115 892.053 1008.95 858.637C1111.79 825.222 1081.34 794.222 1156.58 716.564C1230.82 639.937 1249.38 635.832 1249.38 527.702Z" stroke="#C4E2F5" stroke-width="2" stroke-miterlimit="10"/>
<path d="M1235.92 535.111C1235.92 428.645 1209.47 437.24 1146.89 351.105C1084.32 264.969 1100.66 242.466 999.406 209.566C898.149 176.667 898.149 204.482 796.892 237.382C695.634 270.282 679.286 247.779 616.704 333.908C554.122 420.037 580.58 428.639 580.58 535.104C580.58 641.57 554.122 650.165 616.704 736.3C679.286 822.436 695.634 799.927 796.892 832.826C898.149 865.726 898.149 893.541 999.406 860.642C1100.66 827.742 1071.05 797.766 1145.09 721.251C1218.06 645.838 1235.92 641.576 1235.92 535.111Z" stroke="#C4E2F5" stroke-width="2" stroke-miterlimit="10"/>
<path d="M1222.47 542.526C1222.47 437.725 1196.99 446.001 1135.38 361.216C1073.78 276.431 1089.53 254.757 989.859 222.366C890.187 189.982 890.187 216.767 790.509 249.157C690.838 281.541 675.09 259.867 613.487 344.658C551.884 429.443 577.363 437.725 577.363 542.526C577.363 647.327 551.884 655.609 613.487 740.394C675.09 825.179 690.838 803.511 790.509 835.895C890.181 868.279 890.181 895.07 989.859 862.686C1089.53 830.302 1060.77 801.344 1133.59 725.977C1205.31 651.752 1222.47 647.334 1222.47 542.526Z" stroke="#C4E2F5" stroke-width="2" stroke-miterlimit="10"/>
<path d="M1209 549.943C1209 446.806 1184.5 454.762 1123.88 371.322C1063.25 287.881 1078.4 267.036 980.304 235.167C882.212 203.299 882.212 229.059 784.12 260.927C686.028 292.802 670.887 271.957 610.263 355.397C549.639 438.837 574.139 446.8 574.139 549.937C574.139 653.074 549.639 661.036 610.263 744.476C670.887 827.916 686.028 807.077 784.12 838.946C882.212 870.821 882.212 896.581 980.304 864.706C1078.4 832.831 1050.48 804.904 1122.09 730.679C1192.56 657.662 1209 653.08 1209 549.943Z" stroke="#C4E2F5" stroke-width="2" stroke-miterlimit="10"/>
<path d="M1195.54 557.352C1195.54 455.873 1172.02 463.522 1112.38 381.426C1052.73 299.33 1067.27 279.32 970.761 247.961C874.248 216.601 874.248 241.336 777.742 272.696C681.23 304.055 666.695 284.045 607.05 366.141C547.405 448.237 570.927 455.879 570.927 557.359C570.927 658.838 547.405 666.48 607.05 748.576C666.695 830.672 681.236 810.662 777.742 842.021C874.255 873.381 874.255 898.109 970.761 866.756C1067.27 835.404 1040.2 808.489 1110.6 735.412C1179.81 663.569 1195.54 658.831 1195.54 557.352Z" stroke="#C4E2F5" stroke-width="2" stroke-miterlimit="10"/>
<path d="M1182.07 564.751C1182.07 464.936 1159.53 472.265 1100.86 391.514C1042.18 310.763 1056.12 291.588 961.191 260.744C866.265 229.9 866.265 253.604 771.338 284.448C676.411 315.292 662.477 296.117 603.811 376.862C545.145 457.607 567.687 464.936 567.687 564.751C567.687 664.566 545.145 671.889 603.811 752.64C662.477 833.392 676.411 814.21 771.338 845.054C866.265 875.898 866.265 899.602 961.191 868.758C1056.12 837.914 1029.89 812.024 1099.09 740.097C1167.05 669.455 1182.07 664.56 1182.07 564.751Z" stroke="#C4E2F5" stroke-width="2" stroke-miterlimit="10"/>
<path d="M1168.61 572.175C1168.61 474.024 1147.04 481.033 1089.36 401.627C1031.67 322.22 1045 303.874 951.648 273.546C858.301 243.217 858.301 265.89 764.96 296.225C671.613 326.553 658.286 308.207 600.592 387.614C542.899 467.021 564.468 474.024 564.468 572.175C564.468 670.326 542.899 677.328 600.592 756.735C658.286 836.142 671.613 817.797 764.96 848.125C858.307 878.453 858.307 901.132 951.648 870.804C1044.99 840.476 1019.61 815.604 1087.6 744.818C1154.3 675.377 1168.61 670.326 1168.61 572.175Z" stroke="#C4E2F5" stroke-width="2" stroke-miterlimit="10"/>
<path d="M1155.15 579.577C1155.15 483.091 1134.56 489.78 1077.85 411.724C1021.14 333.668 1033.86 316.152 942.1 286.339C850.339 256.526 850.339 278.174 758.571 307.987C666.809 337.8 654.083 320.289 597.368 398.345C540.654 476.401 561.244 483.091 561.244 579.577C561.244 676.064 540.654 682.753 597.368 760.809C654.083 838.865 666.803 821.355 758.571 851.168C850.339 880.98 850.332 902.635 942.1 872.816C1033.87 842.997 1009.33 819.156 1076.11 749.512C1141.53 681.272 1155.15 676.057 1155.15 579.577Z" stroke="#C4E2F5" stroke-width="2" stroke-miterlimit="10"/>
<path d="M1141.69 587.005C1141.69 492.183 1122.08 498.553 1066.34 421.841C1010.61 345.13 1022.73 328.448 932.546 299.144C842.364 269.841 842.364 290.464 752.182 319.768C662 349.072 649.88 332.39 594.145 409.102C538.409 485.813 558.021 492.189 558.021 587.005C558.021 681.821 538.409 688.197 594.145 764.909C649.88 841.62 662 824.939 752.182 854.242C842.364 883.546 842.364 904.163 932.546 874.866C1022.73 845.562 999.043 822.739 1064.61 754.238C1128.79 687.199 1141.69 681.827 1141.69 587.005Z" stroke="#C4E2F5" stroke-width="2" stroke-miterlimit="10"/>
<path d="M1128.23 594.408C1128.23 501.25 1109.6 507.307 1054.84 431.94C1000.08 356.573 1011.6 340.72 923.001 311.932C834.405 283.144 834.405 302.736 745.802 331.524C657.206 360.312 645.687 344.46 590.93 419.827C536.173 495.194 554.806 501.25 554.806 594.408C554.806 687.566 536.173 693.623 590.93 768.99C645.687 844.357 657.206 828.504 745.802 857.292C834.398 886.08 834.398 905.673 923.001 876.885C1011.6 848.097 988.761 826.292 1053.12 758.939C1116.04 693.088 1128.23 687.566 1128.23 594.408Z" stroke="#C4E2F5" stroke-width="2" stroke-miterlimit="10"/>
<path d="M1114.77 601.815C1114.77 510.322 1097.12 516.058 1043.33 442.036C989.547 368.013 1000.47 352.996 913.449 324.723C826.432 296.451 826.432 315.012 739.416 343.284C652.399 371.557 641.487 356.54 587.709 430.562C533.931 504.585 551.585 510.322 551.585 601.815C551.585 693.309 533.931 699.046 587.709 773.069C641.487 847.091 652.399 832.067 739.416 860.346C826.432 888.625 826.432 907.186 913.449 878.907C1000.47 850.635 978.478 829.848 1041.63 763.638C1103.3 698.994 1114.77 693.309 1114.77 601.815Z" stroke="#C4E2F5" stroke-width="2" stroke-miterlimit="10"/>
<path d="M1101.29 609.22C1101.29 519.391 1084.62 524.808 1031.81 452.136C979.007 379.464 989.318 365.276 903.881 337.512C818.444 309.756 818.444 327.292 733.013 355.049C647.575 382.806 637.27 368.624 584.472 441.296C531.673 513.967 548.348 519.391 548.348 609.22C548.348 699.05 531.673 704.473 584.472 777.145C637.27 849.817 647.582 835.635 733.013 863.392C818.45 891.148 818.45 908.685 903.881 880.928C989.318 853.171 968.173 833.396 1030.11 768.341C1090.53 704.891 1101.29 699.056 1101.29 609.22Z" stroke="#C4E2F5" stroke-width="2" stroke-miterlimit="10"/>
<path d="M1087.84 616.636C1087.84 528.471 1072.13 533.568 1020.31 462.241C968.494 390.914 978.192 377.554 894.341 350.313C810.489 323.072 810.489 339.577 726.638 366.818C642.786 394.066 633.082 380.706 581.255 452.04C529.429 523.367 545.132 528.471 545.132 616.636C545.132 704.802 529.429 709.905 581.255 781.232C633.082 852.56 642.78 839.207 726.638 866.454C810.489 893.702 810.489 910.208 894.341 882.96C978.192 855.712 957.901 836.962 1018.64 773.048C1077.79 710.799 1087.84 704.802 1087.84 616.636Z" stroke="#C4E2F5" stroke-width="2" stroke-miterlimit="10"/>
<path d="M1074.38 624.038C1074.38 537.537 1059.65 542.314 1008.81 472.331C957.958 402.348 967.056 389.824 884.79 363.092C802.525 336.36 802.518 351.84 720.253 378.573C637.987 405.305 628.883 392.781 578.035 462.763C527.188 532.746 541.912 537.53 541.912 624.038C541.912 710.539 527.188 715.323 578.035 785.312C628.883 855.295 637.981 842.771 720.253 869.503C802.525 896.235 802.525 911.716 884.79 884.983C967.056 858.251 947.62 840.519 1007.14 777.748C1065.04 716.693 1074.38 710.545 1074.38 624.038Z" stroke="#C4E2F5" stroke-width="2" stroke-miterlimit="10"/>
</g>
</g>
<defs>
<clipPath id="clip0_6433_13026">
<rect width="1334" height="418" fill="white"/>
</clipPath>
<clipPath id="clip1_6433_13026">
<rect x="920" y="-150" width="281" height="281" rx="140.5" fill="white"/>
</clipPath>
<clipPath id="clip2_6433_13026">
<rect x="1532.76" y="-44" width="470.757" height="470.757" rx="235.378" transform="rotate(90 1532.76 -44)" fill="white"/>
</clipPath>
</defs>
</svg>
