<svg width="655" height="312" viewBox="0 0 655 312" fill="none" xmlns="http://www.w3.org/2000/svg">
<g clip-path="url(#clip0_6437_76860)">
<g clip-path="url(#clip1_6437_76860)">
<rect x="539.896" y="362.89" width="456.865" height="456.865" rx="228.433" transform="rotate(-120 539.896 362.89)" fill="#C4E2F5"/>
<path d="M902.077 339.941C918.873 235.706 922.457 208.6 915.509 180.107C908.562 151.614 902.355 167.97 878.607 243.715C854.858 319.46 847.986 344.831 831.185 449.069C814.384 553.307 814.924 567.263 821.872 595.756C828.819 624.249 834.295 602.721 855.542 551.133C877.188 498.576 885.273 444.175 902.077 339.941Z" stroke="#EBF4FA" stroke-width="2" stroke-miterlimit="10"/>
<path d="M903.795 339.49C922.622 230.382 926.717 201.937 920.064 171.036C913.411 140.136 906.808 156.924 881.328 235.131C855.848 313.339 848.416 339.635 829.589 448.743C810.763 557.851 811.088 572.724 817.741 603.624C824.394 634.525 830.332 612.177 852.87 559.388C875.836 505.603 884.969 448.598 903.795 339.49Z" stroke="#EBF4FA" stroke-width="2" stroke-miterlimit="10"/>
<path d="M905.577 339.206C926.554 225.113 931.194 195.29 924.883 161.862C918.571 128.435 911.557 145.638 884.267 226.299C856.976 306.96 848.963 334.188 827.981 448.283C807 562.379 807.103 578.197 813.409 611.627C819.721 645.055 826.143 621.886 850.024 567.941C874.359 512.972 884.596 453.302 905.577 339.206Z" stroke="#EBF4FA" stroke-width="2" stroke-miterlimit="10"/>
<path d="M907.41 339.054C930.666 219.871 935.882 188.64 929.963 152.558C924.04 116.471 916.595 134.09 887.417 217.187C858.238 300.284 849.611 328.45 826.352 447.629C803.092 566.808 802.94 583.621 808.862 619.707C814.785 655.794 821.72 631.788 846.987 576.741C872.735 520.643 884.153 458.238 907.41 339.054Z" stroke="#EBF4FA" stroke-width="2" stroke-miterlimit="10"/>
<path d="M909.28 339.066C934.948 214.692 940.776 182.019 935.295 143.151C929.814 104.284 921.923 122.289 890.776 207.801C859.626 293.308 850.364 322.407 824.695 446.782C799.027 571.156 798.604 588.992 804.085 627.86C809.566 666.727 817.036 641.891 843.745 585.796C870.951 528.635 883.611 463.441 909.28 339.066Z" stroke="#EBF4FA" stroke-width="2" stroke-miterlimit="10"/>
<path d="M911.178 339.231C939.393 209.569 945.867 175.417 940.882 133.639C935.896 91.8603 927.541 110.244 894.34 198.128C861.139 286.012 851.205 316.046 822.989 445.708C794.774 575.37 794.062 594.271 799.048 636.049C804.034 677.827 812.063 652.151 840.26 595.087C868.985 536.938 882.958 468.896 911.178 339.231Z" stroke="#EBF4FA" stroke-width="2" stroke-miterlimit="10"/>
<path d="M913.133 339.602C944.037 204.558 951.194 168.905 946.764 124.076C942.33 79.2503 933.498 97.9895 898.164 188.205C862.83 278.421 852.196 309.381 821.293 444.418C790.391 579.456 789.364 599.46 793.793 644.289C798.227 689.114 806.843 662.601 836.57 604.642C866.863 545.588 882.228 474.646 913.133 339.602Z" stroke="#EBF4FA" stroke-width="2" stroke-miterlimit="10"/>
<path d="M915.121 340.187C948.855 199.685 956.743 162.498 952.924 114.489C949.105 66.4807 939.775 85.5502 902.221 178.043C864.668 270.536 853.304 302.416 819.567 442.913C785.829 583.41 784.463 604.551 788.282 652.559C792.101 700.568 801.337 673.223 832.644 614.456C864.548 554.583 881.386 480.688 915.121 340.187Z" stroke="#EBF4FA" stroke-width="2" stroke-miterlimit="10"/>
<path d="M917.142 340.978C953.86 194.943 962.512 156.196 959.369 104.865C956.226 53.534 946.384 72.9108 906.521 167.61C866.658 262.31 854.54 295.098 817.82 441.128C781.099 587.158 779.367 609.476 782.51 660.806C785.653 712.137 795.525 683.965 828.471 624.492C862.036 563.898 880.424 487.013 917.142 340.978Z" stroke="#EBF4FA" stroke-width="2" stroke-miterlimit="10"/>
<path d="M919.18 342.019C959.037 190.391 968.497 150.052 966.095 95.257C963.698 40.459 953.33 60.1155 911.076 156.945C868.822 253.775 855.912 287.457 816.055 439.085C776.198 590.712 774.073 614.245 776.471 669.043C778.868 723.841 789.408 694.847 824.03 634.774C859.312 573.565 879.327 493.644 919.18 342.019Z" stroke="#EBF4FA" stroke-width="2" stroke-miterlimit="10"/>
<path d="M921.278 343.312C964.43 186.032 974.742 144.089 973.16 85.6793C971.579 27.2693 960.668 47.1778 915.934 146.047C871.201 244.917 857.468 279.474 814.313 436.749C771.158 594.024 768.615 618.813 770.196 677.223C771.778 735.633 783.013 705.832 819.362 645.279C856.398 583.573 878.128 500.584 921.278 343.312Z" stroke="#EBF4FA" stroke-width="2" stroke-miterlimit="10"/>
<path d="M923.392 344.881C970.004 181.915 981.212 138.342 980.517 76.175C979.829 14.01 968.355 34.1264 921.055 134.927C873.754 235.727 859.168 271.139 812.556 434.105C765.943 597.07 762.949 623.153 763.637 685.318C764.325 747.483 776.288 716.886 814.405 655.989C853.249 593.934 876.779 507.846 923.392 344.881Z" stroke="#EBF4FA" stroke-width="2" stroke-miterlimit="10"/>
<path d="M925.52 346.743C975.758 178.058 987.909 132.84 988.186 66.7675C988.463 0.695251 976.421 20.9865 926.467 123.601C876.511 226.212 861.033 262.452 810.8 431.135C760.567 599.817 757.082 627.234 756.803 693.301C756.523 759.369 769.234 728.003 809.168 666.898C849.859 604.637 875.283 515.428 925.52 346.743Z" stroke="#EBF4FA" stroke-width="2" stroke-miterlimit="10"/>
<path d="M927.67 348.921C981.704 174.504 994.846 127.626 996.179 57.4956C997.515 -12.6302 984.881 7.78707 932.178 112.081C879.48 216.373 863.081 253.403 809.047 427.821C755.013 602.239 751.019 631.019 749.684 701.145C748.348 771.271 761.841 739.151 803.639 677.997C846.226 615.686 873.636 523.339 927.67 348.921Z" stroke="#EBF4FA" stroke-width="2" stroke-miterlimit="10"/>
<path d="M929.835 351.429C987.844 171.28 1002.02 122.731 1004.5 48.3984C1006.98 -25.9339 993.732 -5.4346 938.206 100.379C882.68 206.193 865.325 243.984 807.316 424.133C749.307 604.281 744.767 634.47 742.289 708.803C739.81 783.135 754.116 750.294 797.814 689.267C842.345 627.075 871.829 531.582 929.835 351.429Z" stroke="#EBF4FA" stroke-width="2" stroke-miterlimit="10"/>
<path d="M932.015 354.301C994.179 168.435 1009.44 118.212 1013.15 39.5154C1016.87 -39.1816 1003 -18.6498 944.555 88.5199C886.105 195.69 867.773 234.193 805.606 420.055C743.439 605.917 738.324 637.546 734.61 716.243C730.895 794.94 746.039 761.4 791.684 700.68C838.195 638.809 869.851 540.168 932.015 354.301Z" stroke="#EBF4FA" stroke-width="2" stroke-miterlimit="10"/>
<path d="M934.181 357.544C1000.68 165.996 1017.08 114.091 1022.13 30.8799C1027.18 -52.3308 1012.68 -31.8252 951.221 76.5074C889.767 184.84 870.413 224.013 803.911 415.556C737.409 607.1 731.678 640.208 726.63 723.419C721.581 806.629 737.599 772.431 785.223 712.222C833.75 650.871 867.679 549.087 934.181 357.544Z" stroke="#EBF4FA" stroke-width="2" stroke-miterlimit="10"/>
<path d="M936.363 361.213C1007.39 164.041 1024.98 110.457 1031.45 22.5744C1037.93 -65.3082 1022.79 -44.8856 958.243 64.4004C893.7 173.686 873.288 213.476 802.266 410.647C731.243 607.819 724.854 642.438 718.376 730.316C711.898 818.194 728.812 783.386 778.456 723.898C829.04 663.289 865.341 558.384 936.363 361.213Z" stroke="#EBF4FA" stroke-width="2" stroke-miterlimit="10"/>
<path d="M938.521 365.282C1014.26 162.554 1033.09 107.307 1041.11 14.6002C1049.13 -78.1066 1033.32 -57.8375 965.599 52.1784C897.879 162.199 876.381 202.535 800.648 405.26C724.914 607.985 717.828 644.144 709.811 736.85C701.793 829.557 719.638 794.169 771.332 735.643C824.008 676.008 862.782 568.009 938.521 365.282Z" stroke="#EBF4FA" stroke-width="2" stroke-miterlimit="10"/>
<path d="M940.659 369.817C1021.3 161.639 1041.43 104.732 1051.1 7.03971C1060.77 -90.653 1044.29 -70.6008 973.313 39.8918C902.337 150.384 879.719 191.208 799.078 399.391C718.437 607.573 710.623 645.302 700.951 742.99C691.279 840.678 710.085 804.772 763.864 747.452C818.661 689.051 860.018 577.999 940.659 369.817Z" stroke="#EBF4FA" stroke-width="2" stroke-miterlimit="10"/>
<path d="M942.776 374.826C1028.52 161.309 1050.01 102.769 1061.44 -0.0543812C1072.87 -102.878 1055.7 -83.1306 981.391 27.567C907.079 138.265 883.307 179.496 797.559 393.013C711.81 606.53 703.224 645.86 691.79 748.684C680.356 851.507 700.157 815.131 756.045 759.291C812.99 702.398 857.032 588.34 942.776 374.826Z" stroke="#EBF4FA" stroke-width="2" stroke-miterlimit="10"/>
<path d="M944.877 380.353C1035.93 161.648 1058.82 101.494 1072.14 -6.61073C1085.46 -114.716 1067.6 -95.3535 989.869 15.2438C912.143 125.841 887.187 167.406 796.14 386.108C705.093 604.811 695.691 645.774 682.366 753.881C669.041 861.989 689.856 825.218 747.877 771.146C806.993 716.043 853.825 599.058 944.877 380.353Z" stroke="#EBF4FA" stroke-width="2" stroke-miterlimit="10"/>
<path d="M946.925 386.404C1043.48 162.685 1067.84 100.953 1083.17 -12.5911C1098.5 -126.135 1079.93 -107.241 998.716 2.93117C917.499 113.104 891.329 154.908 794.776 378.627C698.223 602.347 687.962 644.961 672.628 758.501C657.294 872.041 679.15 834.945 739.323 782.95C800.634 729.966 850.372 610.124 946.925 386.404Z" stroke="#EBF4FA" stroke-width="2" stroke-miterlimit="10"/>
<path d="M948.926 393.024C1051.19 164.498 1077.06 101.22 1094.54 -17.9052C1112.02 -137.031 1092.74 -118.704 1007.96 -9.30253C923.18 100.099 895.761 142.04 793.506 370.564C691.25 599.088 680.083 643.381 662.602 762.506C645.12 881.632 668.059 844.28 730.401 794.69C793.922 744.161 846.668 621.555 948.926 393.024Z" stroke="#EBF4FA" stroke-width="2" stroke-miterlimit="10"/>
<path d="M950.855 400.238C1059.02 167.136 1086.48 102.37 1106.24 -22.4846C1126 -147.339 1106 -129.685 1017.59 -21.4348C929.183 86.8151 900.491 128.786 792.321 361.886C684.151 594.986 672.036 640.97 652.275 765.824C632.514 890.679 656.556 853.164 721.076 806.324C786.817 758.595 842.69 633.335 950.855 400.238Z" stroke="#EBF4FA" stroke-width="2" stroke-miterlimit="10"/>
<path d="M952.726 408.094C1067 170.688 1096.11 104.483 1118.29 -26.243C1140.47 -156.969 1119.74 -140.089 1027.64 -33.4043C935.544 73.2761 905.544 115.165 791.267 352.572C676.991 589.978 663.872 637.673 641.69 768.394C619.507 899.116 644.68 861.526 711.384 817.82C779.344 773.285 838.45 645.501 952.726 408.094Z" stroke="#EBF4FA" stroke-width="2" stroke-miterlimit="10"/>
<path d="M954.507 416.602C1075.1 175.196 1105.9 107.614 1130.66 -29.1172C1155.41 -165.848 1133.95 -149.859 1038.1 -45.1837C942.261 59.4916 910.923 101.17 790.33 342.574C669.737 583.977 655.567 633.397 630.812 770.128C606.057 906.859 632.392 869.292 701.274 829.112C771.459 788.166 833.909 658.009 954.507 416.602Z" stroke="#EBF4FA" stroke-width="2" stroke-miterlimit="10"/>
<path d="M956.196 425.786C1083.31 180.722 1115.87 111.843 1143.35 -31.0253C1170.83 -173.894 1148.63 -158.922 1048.99 -56.7232C949.341 45.4758 916.648 86.7991 789.528 331.867C662.407 576.934 647.142 628.075 619.666 770.944C592.191 913.812 619.709 876.386 690.763 840.151C763.164 803.225 829.076 670.854 956.196 425.786Z" stroke="#EBF4FA" stroke-width="2" stroke-miterlimit="10"/>
<path d="M957.776 435.728C1091.62 187.388 1126 117.291 1156.35 -31.8409C1186.7 -180.973 1163.78 -167.148 1060.29 -67.9352C956.801 31.2773 922.719 72.0997 788.876 320.44C655.034 568.78 638.608 621.66 608.258 770.792C577.908 919.924 606.624 882.753 679.845 850.91C754.447 818.466 823.934 684.068 957.776 435.728Z" stroke="#EBF4FA" stroke-width="2" stroke-miterlimit="10"/>
<path d="M959.239 446.403C1100.01 195.211 1136.27 123.996 1169.67 -31.5205C1203.07 -187.037 1179.41 -174.496 1072.04 -78.8136C964.666 16.8639 929.181 57.0337 788.407 308.22C647.633 559.407 630.01 614.023 596.608 769.539C563.207 925.056 593.162 888.263 668.519 861.291C745.303 833.808 818.473 697.591 959.239 446.403Z" stroke="#EBF4FA" stroke-width="2" stroke-miterlimit="10"/>
<path d="M960.545 457.873C1108.45 204.306 1146.64 132.07 1183.26 -29.9354C1219.87 -191.941 1195.48 -180.83 1084.2 -89.263C972.912 2.30383 935.994 41.6413 788.093 295.209C640.193 548.776 621.307 605.124 584.696 767.122C548.085 929.12 579.288 892.861 656.754 871.254C735.688 849.242 812.645 711.441 960.545 457.873Z" stroke="#EBF4FA" stroke-width="2" stroke-miterlimit="10"/>
<path d="M961.717 470.192C1116.94 214.763 1157.14 141.63 1197.14 -26.9655C1237.14 -195.561 1212.03 -186.045 1096.81 -99.2078C981.594 -12.3703 943.226 25.9476 787.999 281.379C632.771 536.81 612.572 594.874 572.569 763.465C532.567 932.056 565.051 896.471 644.587 880.762C725.63 864.755 806.493 725.627 961.717 470.192Z" stroke="#EBF4FA" stroke-width="2" stroke-miterlimit="10"/>
<path d="M962.715 483.369C1125.46 226.648 1167.71 152.752 1211.28 -22.5258C1254.85 -197.803 1229.03 -190.041 1109.86 -108.599C990.691 -27.1533 950.855 9.95299 788.117 266.672C625.378 523.391 603.802 583.16 560.232 758.433C516.662 933.706 550.431 898.953 631.992 889.697C715.099 880.268 799.972 740.091 962.715 483.369Z" stroke="#EBF4FA" stroke-width="2" stroke-miterlimit="10"/>
<path d="M963.528 497.465C1133.97 240.071 1178.35 165.554 1225.67 -16.4879C1272.99 -198.53 1246.47 -192.701 1123.35 -117.345C1000.23 -41.9885 958.918 -6.31037 788.474 251.083C618.029 508.477 595.023 569.92 547.699 751.958C500.376 933.996 535.452 900.24 618.979 898.031C704.088 895.775 793.083 754.859 963.528 497.465Z" stroke="#EBF4FA" stroke-width="2" stroke-miterlimit="10"/>
<path d="M964.135 512.499C1142.47 255.111 1189.01 180.135 1240.28 -8.73656C1291.55 -197.608 1264.35 -193.896 1137.28 -125.376C1010.22 -56.8596 967.42 -22.8309 789.087 234.55C610.755 491.931 586.262 555.025 534.991 743.897C483.721 932.768 520.111 900.202 605.54 905.654C692.587 911.204 785.801 769.887 964.135 512.499Z" stroke="#EBF4FA" stroke-width="2" stroke-miterlimit="10"/>
<path d="M964.527 528.519C1150.92 271.88 1199.7 196.61 1255.11 0.855007C1310.52 -194.9 1282.65 -193.497 1151.66 -132.61C1020.67 -71.7231 976.383 -39.5868 789.988 217.052C603.593 473.691 577.55 538.393 522.14 734.148C466.73 929.902 504.444 898.724 591.688 912.483C680.588 926.503 778.127 785.16 964.527 528.519Z" stroke="#EBF4FA" stroke-width="2" stroke-miterlimit="10"/>
<path d="M964.653 545.565C1159.28 290.467 1210.34 215.102 1270.09 12.4285C1329.84 -190.246 1301.33 -191.361 1166.46 -138.938C1031.58 -86.5164 985.792 -56.5318 791.162 198.567C596.533 453.666 568.886 519.933 509.131 722.61C449.376 925.287 488.43 895.694 577.402 918.451C668.059 941.636 770.02 800.659 964.653 545.565Z" stroke="#EBF4FA" stroke-width="2" stroke-miterlimit="10"/>
<path d="M964.526 563.685C1167.55 310.995 1220.94 235.741 1285.24 26.1188C1349.54 -183.504 1320.41 -187.341 1181.69 -144.273C1042.97 -101.205 995.685 -73.6401 792.669 179.048C589.652 431.735 560.329 499.518 496.028 709.14C431.727 918.763 472.121 890.991 562.718 923.462C655.033 956.545 761.505 816.376 964.526 563.685Z" stroke="#EBF4FA" stroke-width="2" stroke-miterlimit="10"/>
<path d="M964.107 582.923C1175.66 333.571 1231.44 258.646 1300.51 42.0816C1369.57 -174.483 1339.85 -181.285 1197.36 -148.504C1054.86 -115.722 1006.08 -90.8717 794.521 158.482C582.96 407.836 551.916 477.067 482.849 693.639C413.783 910.211 455.524 884.495 547.624 927.427C641.473 971.162 752.546 832.276 964.107 582.923Z" stroke="#EBF4FA" stroke-width="2" stroke-miterlimit="10"/>
<path d="M963.355 603.266C1183.59 358.259 1241.8 283.916 1315.85 60.4076C1389.89 -163.1 1359.62 -173.086 1213.42 -151.583C1067.23 -130.077 1016.96 -108.243 796.727 136.764C576.491 381.77 543.648 452.39 469.603 675.893C395.558 899.397 438.64 875.993 532.114 930.173C627.362 985.381 743.114 848.275 963.355 603.266Z" stroke="#EBF4FA" stroke-width="2" stroke-miterlimit="10"/>
<path d="M962.287 624.827C1191.33 385.243 1252.01 311.738 1331.26 81.3351C1410.51 -149.068 1379.71 -162.502 1229.92 -153.315C1080.12 -144.131 1028.39 -125.636 799.347 113.949C570.306 353.534 535.617 425.447 456.372 655.85C377.126 886.253 421.541 865.423 516.243 931.673C612.735 999.183 733.249 864.417 962.287 624.827Z" stroke="#EBF4FA" stroke-width="2" stroke-miterlimit="10"/>
<path d="M960.833 647.607C1198.79 414.599 1262 342.219 1346.66 104.975C1431.32 -132.269 1400.06 -149.405 1246.78 -153.637C1093.49 -157.868 1040.31 -143.061 802.361 89.9466C564.409 322.954 527.8 396.068 443.137 633.312C358.474 870.555 404.204 852.58 499.964 931.767C597.541 1012.46 722.881 880.615 960.833 647.607Z" stroke="#EBF4FA" stroke-width="2" stroke-miterlimit="10"/>
<path d="M959 671.683C1205.96 446.489 1271.73 375.539 1362.05 131.542C1452.37 -112.454 1420.69 -133.567 1264.04 -152.371C1107.4 -171.176 1052.8 -160.417 805.848 64.7765C558.891 289.97 520.304 364.183 429.982 608.179C339.659 852.176 386.697 837.361 483.337 930.38C581.815 1025.17 712.043 896.877 959 671.683Z" stroke="#EBF4FA" stroke-width="2" stroke-miterlimit="10"/>
<path d="M956.742 697.06C1212.78 481.004 1281.15 411.808 1377.35 161.169C1473.56 -89.4694 1441.5 -114.848 1281.67 -149.433C1121.84 -184.018 1065.84 -177.693 809.803 38.3566C553.762 254.406 513.136 329.611 416.927 580.245C320.719 830.879 369.042 819.546 466.361 927.337C565.532 1037.18 700.698 913.116 956.742 697.06Z" stroke="#EBF4FA" stroke-width="2" stroke-miterlimit="10"/>
<path d="M954.029 723.796C1219.22 518.295 1290.2 451.208 1392.53 194.062C1494.86 -63.083 1462.49 -93.0192 1299.64 -144.666C1136.79 -196.313 1079.45 -194.82 814.27 10.6782C549.084 216.179 506.361 292.233 404.032 549.376C301.703 806.518 351.277 798.992 449.062 922.527C548.691 1048.4 688.847 929.294 954.029 723.796Z" stroke="#EBF4FA" stroke-width="2" stroke-miterlimit="10"/>
<path d="M950.835 751.929C1225.2 558.489 1298.83 493.878 1407.53 230.398C1516.22 -33.0819 1483.6 -67.8926 1317.94 -137.928C1152.28 -207.963 1093.63 -211.736 819.273 -18.2916C544.91 175.149 500.028 251.914 391.328 515.397C282.628 778.879 333.435 775.51 431.439 915.81C531.298 1058.76 676.47 945.377 950.835 751.929Z" stroke="#EBF4FA" stroke-width="2" stroke-miterlimit="10"/>
<path d="M947.113 781.499C1230.66 601.716 1306.97 539.988 1422.28 270.376C1537.58 0.763524 1504.79 -39.2454 1336.53 -129.073C1168.29 -218.903 1108.4 -228.38 824.841 -48.5955C541.286 131.189 494.183 208.506 378.879 478.118C263.576 747.73 315.566 748.903 413.528 907.016C513.351 1068.12 663.562 961.281 947.113 781.499Z" stroke="#EBF4FA" stroke-width="2" stroke-miterlimit="10"/>
<path d="M942.848 812.554C1235.58 648.131 1314.57 589.712 1436.72 314.208C1558.88 38.7033 1525.99 -6.83778 1355.41 -117.926C1184.84 -229.014 1123.76 -244.666 831.026 -80.2475C538.294 84.1758 488.912 161.867 366.756 437.379C244.599 712.89 297.734 718.983 395.372 896.007C494.859 1076.39 650.116 976.977 942.848 812.554Z" stroke="#EBF4FA" stroke-width="2" stroke-miterlimit="10"/>
<path d="M937.995 845.117C1239.87 697.865 1321.54 643.211 1450.8 362.084C1580.05 80.9566 1547.15 29.5351 1374.53 -104.34C1201.91 -238.216 1139.72 -260.538 837.847 -113.286C535.976 33.9656 484.257 111.857 355.001 392.979C225.744 674.102 279.966 685.536 376.975 882.617C475.824 1083.44 636.121 992.376 937.995 845.117Z" stroke="#EBF4FA" stroke-width="2" stroke-miterlimit="10"/>
<path d="M932.512 879.264C1243.46 751.091 1327.82 700.688 1464.42 414.257C1601.02 127.826 1568.2 70.1531 1393.85 -88.1046C1219.51 -246.362 1156.29 -275.873 845.342 -147.7C534.398 -19.5272 480.288 58.343 343.69 344.774C207.092 631.205 262.336 648.404 358.384 866.718C456.246 1089.17 621.568 1007.44 932.512 879.264Z" stroke="#EBF4FA" stroke-width="2" stroke-miterlimit="10"/>
<path d="M926.367 914.987C1246.28 807.923 1333.33 762.278 1477.52 470.896C1621.72 179.514 1589.08 115.221 1413.36 -69.0903C1237.63 -253.402 1173.47 -290.636 853.552 -183.572C533.635 -76.5088 477.083 1.12404 332.89 292.499C188.697 583.874 244.904 607.298 339.628 848.062C436.147 1093.4 606.45 1022.05 926.367 914.987Z" stroke="#EBF4FA" stroke-width="2" stroke-miterlimit="10"/>
<path d="M919.502 952.349C1248.26 868.533 1337.97 828.195 1490 532.276C1642.03 236.357 1609.69 165.04 1432.97 -47.0661C1256.26 -259.172 1191.25 -304.695 862.499 -220.882C533.75 -137.068 474.701 -59.9177 322.67 236.001C170.638 531.921 227.726 562.033 320.738 826.523C415.514 1096.02 590.749 1036.17 919.502 952.349Z" stroke="#EBF4FA" stroke-width="2" stroke-miterlimit="10"/>
<path d="M911.917 991.386C1249.33 933.082 1341.69 898.626 1501.81 598.613C1661.93 298.599 1630 219.855 1452.7 -21.851C1275.41 -263.557 1209.68 -317.964 872.261 -259.66C534.845 -201.355 473.257 -124.951 313.133 175.062C153.01 475.075 210.899 512.378 301.79 801.887C394.402 1096.88 574.499 1049.69 911.917 991.386Z" stroke="#EBF4FA" stroke-width="2" stroke-miterlimit="10"/>
<path d="M903.527 1032.12C1249.39 1001.71 1344.36 973.743 1512.82 670.141C1681.27 366.539 1649.88 279.949 1472.47 6.7566C1295.05 -266.433 1228.72 -330.339 882.846 -299.927C536.973 -269.514 472.804 -194.141 304.344 109.457C135.883 413.054 194.469 458.068 282.793 773.954C372.79 1095.83 557.659 1062.53 903.527 1032.12Z" stroke="#EBF4FA" stroke-width="2" stroke-miterlimit="10"/>
<path d="M894.307 1074.58C1248.38 1074.58 1345.9 1053.75 1522.93 747.113C1699.97 440.478 1669.24 345.605 1492.21 38.9722C1315.18 -267.661 1248.37 -341.703 894.304 -341.705C540.233 -341.707 473.435 -267.662 296.398 38.9691C119.362 345.6 178.549 398.873 263.826 742.519C350.726 1092.68 540.239 1074.58 894.307 1074.58Z" stroke="#EBF4FA" stroke-width="2" stroke-miterlimit="10"/>
</g>
<g clip-path="url(#clip2_6437_76860)">
<rect x="566.995" y="150.757" width="314.399" height="314.399" rx="157.2" transform="rotate(180 566.995 150.757)" fill="#EBF4FA"/>
<path d="M368.298 294.191C481.621 294.191 467.817 251.706 559.498 185.096C651.18 118.486 687.318 144.743 722.336 36.965C757.354 -70.8132 712.686 -70.8132 677.663 -178.587C642.641 -286.361 678.783 -312.622 587.102 -379.232C495.42 -445.842 481.616 -403.358 368.294 -403.358C254.971 -403.358 241.167 -445.842 149.486 -379.232C57.8044 -312.622 93.9426 -286.365 58.9246 -178.587C23.9066 -70.8088 -20.7659 -70.8088 14.2521 36.965C49.2701 144.739 95.3244 103.658 175.503 183.741C256.305 264.438 254.976 294.191 368.298 294.191Z" stroke="#C4E2F5" stroke-width="2" stroke-miterlimit="10"/>
<path d="M363.34 285.202C475.551 285.202 461.96 243.372 552.739 177.416C643.518 111.459 679.103 137.311 713.781 30.5918C748.459 -76.1272 704.471 -76.1272 669.797 -182.846C635.123 -289.565 670.704 -315.421 579.925 -381.377C489.141 -447.334 475.55 -405.503 363.339 -405.503C251.128 -405.503 237.533 -447.334 146.754 -381.377C55.9708 -315.421 91.5554 -289.57 56.8817 -182.846C22.2081 -76.1272 -21.7758 -76.1271 12.8979 30.5919C47.5716 137.311 92.9416 96.7835 172.353 176.064C252.345 255.916 251.124 285.203 363.34 285.202Z" stroke="#C4E2F5" stroke-width="2" stroke-miterlimit="10"/>
<path d="M358.401 276.203C469.501 276.203 456.124 235.026 546.005 169.719C635.886 104.412 670.917 129.867 705.247 24.2029C739.576 -81.4613 696.281 -81.4613 661.951 -187.126C627.622 -292.79 662.649 -318.24 572.763 -383.543C482.878 -448.845 469.501 -407.668 358.401 -407.668C247.301 -407.668 233.92 -448.845 144.039 -383.543C54.1576 -318.24 89.1843 -292.79 54.8507 -187.125C20.517 -81.4612 -22.7782 -81.4613 11.5555 24.2029C45.8892 129.867 90.5704 89.8977 169.219 168.372C248.404 247.387 247.302 276.203 358.401 276.203Z" stroke="#C4E2F5" stroke-width="2" stroke-miterlimit="10"/>
<path d="M353.448 267.215C463.436 267.215 450.273 226.692 539.256 162.039C628.24 97.386 662.708 122.436 696.698 17.8305C730.687 -86.7746 688.076 -86.7746 654.087 -191.384C620.097 -295.993 654.571 -321.039 565.587 -385.687C476.604 -450.336 463.436 -409.813 353.444 -409.813C243.451 -409.813 230.288 -450.336 141.3 -385.687C52.3168 -321.039 86.7899 -295.989 52.8006 -191.384C18.8112 -86.7789 -23.7997 -86.7788 10.1897 17.8306C44.179 122.44 88.176 83.0284 166.058 160.697C244.449 238.866 243.456 267.215 353.448 267.215Z" stroke="#C4E2F5" stroke-width="2" stroke-miterlimit="10"/>
<path d="M348.494 258.223C457.375 258.223 444.416 218.349 532.502 154.354C620.587 90.3593 654.502 114.999 688.147 11.4489C721.792 -92.1014 679.87 -92.1014 646.225 -195.652C612.58 -299.202 646.495 -323.846 558.41 -387.841C470.324 -451.84 457.37 -411.966 348.489 -411.966C239.608 -411.966 226.654 -451.84 138.569 -387.841C50.4831 -323.842 84.4027 -299.202 50.7534 -195.652C17.1084 -92.1013 -24.8182 -92.1013 8.83119 11.449C42.4762 114.999 85.7846 76.1499 162.903 153.012C240.498 230.34 239.617 258.223 348.494 258.223Z" stroke="#C4E2F5" stroke-width="2" stroke-miterlimit="10"/>
<path d="M343.548 249.233C451.317 249.233 438.573 210.013 525.76 146.668C612.948 83.3228 646.309 107.562 679.61 5.07056C712.911 -97.4205 671.673 -97.4249 638.372 -199.916C605.071 -302.407 638.433 -326.65 551.246 -389.991C464.058 -453.337 451.317 -414.117 343.548 -414.117C235.778 -414.117 223.038 -453.337 135.85 -389.991C48.6628 -326.646 82.0245 -302.407 48.7238 -199.916C15.4232 -97.4248 -25.8148 -97.4204 7.48591 5.07062C40.7866 107.562 83.4106 69.2746 159.762 145.33C236.55 221.817 235.779 249.233 343.548 249.233Z" stroke="#C4E2F5" stroke-width="2" stroke-miterlimit="10"/>
<path d="M338.607 240.244C445.265 240.244 432.733 201.678 519.019 138.987C605.304 76.2949 638.112 100.128 671.073 -1.3078C704.034 -102.744 663.48 -102.744 630.524 -204.18C597.567 -305.617 630.371 -329.454 544.086 -392.142C457.8 -454.829 445.269 -416.267 338.611 -416.267C231.953 -416.267 219.422 -454.833 133.136 -392.142C46.8511 -329.45 79.6548 -305.617 46.6985 -204.18C13.7378 -102.744 -26.8114 -102.744 6.14933 -1.30773C39.11 100.129 81.0454 62.3994 156.63 137.648C232.611 213.294 231.949 240.244 338.607 240.244Z" stroke="#C4E2F5" stroke-width="2" stroke-miterlimit="10"/>
<path d="M333.649 231.256C439.195 231.256 426.877 193.343 512.265 131.306C597.652 69.268 629.902 92.7005 662.519 -7.68097C695.135 -108.062 655.27 -108.062 622.654 -208.44C590.037 -308.817 622.288 -332.253 536.9 -394.291C451.513 -456.329 439.195 -418.417 333.648 -418.417C228.102 -418.417 215.784 -456.329 130.397 -394.291C45.0092 -332.253 77.2595 -308.821 44.6432 -208.439C12.0268 -108.058 -27.8381 -108.058 4.7783 -7.68091C37.3947 92.7005 78.6456 55.5293 153.467 129.972C228.651 204.776 228.102 231.256 333.649 231.256Z" stroke="#C4E2F5" stroke-width="2" stroke-miterlimit="10"/>
<path d="M328.705 222.256C433.14 222.256 421.032 184.997 505.526 123.609C590.019 62.2208 621.712 85.2524 653.984 -14.0699C686.256 -113.392 647.08 -113.392 614.808 -212.719C582.535 -312.045 614.232 -335.068 529.743 -396.457C445.253 -457.84 433.145 -420.582 328.709 -420.582C224.274 -420.582 212.166 -457.84 127.676 -396.457C43.1868 -335.073 74.8834 -312.041 42.6114 -212.719C10.3394 -113.396 -28.8369 -113.396 3.43512 -14.0699C35.7071 85.2524 76.2738 48.6435 150.329 122.28C224.71 196.243 224.27 222.256 328.705 222.256Z" stroke="#C4E2F5" stroke-width="2" stroke-miterlimit="10"/>
<path d="M323.753 213.267C427.076 213.267 415.181 176.658 498.773 115.928C582.365 55.1982 613.503 77.82 645.431 -20.4475C677.359 -118.715 638.871 -118.715 606.939 -216.982C575.007 -315.25 606.15 -337.872 522.558 -398.606C438.967 -459.341 427.072 -422.732 323.748 -422.732C220.425 -422.732 208.53 -459.341 124.938 -398.606C41.3464 -337.872 72.4851 -315.25 40.5574 -216.982C8.62979 -118.715 -29.8621 -118.715 2.06558 -20.4474C33.9933 77.8201 73.8712 41.7647 147.163 114.599C220.756 187.725 220.429 213.267 323.753 213.267Z" stroke="#C4E2F5" stroke-width="2" stroke-miterlimit="10"/>
<path d="M318.81 204.272C421.022 204.272 409.341 168.317 492.035 108.241C574.729 48.1647 605.309 70.3812 636.897 -26.8271C668.485 -124.035 630.677 -124.035 599.094 -221.248C567.51 -318.461 598.091 -340.677 515.402 -400.758C432.708 -460.838 421.027 -424.883 318.815 -424.883C216.602 -424.883 204.921 -460.838 122.227 -400.758C39.5336 -340.677 70.1187 -318.456 38.5354 -221.248C6.94774 -124.04 -30.8554 -124.04 0.732253 -26.8271C32.32 70.3856 71.5093 34.8881 144.034 106.916C216.816 179.197 216.598 204.273 318.81 204.272Z" stroke="#C4E2F5" stroke-width="2" stroke-miterlimit="10"/>
<path d="M313.853 195.283C414.954 195.283 403.486 159.982 485.277 100.555C567.069 41.1282 597.101 62.948 628.34 -33.2099C659.579 -129.368 622.464 -129.363 591.221 -225.517C559.977 -321.67 590.009 -343.486 508.213 -402.913C426.417 -462.339 414.949 -427.038 313.849 -427.038C212.748 -427.038 201.276 -462.339 119.484 -402.913C37.693 -343.486 67.7202 -321.67 36.4768 -225.517C5.23351 -129.363 -31.881 -129.363 -0.642007 -33.2098C30.6013 62.9437 69.1064 28.0085 140.868 99.2301C212.857 170.678 212.753 195.283 313.853 195.283Z" stroke="#C4E2F5" stroke-width="2" stroke-miterlimit="10"/>
<path d="M308.9 186.294C408.889 186.294 397.635 151.647 478.528 92.8735C559.422 34.1004 588.895 55.5148 619.794 -39.5839C650.693 -134.683 614.263 -134.683 583.364 -229.777C552.465 -324.871 581.939 -346.286 501.045 -405.059C420.152 -463.832 408.893 -429.184 308.904 -429.184C208.915 -429.184 197.656 -463.832 116.763 -405.059C35.8691 -346.286 65.3428 -324.871 34.4438 -229.777C3.54479 -134.678 -32.8855 -134.678 -1.98643 -39.5838C28.9126 55.5149 66.7332 21.1376 137.728 91.5528C208.906 162.151 208.911 186.294 308.9 186.294Z" stroke="#C4E2F5" stroke-width="2" stroke-miterlimit="10"/>
<path d="M303.959 177.306C402.841 177.306 391.792 143.312 471.787 85.1927C551.783 27.0734 580.703 48.0781 611.258 -45.9614C641.812 -140.001 606.071 -140.001 575.512 -234.04C544.953 -328.08 573.873 -349.089 493.877 -407.213C413.882 -465.336 402.837 -431.338 303.955 -431.338C205.072 -431.338 194.027 -465.332 114.032 -407.213C34.0361 -349.093 62.9519 -328.084 32.3972 -234.04C1.84255 -140.001 -33.9034 -140.001 -3.3487 -45.9613C27.206 48.0782 64.3424 14.2632 134.57 83.872C204.964 153.633 205.077 177.306 303.959 177.306Z" stroke="#C4E2F5" stroke-width="2" stroke-miterlimit="10"/>
<path d="M299.008 168.305C396.779 168.305 385.943 134.965 465.041 77.4949C544.139 20.0251 572.501 40.6331 602.716 -52.3516C632.93 -145.336 597.869 -145.336 567.658 -238.321C537.448 -331.306 565.81 -351.909 486.712 -409.379C407.615 -466.849 396.783 -433.505 299.013 -433.505C201.242 -433.505 190.411 -466.845 111.313 -409.379C32.215 -351.914 60.5772 -331.306 30.3669 -238.321C0.156558 -145.336 -34.905 -145.336 -4.69033 -52.3515C25.52 40.6332 61.972 7.37608 131.437 76.1786C201.015 145.099 201.242 168.305 299.008 168.305Z" stroke="#C4E2F5" stroke-width="2" stroke-miterlimit="10"/>
<path d="M294.056 159.315C390.715 159.315 380.093 126.624 458.293 69.8128C536.493 13.0012 564.297 33.1995 594.167 -58.726C624.038 -150.652 589.665 -150.652 559.794 -242.581C529.924 -334.511 557.733 -354.71 479.533 -411.526C401.333 -468.342 390.715 -435.651 294.056 -435.651C197.397 -435.651 186.775 -468.342 108.579 -411.526C30.3836 -354.71 58.1879 -334.507 28.3175 -242.581C-1.5528 -150.656 -35.9214 -150.656 -6.05536 -58.7259C23.8106 33.2039 59.5783 0.509133 128.276 68.5009C197.061 136.58 197.397 159.315 294.056 159.315Z" stroke="#C4E2F5" stroke-width="2" stroke-miterlimit="10"/>
<path d="M289.108 150.327C384.656 150.327 374.247 118.291 451.545 62.1285C528.843 5.96631 556.093 25.768 585.62 -65.1027C615.146 -155.973 581.461 -155.973 551.935 -246.844C522.409 -337.715 549.66 -357.512 472.362 -413.674C395.065 -469.836 384.656 -437.8 289.108 -437.8C193.561 -437.8 183.152 -469.836 105.854 -413.674C28.5569 -357.512 55.8076 -337.715 26.2816 -246.844C-3.24438 -155.973 -36.9287 -155.973 -7.40265 -65.1027C22.1234 25.768 57.2025 -6.36447 125.133 60.8209C193.112 128.059 193.561 150.327 289.108 150.327Z" stroke="#C4E2F5" stroke-width="2" stroke-miterlimit="10"/>
<path d="M284.161 141.337C378.597 141.337 368.402 109.954 444.801 54.4461C521.201 -1.06233 547.898 18.334 577.08 -71.4776C606.262 -161.289 573.266 -161.293 544.084 -251.105C514.903 -340.917 541.6 -360.313 465.196 -415.821C388.796 -471.33 378.597 -439.947 284.165 -439.947C189.733 -439.947 179.534 -471.33 103.134 -415.821C26.7343 -360.313 53.4315 -340.916 24.2454 -251.105C-4.94058 -161.293 -37.9362 -161.289 -8.75013 -71.4775C20.4359 18.3341 54.8263 -13.2362 121.994 53.1472C189.167 119.539 189.724 141.337 284.161 141.337Z" stroke="#C4E2F5" stroke-width="2" stroke-miterlimit="10"/>
<path d="M279.21 132.346C372.535 132.346 362.549 101.617 438.051 46.7624C513.553 -8.09215 539.692 10.8988 568.529 -77.8579C597.367 -166.615 565.055 -166.615 536.218 -255.371C507.381 -344.128 533.52 -363.119 458.018 -417.974C382.516 -472.828 372.53 -442.099 279.206 -442.099C185.881 -442.099 175.895 -472.828 100.393 -417.974C24.8915 -363.119 51.0308 -344.128 22.1934 -255.371C-6.64387 -166.615 -38.9551 -166.615 -10.1178 -77.8578C18.7196 10.8989 52.43 -20.1135 118.831 45.4636C185.214 111.014 185.885 132.346 279.21 132.346Z" stroke="#C4E2F5" stroke-width="2" stroke-miterlimit="10"/>
<path d="M274.259 123.356C366.473 123.356 356.7 93.2812 431.304 39.0761C505.908 -15.129 531.49 3.46092 559.987 -84.2366C588.484 -171.934 556.857 -171.939 528.364 -259.636C499.871 -347.334 525.453 -365.924 450.849 -420.129C376.245 -474.329 366.472 -444.254 274.259 -444.254C182.046 -444.254 172.274 -474.329 97.6699 -420.129C23.0659 -365.928 48.6516 -347.338 20.1543 -259.636C-8.34303 -171.934 -39.9656 -171.934 -11.4682 -84.2366C17.0291 3.46097 50.0509 -26.9891 115.685 37.7816C181.266 102.491 182.046 123.356 274.259 123.356Z" stroke="#C4E2F5" stroke-width="2" stroke-miterlimit="10"/>
<path d="M269.315 114.361C360.417 114.361 350.858 84.9393 424.56 31.3879C498.262 -22.1634 523.294 -3.97441 551.447 -90.6215C579.6 -177.269 548.662 -177.264 520.509 -263.911C492.356 -350.558 517.383 -368.739 443.682 -422.29C369.98 -475.841 360.417 -446.416 269.315 -446.416C178.214 -446.416 168.651 -475.837 94.9489 -422.29C21.2472 -368.743 46.275 -350.558 18.122 -263.911C-10.031 -177.264 -40.9692 -177.269 -12.8162 -90.6215C15.3368 -3.97436 47.6742 -33.8709 112.545 30.0934C177.32 93.9662 178.209 114.361 269.315 114.361Z" stroke="#C4E2F5" stroke-width="2" stroke-miterlimit="10"/>
<path d="M264.363 105.369C354.353 105.369 345.008 76.597 417.812 23.7039C490.616 -29.1893 515.09 -11.41 542.899 -96.9979C570.707 -182.586 540.458 -182.586 512.649 -268.174C484.84 -353.762 509.315 -371.541 436.511 -424.439C363.707 -477.336 354.358 -448.564 264.367 -448.564C174.377 -448.564 165.028 -477.336 92.2238 -424.438C19.42 -371.541 43.8943 -353.762 16.0812 -268.174C-11.7318 -182.586 -41.977 -182.586 -14.1683 -96.9979C13.6403 -11.41 45.2934 -40.7442 109.397 22.4137C173.375 85.4453 174.373 105.369 264.363 105.369Z" stroke="#C4E2F5" stroke-width="2" stroke-miterlimit="10"/>
<path d="M259.405 96.3806C348.284 96.3805 339.148 68.2624 411.059 16.0187C482.969 -36.225 506.881 -18.8468 534.35 -103.376C561.818 -187.904 532.249 -187.904 504.784 -272.437C477.32 -356.971 501.236 -374.344 429.33 -426.588C357.424 -478.832 348.289 -450.714 259.405 -450.714C170.522 -450.714 161.391 -478.832 89.4805 -426.588C17.5746 -374.344 41.491 -356.966 14.0267 -272.437C-13.4377 -187.909 -43.0029 -187.909 -15.5386 -103.375C11.9258 -18.8424 42.8945 -47.6143 106.236 14.7373C169.415 76.9232 170.522 96.3806 259.405 96.3806Z" stroke="#C4E2F5" stroke-width="2" stroke-miterlimit="10"/>
<path d="M254.467 87.3909C342.238 87.3909 333.311 59.9266 404.319 8.33668C475.327 -43.2532 498.69 -26.2759 525.815 -109.754C552.939 -193.233 524.058 -193.228 496.938 -276.702C469.818 -360.176 493.176 -377.149 422.173 -428.739C351.165 -480.329 342.242 -452.864 254.471 -452.864C166.699 -452.864 157.777 -480.329 86.7688 -428.739C15.7608 -377.149 39.1236 -360.176 12.0036 -276.702C-15.1164 -193.228 -43.9973 -193.228 -16.8729 -109.754C10.2514 -26.2803 40.5315 -54.49 103.105 7.05525C165.479 68.4043 166.699 87.3909 254.467 87.3909Z" stroke="#C4E2F5" stroke-width="2" stroke-miterlimit="10"/>
<path d="M249.519 78.3907C336.179 78.3907 327.466 51.5801 397.576 0.644073C467.686 -50.292 490.491 -33.7245 517.271 -116.139C544.051 -198.554 515.859 -198.558 489.079 -280.973C462.299 -363.388 485.108 -379.96 414.998 -430.896C344.888 -481.832 336.179 -455.021 249.519 -455.021C162.859 -455.021 154.15 -481.832 84.0401 -430.896C13.93 -379.96 36.7392 -363.388 9.95923 -280.973C-16.8208 -198.558 -45.013 -198.554 -18.233 -116.139C8.54702 -33.7244 38.1428 -61.3718 99.9539 -0.633C161.53 59.8748 162.859 78.3907 249.519 78.3907Z" stroke="#C4E2F5" stroke-width="2" stroke-miterlimit="10"/>
<path d="M244.563 69.4121C330.112 69.4121 321.612 43.2554 390.82 -7.03126C460.028 -57.3179 482.279 -41.147 508.719 -122.507C535.159 -203.867 507.652 -203.867 481.216 -285.227C454.78 -366.587 477.032 -382.753 407.824 -433.04C338.616 -483.327 330.116 -457.166 244.568 -457.166C159.019 -457.166 150.519 -483.322 81.3116 -433.04C12.1038 -382.758 34.3551 -366.591 7.91941 -285.227C-18.5163 -203.863 -46.0199 -203.867 -19.5842 -122.507C6.85149 -41.147 35.7629 -68.2321 96.8069 -8.29962C157.581 51.3626 159.019 69.4121 244.563 69.4121Z" stroke="#C4E2F5" stroke-width="2" stroke-miterlimit="10"/>
<path d="M239.616 60.4138C324.054 60.4138 315.768 34.9066 384.078 -14.7219C452.388 -64.3503 474.085 -48.5892 500.177 -128.894C526.268 -209.2 499.453 -209.2 473.357 -289.505C447.262 -369.81 468.959 -385.571 400.649 -435.204C332.34 -484.837 324.054 -459.329 239.616 -459.329C155.179 -459.329 146.893 -484.837 78.5833 -435.204C10.2733 -385.571 31.9667 -369.81 5.87539 -289.505C-20.2159 -209.199 -47.0352 -209.199 -20.9438 -128.894C5.14751 -48.5891 33.3746 -75.1163 93.6558 -15.9902C153.632 42.8351 155.179 60.4139 239.616 60.4138Z" stroke="#C4E2F5" stroke-width="2" stroke-miterlimit="10"/>
<path d="M234.66 51.4222C317.986 51.4222 309.909 26.5687 377.321 -22.4059C444.733 -71.3806 465.873 -56.0248 491.624 -135.271C517.375 -214.517 491.241 -214.517 465.494 -293.767C439.747 -373.018 460.886 -388.373 393.474 -437.352C326.062 -486.331 317.986 -461.478 234.66 -461.478C151.334 -461.478 143.257 -486.331 75.8452 -437.352C8.43319 -388.373 29.573 -373.013 3.82605 -293.767C-21.9209 -214.521 -48.0559 -214.521 -22.3045 -135.271C3.44682 -56.0204 30.9853 -81.9853 90.5037 -23.6699C149.678 34.3142 151.334 51.4222 234.66 51.4222Z" stroke="#C4E2F5" stroke-width="2" stroke-miterlimit="10"/>
<path d="M229.715 42.4354C311.93 42.4354 304.067 18.2357 370.581 -30.0895C437.095 -78.4147 457.681 -63.4599 483.084 -141.651C508.486 -219.842 483.045 -219.842 457.637 -298.033C432.23 -376.225 452.817 -391.179 386.303 -439.505C319.788 -487.83 311.925 -463.63 229.711 -463.63C147.497 -463.63 139.634 -487.83 73.1195 -439.505C6.60531 -391.179 27.1915 -376.225 1.78452 -298.033C-23.6225 -219.842 -49.0644 -219.842 -23.6617 -141.651C1.74533 -63.4598 28.5995 -88.8625 87.3507 -31.3491C145.736 25.7982 147.501 42.4354 229.715 42.4354Z" stroke="#C4E2F5" stroke-width="2" stroke-miterlimit="10"/>
<path d="M224.762 33.4454C305.865 33.4454 298.215 9.89954 363.831 -37.7719C429.448 -85.4433 449.476 -70.8895 474.539 -148.026C499.601 -225.162 474.844 -225.162 449.781 -302.294C424.718 -379.431 444.747 -393.98 379.135 -441.651C313.523 -489.323 305.869 -465.777 224.766 -465.777C143.663 -465.777 136.014 -489.323 70.3974 -441.651C4.78119 -393.98 24.8139 -379.426 -0.248738 -302.294C-25.3114 -225.162 -50.069 -225.158 -25.0063 -148.026C0.0563621 -70.8938 26.2305 -95.7342 84.2146 -39.0271C141.785 17.2789 143.659 33.4454 224.762 33.4454Z" stroke="#C4E2F5" stroke-width="2" stroke-miterlimit="10"/>
<path d="M219.815 24.4439C299.806 24.4439 292.37 1.55188 357.084 -45.4657C421.798 -92.4833 441.273 -78.3349 465.992 -154.412C490.71 -230.489 466.641 -230.489 441.918 -306.566C417.196 -382.644 436.675 -396.792 371.956 -443.81C307.238 -490.827 299.802 -467.935 219.811 -467.935C139.819 -467.935 132.379 -490.827 67.665 -443.81C2.95105 -396.792 22.4215 -382.644 -2.29682 -306.566C-27.0151 -230.489 -51.0884 -230.489 -26.3701 -154.412C-1.65175 -78.3348 23.8381 -102.613 81.0594 -46.7123C137.841 8.74814 139.824 24.4439 219.815 24.4439Z" stroke="#C4E2F5" stroke-width="2" stroke-miterlimit="10"/>
<path d="M214.872 15.4653C293.752 15.4653 286.53 -6.77292 350.346 -53.1411C414.162 -99.5092 433.083 -85.7618 457.457 -160.784C481.831 -235.807 458.446 -235.807 434.072 -310.825C409.698 -385.847 428.615 -399.59 364.799 -445.958C300.983 -492.322 293.756 -470.084 214.877 -470.084C135.997 -470.084 128.77 -492.322 64.9538 -445.958C1.13776 -399.594 20.0546 -385.847 -4.31938 -310.825C-28.6934 -235.802 -52.0779 -235.802 -27.7039 -160.784C-3.32995 -85.7661 21.4756 -109.478 77.9298 -54.3876C133.9 0.23591 135.992 15.4653 214.872 15.4653Z" stroke="#C4E2F5" stroke-width="2" stroke-miterlimit="10"/>
<path d="M209.926 6.46298C287.699 6.46297 280.681 -15.1258 343.599 -60.8358C406.518 -106.546 424.881 -93.2081 448.915 -167.171C472.949 -241.135 450.249 -241.134 426.219 -315.102C402.185 -389.065 420.548 -402.407 357.63 -448.122C294.712 -493.836 287.699 -472.247 209.926 -472.247C132.153 -472.247 125.14 -493.836 62.2217 -448.122C-0.696469 -402.407 17.6669 -389.07 -6.36713 -315.102C-30.4011 -241.139 -53.097 -241.139 -29.063 -167.171C-5.02898 -93.208 19.0922 -116.362 74.7793 -62.0736C129.956 -8.29569 132.153 6.46298 209.926 6.46298Z" stroke="#C4E2F5" stroke-width="2" stroke-miterlimit="10"/>
</g>
</g>
<defs>
<clipPath id="clip0_6437_76860">
<rect width="973.955" height="1038.3" fill="white" transform="translate(0.25 -100.922) rotate(-15)"/>
</clipPath>
<clipPath id="clip1_6437_76860">
<rect x="539.896" y="362.89" width="456.865" height="456.865" rx="228.433" transform="rotate(-120 539.896 362.89)" fill="white"/>
</clipPath>
<clipPath id="clip2_6437_76860">
<rect x="566.995" y="150.757" width="314.399" height="314.399" rx="157.2" transform="rotate(180 566.995 150.757)" fill="white"/>
</clipPath>
</defs>
</svg>
