<svg width="442" height="594" viewBox="0 0 442 594" fill="none" xmlns="http://www.w3.org/2000/svg">
<g clip-path="url(#clip0_7565_47561)">
<path d="M481.4 503.786C481.37 503.989 481.17 504.338 480.374 504.736C479.607 505.121 478.449 505.466 476.881 505.752C473.754 506.324 469.18 506.634 463.288 506.685C451.515 506.786 434.615 505.851 413.808 503.987C372.201 500.258 315.044 492.819 252.202 482.551C189.361 472.283 132.749 461.134 92.0222 451.409C71.6555 446.546 55.2791 442.044 44.0872 438.19C38.4858 436.262 34.2154 434.507 31.3992 432.964C29.9867 432.19 28.9822 431.492 28.3607 430.88C27.717 430.247 27.6256 429.851 27.6554 429.647C27.6853 429.444 27.8861 429.096 28.6813 428.698C29.4491 428.313 30.6068 427.968 32.1751 427.681C35.3019 427.109 39.8756 426.799 45.7677 426.749C57.5404 426.648 74.4408 427.582 95.2479 429.447C136.855 433.175 194.012 440.615 256.853 450.883C319.695 461.15 376.307 472.3 417.033 482.024C437.4 486.887 453.777 491.39 464.969 495.243C470.57 497.172 474.84 498.927 477.657 500.47C479.069 501.244 480.074 501.942 480.695 502.553C481.339 503.187 481.43 503.583 481.4 503.786Z" stroke="#88CCF2" stroke-width="1.5"/>
<path d="M379.544 622.713C379.688 622.891 379.783 623.032 379.843 623.14C379.726 623.157 379.562 623.167 379.341 623.159C378.695 623.136 377.743 622.974 376.474 622.656C373.947 622.023 370.316 620.813 365.685 619.067C356.431 615.577 343.271 609.985 327.153 602.715C294.923 588.177 250.91 566.951 202.755 542.484C154.601 518.016 111.431 494.943 80.5638 477.421C65.1282 468.659 52.7794 461.29 44.4245 455.832C40.2434 453.1 37.0824 450.86 35.0383 449.17C34.0114 448.322 33.298 447.638 32.879 447.119C32.7353 446.941 32.6401 446.8 32.58 446.693C32.6971 446.675 32.8613 446.666 33.0825 446.673C33.7281 446.696 34.68 446.858 35.9492 447.176C38.4759 447.809 42.1071 449.02 46.7383 450.766C55.9927 454.255 69.1527 459.847 85.2699 467.117C117.5 481.655 161.513 502.881 209.668 527.349C257.823 551.817 300.993 574.889 331.86 592.411C347.295 601.174 359.644 608.542 367.999 614.001C372.18 616.732 375.341 618.972 377.385 620.662C378.412 621.511 379.125 622.195 379.544 622.713ZM32.4975 446.503C32.4976 446.503 32.4979 446.505 32.4982 446.507C32.4976 446.505 32.4975 446.503 32.4975 446.503ZM32.3884 446.743C32.3883 446.742 32.3892 446.742 32.3914 446.741C32.3895 446.742 32.3884 446.743 32.3884 446.743Z" stroke="#88CCF2" stroke-width="1.5"/>
<path d="M492.043 314.994C487.739 326.749 477.316 335.47 461.966 341.108C446.617 346.746 426.425 349.266 402.764 348.667C355.448 347.471 294.424 333.812 230.926 307.947C167.428 282.082 113.54 248.935 77.7432 216.277C59.8427 199.946 46.4976 183.766 38.7252 168.71C30.9521 153.653 28.7927 139.806 33.0968 128.052C37.4008 116.297 47.8233 107.575 63.1739 101.937C78.5232 96.2995 98.7153 93.7799 122.376 94.3781C169.692 95.5743 230.716 109.234 294.214 135.098C357.712 160.963 411.6 194.111 447.397 226.769C465.297 243.1 478.642 259.28 486.415 274.336C494.188 289.393 496.347 303.239 492.043 314.994Z" stroke="#88CCF2" stroke-width="1.5"/>
<path d="M490.23 303.925C491.837 312.07 487.131 321.4 476.749 331.375C466.401 341.317 450.591 351.723 430.473 361.975C390.247 382.474 332.953 402.277 268.129 416.508C203.306 430.738 143.278 436.69 98.6385 434.822C76.3128 433.888 57.8796 430.999 44.6303 426.237C31.3366 421.46 23.4919 414.885 21.8846 406.741C20.2774 398.596 24.9838 389.266 35.3662 379.291C45.7139 369.349 61.5236 358.943 81.6418 348.691C121.868 328.192 179.162 308.388 243.985 294.158C308.809 279.927 368.836 273.975 413.476 275.843C435.802 276.778 454.235 279.667 467.484 284.428C480.778 289.206 488.623 295.78 490.23 303.925Z" stroke="#88CCF2" stroke-width="1.5"/>
<path d="M511.155 133.311C511.072 134.061 510.664 134.822 509.829 135.59C508.989 136.364 507.75 137.112 506.093 137.818C502.78 139.231 497.944 140.416 491.711 141.357C479.258 143.237 461.406 144.118 439.44 143.999C395.517 143.76 335.251 139.523 269.059 131.339C202.867 123.156 143.306 112.579 100.521 102.097C79.124 96.8553 61.9498 91.6437 50.2464 86.7769C44.3891 84.3413 39.9438 82.0088 37.0297 79.8262C35.5725 78.7348 34.531 77.7049 33.8834 76.7478C33.2395 75.7961 33.0102 74.9566 33.0935 74.2072C33.1768 73.4578 33.5839 72.697 34.419 71.9283C35.259 71.155 36.498 70.4071 38.1549 69.7007C41.4686 68.288 46.3048 67.1031 52.5374 66.1621C64.9906 64.2819 82.8419 63.4006 104.808 63.5199C148.731 63.7584 208.997 67.996 275.189 76.1795C341.382 84.3631 400.943 94.94 443.727 105.421C465.124 110.663 482.299 115.875 494.002 120.742C499.859 123.177 504.305 125.51 507.219 127.692C508.676 128.784 509.717 129.814 510.365 130.771C511.009 131.722 511.238 132.562 511.155 133.311Z" stroke="#88CCF2" stroke-width="1.5"/>
<path d="M444.476 -48.935C445.135 -46.8358 444.559 -44.2924 442.583 -41.2851C440.613 -38.2861 437.322 -34.9406 432.794 -31.3151C423.745 -24.069 409.904 -15.8189 392.284 -7.08581C357.056 10.375 306.855 29.7039 250.035 46.7528C193.215 63.8017 140.57 75.3323 101.392 80.1973C81.7969 82.6305 65.6071 83.3916 53.9612 82.3549C48.1344 81.8363 43.4919 80.8712 40.1416 79.4687C36.782 78.0622 34.8473 76.2721 34.1891 74.1729C33.5309 72.0738 34.1069 69.5303 36.0826 66.523C38.0528 63.524 41.3438 60.1785 45.8712 56.553C54.9201 49.3069 68.7618 41.0569 86.3815 32.3237C121.61 14.8629 171.811 -4.46596 228.63 -21.5149C285.45 -38.5638 338.096 -50.0944 377.274 -54.9594C396.869 -57.3926 413.058 -58.1536 424.704 -57.117C430.531 -56.5983 435.174 -55.6333 438.524 -54.2308C441.883 -52.8243 443.818 -51.0342 444.476 -48.935Z" stroke="#88CCF2" stroke-width="1.5"/>
<path d="M451.857 585.589C452.809 592.498 448.105 600 438.223 607.678C428.387 615.322 413.635 622.968 395.03 630.178C357.832 644.594 305.397 657.201 246.548 664.566C187.699 671.931 133.628 672.654 93.7874 667.88C73.8613 665.492 57.5383 661.734 45.9668 656.77C34.341 651.783 27.7657 645.694 26.8144 638.784C25.863 631.875 30.5669 624.374 40.4487 616.695C50.2842 609.052 65.0369 601.405 83.6414 594.195C120.839 579.78 173.274 567.173 232.123 559.807C290.973 552.442 345.044 551.72 384.884 556.494C404.81 558.882 421.133 562.639 432.705 567.603C444.331 572.59 450.906 578.68 451.857 585.589Z" stroke="#88CCF2" stroke-width="1.5"/>
</g>
<defs>
<clipPath id="clip0_7565_47561">
<rect width="524.139" height="776" fill="white" transform="translate(0.5 -84)"/>
</clipPath>
</defs>
</svg>
