<svg width="438" height="440" viewBox="0 0 438 440" fill="none" xmlns="http://www.w3.org/2000/svg">
<g clip-path="url(#clip0_6437_74994)">
<g clip-path="url(#clip1_6437_74994)">
<rect x="16.7241" y="-65.8312" width="281" height="281" rx="140.5" transform="rotate(-20.7301 16.7241 -65.8312)" fill="#C4E2F5"/>
<path d="M-15.1113 140.251C8.0886 141.833 13.8206 141.929 15.7437 137.686C17.6668 133.444 12.6603 131.75 -8.61764 125.922C-29.8956 120.095 -36.6087 118.582 -59.8086 117C-83.0085 115.418 -85.0494 116.334 -86.9695 120.575C-88.8926 124.818 -83.3333 125.956 -66.9001 131.978C-50.1595 138.119 -38.3112 138.669 -15.1113 140.251Z" stroke="#EBF4FA" stroke-width="2" stroke-miterlimit="10"/>
<path d="M-14.3698 140.934C10.39 143.095 16.5347 143.328 18.9595 139.088C21.3831 134.845 16.1554 133.011 -6.18389 126.609C-28.5201 120.205 -35.596 118.51 -60.3558 116.35C-85.1156 114.189 -87.385 115.065 -89.8086 119.308C-92.2321 123.551 -86.3655 124.835 -69.2422 131.322C-51.7959 137.931 -39.1297 138.773 -14.3698 140.934Z" stroke="#EBF4FA" stroke-width="2" stroke-miterlimit="10"/>
<path d="M-13.6391 141.644C12.7466 144.429 19.3191 144.812 22.28 140.583C25.2409 136.353 19.7856 134.371 -3.63929 127.357C-27.0642 120.343 -34.5123 118.46 -60.8981 115.676C-87.2838 112.891 -89.7902 113.724 -92.7541 117.954C-95.715 122.184 -89.529 123.627 -71.7076 130.598C-53.5462 137.7 -40.0249 138.859 -13.6391 141.644Z" stroke="#EBF4FA" stroke-width="2" stroke-miterlimit="10"/>
<path d="M-12.9159 142.374C15.1607 145.825 22.1814 146.375 25.7213 142.168C29.2613 137.961 23.5741 135.828 -0.965606 128.172C-25.5053 120.515 -33.3376 118.432 -61.4154 114.978C-89.4931 111.524 -92.2533 112.306 -95.7933 116.513C-99.3302 120.719 -92.8134 122.324 -74.2846 129.805C-55.402 137.425 -40.9936 138.921 -12.9159 142.374Z" stroke="#EBF4FA" stroke-width="2" stroke-miterlimit="10"/>
<path d="M-12.2098 143.133C17.626 147.3 25.1116 148.024 29.2656 143.858C33.4196 139.691 27.4989 137.395 1.82012 129.06C-23.8617 120.726 -32.0889 118.431 -61.9248 114.264C-91.7606 110.096 -94.7915 110.82 -98.9455 114.986C-103.1 119.152 -96.2431 120.933 -76.9956 128.944C-57.3775 137.101 -42.0456 138.965 -12.2098 143.133Z" stroke="#EBF4FA" stroke-width="2" stroke-miterlimit="10"/>
<path d="M-11.5006 143.912C20.1628 148.848 28.1326 149.76 32.9448 145.649C37.7569 141.538 31.6004 139.072 4.75032 130.028C-22.0979 120.981 -30.732 118.462 -62.3943 113.529C-94.0577 108.593 -97.3689 109.251 -102.181 113.362C-106.993 117.473 -99.7894 119.441 -79.8121 128.001C-59.4585 136.724 -43.1609 138.975 -11.5006 143.912Z" stroke="#EBF4FA" stroke-width="2" stroke-miterlimit="10"/>
<path d="M-10.8115 144.722C22.7436 150.475 31.221 151.59 36.7354 147.549C42.2498 143.509 35.8521 140.868 7.81143 131.074C-20.2293 121.281 -29.2823 118.524 -62.8385 112.768C-96.3937 107.015 -100.006 107.598 -105.52 111.642C-111.034 115.682 -103.469 117.846 -82.7619 126.985C-61.6646 136.294 -44.3678 138.965 -10.8115 144.722Z" stroke="#EBF4FA" stroke-width="2" stroke-miterlimit="10"/>
<path d="M-10.148 145.555C25.3695 152.183 34.3737 153.516 40.6325 149.564C46.8945 145.612 40.2533 142.79 10.9935 132.208C-18.2651 121.629 -27.7415 118.624 -63.2591 111.996C-98.7766 105.368 -102.702 105.874 -108.961 109.825C-115.22 113.776 -107.286 116.147 -85.8472 125.887C-63.9999 135.809 -45.6686 138.929 -10.148 145.555Z" stroke="#EBF4FA" stroke-width="2" stroke-miterlimit="10"/>
<path d="M-9.49906 146.412C28.0516 153.971 37.5987 155.536 44.6504 151.691C51.7052 147.844 44.82 144.832 14.3223 133.43C-16.1755 122.028 -26.0872 118.76 -63.6379 111.2C-101.188 103.641 -105.442 104.057 -112.498 107.9C-119.553 111.746 -111.24 114.331 -89.0602 124.697C-66.4569 135.257 -47.0485 138.855 -9.49906 146.412Z" stroke="#EBF4FA" stroke-width="2" stroke-miterlimit="10"/>
<path d="M-8.87513 147.298C30.7762 155.848 40.8867 157.662 48.7849 153.944C56.68 150.228 49.5506 147.013 17.7944 134.747C-13.9618 122.481 -24.3208 118.938 -63.9752 110.389C-103.63 101.84 -108.226 102.155 -116.124 105.872C-124.019 109.588 -115.322 112.405 -92.4026 123.42C-69.0473 134.643 -48.5265 138.748 -8.87513 147.298Z" stroke="#EBF4FA" stroke-width="2" stroke-miterlimit="10"/>
<path d="M-8.28704 148.204C33.5338 157.806 44.231 159.884 53.0221 156.315C61.8133 152.746 54.4311 149.326 21.3995 136.16C-11.6332 122.99 -22.4515 119.159 -64.2723 109.557C-106.093 99.9549 -111.059 100.164 -119.848 103.729C-128.637 107.293 -119.543 110.353 -95.8851 122.043C-71.7777 133.959 -50.1079 138.602 -8.28704 148.204Z" stroke="#EBF4FA" stroke-width="2" stroke-miterlimit="10"/>
<path d="M-7.73428 149.142C36.326 159.86 47.6291 162.216 57.365 158.822C67.101 155.428 59.4717 151.79 25.1485 137.68C-9.1789 123.569 -20.4591 119.433 -64.5224 108.715C-108.586 97.9983 -113.929 98.0881 -123.665 101.482C-133.401 104.876 -123.9 108.188 -99.5082 120.577C-74.6553 133.205 -51.7976 138.424 -7.73428 149.142Z" stroke="#EBF4FA" stroke-width="2" stroke-miterlimit="10"/>
<path d="M-7.22008 150.098C39.1496 161.997 51.0782 164.656 61.8127 161.458C72.5483 158.263 64.6726 154.4 29.0385 139.305C-6.59674 124.208 -18.3507 119.754 -64.7204 107.855C-111.09 95.9557 -116.832 95.9164 -127.567 99.1144C-138.302 102.309 -128.388 105.888 -103.27 119.004C-77.6759 132.37 -53.5897 138.199 -7.22008 150.098Z" stroke="#EBF4FA" stroke-width="2" stroke-miterlimit="10"/>
<path d="M-6.7544 151.074C41.9938 164.226 54.5631 167.199 66.3562 164.227C78.1494 161.255 70.0251 157.16 33.0712 141.039C-3.88391 124.915 -16.1176 120.128 -64.8647 106.979C-113.613 93.827 -119.771 93.6511 -131.561 96.6219C-143.354 99.5939 -133.02 103.451 -107.181 117.316C-80.8489 131.446 -55.4984 137.924 -6.7544 151.074Z" stroke="#EBF4FA" stroke-width="2" stroke-miterlimit="10"/>
<path d="M-6.32806 152.085C44.8637 166.56 58.0992 169.868 71.0072 167.15C83.9151 164.432 75.5448 160.094 37.2609 142.901C-1.02291 125.708 -13.7451 120.574 -64.9338 106.098C-116.123 91.6217 -122.719 91.2964 -135.625 94.0178C-148.532 96.7391 -137.773 100.887 -111.223 115.53C-84.168 130.451 -57.5156 137.612 -6.32806 152.085Z" stroke="#EBF4FA" stroke-width="2" stroke-miterlimit="10"/>
<path d="M-5.94739 153.104C47.7541 168.975 61.6743 172.64 75.7573 170.206C89.8391 167.768 81.2277 163.181 41.6081 144.873C1.9884 126.565 -11.225 121.067 -64.9265 105.196C-118.628 89.3259 -125.675 88.8353 -139.757 91.2732C-153.839 93.711 -142.645 98.1637 -115.402 113.612C-87.6358 129.349 -59.6458 137.233 -5.94739 153.104Z" stroke="#EBF4FA" stroke-width="2" stroke-miterlimit="10"/>
<path d="M-5.63825 154.145C50.6371 171.488 65.2637 175.531 80.5838 173.405C95.9039 171.279 87.0523 166.437 46.094 146.969C5.13687 127.504 -8.57474 121.624 -64.8501 104.28C-121.126 86.937 -128.645 86.2716 -143.962 88.3963C-159.279 90.521 -147.646 95.2939 -119.725 111.571C-91.2771 128.156 -61.9136 136.801 -5.63825 154.145Z" stroke="#EBF4FA" stroke-width="2" stroke-miterlimit="10"/>
<path d="M-5.39194 155.207C53.5216 174.1 68.8728 178.54 85.4908 176.764C102.109 174.987 93.0245 169.872 50.7302 149.205C8.43461 128.535 -5.77982 122.26 -64.6903 103.366C-123.604 84.4721 -131.618 83.6192 -148.233 85.3949C-164.851 87.1718 -152.772 92.2801 -124.196 109.408C-95.0793 126.864 -64.3013 136.315 -5.39194 155.207Z" stroke="#EBF4FA" stroke-width="2" stroke-miterlimit="10"/>
<path d="M-5.22911 156.296C56.3807 176.819 72.4793 181.681 90.4638 180.286C108.448 178.892 99.1345 173.504 55.5081 151.583C11.8816 129.663 -2.83831 122.977 -64.4493 102.451C-126.06 81.9249 -134.585 80.8697 -152.569 82.2641C-170.554 83.6584 -158.028 89.1157 -128.818 107.124C-99.0593 125.471 -66.837 135.769 -5.22911 156.296Z" stroke="#EBF4FA" stroke-width="2" stroke-miterlimit="10"/>
<path d="M-5.12533 157.384C59.2411 179.623 76.1025 184.927 95.5193 183.95C114.936 182.973 105.399 177.301 60.4496 154.086C15.4999 130.87 0.273515 123.753 -64.093 101.515C-128.459 79.2762 -137.519 78.0001 -156.936 78.9772C-176.353 79.9544 -163.375 85.7728 -133.564 104.685C-103.19 123.954 -69.4918 135.146 -5.12533 157.384Z" stroke="#EBF4FA" stroke-width="2" stroke-miterlimit="10"/>
<path d="M-5.12955 158.494C62.0498 182.532 79.6936 188.303 100.61 187.784C121.527 187.265 111.779 181.302 65.5197 156.744C19.2602 132.187 3.52587 124.625 -63.6546 100.584C-130.835 76.5436 -140.447 75.0388 -161.365 75.555C-182.282 76.0742 -168.854 82.2682 -138.474 102.11C-107.517 122.328 -72.3101 134.454 -5.12955 158.494Z" stroke="#EBF4FA" stroke-width="2" stroke-miterlimit="10"/>
<path d="M-5.21926 159.622C64.8242 185.547 83.2658 191.808 105.755 191.789C128.247 191.77 118.29 185.505 70.7387 159.56C23.1875 133.614 6.94435 125.587 -63.0961 99.66C-133.136 73.733 -143.328 71.9748 -165.82 71.9944C-188.312 72.0141 -174.427 78.6023 -143.516 99.3942C-112.013 120.582 -75.2627 133.696 -5.21926 159.622Z" stroke="#EBF4FA" stroke-width="2" stroke-miterlimit="10"/>
<path d="M-5.41158 160.755C67.5442 188.66 86.8001 195.435 110.937 195.958C135.074 196.482 124.926 189.908 76.1036 162.528C27.2845 135.148 10.5383 126.642 -62.4175 98.7381C-135.373 70.8339 -146.158 68.8103 -170.295 68.2866C-194.432 67.7629 -180.095 74.7578 -148.691 96.5289C-116.688 118.707 -78.3673 132.851 -5.41158 160.755Z" stroke="#EBF4FA" stroke-width="2" stroke-miterlimit="10"/>
<path d="M-5.69971 161.892C70.2135 191.866 90.3034 199.179 116.158 200.292C142.012 201.405 131.681 194.512 81.6222 165.65C31.5635 136.789 14.3165 127.784 -61.5967 97.8093C-137.51 67.8351 -148.912 65.5306 -174.767 64.4178C-200.622 63.3049 -185.831 70.7231 -153.985 93.493C-121.533 116.691 -81.6141 131.914 -5.69971 161.892Z" stroke="#EBF4FA" stroke-width="2" stroke-miterlimit="10"/>
<path d="M-6.11812 163.041C72.7957 195.181 93.7289 203.058 121.38 204.81C149.03 206.56 138.53 199.342 87.267 168.955C36.0043 138.568 18.264 129.045 -60.6456 96.9072C-139.555 64.7693 -151.597 62.1641 -179.248 60.4114C-206.898 58.6617 -191.657 66.5188 -159.42 90.3061C-126.573 114.546 -85.0319 130.901 -6.11812 163.041Z" stroke="#EBF4FA" stroke-width="2" stroke-miterlimit="10"/>
<path d="M-6.67006 164.19C75.2761 198.588 97.0683 207.06 126.589 209.499C156.11 211.937 145.459 204.384 93.0336 172.424C40.6084 140.464 22.3825 130.407 -59.5606 96.0077C-141.504 61.6081 -154.201 58.6841 -183.722 56.2457C-213.243 53.8074 -197.56 62.1233 -164.988 86.9501C-131.804 112.249 -88.6162 129.791 -6.67006 164.19Z" stroke="#EBF4FA" stroke-width="2" stroke-miterlimit="10"/>
<path d="M-7.3505 165.338C77.6589 202.096 100.323 211.187 131.793 214.365C163.264 217.542 152.477 209.649 98.9409 176.068C45.4052 142.487 26.7025 131.883 -58.3039 95.1246C-143.31 58.366 -156.686 55.1034 -188.157 51.9256C-219.627 48.7478 -203.504 57.5311 -170.666 83.4228C-137.21 109.801 -92.3599 128.581 -7.3505 165.338Z" stroke="#EBF4FA" stroke-width="2" stroke-miterlimit="10"/>
<path d="M-8.18462 166.473C79.9087 205.69 103.458 215.429 136.959 219.4C170.46 223.374 159.555 215.133 104.963 179.89C50.3715 144.647 31.2045 133.473 -56.8889 94.2559C-144.982 55.0388 -159.057 51.4177 -192.559 47.4436C-226.06 43.4696 -209.504 52.7402 -176.468 79.7088C-142.808 107.19 -96.2768 127.259 -8.18462 166.473Z" stroke="#EBF4FA" stroke-width="2" stroke-miterlimit="10"/>
<path d="M-9.17761 167.618C82.0202 209.396 106.459 219.81 142.072 224.638C177.686 229.465 166.682 220.869 111.097 183.919C55.5123 146.969 35.8959 135.208 -55.2989 93.4297C-146.494 51.6511 -161.289 47.6516 -196.903 42.8244C-232.516 37.9972 -215.539 47.77 -182.382 75.8343C-148.595 104.43 -100.371 125.843 -9.17761 167.618Z" stroke="#EBF4FA" stroke-width="2" stroke-miterlimit="10"/>
<path d="M-10.3394 168.746C83.9672 213.187 109.307 224.308 147.113 230.045C184.917 235.786 173.842 226.829 117.34 188.129C60.8377 149.429 40.7869 137.066 -53.5196 92.6251C-147.826 48.1838 -163.362 43.7819 -201.166 38.0405C-238.971 32.2991 -221.583 42.5923 -188.393 71.7639C-154.572 101.492 -104.646 124.305 -10.3394 168.746Z" stroke="#EBF4FA" stroke-width="2" stroke-miterlimit="10"/>
<path d="M-11.6806 169.854C85.7387 217.062 111.983 228.918 152.064 235.633C192.144 242.347 181.02 233.027 123.679 192.537C66.3411 152.045 45.8756 139.059 -51.5426 91.8537C-148.961 44.6481 -165.258 39.8166 -205.335 33.1011C-245.413 26.3856 -227.632 37.2091 -194.496 67.5041C-160.733 98.3739 -109.1 122.645 -11.6806 169.854Z" stroke="#EBF4FA" stroke-width="2" stroke-miterlimit="10"/>
<path d="M-13.2156 170.942C87.3073 221.023 114.461 233.645 156.9 241.403C199.337 249.161 188.194 239.47 130.106 197.144C72.0195 154.822 51.1658 141.199 -49.3572 91.1179C-149.88 41.0369 -166.955 35.761 -209.391 28.0023C-251.827 20.2435 -233.666 31.6165 -200.685 63.0482C-167.08 95.0735 -113.739 120.862 -13.2156 170.942Z" stroke="#EBF4FA" stroke-width="2" stroke-miterlimit="10"/>
<path d="M-14.9529 172.008C88.6551 225.07 116.722 238.484 161.598 247.353C206.474 256.222 195.343 246.152 136.612 201.963C77.8816 157.773 56.6607 143.494 -46.9473 90.432C-150.555 37.3703 -168.431 31.6239 -213.307 22.7547C-258.184 13.8856 -239.666 25.8235 -206.95 58.3953C-173.61 91.5887 -118.564 118.948 -14.9529 172.008Z" stroke="#EBF4FA" stroke-width="2" stroke-miterlimit="10"/>
<path d="M-16.9121 173.047C89.7553 229.198 118.73 243.437 166.133 253.489C213.536 263.541 202.447 253.091 143.182 206.992C83.9184 160.893 62.3621 145.95 -44.3022 89.7985C-150.967 33.6469 -169.659 27.4079 -217.062 17.3562C-264.466 7.30446 -245.607 19.8204 -213.27 53.5441C-180.321 87.9075 -123.579 116.897 -16.9121 173.047Z" stroke="#EBF4FA" stroke-width="2" stroke-miterlimit="10"/>
<path d="M-19.0951 174.04C90.5914 233.386 120.475 248.482 170.486 259.791C220.497 271.1 209.486 260.266 149.814 212.229C90.1413 164.191 68.2798 148.561 -41.4036 89.215C-151.087 29.8686 -170.617 23.1098 -220.628 11.801C-270.639 0.492205 -251.467 13.6038 -219.637 48.4784C-187.203 84.0136 -128.778 114.694 -19.0951 174.04Z" stroke="#EBF4FA" stroke-width="2" stroke-miterlimit="10"/>
<path d="M-21.5387 175.002C91.1131 237.65 121.897 253.638 174.603 266.276C227.309 278.914 216.412 267.698 156.467 217.691C96.522 167.684 74.3908 151.351 -38.261 88.7033C-150.913 26.0553 -171.295 18.7473 -223.997 6.1081C-276.7 -6.53107 -257.247 7.18481 -226.054 43.2144C-194.274 79.925 -134.191 112.354 -21.5387 175.002Z" stroke="#EBF4FA" stroke-width="2" stroke-miterlimit="10"/>
<path d="M-24.2216 175.908C91.3358 241.969 123.006 258.875 178.488 272.927C233.969 286.979 223.231 275.377 163.158 223.367C103.082 171.358 80.7266 154.312 -34.8297 88.2542C-150.386 22.1964 -171.633 14.3128 -227.115 0.260681C-282.596 -13.7914 -262.882 0.547174 -232.477 37.7253C-201.496 75.6099 -139.779 109.847 -24.2216 175.908Z" stroke="#EBF4FA" stroke-width="2" stroke-miterlimit="10"/>
<path d="M-27.1872 176.757C91.1929 246.336 123.742 264.194 182.086 279.743C240.431 295.291 229.891 283.299 169.851 229.267C109.811 175.235 87.2712 157.461 -31.1119 87.8834C-149.495 18.306 -171.623 9.82449 -229.965 -5.72531C-288.306 -21.2751 -268.373 -6.30183 -238.906 32.0227C-208.884 71.072 -145.57 107.18 -27.1872 176.757Z" stroke="#EBF4FA" stroke-width="2" stroke-miterlimit="10"/>
<path d="M-30.4375 177.546C90.6775 250.752 124.085 269.592 185.369 286.72C246.653 303.848 236.367 291.469 176.533 235.392C116.699 179.315 94.0251 160.8 -27.0898 87.593C-148.205 14.3864 -171.229 5.27761 -232.513 -11.8505C-293.797 -28.9786 -273.677 -13.3549 -245.318 26.1031C-216.424 66.3075 -151.551 104.342 -30.4375 177.546Z" stroke="#EBF4FA" stroke-width="2" stroke-miterlimit="10"/>
<path d="M-34.0006 178.274C89.7385 255.213 123.985 275.069 188.288 293.865C252.591 312.662 242.608 299.899 183.173 241.759C123.738 183.619 100.98 164.352 -22.7581 87.4159C-146.496 10.4794 -170.43 0.713909 -234.734 -18.0858C-299.039 -36.8855 -278.78 -20.6073 -251.705 19.9705C-224.113 61.3151 -157.74 101.334 -34.0006 178.274Z" stroke="#EBF4FA" stroke-width="2" stroke-miterlimit="10"/>
<path d="M-37.8767 178.917C88.3611 259.693 123.421 280.595 190.826 301.151C258.232 321.707 248.602 308.566 189.771 248.349C130.94 188.132 108.156 168.104 -18.0815 87.3285C-144.319 6.55256 -169.171 -3.89841 -236.574 -24.4557C-303.976 -45.013 -283.623 -28.0702 -258.023 13.6081C-231.935 56.075 -164.114 98.1408 -37.8767 178.917Z" stroke="#EBF4FA" stroke-width="2" stroke-miterlimit="10"/>
<path d="M-42.0937 179.476C86.4967 264.193 122.344 286.169 192.925 308.583C263.505 330.998 254.291 317.474 196.281 255.172C138.271 192.87 115.528 172.07 -13.0612 87.3569C-141.65 2.64328 -167.431 -8.52378 -238.012 -30.9381C-308.592 -53.3523 -288.192 -35.7275 -264.266 7.02922C-239.887 50.5947 -170.687 94.7605 -42.0937 179.476Z" stroke="#EBF4FA" stroke-width="2" stroke-miterlimit="10"/>
<path d="M-46.6642 179.933C84.1189 268.686 120.713 291.773 194.545 316.139C268.378 340.504 259.643 326.611 202.691 262.22C145.74 197.83 123.105 176.255 -7.67608 87.4975C-138.457 -1.25965 -165.17 -13.1696 -239.003 -37.5353C-312.836 -61.9009 -292.445 -43.5898 -270.404 0.216537C-247.945 44.8516 -177.444 91.1786 -46.6642 179.933Z" stroke="#EBF4FA" stroke-width="2" stroke-miterlimit="10"/>
<path d="M-51.6188 180.29C81.1716 273.181 118.476 297.407 195.633 323.823C272.79 350.238 264.598 335.982 208.961 269.508C153.328 203.033 130.872 180.672 -1.91809 87.7811C-134.708 -5.10979 -162.361 -17.7986 -239.515 -44.2155C-316.668 -70.6324 -296.344 -51.6274 -276.422 -6.80563C-256.122 38.8599 -184.409 87.3994 -51.6188 180.29Z" stroke="#EBF4FA" stroke-width="2" stroke-miterlimit="10"/>
<path d="M-56.9591 180.528C77.6329 277.652 115.606 303.042 196.153 331.616C276.7 360.19 269.121 345.576 215.076 277.026C161.031 208.476 138.835 185.323 4.24454 88.2019C-130.346 -8.91914 -158.942 -22.4168 -239.489 -50.9908C-320.036 -79.5648 -299.841 -59.8562 -282.274 -14.0624C-264.373 32.5988 -191.551 83.4034 -56.9591 180.528Z" stroke="#EBF4FA" stroke-width="2" stroke-miterlimit="10"/>
<path d="M-62.7013 180.643C73.4658 282.086 112.051 308.677 196.054 339.51C280.057 370.343 273.168 355.387 221.002 284.774C168.837 214.161 146.992 190.222 10.8237 88.7755C-125.345 -12.6706 -154.876 -27.0043 -238.879 -57.8376C-322.882 -88.6709 -302.89 -68.2589 -287.934 -21.5366C-272.692 26.0715 -198.87 79.1966 -62.7013 180.643Z" stroke="#EBF4FA" stroke-width="2" stroke-miterlimit="10"/>
<path d="M-68.8933 180.618C68.5955 286.469 107.739 314.287 195.26 347.486C282.781 380.685 276.659 365.399 226.688 292.748C176.717 220.097 155.313 195.364 17.8242 89.5129C-119.665 -16.3381 -150.137 -31.548 -237.657 -64.7469C-325.178 -97.9458 -305.459 -76.8317 -293.384 -29.2293C-281.081 19.2707 -206.382 74.7667 -68.8933 180.618Z" stroke="#EBF4FA" stroke-width="2" stroke-miterlimit="10"/>
<path d="M-75.5172 180.448C63.0158 290.787 102.653 319.854 193.747 355.537C284.84 391.221 279.572 375.616 232.128 300.958C184.687 226.299 163.819 200.779 25.289 90.438C-113.241 -19.9026 -144.648 -36.0117 -235.742 -71.6953C-326.835 -107.379 -307.469 -85.5501 -298.562 -37.1336C-289.487 12.1993 -214.049 70.1111 -75.5172 180.448Z" stroke="#EBF4FA" stroke-width="2" stroke-miterlimit="10"/>
<path d="M-82.6103 180.105C56.6589 295.007 96.7236 325.351 191.438 363.627C286.152 401.903 281.824 385.999 237.266 309.373C192.708 232.748 172.487 206.44 33.2177 91.5376C-106.051 -23.3649 -138.385 -40.412 -233.095 -78.6862C-327.805 -116.96 -308.886 -94.4267 -303.445 -45.262C-297.904 4.83426 -221.879 65.2023 -82.6103 180.105Z" stroke="#EBF4FA" stroke-width="2" stroke-miterlimit="10"/>
<path d="M-90.2043 179.596C49.469 299.127 89.8803 330.775 188.259 371.76C286.639 412.745 283.35 396.563 242.053 318.017C200.755 239.472 181.297 212.385 41.6222 92.8503C-98.0523 -26.6843 -131.298 -44.6989 -229.674 -85.6851C-328.05 -126.671 -309.668 -103.427 -308.012 -53.5894C-306.325 -2.80812 -229.882 60.0621 -90.2043 179.596Z" stroke="#EBF4FA" stroke-width="2" stroke-miterlimit="10"/>
<path d="M-98.3016 178.895C41.4117 303.12 82.0822 336.091 184.164 379.904C286.246 423.716 284.092 407.276 246.462 326.867C208.828 246.458 190.251 218.6 50.5386 94.3784C-89.1734 -29.8435 -123.317 -48.8625 -225.396 -92.6762C-327.475 -136.49 -309.725 -112.548 -312.187 -62.1215C-314.697 -10.7388 -238.015 54.6699 -98.3016 178.895Z" stroke="#EBF4FA" stroke-width="2" stroke-miterlimit="10"/>
<path d="M-106.939 177.992C32.4195 306.958 73.257 341.277 179.073 388.038C284.89 434.799 283.978 418.127 250.433 335.923C216.889 253.718 199.324 225.106 59.9657 96.1395C-79.3925 -32.827 -114.411 -52.8803 -220.224 -99.6426C-326.038 -146.405 -309.022 -121.768 -315.957 -70.8465C-323.02 -18.9591 -246.297 49.0251 -106.939 177.992Z" stroke="#EBF4FA" stroke-width="2" stroke-miterlimit="10"/>
<path d="M-116.125 176.872C22.4476 310.627 63.349 346.308 172.92 396.143C282.49 445.978 282.932 429.098 253.928 345.176C224.926 261.256 208.51 231.904 69.9408 98.1507C-68.628 -35.6026 -104.501 -56.7221 -214.072 -106.557C-323.643 -156.393 -307.48 -131.076 -319.253 -79.7587C-331.247 -27.4685 -254.698 43.1163 -116.125 176.872Z" stroke="#EBF4FA" stroke-width="2" stroke-miterlimit="10"/>
<path d="M-125.888 175.522C11.4314 314.096 52.29 351.162 165.629 404.192C278.968 457.222 280.877 440.169 256.895 354.622C232.913 269.075 217.793 239.005 80.4738 100.431C-56.8459 -38.1434 -93.5416 -60.3625 -206.88 -113.393C-320.219 -166.423 -305.03 -140.441 -322.026 -88.8442C-339.344 -36.268 -263.209 36.9446 -125.888 175.522Z" stroke="#EBF4FA" stroke-width="2" stroke-miterlimit="10"/>
<path d="M-136.249 173.909C-0.679903 317.329 40.0096 355.79 157.119 412.14C274.228 468.491 277.729 451.296 259.27 364.23C240.811 277.163 227.147 246.395 91.578 102.975C-43.9908 -40.4448 -81.4779 -63.7928 -198.588 -120.146C-315.698 -176.5 -301.604 -149.861 -324.233 -98.1073C-347.289 -45.3727 -271.815 30.488 -136.249 173.909Z" stroke="#EBF4FA" stroke-width="2" stroke-miterlimit="10"/>
<path d="M-147.235 172.037C-13.9598 320.312 26.4316 360.177 147.308 419.979C268.184 479.78 273.399 462.48 261 374.006C248.6 285.531 236.552 254.096 103.278 105.823C-29.9966 -42.4492 -68.2372 -66.9647 -189.113 -126.766C-309.989 -186.567 -297.133 -159.296 -325.82 -107.518C-355.049 -54.7575 -280.511 23.7613 -147.235 172.037Z" stroke="#EBF4FA" stroke-width="2" stroke-miterlimit="10"/>
<path d="M-158.871 169.877C-28.4683 323.003 11.4868 364.286 136.105 427.667C260.723 491.047 267.797 473.681 262.016 383.934C256.234 294.188 245.982 262.115 115.578 108.985C-14.8254 -44.1439 -53.7747 -69.8475 -178.397 -133.23C-303.02 -196.613 -291.545 -168.727 -326.731 -117.073C-362.578 -64.4372 -289.275 16.7475 -158.871 169.877Z" stroke="#EBF4FA" stroke-width="2" stroke-miterlimit="10"/>
<path d="M-171.146 167.405C-44.2404 325.369 -4.8793 368.071 123.461 435.161C251.8 502.252 260.862 484.865 262.293 393.992C263.723 303.116 255.449 270.441 128.543 112.476C1.63727 -45.4881 -37.9768 -72.4211 -166.314 -139.513C-294.65 -206.604 -284.712 -178.134 -326.862 -126.76C-369.812 -74.4115 -298.053 9.43702 -171.146 167.405Z" stroke="#EBF4FA" stroke-width="2" stroke-miterlimit="10"/>
<path d="M-184.129 164.62C-61.3864 327.391 -22.7797 371.513 109.23 442.445C241.24 513.377 252.446 496.014 261.71 404.176C270.977 312.333 264.875 279.098 142.133 116.327C19.3906 -46.4446 -20.8258 -74.627 -152.835 -145.559C-284.845 -216.49 -276.601 -187.466 -326.2 -136.543C-376.74 -84.658 -306.874 1.84963 -184.129 164.62Z" stroke="#EBF4FA" stroke-width="2" stroke-miterlimit="10"/>
<path d="M-197.812 161.481C-79.9454 329.01 -42.2713 374.552 93.3542 449.451C228.98 524.349 242.479 507.071 260.235 414.441C277.99 321.812 274.271 288.064 156.404 120.535C38.5375 -46.9945 -2.21742 -76.4608 -137.843 -151.359C-273.468 -226.258 -267.088 -196.717 -324.644 -146.434C-383.296 -95.1967 -315.679 -6.04879 -197.812 161.481Z" stroke="#EBF4FA" stroke-width="2" stroke-miterlimit="10"/>
<path d="M-212.246 157.982C-100.014 330.204 -63.4619 377.158 75.702 456.161C214.866 535.164 230.821 518.021 257.756 424.798C284.69 331.576 283.569 297.366 171.338 125.145C59.1063 -47.0761 17.8802 -77.8519 -121.284 -156.855C-260.448 -235.858 -256.115 -205.836 -322.155 -156.389C-389.45 -106.001 -324.477 -14.2388 -212.246 157.982Z" stroke="#EBF4FA" stroke-width="2" stroke-miterlimit="10"/>
<path d="M-227.427 154.097C-121.642 330.929 -86.4119 379.283 56.2012 462.515C198.814 545.748 217.396 528.801 254.226 435.205C291.056 341.608 292.763 306.994 186.983 130.164C81.2031 -46.6662 39.5763 -78.7783 -103.034 -162.012C-245.644 -245.245 -243.551 -214.789 -318.626 -166.393C-395.127 -117.076 -333.211 -22.7347 -227.427 154.097Z" stroke="#EBF4FA" stroke-width="2" stroke-miterlimit="10"/>
<path d="M-243.387 149.802C-144.916 331.138 -111.225 380.873 34.731 468.469C180.687 556.066 202.066 539.38 249.552 445.643C297.038 351.907 301.813 316.951 203.343 135.618C104.872 -45.7181 62.9377 -79.1878 -83.0168 -166.781C-228.971 -254.375 -229.314 -223.536 -313.992 -176.417C-400.273 -128.411 -341.857 -31.5312 -243.387 149.802Z" stroke="#EBF4FA" stroke-width="2" stroke-miterlimit="10"/>
<path d="M-260.148 145.075C-169.908 330.787 -137.982 381.887 11.1882 473.973C160.359 566.059 184.722 549.707 243.649 456.083C302.576 362.459 310.676 327.235 220.432 141.525C130.192 -44.1865 88.0398 -79.0369 -61.132 -171.126C-210.304 -263.215 -213.292 -232.04 -308.168 -186.449C-404.836 -139.995 -350.393 -40.6377 -260.148 145.075Z" stroke="#EBF4FA" stroke-width="2" stroke-miterlimit="10"/>
<path d="M-277.73 139.887C-196.69 329.823 -166.78 382.26 -14.5415 478.964C137.697 575.669 165.233 559.727 236.43 466.493C307.629 373.262 319.316 337.847 238.275 147.908C157.235 -42.0311 114.968 -78.2841 -37.2702 -174.989C-189.509 -271.694 -195.371 -240.25 -301.056 -196.45C-408.74 -151.816 -358.769 -50.0485 -277.73 139.887Z" stroke="#EBF4FA" stroke-width="2" stroke-miterlimit="10"/>
<path d="M-296.158 134.221C-225.352 328.208 -197.715 381.943 -42.5792 483.391C112.557 584.838 143.46 569.386 227.794 476.848C312.128 384.31 327.68 348.786 256.877 154.798C186.07 -39.1891 143.802 -76.8626 -11.3387 -178.312C-166.479 -279.762 -175.442 -248.111 -292.574 -206.381C-411.932 -163.861 -366.965 -59.7661 -296.158 134.221Z" stroke="#EBF4FA" stroke-width="2" stroke-miterlimit="10"/>
<path d="M-315.444 128.048C-255.966 325.882 -230.882 380.877 -73.0355 487.19C84.8106 593.504 119.285 578.626 217.653 487.106C316.022 395.586 335.734 360.045 276.257 162.212C216.779 -35.6221 174.621 -74.7343 16.778 -181.049C-141.065 -287.364 -153.378 -255.583 -282.623 -216.222C-414.32 -176.114 -374.926 -69.7874 -315.444 128.048Z" stroke="#EBF4FA" stroke-width="2" stroke-miterlimit="10"/>
<path d="M-335.629 121.337C-288.632 322.788 -266.394 378.993 -106.056 490.29C54.2819 601.588 92.5424 587.381 205.883 497.227C319.224 407.074 343.401 371.622 296.404 170.171C249.407 -31.2801 207.498 -71.8416 47.1604 -183.139C-113.178 -294.437 -129.092 -262.606 -271.131 -225.932C-415.859 -188.567 -382.627 -80.1141 -335.629 121.337Z" stroke="#EBF4FA" stroke-width="2" stroke-miterlimit="10"/>
<path d="M-356.705 114.067C-323.41 318.873 -304.327 376.234 -141.736 492.633C20.8552 609.033 63.1161 595.591 192.409 507.182C321.701 418.774 350.66 383.515 317.366 178.708C284.072 -26.0978 242.55 -68.1181 79.9629 -184.516C-82.624 -300.914 -102.411 -269.115 -257.947 -235.469C-416.435 -201.186 -389.999 -90.7391 -356.705 114.067Z" stroke="#EBF4FA" stroke-width="2" stroke-miterlimit="10"/>
<path d="M-378.705 106.199C-360.399 314.066 -344.8 372.521 -180.232 494.127C-15.6635 615.733 30.8323 603.167 177.095 516.909C323.358 430.652 357.433 395.7 339.127 187.837C320.821 -20.0272 279.839 -63.5158 115.271 -185.122C-49.298 -306.728 -73.2334 -275.058 -243.002 -244.802C-415.983 -213.971 -397.012 -101.668 -378.705 106.199Z" stroke="#EBF4FA" stroke-width="2" stroke-miterlimit="10"/>
<path d="M-401.65 97.7268C-399.688 308.324 -387.922 367.8 -221.67 494.723C-55.4181 621.647 -4.45412 610.064 159.834 526.388C324.123 442.711 363.662 408.202 361.7 197.604C359.737 -12.9933 319.46 -57.9493 153.208 -184.873C-13.0443 -311.797 -41.4237 -280.353 -226.169 -253.863C-414.414 -226.872 -403.609 -112.872 -401.65 97.7268Z" stroke="#EBF4FA" stroke-width="2" stroke-miterlimit="10"/>
<path d="M-425.543 88.5974C-441.351 301.562 -433.784 361.978 -266.179 494.317C-98.5745 626.656 -42.9014 616.175 140.511 535.55C323.923 454.921 369.288 420.986 385.095 208.019C400.902 -4.94892 361.505 -51.3692 193.904 -183.709C26.3021 -316.049 -6.82756 -284.946 -207.33 -262.628C-411.632 -239.887 -409.735 -124.367 -425.543 88.5974Z" stroke="#EBF4FA" stroke-width="2" stroke-miterlimit="10"/>
<path d="M-450.404 78.7946C-485.486 293.725 -482.503 354.988 -313.907 492.833C-145.31 630.678 -84.6762 621.428 118.999 544.343C322.674 467.259 374.238 434.044 409.319 219.114C444.401 4.18285 406.071 -43.7019 237.478 -181.548C68.8848 -319.394 30.6823 -288.744 -186.369 -271.026C-407.536 -252.968 -415.326 -136.135 -450.404 78.7946Z" stroke="#EBF4FA" stroke-width="2" stroke-miterlimit="10"/>
</g>
<g clip-path="url(#clip2_6437_74994)">
<rect x="627.33" y="-183.589" width="470.757" height="470.757" rx="235.378" transform="rotate(69.2699 627.33 -183.589)" fill="#EBF4FA"/>
<path d="M933.502 18.6413C873.441 -140.054 821.263 -98.2057 679.392 -191.291C537.521 -284.377 555.138 -348.901 385.647 -340.816C216.157 -332.732 239.831 -270.18 107.468 -164.015C-24.8943 -57.8496 -80.8259 -94.5445 -125.514 69.1481C-170.202 232.841 -103.392 229.655 -43.3303 388.35C16.7308 547.045 -35.4475 588.892 106.423 681.978C248.294 775.064 265.911 710.54 435.401 702.456C604.892 694.372 628.568 756.931 760.933 650.772C893.298 544.613 811.36 501.892 881.012 347.167C951.194 191.243 993.564 177.336 933.502 18.6413Z" stroke="#C4E2F5" stroke-width="2" stroke-miterlimit="10"/>
<path d="M923.543 30.3487C864.071 -126.79 812.695 -85.5874 672.218 -177.756C531.74 -269.925 549.083 -333.458 381.256 -325.459C213.429 -317.461 236.743 -255.86 105.672 -150.742C-25.3981 -45.6247 -80.4639 -81.7471 -124.715 80.3355C-168.963 242.424 -103.181 239.286 -43.7092 396.424C15.7629 553.563 -35.6108 594.771 104.866 686.94C245.346 779.114 262.688 715.581 430.519 707.574C598.343 699.569 621.655 761.163 752.725 656.045C883.796 550.928 802.996 508.872 871.931 355.646C941.358 201.306 983.017 187.493 923.543 30.3487Z" stroke="#C4E2F5" stroke-width="2" stroke-miterlimit="10"/>
<path d="M913.557 42.0355C854.674 -113.546 804.101 -72.9898 665.009 -164.245C525.917 -255.501 542.997 -318.049 376.832 -310.121C210.667 -302.193 233.614 -241.563 103.838 -137.486C-25.9375 -33.4099 -80.1423 -68.9718 -123.951 91.5129C-167.76 251.998 -103.007 248.907 -44.1237 404.489C14.7593 560.071 -35.812 600.633 103.274 691.891C242.359 783.149 259.436 720.609 425.603 712.687C591.77 704.765 614.717 765.395 744.49 661.313C874.264 557.23 794.61 515.843 862.82 364.113C931.503 211.345 972.44 197.617 913.557 42.0355Z" stroke="#C4E2F5" stroke-width="2" stroke-miterlimit="10"/>
<path d="M903.596 53.7348C845.303 -100.291 795.531 -60.3795 657.831 -150.724C520.131 -241.069 536.941 -302.615 372.44 -294.772C207.938 -286.929 230.522 -227.257 102.043 -124.216C-26.4357 -21.1747 -79.7795 -56.1763 -123.151 102.698C-166.522 261.573 -102.796 258.536 -44.4993 412.567C13.7969 566.599 -35.9744 606.51 101.722 696.863C239.416 787.21 256.225 725.658 420.726 717.815C585.228 709.972 607.812 769.644 736.29 666.602C864.769 563.561 786.259 522.837 853.747 372.608C921.666 221.4 961.893 207.766 903.596 53.7348Z" stroke="#C4E2F5" stroke-width="2" stroke-miterlimit="10"/>
<path d="M893.63 65.4393C835.923 -87.0358 786.952 -47.7558 650.65 -137.192C514.347 -226.628 530.877 -287.181 368.035 -279.415C205.193 -271.649 227.412 -212.942 100.234 -110.945C-26.9441 -8.94677 -79.4306 -43.3796 -122.362 113.891C-165.3 271.164 -102.596 268.172 -44.889 420.647C12.8182 573.122 -36.1544 612.396 100.154 701.83C236.463 791.263 252.991 730.704 415.835 722.944C578.677 715.178 600.898 773.891 728.074 671.887C855.252 569.89 777.895 529.831 844.657 381.099C911.821 231.453 951.335 217.908 893.63 65.4393Z" stroke="#C4E2F5" stroke-width="2" stroke-miterlimit="10"/>
<path d="M883.662 77.129C826.544 -73.7895 778.376 -35.1552 643.459 -123.678C508.542 -212.201 524.803 -271.767 363.627 -264.08C202.451 -256.393 224.301 -198.642 98.4239 -97.6876C-27.4534 3.26653 -79.085 -30.6036 -121.577 125.063C-164.075 280.732 -102.4 277.787 -45.2818 428.706C11.8363 579.625 -36.334 618.253 98.5833 706.776C233.501 795.298 249.763 735.733 410.939 728.046C572.115 720.359 593.977 778.106 719.855 677.151C845.732 576.197 769.525 536.8 835.565 389.568C901.978 241.498 940.78 228.048 883.662 77.129Z" stroke="#C4E2F5" stroke-width="2" stroke-miterlimit="10"/>
<path d="M873.693 88.8122C817.164 -60.5498 769.798 -22.5611 636.275 -110.167C502.751 -197.773 518.739 -256.348 359.22 -248.745C199.701 -241.141 221.195 -184.35 96.612 -84.4373C-27.9706 15.4756 -78.7388 -17.8281 -120.793 136.229C-162.848 290.286 -102.205 287.396 -45.6765 436.759C10.8525 586.121 -36.513 624.109 97.0105 711.715C230.534 799.321 246.524 740.751 406.041 733.141C565.559 725.538 587.051 782.322 711.631 682.403C836.211 582.484 761.15 543.755 826.468 398.025C892.13 251.53 930.222 238.174 873.693 88.8122Z" stroke="#C4E2F5" stroke-width="2" stroke-miterlimit="10"/>
<path d="M863.734 100.52C807.794 -47.2853 761.231 -9.94216 629.098 -96.6371C496.966 -183.332 512.688 -240.914 354.829 -233.387C196.97 -225.86 218.098 -170.034 94.8186 -71.1584C-28.461 27.717 -78.3742 -5.02404 -119.995 147.431C-161.616 299.886 -101.996 297.042 -46.0564 444.848C9.88347 592.654 -36.6796 629.997 95.4525 716.692C227.585 803.387 243.306 745.805 401.165 738.278C559.025 730.751 580.153 786.577 703.433 687.701C826.718 588.824 752.801 550.757 817.394 406.523C882.301 261.591 919.673 248.326 863.734 100.52Z" stroke="#C4E2F5" stroke-width="2" stroke-miterlimit="10"/>
<path d="M853.75 112.213C798.399 -34.036 752.641 2.66763 621.892 -83.1202C491.143 -168.908 506.599 -225.496 350.405 -218.048C194.212 -210.601 214.976 -155.739 92.9845 -57.9023C-29.0066 39.9341 -78.0466 7.74886 -119.234 158.602C-160.415 309.454 -101.822 306.663 -46.471 452.912C8.87979 599.161 -36.8787 635.865 93.8619 721.649C224.603 807.433 240.056 750.839 396.25 743.391C552.443 735.943 573.207 790.805 695.198 692.969C817.183 595.134 744.416 557.728 808.285 414.996C872.44 271.633 909.101 258.462 853.75 112.213Z" stroke="#C4E2F5" stroke-width="2" stroke-miterlimit="10"/>
<path d="M843.788 123.912C789.026 -20.781 744.064 15.2793 614.715 -69.5939C485.366 -154.467 500.541 -210.063 346.007 -202.692C191.474 -195.321 211.872 -141.423 91.1841 -44.6245C-29.5039 52.1746 -77.6889 20.5519 -118.437 169.802C-159.184 319.051 -101.614 316.306 -46.8519 460.999C7.90984 605.691 -37.0523 641.751 92.3029 726.622C221.658 811.493 236.834 755.898 391.368 748.526C545.901 741.155 566.302 795.059 686.993 698.266C807.683 601.473 736.056 564.738 799.207 423.499C862.608 281.684 898.55 268.604 843.788 123.912Z" stroke="#C4E2F5" stroke-width="2" stroke-miterlimit="10"/>
<path d="M833.811 135.6C779.638 -7.53581 735.478 27.8789 607.52 -56.0834C479.563 -140.046 494.466 -194.645 341.596 -187.36C188.726 -180.074 208.764 -127.129 89.3681 -31.3771C-30.0276 64.3746 -77.347 33.3245 -117.657 180.964C-157.965 328.61 -101.423 325.912 -47.2507 469.048C6.92197 612.184 -37.2379 647.599 90.7259 731.559C218.69 815.519 233.597 760.911 386.465 753.619C539.336 746.333 559.371 799.272 678.765 703.515C798.158 607.757 727.678 571.69 790.106 431.953C852.752 291.721 887.983 278.736 833.811 135.6Z" stroke="#C4E2F5" stroke-width="2" stroke-miterlimit="10"/>
<path d="M823.85 147.306C770.266 5.72669 726.909 40.4958 600.339 -42.5472C473.769 -125.59 488.408 -179.211 337.193 -171.993C185.979 -164.776 205.656 -112.804 87.563 -18.0894C-30.5297 76.6248 -76.9965 46.1312 -116.865 192.173C-156.733 338.215 -101.22 335.564 -47.6364 477.144C5.94719 618.724 -37.4079 653.499 89.1622 736.542C215.732 819.585 230.368 765.973 381.578 758.764C532.789 751.555 552.46 803.53 670.555 708.822C788.647 614.108 719.317 578.702 781.021 440.46C842.921 301.78 877.433 288.886 823.85 147.306Z" stroke="#C4E2F5" stroke-width="2" stroke-miterlimit="10"/>
<path d="M813.887 159.008C760.892 18.9845 718.337 53.108 593.159 -29.0242C467.98 -111.156 482.347 -163.78 332.796 -156.648C183.245 -149.516 202.553 -98.5001 85.7613 -4.82943C-31.0307 88.8412 -76.6402 58.9164 -116.071 203.348C-155.502 347.78 -101.015 345.183 -48.0208 485.206C4.97369 625.229 -37.5791 659.359 87.5995 741.491C212.778 823.623 227.145 770.999 376.69 763.869C526.241 756.737 545.55 807.754 662.341 714.083C779.139 620.41 710.953 585.667 771.934 448.926C833.074 311.833 866.881 299.031 813.887 159.008Z" stroke="#C4E2F5" stroke-width="2" stroke-miterlimit="10"/>
<path d="M803.919 170.691C751.511 32.2183 709.763 65.7084 585.976 -15.5129C462.189 -96.7341 476.276 -148.366 328.39 -141.313C180.505 -134.26 199.448 -84.2083 83.953 8.4272C-31.542 101.063 -76.2904 71.6982 -115.288 214.528C-154.285 357.359 -100.821 354.807 -48.4133 493.28C3.99437 631.752 -37.7559 665.236 86.0312 746.458C209.818 827.679 223.914 776.051 371.805 768.996C519.69 761.943 538.636 812.001 654.133 719.371C769.63 626.742 702.594 592.659 762.852 457.42C823.236 321.869 856.326 309.164 803.919 170.691Z" stroke="#C4E2F5" stroke-width="2" stroke-miterlimit="10"/>
<path d="M793.938 182.395C742.119 45.4784 701.174 78.3229 578.772 -1.98518C456.37 -82.2932 470.197 -132.934 323.969 -125.964C177.741 -118.994 196.324 -69.8939 82.1215 21.6942C-32.0812 113.282 -75.9663 84.4843 -114.524 225.711C-153.082 366.937 -100.646 364.433 -48.8277 501.349C2.99089 638.265 -37.957 671.103 84.4386 751.414C206.834 831.724 220.661 781.084 366.887 774.108C513.113 767.132 531.696 816.231 645.896 724.637C760.098 633.049 694.206 599.629 753.739 465.885C813.377 331.921 845.754 319.305 793.938 182.395Z" stroke="#C4E2F5" stroke-width="2" stroke-miterlimit="10"/>
<path d="M783.973 194.093C732.744 58.7333 692.594 90.9345 571.59 11.535C450.586 -67.8645 464.135 -117.506 319.573 -110.616C175.011 -103.725 193.228 -55.5895 80.3227 34.9635C-32.583 125.516 -75.6071 97.2788 -113.725 236.901C-151.843 376.524 -100.436 374.067 -49.2069 509.426C2.02261 644.786 -38.1268 676.987 82.8811 756.378C203.889 835.769 217.444 786.125 362.007 779.234C506.569 772.344 524.784 820.473 637.692 729.926C750.6 639.379 685.858 606.619 744.663 474.38C803.543 341.972 835.203 329.453 783.973 194.093Z" stroke="#C4E2F5" stroke-width="2" stroke-miterlimit="10"/>
<path d="M774.01 205.786C723.369 71.9824 684.022 103.538 564.406 25.0577C444.789 -53.4225 458.076 -102.079 315.174 -95.265C172.271 -88.451 190.124 -41.2802 78.5187 48.2292C-33.0862 137.739 -75.253 110.07 -112.934 248.082C-150.614 386.094 -100.234 383.691 -49.5936 517.494C1.04682 651.298 -38.3001 682.853 81.3164 761.333C200.933 839.814 214.214 791.159 357.116 784.346C500.019 777.532 517.872 824.702 629.477 735.193C741.082 645.684 677.492 613.59 735.574 482.852C793.703 352.02 824.65 339.589 774.01 205.786Z" stroke="#C4E2F5" stroke-width="2" stroke-miterlimit="10"/>
<path d="M764.042 217.479C713.99 85.2318 675.446 116.142 557.221 38.5724C438.996 -38.9969 452.009 -86.6633 310.772 -79.9285C169.535 -73.1937 187.016 -26.985 76.7122 61.4809C-33.592 149.947 -74.9039 122.841 -112.143 259.255C-149.384 395.663 -100.03 393.314 -49.9807 525.554C0.0683269 657.795 -38.474 688.711 79.751 766.28C197.976 843.85 210.989 796.183 352.228 789.454C493.467 782.726 510.961 828.93 621.263 740.458C731.565 651.986 669.127 620.559 726.49 491.315C783.863 362.06 814.093 349.725 764.042 217.479Z" stroke="#C4E2F5" stroke-width="2" stroke-miterlimit="10"/>
<path d="M754.075 229.178C704.613 98.4873 666.873 128.758 550.039 52.0993C433.206 -24.5592 445.947 -71.2294 306.369 -64.5715C166.792 -57.9135 183.917 -12.6654 74.9076 74.7591C-34.1019 162.184 -74.5504 135.644 -111.352 270.448C-148.153 405.253 -99.828 402.951 -50.3657 533.641C-0.903454 664.331 -38.6433 694.602 78.1902 771.26C195.024 847.918 207.764 801.248 347.342 794.59C486.919 787.932 504.044 833.18 613.054 745.756C722.063 658.331 660.767 627.56 717.408 499.818C774.021 372.114 803.537 359.868 754.075 229.178Z" stroke="#C4E2F5" stroke-width="2" stroke-miterlimit="10"/>
<path d="M744.11 240.874C695.237 111.741 658.299 141.365 542.851 65.6202C427.403 -10.125 439.878 -55.8014 301.964 -49.2287C164.05 -42.656 180.806 1.63606 73.0976 88.0171C-34.6112 174.398 -74.2024 148.427 -110.57 281.63C-146.932 414.831 -99.6355 412.576 -50.7623 541.709C-1.88915 670.843 -38.8266 700.468 76.6155 776.216C192.058 851.963 204.53 806.281 342.45 799.706C480.37 793.13 497.13 837.414 604.836 751.027C712.543 664.64 652.4 634.536 708.317 508.295C764.177 382.159 792.983 370.008 744.11 240.874Z" stroke="#C4E2F5" stroke-width="2" stroke-miterlimit="10"/>
<path d="M734.133 252.566C685.849 124.989 649.714 153.968 535.659 79.14C421.605 4.31168 433.809 -40.3831 297.549 -33.885C161.289 -27.3868 177.692 15.9363 71.2742 101.284C-35.1437 186.633 -73.8678 161.22 -109.798 292.813C-145.728 424.405 -99.4527 422.202 -51.1686 549.779C-2.88446 677.356 -39.0172 706.342 75.0311 781.172C189.079 856.003 201.28 811.316 337.54 804.818C473.801 798.32 490.192 841.648 596.61 756.3C703.028 670.951 644.022 641.512 699.215 516.767C754.33 392.204 782.419 380.15 734.133 252.566Z" stroke="#C4E2F5" stroke-width="2" stroke-miterlimit="10"/>
<path d="M724.165 264.266C676.47 138.245 641.131 166.581 528.474 92.6615C415.817 18.7418 427.744 -24.9546 293.149 -18.5356C158.555 -12.1166 174.587 30.2444 69.4698 114.549C-35.6474 198.854 -73.5166 174.003 -109.007 303.992C-144.498 433.981 -99.2507 431.825 -51.5556 557.846C-3.86061 683.866 -39.1972 712.208 73.4657 786.126C186.129 860.043 198.055 816.347 332.652 809.934C467.249 803.521 483.279 845.876 588.396 761.571C693.513 677.267 635.658 648.488 690.128 525.244C744.488 402.244 771.86 390.287 724.165 264.266Z" stroke="#C4E2F5" stroke-width="2" stroke-miterlimit="10"/>
<path d="M714.206 275.972C667.1 151.508 632.566 179.205 521.292 106.192C410.018 33.1794 421.681 -9.51708 288.75 -3.18333C155.819 3.15042 171.491 44.5592 67.6684 127.822C-36.1542 211.086 -73.16 186.802 -108.211 315.187C-143.262 443.572 -99.0435 441.463 -51.9353 565.934C-4.82703 690.404 -39.3634 718.094 71.9103 791.107C183.182 864.113 194.842 821.411 327.771 815.071C460.7 808.731 476.369 850.134 580.192 766.871C684.015 683.607 627.309 655.488 681.054 533.74C734.653 412.306 761.314 400.443 714.206 275.972Z" stroke="#C4E2F5" stroke-width="2" stroke-miterlimit="10"/>
<path d="M704.235 287.654C657.716 164.74 623.986 191.797 514.106 119.702C404.226 47.6059 415.619 5.89106 284.341 12.1503C153.063 18.4095 168.376 58.8515 65.8546 141.071C-36.6672 223.291 -72.8158 199.576 -107.429 326.351C-142.04 453.132 -98.8511 451.071 -52.3319 573.985C-5.81272 696.898 -39.5444 723.949 70.3356 796.045C180.216 868.141 191.602 826.428 322.871 820.165C454.14 813.902 469.447 854.346 571.967 772.121C674.486 689.895 618.933 662.442 671.956 542.196C724.81 422.334 750.752 410.562 704.235 287.654Z" stroke="#C4E2F5" stroke-width="2" stroke-miterlimit="10"/>
<path d="M694.253 299.352C648.323 177.995 615.396 204.406 506.907 133.221C398.419 62.0364 409.533 21.3201 279.927 27.4978C150.322 33.6756 165.258 73.1578 64.0389 154.34C-37.1799 235.522 -72.4758 212.364 -106.647 337.541C-140.819 462.718 -98.6581 460.704 -52.7281 582.062C-6.79798 703.419 -39.7273 729.824 68.7612 801.009C177.25 872.194 188.368 831.469 317.973 825.291C447.579 819.113 462.527 858.591 563.746 777.409C664.965 696.227 610.562 669.434 662.86 550.683C714.958 432.385 740.183 420.709 694.253 299.352Z" stroke="#C4E2F5" stroke-width="2" stroke-miterlimit="10"/>
<path d="M684.306 311.051C638.965 191.25 606.84 217.016 499.74 146.75C392.639 76.4849 403.491 36.754 275.543 42.8488C147.594 48.9436 162.173 87.4652 62.2493 167.606C-37.6748 247.747 -72.1074 225.155 -105.848 348.725C-139.588 472.294 -98.4475 470.331 -53.1065 590.132C-7.76553 709.933 -39.8902 735.699 67.2045 805.967C174.299 876.234 185.145 836.506 313.098 830.402C441.05 824.299 455.62 862.817 555.545 782.676C655.469 702.535 602.216 676.403 653.791 559.154C705.131 442.426 729.645 430.846 684.306 311.051Z" stroke="#C4E2F5" stroke-width="2" stroke-miterlimit="10"/>
<path d="M674.327 322.747C629.575 204.502 598.247 229.625 492.543 160.268C386.84 90.911 397.412 52.1725 271.126 58.1965C144.839 64.2206 159.051 101.772 60.4239 180.878C-38.2033 259.983 -71.7748 237.952 -105.075 359.917C-138.376 481.883 -98.2643 479.967 -53.5124 598.212C-8.76047 716.456 -40.0889 741.579 65.6205 810.933C171.33 880.288 181.904 841.555 308.19 835.531C434.477 829.507 448.691 867.065 547.321 787.965C645.95 708.865 593.841 683.396 644.691 567.642C695.282 452.475 719.079 440.991 674.327 322.747Z" stroke="#C4E2F5" stroke-width="2" stroke-miterlimit="10"/>
<path d="M664.362 334.454C620.199 217.766 589.675 242.249 485.364 173.803C381.052 105.357 391.352 67.6143 266.729 73.5531C142.106 79.4919 155.957 116.091 58.6222 194.149C-38.7127 272.208 -71.4208 250.743 -104.282 371.104C-137.142 491.466 -98.0575 489.604 -53.8946 606.292C-9.73178 722.98 -40.2554 747.463 64.0625 815.907C168.38 884.35 178.686 846.605 303.307 840.661C427.928 834.716 441.779 871.315 539.112 793.25C636.444 715.185 585.488 690.382 635.607 576.127C685.445 462.529 708.525 451.142 664.362 334.454Z" stroke="#C4E2F5" stroke-width="2" stroke-miterlimit="10"/>
<path d="M654.397 346.141C610.823 231.01 581.102 254.847 478.176 187.314C375.249 119.781 385.281 83.0265 262.32 88.8946C139.359 94.7627 152.843 130.391 56.8113 207.412C-39.2205 284.433 -71.0737 263.531 -103.495 382.288C-135.916 501.046 -97.8597 499.232 -54.286 614.363C-10.7123 729.494 -40.4335 753.332 62.4929 820.865C165.419 888.397 175.451 851.643 298.414 845.781C421.378 839.919 434.862 875.547 530.896 798.532C626.928 721.511 577.122 697.369 626.524 584.612C675.608 472.562 697.971 461.273 654.397 346.141Z" stroke="#C4E2F5" stroke-width="2" stroke-miterlimit="10"/>
<path d="M644.434 357.843C601.449 244.268 572.53 267.46 470.995 200.838C369.46 134.216 379.226 98.4549 257.922 104.24C136.619 110.025 149.74 144.695 55.0091 220.673C-39.7281 296.652 -70.7179 276.316 -102.702 393.464C-134.685 510.612 -97.6556 508.851 -54.671 622.426C-11.6863 736.001 -40.6052 759.192 60.9298 825.814C162.465 892.436 172.228 856.669 293.526 850.886C414.823 845.104 427.951 879.771 522.682 803.794C617.413 727.817 568.755 704.328 617.435 593.073C665.772 482.611 687.418 471.418 644.434 357.843Z" stroke="#C4E2F5" stroke-width="2" stroke-miterlimit="10"/>
<path d="M634.45 369.542C592.055 257.523 563.938 280.069 463.797 214.364C363.656 148.659 373.147 113.888 253.509 119.594C133.871 125.3 146.628 159.006 53.1937 233.948C-40.2404 308.891 -70.3776 289.111 -101.919 404.661C-133.461 520.211 -97.4623 518.491 -55.0667 630.51C-12.6711 742.528 -40.7854 765.08 59.3557 830.785C159.497 896.49 168.991 861.725 288.629 856.02C408.267 850.314 421.026 884.025 514.462 809.089C607.898 734.153 560.39 711.325 608.345 601.566C655.917 492.656 676.846 481.56 634.45 369.542Z" stroke="#C4E2F5" stroke-width="2" stroke-miterlimit="10"/>
<path d="M624.497 381.222C582.69 270.76 555.376 292.661 456.62 227.869C357.865 163.077 367.088 129.294 249.11 134.923C131.131 140.552 143.525 173.3 51.3896 247.192C-40.7522 321.087 -70.0238 301.88 -101.134 415.823C-132.239 529.762 -97.2664 528.096 -55.4599 638.558C-13.6534 749.02 -40.9652 770.927 57.7845 835.721C156.534 900.515 165.76 866.738 283.738 861.109C401.717 855.48 414.11 888.227 506.246 814.334C598.382 740.442 552.03 718.272 599.256 610.016C646.085 502.686 666.303 491.684 624.497 381.222Z" stroke="#C4E2F5" stroke-width="2" stroke-miterlimit="10"/>
<path d="M614.511 392.919C573.291 284.008 546.778 305.277 449.42 241.394C352.062 177.511 361.007 144.726 244.692 150.27C128.377 155.814 140.408 187.603 49.5611 260.457C-41.2777 333.314 -69.6943 314.67 -100.365 427.008C-131.036 539.346 -97.0863 537.725 -55.8666 646.637C-14.6469 755.549 -41.1624 776.812 56.202 840.693C153.566 904.574 162.512 871.789 278.833 866.243C395.148 860.699 407.176 892.482 498.021 819.622C588.86 746.764 543.652 725.257 590.161 618.501C636.227 512.73 655.731 501.831 614.511 392.919Z" stroke="#C4E2F5" stroke-width="2" stroke-miterlimit="10"/>
<path d="M604.548 404.627C563.917 297.272 538.207 317.896 442.234 254.926C346.261 191.956 354.946 160.163 240.291 165.63C125.636 171.097 137.302 201.921 47.7579 273.738C-41.7862 345.554 -69.3418 327.47 -99.5729 438.204C-129.804 548.939 -96.8831 547.365 -56.2524 654.72C-15.6218 762.075 -41.335 782.693 54.6379 845.663C150.611 908.633 159.288 876.836 273.943 871.369C388.598 865.902 400.265 896.727 489.809 824.91C579.353 753.094 535.295 732.247 581.073 626.989C626.395 522.79 645.179 511.983 604.548 404.627Z" stroke="#C4E2F5" stroke-width="2" stroke-miterlimit="10"/>
<path d="M594.584 416.312C554.542 310.513 529.634 330.491 435.055 268.438C340.476 206.385 348.885 175.576 235.889 180.966C122.899 186.354 134.201 216.214 45.9511 286.989C-42.2983 357.764 -68.9904 340.246 -98.7818 449.377C-128.573 558.507 -96.6812 556.981 -56.6396 662.78C-16.598 768.578 -41.5065 788.557 53.0726 850.61C147.652 912.663 156.063 881.86 269.055 876.478C382.044 871.09 393.348 900.956 481.595 830.175C569.842 759.394 526.936 739.213 571.99 635.451C616.556 532.815 634.625 522.11 594.584 416.312Z" stroke="#C4E2F5" stroke-width="2" stroke-miterlimit="10"/>
<path d="M584.618 428.023C545.165 323.781 521.059 343.113 427.871 281.971C334.684 220.829 342.821 191.016 231.491 196.327C120.161 201.638 131.1 230.54 44.1508 300.271C-42.7979 370.003 -68.6328 353.054 -97.9868 460.574C-127.341 568.095 -96.4752 566.622 -57.0228 670.864C-17.5703 775.106 -41.6764 794.439 51.5112 855.581C144.699 916.723 152.838 886.916 264.168 881.605C375.498 876.294 386.436 905.196 473.385 835.465C560.334 765.733 518.574 746.201 562.905 643.94C606.724 542.87 624.07 532.265 584.618 428.023Z" stroke="#C4E2F5" stroke-width="2" stroke-miterlimit="10"/>
<path d="M574.638 439.712C535.774 337.026 512.473 355.719 420.668 295.484C328.864 235.249 336.737 206.436 227.071 211.661C117.404 216.887 127.974 244.833 42.3259 313.521C-43.322 382.209 -68.302 365.823 -97.2162 471.739C-126.131 577.656 -96.2915 576.237 -57.4281 678.922C-18.5647 781.608 -41.8684 800.295 49.9301 860.532C141.726 920.763 149.597 891.944 259.261 886.712C368.934 881.484 379.507 909.422 465.153 840.728C550.805 772.032 510.197 753.165 553.803 652.4C596.871 552.906 613.501 542.397 574.638 439.712Z" stroke="#C4E2F5" stroke-width="2" stroke-miterlimit="10"/>
<path d="M564.667 451.404C526.393 350.275 503.894 368.323 413.483 309.005C323.072 249.686 330.669 221.857 222.665 227.012C114.66 232.167 124.869 259.14 40.5175 326.793C-43.8335 394.446 -67.9525 378.62 -96.4332 482.935C-124.908 587.247 -96.0974 585.876 -57.8231 687.005C-19.5488 788.134 -42.054 806.184 48.3568 865.502C138.761 924.822 146.358 896.993 254.371 891.842C362.378 886.693 372.589 913.672 456.94 846.019C541.291 778.367 501.837 760.152 544.72 660.889C587.035 562.943 602.941 552.534 564.667 451.404Z" stroke="#C4E2F5" stroke-width="2" stroke-miterlimit="10"/>
<path d="M554.7 463.098C517.015 363.525 495.312 380.929 406.299 322.52C317.286 264.11 324.611 237.277 218.264 242.349C111.916 247.421 121.762 273.436 38.7057 340.047C-44.3507 406.659 -67.6062 391.399 -95.6495 494.104C-123.693 596.809 -95.9029 595.489 -58.2177 695.061C-20.5325 794.634 -42.2352 812.038 46.7841 870.445C135.803 928.853 143.126 902.013 249.473 896.941C355.82 891.869 365.666 917.884 448.722 851.273C531.779 784.661 493.475 767.107 535.634 669.339C577.187 572.979 592.385 562.67 554.7 463.098Z" stroke="#C4E2F5" stroke-width="2" stroke-miterlimit="10"/>
<path d="M544.739 474.797C507.643 376.78 486.743 393.539 399.117 336.049C311.492 278.559 318.549 252.713 213.865 257.7C109.183 262.693 118.664 287.743 36.9048 353.319C-44.8508 418.887 -67.2515 404.191 -94.8528 505.298C-122.456 606.399 -95.6952 605.126 -58.5991 703.142C-21.5029 801.158 -42.401 817.923 45.2245 875.413C132.85 932.903 139.909 907.064 244.591 902.071C349.272 897.078 358.755 922.134 440.517 856.564C522.272 790.996 485.122 774.094 526.552 677.83C567.355 583.025 581.838 572.819 544.739 474.797Z" stroke="#C4E2F5" stroke-width="2" stroke-miterlimit="10"/>
<path d="M534.772 486.499C498.265 390.039 478.167 406.152 391.933 349.573C305.699 292.994 312.482 268.138 209.46 273.054C106.438 277.97 115.556 302.062 35.0952 366.589C-45.3635 431.122 -66.9031 416.985 -94.067 516.482C-121.231 615.979 -95.4986 614.754 -58.9915 711.214C-22.4845 807.673 -42.5801 823.792 43.654 880.372C129.888 936.951 136.673 912.102 239.695 907.186C342.719 902.276 351.837 926.368 432.295 861.835C512.754 797.302 476.757 781.067 517.461 686.298C557.519 593.065 571.279 582.959 534.772 486.499Z" stroke="#C4E2F5" stroke-width="2" stroke-miterlimit="10"/>
<path d="M524.807 498.192C488.887 403.283 469.596 418.762 384.754 363.094C299.911 307.425 306.422 283.566 205.063 288.397C103.699 293.23 112.454 316.364 33.2963 379.853C-45.8677 443.344 -66.544 429.775 -93.2682 527.668C-119.992 625.561 -95.2889 624.383 -59.3687 719.292C-23.4484 814.201 -42.7416 829.675 42.101 885.343C126.944 941.012 133.46 917.15 234.819 912.319C336.183 907.486 344.936 930.614 424.096 867.131C503.257 803.648 468.411 788.058 508.393 694.791C547.688 603.103 560.728 593.101 524.807 498.192Z" stroke="#C4E2F5" stroke-width="2" stroke-miterlimit="10"/>
<path d="M514.826 509.881C479.495 416.529 461.006 431.363 377.549 376.607C294.092 321.852 300.343 298.984 200.638 303.741C100.939 308.495 109.33 330.664 31.4665 393.112C-46.3968 455.56 -66.2158 442.559 -92.5026 538.842C-118.789 635.125 -95.1124 634 -59.7812 727.353C-24.4501 820.706 -42.9409 835.533 40.5102 890.291C123.961 945.049 130.204 922.177 229.902 917.423C329.601 912.669 337.991 934.839 415.855 872.391C493.718 809.943 460.022 795.013 499.282 703.248C537.837 613.124 550.155 603.228 514.826 509.881Z" stroke="#C4E2F5" stroke-width="2" stroke-miterlimit="10"/>
<path d="M504.867 521.588C470.125 429.792 452.432 443.983 370.373 390.136C288.313 336.289 294.284 314.414 196.244 319.091C98.2054 323.768 106.231 344.973 29.6705 406.383C-46.8981 467.79 -65.856 455.349 -91.707 550.037C-117.558 644.724 -94.9058 643.639 -60.1637 735.435C-25.4216 827.232 -43.1161 841.416 38.9496 895.26C121.015 949.105 126.986 927.229 225.025 922.552C323.064 917.875 331.091 939.086 407.654 877.682C484.217 816.278 451.681 801.998 490.209 711.73C528.011 623.175 539.609 613.385 504.867 521.588Z" stroke="#C4E2F5" stroke-width="2" stroke-miterlimit="10"/>
<path d="M494.895 533.278C460.742 443.038 443.852 456.583 363.186 403.653C282.52 350.723 288.216 329.838 191.843 334.436C95.4695 339.034 103.132 359.28 27.8582 419.646C-47.4097 480.009 -65.5103 468.137 -90.9239 561.214C-116.337 654.292 -94.7118 653.26 -60.5588 743.5C-26.4058 833.74 -43.2956 847.284 37.3763 900.212C118.048 953.139 123.747 932.26 220.126 927.66C316.505 923.06 324.164 943.315 399.436 882.943C474.708 822.572 443.318 808.96 481.122 720.188C518.158 633.207 529.045 623.511 494.895 533.278Z" stroke="#C4E2F5" stroke-width="2" stroke-miterlimit="10"/>
<path d="M484.938 544.987C451.374 456.304 435.286 469.203 356.006 417.187C276.725 365.17 282.155 345.279 187.439 349.794C92.7235 354.309 100.024 373.597 26.0526 432.925C-47.9183 492.253 -65.1579 480.941 -90.1318 572.415C-115.106 663.889 -94.5065 662.91 -60.9449 751.587C-27.3832 840.265 -43.4684 853.17 35.8121 905.187C115.093 957.203 120.523 937.312 215.239 932.797C309.955 928.282 317.252 947.564 391.226 888.242C465.197 828.914 434.967 815.952 472.04 728.678C508.335 643.261 518.502 633.671 484.938 544.987Z" stroke="#C4E2F5" stroke-width="2" stroke-miterlimit="10"/>
<path d="M474.969 556.676C441.994 469.549 426.711 481.809 348.822 430.703C270.933 379.598 276.089 360.696 183.039 365.132C89.9888 369.568 96.9239 387.892 24.2475 446.179C-48.4227 504.463 -64.8074 493.714 -89.3416 583.584C-113.876 673.453 -94.3053 672.522 -61.3304 759.649C-28.3556 846.776 -43.6384 859.036 34.2506 910.141C112.14 961.247 117.302 942.343 210.352 937.907C303.402 933.472 310.337 951.795 383.013 893.509C455.69 835.222 426.608 822.915 462.964 737.14C498.496 653.282 507.944 643.803 474.969 556.676Z" stroke="#C4E2F5" stroke-width="2" stroke-miterlimit="10"/>
<path d="M465.001 568.368C432.615 482.798 418.135 494.412 341.631 444.22C265.127 394.027 270.024 376.117 178.633 380.476C87.2423 384.835 93.8123 402.195 22.4368 459.438C-48.9388 516.681 -64.4601 506.498 -88.5546 594.764C-112.649 683.03 -94.1075 682.146 -61.7217 767.717C-29.3359 853.287 -43.8163 864.901 32.6812 915.096C109.179 965.291 114.067 947.377 205.459 943.024C296.852 938.671 303.422 956.031 374.796 898.782C446.171 841.539 418.249 829.881 453.874 745.604C488.668 663.316 497.387 653.939 465.001 568.368Z" stroke="#C4E2F5" stroke-width="2" stroke-miterlimit="10"/>
<path d="M455.017 580.065C423.22 496.051 409.542 507.019 334.432 457.744C259.322 408.468 263.944 391.549 174.211 395.825C84.4802 400.107 90.6875 416.508 20.6126 472.707C-49.4683 528.909 -64.1262 519.293 -87.7833 605.949C-111.44 692.605 -93.9253 691.775 -62.1286 775.788C-30.3319 859.802 -44.0076 870.777 31.0962 920.055C106.2 969.333 110.824 952.419 200.549 948.139C290.28 943.857 296.487 960.258 366.562 904.058C436.643 847.857 409.867 836.847 444.771 754.078C478.816 673.351 486.816 664.085 455.017 580.065Z" stroke="#C4E2F5" stroke-width="2" stroke-miterlimit="10"/>
<path d="M445.057 591.764C413.849 509.306 400.967 519.632 327.255 471.265C253.543 422.898 257.884 406.97 169.819 411.173C81.754 415.376 87.5963 430.813 18.8161 485.971C-49.9618 541.136 -63.7671 532.076 -86.9883 617.136C-110.212 702.191 -93.7194 701.406 -62.5118 783.863C-31.3042 866.32 -44.1836 876.652 29.5348 925.016C103.253 973.381 107.597 957.459 195.671 953.26C283.738 949.063 289.581 964.5 358.358 909.336C427.136 854.171 401.522 843.817 435.702 762.544C468.987 683.388 476.264 674.221 445.057 591.764Z" stroke="#C4E2F5" stroke-width="2" stroke-miterlimit="10"/>
<path d="M435.088 603.45C404.47 522.549 392.39 532.229 320.063 484.775C247.736 437.322 251.812 422.388 165.41 426.506C79.0085 430.623 84.4821 445.104 17.0049 499.225C-50.4722 553.346 -63.4203 544.855 -86.2041 628.305C-108.988 711.755 -93.5242 711.018 -62.9034 791.925C-32.2849 872.826 -44.3619 882.511 27.9674 929.971C100.294 977.425 104.37 962.491 190.778 958.371C277.186 954.251 282.665 968.73 350.142 914.609C417.62 860.488 393.166 850.783 426.614 771.008C459.15 693.413 465.709 684.357 435.088 603.45Z" stroke="#C4E2F5" stroke-width="2" stroke-miterlimit="10"/>
<path d="M425.124 615.161C395.092 535.811 383.82 544.857 312.884 498.314C241.949 451.772 245.758 437.832 161.01 441.875C76.2681 445.916 81.3827 459.43 15.1941 512.512C-50.9884 565.591 -63.0731 557.667 -85.4172 639.513C-107.761 721.359 -93.3263 720.669 -63.2946 800.02C-33.2628 879.37 -44.5375 888.411 26.3979 934.953C97.3334 981.496 101.141 967.55 185.885 963.515C270.627 959.475 275.742 972.989 341.931 919.907C408.119 866.825 384.813 857.774 417.537 779.494C449.315 703.456 455.153 694.506 425.124 615.161Z" stroke="#C4E2F5" stroke-width="2" stroke-miterlimit="10"/>
</g>
</g>
<defs>
<clipPath id="clip0_6437_74994">
<rect width="715.995" height="741.451" fill="white" transform="translate(738.63 -297.723) rotate(84.2699)"/>
</clipPath>
<clipPath id="clip1_6437_74994">
<rect x="16.7241" y="-65.8312" width="281" height="281" rx="140.5" transform="rotate(-20.7301 16.7241 -65.8312)" fill="white"/>
</clipPath>
<clipPath id="clip2_6437_74994">
<rect x="627.33" y="-183.589" width="470.757" height="470.757" rx="235.378" transform="rotate(69.2699 627.33 -183.589)" fill="white"/>
</clipPath>
</defs>
</svg>
