<svg width="443" height="364" viewBox="0 0 443 364" fill="none" xmlns="http://www.w3.org/2000/svg">
<g clip-path="url(#clip0_7565_55173)">
<path d="M492.043 314.994C487.738 326.749 477.316 335.47 461.965 341.108C446.616 346.746 426.424 349.266 402.763 348.667C355.447 347.471 294.423 333.812 230.925 307.947C167.427 282.082 113.539 248.935 77.7427 216.277C59.8422 199.946 46.4971 183.766 38.7247 168.71C30.9516 153.653 28.7922 139.806 33.0963 128.052C37.4004 116.297 47.8228 107.575 63.1734 101.937C78.5227 96.2995 98.7148 93.7799 122.376 94.3781C169.692 95.5743 230.715 109.234 294.214 135.098C357.712 160.963 411.6 194.111 447.396 226.769C465.297 243.1 478.642 259.28 486.414 274.336C494.187 289.393 496.347 303.239 492.043 314.994Z" stroke="#D8A45F" stroke-width="1.5"/>
<path d="M490.23 303.925C491.837 312.07 487.131 321.4 476.748 331.375C466.4 341.317 450.591 351.723 430.473 361.975C390.246 382.474 332.952 402.277 268.129 416.508C203.306 430.738 143.278 436.69 98.6382 434.822C76.3125 433.888 57.8793 430.999 44.63 426.237C31.3363 421.46 23.4915 414.885 21.8843 406.741C20.277 398.596 24.9834 389.266 35.3658 379.291C45.7136 369.349 61.5232 358.943 81.6414 348.691C121.868 328.192 179.162 308.388 243.985 294.158C308.808 279.927 368.836 273.975 413.476 275.843C435.802 276.778 454.235 279.667 467.484 284.428C480.778 289.206 488.623 295.78 490.23 303.925Z" stroke="#D8A45F" stroke-width="1.5"/>
<path d="M511.155 133.311C511.072 134.061 510.664 134.822 509.829 135.59C508.989 136.364 507.75 137.112 506.093 137.818C502.78 139.231 497.944 140.416 491.711 141.357C479.258 143.237 461.406 144.118 439.44 143.999C395.517 143.76 335.251 139.523 269.059 131.339C202.867 123.156 143.306 112.579 100.521 102.097C79.124 96.8553 61.9498 91.6437 50.2464 86.7769C44.3891 84.3413 39.9438 82.0088 37.0297 79.8262C35.5725 78.7348 34.531 77.7049 33.8834 76.7478C33.2395 75.7961 33.0102 74.9566 33.0935 74.2072C33.1768 73.4578 33.5839 72.697 34.419 71.9283C35.259 71.155 36.498 70.4071 38.1549 69.7007C41.4686 68.288 46.3048 67.1031 52.5374 66.1621C64.9906 64.2819 82.8419 63.4006 104.808 63.5199C148.731 63.7584 208.997 67.996 275.189 76.1795C341.382 84.3631 400.943 94.94 443.727 105.421C465.124 110.663 482.299 115.875 494.002 120.742C499.859 123.177 504.305 125.51 507.219 127.692C508.676 128.784 509.717 129.814 510.365 130.771C511.009 131.722 511.238 132.562 511.155 133.311Z" stroke="#D8A45F" stroke-width="1.5"/>
<path d="M444.476 -48.935C445.135 -46.8358 444.559 -44.2924 442.583 -41.2851C440.613 -38.2861 437.322 -34.9406 432.794 -31.3151C423.745 -24.0689 409.904 -15.8189 392.284 -7.08581C357.056 10.375 306.855 29.7039 250.035 46.7528C193.215 63.8017 140.57 75.3323 101.392 80.1973C81.7969 82.6305 65.6071 83.3916 53.9612 82.3549C48.1344 81.8363 43.4919 80.8712 40.1416 79.4687C36.782 78.0622 34.8473 76.2721 34.1891 74.173C33.5309 72.0738 34.1069 69.5304 36.0826 66.523C38.0528 63.5241 41.3438 60.1785 45.8712 56.5531C54.9201 49.3069 68.7618 41.0569 86.3815 32.3237C121.61 14.8629 171.811 -4.46595 228.63 -21.5149C285.45 -38.5638 338.096 -50.0944 377.274 -54.9594C396.869 -57.3926 413.058 -58.1536 424.704 -57.117C430.531 -56.5983 435.174 -55.6333 438.524 -54.2308C441.883 -52.8243 443.818 -51.0342 444.476 -48.935Z" stroke="#D8A45F" stroke-width="1.5"/>
</g>
<defs>
<clipPath id="clip0_7565_55173">
<rect width="524.139" height="776" fill="white" transform="translate(0.5 -84)"/>
</clipPath>
</defs>
</svg>
