<svg width="200" height="31" viewBox="0 0 200 31" fill="none" xmlns="http://www.w3.org/2000/svg">
<g clip-path="url(#clip0_8461_13248)">
<path fill-rule="evenodd" clip-rule="evenodd" d="M80.3267 5.61938V24.8234H83.5513V17.5967H88.6475C89.9335 17.5967 91.0468 17.328 91.9873 16.7906C92.9278 16.2531 93.6476 15.5333 94.1467 14.6312C94.6457 13.7099 94.8953 12.7021 94.8953 11.6081C94.8953 10.514 94.6457 9.51586 94.1467 8.61372C93.6476 7.69239 92.9278 6.963 91.9873 6.42555C91.066 5.88811 89.9527 5.61938 88.6475 5.61938H80.3267ZM83.5513 14.7464H88.2156C88.8682 14.7464 89.444 14.6216 89.9431 14.3721C90.4613 14.1033 90.8644 13.729 91.1523 13.2492C91.4403 12.7693 91.5842 12.2223 91.5842 11.6081C91.5842 10.9938 91.4403 10.4468 91.1523 9.96693C90.8644 9.48707 90.4613 9.12237 89.9431 8.87285C89.444 8.60412 88.8682 8.46976 88.2156 8.46976H83.5513V14.7464Z" fill="white"/>
<path d="M182.413 24.2765C183.008 24.8715 183.882 25.169 185.034 25.169C185.686 25.169 186.243 25.0827 186.703 24.9099C187.164 24.7564 187.538 24.5452 187.826 24.2765L187.135 22.0883C187.001 22.2419 186.799 22.3666 186.531 22.4626C186.281 22.5586 186.022 22.6066 185.753 22.6066C185.369 22.6066 185.062 22.4722 184.832 22.2035C184.602 21.9348 184.467 21.5701 184.429 21.1094V13.4508H187.25V10.9171H184.429V7.11664H181.521V10.9171H179.218V13.4508H181.521V21.6564C181.521 22.7889 181.818 23.6623 182.413 24.2765Z" fill="white"/>
<path d="M191.667 22.2897C190.784 21.9058 190.093 21.4452 189.594 20.9077L188.241 23.0095C188.951 23.7005 189.815 24.238 190.832 24.6219C191.869 24.9866 192.982 25.1689 194.172 25.1689C195.381 25.1689 196.408 24.9866 197.253 24.6219C198.117 24.238 198.769 23.7197 199.211 23.0671C199.671 22.3953 199.902 21.6275 199.902 20.7638C199.902 19.8041 199.652 19.0459 199.153 18.4892C198.654 17.9134 198.059 17.5007 197.368 17.2512C196.677 16.9825 195.785 16.7137 194.69 16.445C193.942 16.2723 193.356 16.1187 192.934 15.9844C192.512 15.85 192.157 15.6676 191.869 15.4373C191.6 15.1878 191.466 14.8711 191.466 14.4872C191.466 13.9881 191.706 13.6042 192.186 13.3355C192.665 13.0476 193.308 12.9036 194.115 12.9036C194.959 12.9036 195.746 13.0572 196.476 13.3643C197.205 13.6714 197.79 14.0745 198.232 14.5736L199.47 12.5294C198.798 11.9343 198.011 11.4641 197.109 11.1186C196.207 10.7539 195.199 10.5715 194.086 10.5715C192.973 10.5715 192.003 10.7635 191.178 11.1473C190.352 11.5312 189.729 12.0495 189.306 12.7021C188.884 13.3547 188.673 14.0937 188.673 14.9191C188.673 15.802 188.903 16.5122 189.364 17.0496C189.844 17.5679 190.41 17.9518 191.063 18.2013C191.734 18.4508 192.608 18.7004 193.683 18.9499C194.451 19.1226 195.055 19.2858 195.497 19.4394C195.957 19.5929 196.341 19.8041 196.648 20.0728C196.955 20.3223 197.109 20.6582 197.109 21.0805C197.109 21.4452 196.994 21.7619 196.763 22.0306C196.552 22.2993 196.245 22.5105 195.842 22.664C195.439 22.7984 194.959 22.8656 194.403 22.8656C193.481 22.8656 192.569 22.6736 191.667 22.2897Z" fill="white"/>
<path d="M165.268 24.8234V10.917H168.176V12.8144C168.722 12.2406 169.336 11.7617 170.019 11.3777C170.96 10.8402 172.034 10.5715 173.244 10.5715C174.549 10.5715 175.518 10.869 176.152 11.4641C176.785 12.0399 177.179 12.6733 177.332 13.3643C177.486 14.0361 177.562 14.7559 177.562 15.5237V24.8234H174.655V16.5026C174.655 15.8884 174.607 15.3509 174.511 14.8903C174.434 14.4296 174.194 14.0265 173.791 13.681C173.388 13.3163 172.773 13.134 171.948 13.134C171.065 13.134 170.278 13.3451 169.587 13.7674C169.02 14.1141 168.55 14.5384 168.176 15.0403V24.8234H165.268Z" fill="white"/>
<path fill-rule="evenodd" clip-rule="evenodd" d="M152.467 24.2764C153.58 24.8714 154.828 25.1689 156.21 25.1689C157.304 25.1689 158.341 24.9962 159.32 24.6507C160.299 24.3052 161.133 23.7965 161.824 23.1247L160.5 21.2244C160.001 21.7235 159.387 22.117 158.657 22.4049C157.947 22.6736 157.227 22.808 156.498 22.808C155.5 22.808 154.655 22.5872 153.964 22.1458C153.273 21.7043 152.755 21.1189 152.41 20.3895C152.178 19.9013 152.024 19.3831 151.948 18.8347H162.775V18.1149C162.775 16.6754 162.496 15.3893 161.94 14.2569C161.383 13.1052 160.586 12.203 159.55 11.5504C158.513 10.8978 157.323 10.5715 155.98 10.5715C154.636 10.5715 153.427 10.8978 152.352 11.5504C151.277 12.203 150.433 13.086 149.818 14.1993C149.223 15.2934 148.926 16.5122 148.926 17.8558C148.926 19.2954 149.243 20.5718 149.876 21.6851C150.509 22.7984 151.373 23.6621 152.467 24.2764ZM159.986 16.7617H151.946C152.008 16.278 152.124 15.8173 152.294 15.3797C152.563 14.6695 153.005 14.0841 153.619 13.6234C154.233 13.1628 155.01 12.9324 155.951 12.9324C156.949 12.9324 157.746 13.1628 158.341 13.6234C158.955 14.0841 159.387 14.6407 159.636 15.2934C159.821 15.7775 159.938 16.267 159.986 16.7617Z" fill="white"/>
<path d="M143.511 15.6964C143.511 14.9095 143.319 14.2856 142.935 13.825C142.57 13.3643 142.013 13.134 141.265 13.134C140.574 13.134 139.931 13.3163 139.336 13.681C138.741 14.0457 138.261 14.4872 137.896 15.0054V24.8234H134.988V15.6964C134.988 14.9095 134.796 14.2856 134.412 13.825C134.048 13.3643 133.491 13.134 132.742 13.134C132.071 13.134 131.447 13.3163 130.871 13.681C130.295 14.0457 129.815 14.4872 129.431 15.0054L129.403 15.0486V24.8234H126.495V10.917H129.403V12.8212C129.572 12.5656 129.831 12.286 130.18 11.9823C130.641 11.5984 131.197 11.2721 131.85 11.0034C132.522 10.7155 133.241 10.5715 134.009 10.5715C134.835 10.5715 135.535 10.7443 136.111 11.0898C136.687 11.4161 137.119 11.8863 137.407 12.5006C137.516 12.7116 137.606 12.9348 137.679 13.17C138.087 12.5028 138.687 11.9245 139.48 11.4353C140.401 10.8594 141.438 10.5715 142.589 10.5715C143.415 10.5715 144.106 10.7443 144.662 11.0898C145.238 11.4161 145.67 11.8959 145.958 12.5294C146.246 13.1628 146.39 13.9114 146.39 14.7751V24.8234H143.511V15.6964Z" fill="white"/>
<path d="M113.021 27.8466C112.791 27.8082 112.609 27.7506 112.474 27.6738L112.014 30.2651C112.244 30.3227 112.522 30.3707 112.848 30.4091C113.175 30.4474 113.491 30.4666 113.799 30.4666C114.509 30.4666 115.142 30.3707 115.699 30.1787C116.255 29.9868 116.755 29.6701 117.196 29.2286C117.637 28.7871 118.012 28.2113 118.319 27.5011V27.4435C118.338 27.4435 118.348 27.4339 118.348 27.4147L125.114 10.9171H122.004L117.858 21.4836L113.712 10.9171H110.631L116.341 24.9797L115.612 26.6661C115.421 27.1076 115.171 27.4243 114.864 27.6163C114.557 27.8082 114.173 27.9042 113.712 27.9042C113.482 27.9042 113.252 27.885 113.021 27.8466Z" fill="white"/>
<path fill-rule="evenodd" clip-rule="evenodd" d="M101.848 25.1689C100.658 25.1689 99.5929 24.881 98.6524 24.3052C97.7119 23.7101 96.9729 22.8656 96.4355 21.7715C95.9172 20.6774 95.6581 19.3818 95.6581 17.8846C95.6581 16.4066 95.9172 15.1206 96.4355 14.0265C96.9729 12.9132 97.7119 12.0591 98.6524 11.4641C99.5929 10.869 100.658 10.5715 101.848 10.5715C102.808 10.5715 103.71 10.8114 104.555 11.2913C105.269 11.6811 105.874 12.2082 106.369 12.8727V10.917H109.248V24.8234H106.369V22.8728C105.871 23.5291 105.266 24.0642 104.555 24.4779C103.729 24.9386 102.827 25.1689 101.848 25.1689ZM106.369 20.6851V15.1221C106.065 14.6406 105.604 14.2178 104.987 13.8538C104.238 13.3931 103.47 13.1628 102.683 13.1628C101.877 13.1628 101.167 13.3643 100.553 13.7674C99.9384 14.1705 99.4682 14.7271 99.1419 15.4373C98.8348 16.1475 98.6812 16.9633 98.6812 17.8846C98.6812 19.2858 99.0363 20.4279 99.7465 21.3108C100.476 22.1746 101.455 22.6064 102.683 22.6064C103.47 22.6064 104.238 22.3953 104.987 21.973C105.604 21.609 106.065 21.1797 106.369 20.6851Z" fill="white"/>
<path d="M9.77115 25.1629C12.0069 25.1629 13.8011 24.0588 15.1536 21.5194L18.1622 15.8886V20.6637C18.1622 23.4791 19.9839 25.1629 22.7993 25.1629C25.0075 25.1629 26.636 24.1968 28.2094 21.5194L35.1375 9.8161C36.6556 7.2491 35.5791 5.31696 32.2393 5.31696C30.4451 5.31696 29.2858 5.8966 28.237 7.85635L23.4618 16.827V8.85003C23.4618 6.47624 22.3301 5.31696 20.2323 5.31696C18.5762 5.31696 17.2513 6.03461 16.23 8.02196L11.7309 16.827V8.93283C11.7309 6.39344 10.682 5.31696 8.14262 5.31696H2.95343C0.993676 5.31696 0 6.22783 0 7.91155C0 9.59528 1.04888 10.5614 2.95343 10.5614H5.07879V20.6361C5.07879 23.4791 6.98333 25.1629 9.77115 25.1629Z" fill="white"/>
<path fill-rule="evenodd" clip-rule="evenodd" d="M45.2689 5.31696C39.6105 5.31696 35.2769 9.54008 35.2769 15.2537C35.2769 20.9674 39.6381 25.1629 45.2689 25.1629C50.8997 25.1629 55.2057 20.9397 55.2333 15.2537C55.2333 9.54008 50.8997 5.31696 45.2689 5.31696ZM45.2689 19.0628C43.1435 19.0628 41.6806 17.4619 41.6806 15.2537C41.6806 13.0455 43.1435 11.417 45.2689 11.417C47.3943 11.417 48.8572 13.0455 48.8572 15.2537C48.8572 17.4619 47.4219 19.0628 45.2689 19.0628Z" fill="white"/>
<path fill-rule="evenodd" clip-rule="evenodd" d="M56.639 15.2537C56.639 9.54008 60.9725 5.31696 66.6033 5.31696C72.2342 5.31696 76.5677 9.56768 76.5677 15.2537C76.5677 20.9397 72.2342 25.1629 66.6033 25.1629C60.9725 25.1629 56.639 20.9674 56.639 15.2537ZM63.0427 15.2537C63.0427 17.4619 64.4504 19.0628 66.6033 19.0628C68.7287 19.0628 70.1916 17.4619 70.1916 15.2537C70.1916 13.0455 68.7287 11.417 66.6033 11.417C64.478 11.417 63.0427 13.0455 63.0427 15.2537Z" fill="white"/>
</g>
<defs>
<clipPath id="clip0_8461_13248">
<rect width="200" height="30.4802" fill="white"/>
</clipPath>
</defs>
</svg>
