<svg width="24" height="24" viewBox="0 0 24 24" fill="none" xmlns="http://www.w3.org/2000/svg">
<path d="M24 12C24 15.1826 22.7357 18.2348 20.4853 20.4853C18.2349 22.7357 15.1826 24 12 24C8.81741 24 5.76516 22.7357 3.51473 20.4853C1.26429 18.2348 0 15.1826 0 12C0 8.8174 1.26429 5.76516 3.51473 3.51472C5.76516 1.26428 8.81741 0 12 0C15.1826 0 18.2349 1.26428 20.4853 3.51472C22.7357 5.76516 24 8.8174 24 12ZM7.61602 11.4595C7.61602 11.2466 7.57408 11.0357 7.4926 10.839C7.41111 10.6423 7.29167 10.4635 7.1411 10.313C6.99053 10.1624 6.81178 10.0429 6.61506 9.96146C6.41833 9.87998 6.20748 9.83804 5.99455 9.83804C5.56451 9.83804 5.15208 10.0089 4.848 10.313C4.54391 10.617 4.37307 11.0295 4.37307 11.4595C4.37307 11.8896 4.54391 12.302 4.848 12.6061C5.15208 12.9102 5.56451 13.081 5.99455 13.081C6.20748 13.081 6.41833 13.039 6.61506 12.9576C6.81178 12.8761 6.99053 12.7566 7.1411 12.6061C7.29167 12.4555 7.41111 12.2767 7.4926 12.08C7.57408 11.8833 7.61602 11.6724 7.61602 11.4595ZM19.6269 11.4595C19.6269 11.0295 19.4561 10.617 19.152 10.313C18.8479 10.0089 18.4355 9.83804 18.0055 9.83804C17.5754 9.83804 17.163 10.0089 16.8589 10.313C16.5548 10.617 16.384 11.0295 16.384 11.4595C16.384 11.8896 16.5548 12.302 16.8589 12.6061C17.163 12.9102 17.5754 13.081 18.0055 13.081C18.4355 13.081 18.8479 12.9102 19.152 12.6061C19.4561 12.302 19.6269 11.8896 19.6269 11.4595ZM15.3522 14.5223C13.6379 16.7225 10.4932 17.1865 8.84988 14.7407C8.49319 14.2093 8.01638 14.0564 7.41947 14.2821C7.31756 14.3185 7.23204 14.3822 7.16289 14.4732C6.71885 15.0519 6.73158 15.6215 7.20109 16.182C9.90355 19.4195 14.6042 19.3758 17.0009 15.8544C17.4413 15.2102 17.3139 14.7134 16.6188 14.364L16.4441 14.2766C16.0109 14.0582 15.647 14.1401 15.3522 14.5223Z" fill="#B8E6BF"/>
<path d="M5.99452 13.0808C6.89004 13.0808 7.616 12.3549 7.616 11.4594C7.616 10.5638 6.89004 9.83789 5.99452 9.83789C5.09901 9.83789 4.37305 10.5638 4.37305 11.4594C4.37305 12.3549 5.09901 13.0808 5.99452 13.0808Z" fill="#00450C"/>
<path d="M18.0057 13.0808C18.9013 13.0808 19.6272 12.3549 19.6272 11.4594C19.6272 10.5638 18.9013 9.83789 18.0057 9.83789C17.1102 9.83789 16.3843 10.5638 16.3843 11.4594C16.3843 12.3549 17.1102 13.0808 18.0057 13.0808Z" fill="#00450C"/>
<path d="M8.8496 14.7405C10.4929 17.1864 13.6376 16.7223 15.3519 14.5221C15.6467 14.14 16.0107 14.0581 16.4438 14.2765L16.6185 14.3638C17.3137 14.7132 17.441 15.21 17.0006 15.8543C14.6039 19.3756 9.90328 19.4193 7.20082 16.1818C6.7313 15.6213 6.71858 15.0517 7.16262 14.473C7.23177 14.382 7.31729 14.3183 7.4192 14.2819C8.0161 14.0563 8.49291 14.2091 8.8496 14.7405Z" fill="#00450C"/>
</svg>
