<svg id="desktop-app-logo" xmlns="http://www.w3.org/2000/svg" viewBox="0 0 1648 1648" fill="#3858E9">
  <path d="M452 1C351.4 2.8 297.4 8.3 251 21.6 164.7 46.5 81.8 118.1 39.5 204.5 15.3 254 6.3 304 1.8 413.5c-1.9 45-1.9 776.2 0 821.5 3.2 79.7 8.6 123.5 19.8 162.1 25.3 86.7 96.5 169.1 182.9 211.4 49.5 24.2 99.5 33.2 209 37.7 45 1.9 776.2 1.9 821.5 0 95.4-3.9 142.4-11 187.4-28.5 58.7-22.7 119.3-71.4 157.9-126.9 46.9-67.5 60.3-119.5 65.9-256.3 1.9-45 1.9-776.2 0-821.5-3.9-95.4-11-142.4-28.5-187.4-22.7-58.7-71.4-119.3-126.9-157.9-66.9-46.5-118.2-59.9-252.3-65.8C1208.9.5 522.2-.2 452 1zm410.5 274c117.7 8.6 226.4 53 317.5 129.8 16.1 13.6 49.6 47.1 63.2 63.2 67.9 80.6 110.1 173.7 125.3 276.5 4.9 33.2 6.9 83.2 4.6 116-8.3 118.8-52.6 227.8-129.9 319.5-14 16.5-47.3 49.8-64.2 64-79.6 67-173.5 109.4-275.5 124.5-33.2 4.9-83.2 6.9-116 4.6-118.6-8.3-228-52.7-319.5-129.9-16.1-13.6-49.6-47.1-63.2-63.2-67.9-80.6-110.1-173.7-125.3-276.5-4.9-33.2-6.9-83.2-4.6-116 8.3-118.8 52.6-227.8 129.9-319.5 14-16.5 47.3-49.8 64.2-64 87.6-73.7 195.1-118.7 305.5-127.9 7.2-.6 14.6-1.3 16.5-1.4 8.5-.9 58.8-.6 71.5.3z"/>
  <path d="M786 331.1c-49.4 4-101.1 16-145.7 34-16.2 6.5-47.4 21.6-61.8 29.9C516.3 430.7 463 479.1 421 537.8l-9.8 13.7 30.1.3c32.3.3 61.8-.7 108.2-3.9 31.1-2.1 32.9-1.9 39.1 2.7 6.1 4.5 9.3 16.3 6.5 23.7-1.3 3.4-6.8 9.5-10.2 11.3-3.1 1.5-21.4 3.8-47.4 5.7l-16.1 1.2 89.5 266.2c49.3 146.5 89.8 266.3 90.1 266.3.3 0 24.7-72.4 54.2-160.9l53.7-160.9-37.5-102.9c-20.6-56.5-37.9-104-38.5-105.4-1-2.5-1.2-2.6-17.2-3.8-24-1.9-40.5-4-43.5-5.5-3.6-1.9-7.8-6.5-9.1-9.9-.6-1.6-1.1-5.4-1.1-8.6 0-7.4 3.1-13.5 8.9-17.6 5.1-3.6 7.1-3.7 45.1-1.2 79 5.2 122.3 5.1 204-.3 20.4-1.4 30.5-1.7 32.9-1 16.2 4.6 19.4 28.3 5 37.3-4.1 2.5-6.3 2.9-23.5 4.7-10.4 1-24 2.2-30.1 2.6-6.2.3-11.3.9-11.3 1.3 0 1.5 177.4 528.1 177.9 528.1.3 0 11.5-36.3 24.8-80.8 13.3-44.4 27.3-89.4 31.2-100.1 20.9-57 30.4-101.3 30.4-142.1-.1-48.5-13-89.8-43.9-140.5-25.2-41.4-32.5-55.2-38.2-72-5.2-15.2-6.6-23.5-6.5-39 0-16.3 1.9-24.9 8.3-38.3 5.1-10.6 8.8-16.1 16.9-24.6 14.7-15.3 31.4-23.1 52.3-24.4l10.6-.7-8-7c-31.2-27.2-65-49.9-102.8-68.9-53.3-26.8-106-42.6-166-49.7-20-2.4-74-3.4-94-1.8zM1258.4 589.5c3.4 13.4 3.2 74.7-.3 100.1-5 36.7-13.7 69.9-30.1 114.4-8.3 22.6-154 443.7-154 445.2 0 1.2 3.3-.8 22-13 73.6-48.2 134.2-117.2 172.6-196.7 25.5-52.9 40.3-104.9 47.1-165.5 2.4-22 2.4-79.2 0-100.8-6.4-56.3-21.1-109.5-43.5-157.7-6.6-14.1-14.6-29.2-13.8-26zM371 625.9c-2.6 4.9-14.1 35.6-17.8 47.6-15.3 49-21.9 89.4-22.9 140.1-.6 30 .4 50 3.8 75.9 9.6 72.2 35.6 142.5 75.7 204 9.9 15.3 27.7 39.1 39.2 52.5 11.7 13.6 38.5 40.5 52.4 52.3 29.1 25 59.7 45.8 92.5 63 10.6 5.6 13.3 6.6 12.9 5.1-.3-1-46.5-127.9-102.8-281.9-56.2-154-108.7-298-116.7-320-7.9-22-14.6-40.1-14.8-40.3-.2-.2-.8.6-1.5 1.7z"/>
  <path d="M828.7 879.3c-2.1 6.2-35.3 102.7-73.8 214.6-38.5 111.9-69.6 203.7-69.2 204.2 1.5 1.5 37.8 9.9 55.4 12.9 26.3 4.4 43.6 6 71.9 6.7 47.4 1.1 88.1-3.5 133.5-15.2 15-3.8 39.3-11.1 40.4-12.1.2-.2-.5-2.5-1.7-5.1-1.8-4.3-112.7-307.8-140.2-383.8-6.2-17.1-11.5-31.5-11.9-32.2-.3-.7-2.3 3.8-4.4 10z"/>
</svg>
