<svg id="jetpack-app-logo" xmlns="http://www.w3.org/2000/svg" viewBox="0 0 1648 1648">
  <path fill="#1BA914" d="M468.899-.135c3.919.002 7.837-.002 11.756-.006 6.828-.005 13.656-.006 20.484-.005 10.155.001 20.31-.003 30.466-.008 19.208-.01 38.416-.012 57.624-.013a244401.78 244401.78 0 0 0 60.676-.01c29.995-.005 59.99-.01 89.985-.009H770.788c35.667.001 71.334-.006 107-.02a296459.88 296459.88 0 0 1 136.69-.023c16.906 0 33.811-.006 50.716-.015 17.048-.008 34.095-.009 51.142-.003 9.202.004 18.404.004 27.607-.005 189.888-.177 189.888-.177 385.31 97.693 2.647 2.465 5.345 4.858 8.06 7.247 3.647 3.268 6.897 6.683 10.05 10.425 1.593 1.836 3.262 3.514 5.012 5.2 3.677 3.628 6.904 7.553 10.133 11.582a360.907 360.907 0 0 0 5.172 6.304c58.72 70.585 73.725 156.405 78.445 245.364l.118 2.191c1.452 27.694 1.912 55.418 1.892 83.145-.002 3.919.002 7.837.006 11.756.005 6.828.006 13.656.005 20.484-.001 10.155.003 20.31.008 30.466.01 19.208.012 38.416.013 57.624a244402.684 244402.684 0 0 0 .008 57.44l.001 3.236a409603.847 409603.847 0 0 1 .01 110.556v10.327c-.001 35.667.006 71.334.02 107a296460.06 296460.06 0 0 1 .023 133.482v3.209c0 16.905.006 33.81.015 50.715.008 17.048.009 34.095.003 51.142-.004 9.202-.004 18.404.005 27.607.177 189.888.177 189.888-97.693 385.31-2.465 2.647-4.858 5.345-7.247 8.06-3.268 3.647-6.683 6.897-10.425 10.05-1.836 1.593-3.514 3.262-5.2 5.012-3.628 3.677-7.553 6.904-11.582 10.133a360.907 360.907 0 0 0-6.304 5.172c-70.585 58.72-156.405 73.725-245.364 78.445l-2.191.118c-27.694 1.452-55.418 1.912-83.145 1.892-3.919-.002-7.837.002-11.756.006-6.828.005-13.656.006-20.484.005-10.155-.001-20.31.003-30.466.008-19.208.01-38.416.012-57.624.013a244401.781 244401.781 0 0 0-57.44.008l-3.236.001c-29.995.006-59.99.01-89.985.01H877.212c-35.667-.001-71.334.006-107 .02a296459.88 296459.88 0 0 1-133.482.023h-3.209c-16.905 0-33.81.006-50.715.015-17.048.008-34.095.009-51.142.003-9.202-.004-18.404-.004-27.607.005-189.888.177-189.888.177-385.31-97.693-2.647-2.465-5.345-4.858-8.06-7.246-3.647-3.27-6.897-6.684-10.05-10.426-1.593-1.836-3.262-3.514-5.012-5.2-3.677-3.628-6.904-7.553-10.133-11.582a360.907 360.907 0 0 0-5.172-6.304c-58.72-70.585-73.725-156.405-78.445-245.363l-.118-2.192c-1.452-27.694-1.912-55.418-1.892-83.145.002-3.919-.002-7.837-.006-11.756-.005-6.828-.006-13.656-.005-20.484.001-10.155-.003-20.31-.008-30.466-.01-19.208-.012-38.416-.013-57.624a244401.78 244401.78 0 0 0-.008-57.44l-.001-3.236a409603.847 409603.847 0 0 1-.01-110.556v-10.327c.001-35.667-.006-71.334-.02-107A296459.88 296459.88 0 0 1-.229 636.73v-3.209c0-16.905-.006-33.81-.015-50.715-.008-17.048-.009-34.095-.003-51.142.004-9.202.004-18.404-.005-27.607-.177-189.888-.177-189.888 97.693-385.31 2.465-2.647 4.858-5.345 7.246-8.06 3.27-3.647 6.684-6.897 10.426-10.05 1.836-1.593 3.514-3.262 5.2-5.012 3.628-3.677 7.553-6.904 11.582-10.133a360.907 360.907 0 0 0 6.304-5.172C208.784 21.6 294.604 6.595 383.562 1.875l2.192-.118C413.448.305 441.172-.155 468.9-.135Z"/>
  <path fill="#FEFEFE" d="m824.75 191.688 4.08.003c20.547.027 40.77.76 61.17 3.309 2.219.255 4.437.51 6.656.762 5.792.675 11.568 1.441 17.344 2.238l2.467.327c65.376 8.685 129.382 29.846 188.325 59.089a697.17 697.17 0 0 0 8.524 4.13c14.406 6.933 28.05 15.134 41.684 23.454l2.733 1.666c25.798 15.806 50.041 33.971 73.267 53.334l1.798 1.498c14.26 11.93 27.646 24.772 40.766 37.936 1.96 1.965 3.924 3.924 5.89 5.882 6.06 6.058 12.03 12.118 17.546 18.684 1.021 1.169 2.045 2.335 3.07 3.5 13.076 14.952 25.34 30.367 36.93 46.5l1.787 2.486c8.516 11.901 16.59 24.022 24.213 36.514l1.541 2.52c28.16 46.282 49.16 94.894 65.459 146.48l.971 3.073c18.472 59.429 25.18 121.477 25.216 183.49l.004 2.958c-.003 19.134-.804 38.136-2.816 57.167l-.253 2.41c-4.86 45.473-14.975 89.476-29.122 132.902l-1.223 3.778c-9.05 27.723-20.732 54.189-33.777 80.222l-1.743 3.493c-20.462 40.832-45.876 78.403-74.773 113.687a615.28 615.28 0 0 0-3.855 4.789c-4.71 5.876-9.685 11.435-14.85 16.91-2.673 2.836-5.281 5.699-7.806 8.668-5.058 5.814-10.569 11.198-16.025 16.635a2552.994 2552.994 0 0 0-5.634 5.64c-5.936 5.94-11.897 11.753-18.314 17.178a1251.412 1251.412 0 0 0-4.813 4.375c-4.264 3.844-8.636 7.52-13.101 11.129a743.653 743.653 0 0 0-6.672 5.46c-70.603 58.287-154.24 97.751-242.289 121.411l-3.615.975c-16.995 4.48-34.317 7.23-51.652 10.027-2.47.399-4.942.801-7.412 1.207-17.11 2.795-34.136 4.493-51.446 5.416l-2.267.126c-49.815 2.753-99.59.765-148.733-8.126l-2.127-.383c-21.246-3.843-42.123-8.61-62.873-14.617l-3.598-1.038C581.916 1412.43 521.397 1383.592 467 1346l-2.335-1.61c-14.471-10.006-28.237-20.762-41.845-31.906a615.28 615.28 0 0 0-4.789-3.855c-5.876-4.71-11.435-9.685-16.91-14.85-2.836-2.673-5.699-5.281-8.668-7.806-5.814-5.058-11.198-10.569-16.635-16.025a2552.994 2552.994 0 0 0-5.64-5.634c-5.94-5.936-11.753-11.897-17.178-18.314a1251.412 1251.412 0 0 0-4.375-4.813c-3.844-4.264-7.52-8.636-11.129-13.101a743.653 743.653 0 0 0-5.46-6.672c-58.287-70.603-97.751-154.24-121.411-242.289l-.975-3.615c-4.485-17.011-7.231-34.35-10.031-51.7-.39-2.396-.784-4.792-1.187-7.186-9.224-54.87-9.41-112.262-2.694-167.433.246-2.054.476-4.11.699-6.168 2.48-22.659 7.497-44.826 12.563-67.023l.853-3.75c3.843-16.678 8.884-32.974 14.147-49.25l1.058-3.28c1.757-5.37 3.653-10.555 5.942-15.72.888-2.35 1.762-4.704 2.625-7.063 5.717-15.378 11.832-30.503 19.409-45.064 1.283-2.487 2.52-4.994 3.76-7.503 1.715-3.466 3.46-6.918 5.206-10.37l1.296-2.574C281.92 494.573 305.15 460.162 331 428l2.258-2.813c14.455-17.823 29.926-34.555 46.176-50.751 1.965-1.96 3.924-3.924 5.882-5.89 6.059-6.06 12.12-12.027 18.684-17.546a1153.96 1153.96 0 0 0 3.57-3.14 483.22 483.22 0 0 1 23.546-19.397 618.03 618.03 0 0 0 5.954-4.697C454.875 309.645 473.595 296.819 493 285l2.507-1.532C541.793 255.304 590.409 234.3 642 218l3.073-.971c33.35-10.366 68.058-16.96 102.677-21.279l3.61-.458c24.396-2.862 48.847-3.67 73.39-3.605Z"/>
  <path fill="#1AA813" d="M855 718h316c-10.344 21.838-10.344 21.838-13.762 28.438l-1.19 2.318c-1.243 2.416-2.489 4.83-3.736 7.244l-2.653 5.157a9264.645 9264.645 0 0 1-16.433 31.767 6925.48 6925.48 0 0 0-14.164 27.451A11389.954 11389.954 0 0 1 1102.5 852.5a11624.045 11624.045 0 0 0-16.5 32 13413.41 13413.41 0 0 1-18.391 35.657c-4.672 9.026-9.33 18.058-13.984 27.093l-1.072 2.08L1045 964l-8.625 16.75-1.073 2.083a17278.39 17278.39 0 0 1-16.568 32.074c-4.928 9.523-9.833 19.057-14.734 28.593a13425.484 13425.484 0 0 1-18.391 35.657c-4.672 9.026-9.33 18.058-13.984 27.093l-1.072 2.08L963 1123l-8.625 16.75-1.072 2.08a17190.899 17190.899 0 0 1-15.723 30.447c-4.995 9.652-9.979 19.31-14.955 28.973l-1.071 2.08L914 1218l-8.625 16.75-1.073 2.083a16305.27 16305.27 0 0 1-16.553 32.043 6764.637 6764.637 0 0 0-11.61 22.533c-1.935 3.767-3.868 7.535-5.799 11.303A1617.04 1617.04 0 0 1 856 1330h-1V718Z"/>
  <path fill="#1DAA15" d="M790 320h1v609H477c1.437-4.311 2.775-7.75 4.844-11.7l1.749-3.357.937-1.785c1.345-2.56 2.68-5.124 4.015-7.689l2.144-4.112c3.696-7.083 7.35-14.188 11-21.295l3.403-6.62 4.605-8.962a95090.27 95090.27 0 0 1 12.494-24.299 68470.353 68470.353 0 0 1 25.861-50.223l7.385-14.333 1.058-2.053c5.129-9.954 10.252-19.91 15.372-29.868A66541.58 66541.58 0 0 1 590.75 706l1.078-2.093c4.042-7.848 8.095-15.69 12.167-23.522 7.412-14.256 14.725-28.562 22.03-42.873 6.215-12.174 12.453-24.336 18.762-36.462 5.09-9.788 10.12-19.606 15.15-29.425 8.884-17.34 17.815-34.654 26.787-51.948a8314.376 8314.376 0 0 0 24.838-48.302 6748.155 6748.155 0 0 1 23.825-46.274 6478.19 6478.19 0 0 0 22.324-43.273l1.52-2.977c2.493-4.883 4.985-9.768 7.474-14.653 4.516-8.858 9.056-17.702 13.682-26.503l1.187-2.262c2.736-5.186 5.56-10.318 8.426-15.433Z"/>
</svg>
