<svg id="studio-app-logo" xmlns="http://www.w3.org/2000/svg" viewBox="0 0 1648 1648">
  <path fill="#101517" d="M468.899-.135c3.919.002 7.837-.002 11.756-.006 6.828-.005 13.656-.006 20.484-.005 10.155.001 20.31-.003 30.466-.008 19.208-.01 38.416-.012 57.624-.013a244401.78 244401.78 0 0 0 60.676-.01c29.995-.005 59.99-.01 89.985-.009H770.788c35.667.001 71.334-.006 107-.02a296459.88 296459.88 0 0 1 136.69-.023c16.906 0 33.811-.006 50.716-.015 17.048-.008 34.095-.009 51.142-.003 9.202.004 18.404.004 27.607-.005 189.888-.177 189.888-.177 385.31 97.693 2.647 2.465 5.345 4.858 8.06 7.247 3.647 3.268 6.897 6.683 10.05 10.425 1.593 1.836 3.262 3.514 5.012 5.2 3.677 3.628 6.904 7.553 10.133 11.582a360.907 360.907 0 0 0 5.172 6.304c58.72 70.585 73.725 156.405 78.445 245.364l.118 2.191c1.452 27.694 1.912 55.418 1.892 83.145-.002 3.919.002 7.837.006 11.756.005 6.828.006 13.656.005 20.484-.001 10.155.003 20.31.008 30.466.01 19.208.012 38.416.013 57.624a244402.684 244402.684 0 0 0 .008 57.44l.001 3.236a409603.847 409603.847 0 0 1 .01 110.556v10.327c-.001 35.667.006 71.334.02 107a296460.06 296460.06 0 0 1 .023 133.482v3.209c0 16.905.006 33.81.015 50.715.008 17.048.009 34.095.003 51.142-.004 9.202-.004 18.404.005 27.607.177 189.888.177 189.888-97.693 385.31-2.465 2.647-4.858 5.345-7.247 8.06-3.268 3.647-6.683 6.897-10.425 10.05-1.836 1.593-3.514 3.262-5.2 5.012-3.628 3.677-7.553 6.904-11.582 10.133a360.907 360.907 0 0 0-6.304 5.172c-70.585 58.72-156.405 73.725-245.364 78.445l-2.191.118c-27.694 1.452-55.418 1.912-83.145 1.892-3.919-.002-7.837.002-11.756.006-6.828.005-13.656.006-20.484.005-10.155-.001-20.31.003-30.466.008-19.208.01-38.416.012-57.624.013a244401.781 244401.781 0 0 0-57.44.008l-3.236.001c-29.995.006-59.99.01-89.985.01H877.212c-35.667-.001-71.334.006-107 .02a296459.88 296459.88 0 0 1-133.482.023h-3.209c-16.905 0-33.81.006-50.715.015-17.048.008-34.095.009-51.142.003-9.202-.004-18.404-.004-27.607.005-189.888.177-189.888.177-385.31-97.693-2.647-2.465-5.345-4.858-8.06-7.246-3.647-3.27-6.897-6.684-10.05-10.426-1.593-1.836-3.262-3.514-5.012-5.2-3.677-3.628-6.904-7.553-10.133-11.582a360.907 360.907 0 0 0-5.172-6.304c-58.72-70.585-73.725-156.405-78.445-245.363l-.118-2.192c-1.452-27.694-1.912-55.418-1.892-83.145.002-3.919-.002-7.837-.006-11.756-.005-6.828-.006-13.656-.005-20.484.001-10.155-.003-20.31-.008-30.466-.01-19.208-.012-38.416-.013-57.624a244401.78 244401.78 0 0 0-.008-57.44l-.001-3.236a409603.847 409603.847 0 0 1-.01-110.556v-10.327c.001-35.667-.006-71.334-.02-107A296459.88 296459.88 0 0 1-.229 636.73v-3.209c0-16.905-.006-33.81-.015-50.715-.008-17.048-.009-34.095-.003-51.142.004-9.202.004-18.404-.005-27.607-.177-189.888-.177-189.888 97.693-385.31 2.465-2.647 4.858-5.345 7.246-8.06 3.27-3.647 6.684-6.897 10.426-10.05 1.836-1.593 3.514-3.262 5.2-5.012 3.628-3.677 7.553-6.904 11.582-10.133a360.907 360.907 0 0 0 6.304-5.172C208.784 21.6 294.604 6.595 383.562 1.875l2.192-.118C413.448.305 441.172-.155 468.9-.135Z"/>
  <path fill="#FEFEFE" d="M808.4 273.95c22.481-.462 44.763-.244 67.162 1.862l2.678.251c17.533 1.682 35.059 3.84 52.26 7.687l3.524.776c3.662.813 7.319 1.642 10.976 2.474l3.693.83c15.848 3.578 31.264 7.79 46.581 13.21 2.587.911 5.181 1.796 7.78 2.67 37.037 12.55 74.19 28.84 107.117 50.12 2.296 1.469 4.612 2.904 6.927 4.342 10.702 6.68 21.017 13.625 30.985 21.356a387.65 387.65 0 0 0 5.999 4.5c7.52 5.551 14.804 11.271 21.883 17.374 2.928 2.506 5.907 4.933 8.91 7.348 3.673 2.987 7.08 6.07 10.357 9.483 1.698 1.697 3.453 3.244 5.284 4.794 4.913 4.272 9.511 8.85 14.102 13.461a1509.32 1509.32 0 0 0 4.337 4.33c5.229 5.225 10.237 10.569 15.045 16.182a1315.42 1315.42 0 0 0 4.25 4.625c4.55 5.042 8.719 10.327 12.875 15.691 1.885 2.431 3.8 4.832 5.75 7.211 31.64 38.66 57.036 83.38 76.125 129.473l1.193 2.879c17.64 42.963 29.53 88.533 35.744 134.558l.29 2.114c3.13 23.221 4.158 46.537 4.085 69.949l-.004 3.669c-.061 27.916-1.998 55.139-6.766 82.67-.557 3.248-1.076 6.5-1.593 9.755a461.601 461.601 0 0 1-18.222 73.23c-.78 2.334-1.523 4.68-2.262 7.028-12.12 38.07-29.565 76.698-51.295 110.32-1.469 2.295-2.904 4.61-4.342 6.926-6.68 10.702-13.625 21.017-21.356 30.985a387.65 387.65 0 0 0-4.5 5.999c-5.551 7.52-11.271 14.804-17.374 21.883-2.506 2.928-4.933 5.907-7.348 8.91-2.987 3.673-6.07 7.08-9.483 10.357-1.697 1.698-3.244 3.453-4.794 5.284-4.272 4.913-8.85 9.511-13.461 14.102a1509.32 1509.32 0 0 0-4.33 4.337c-5.224 5.228-10.554 10.255-16.182 15.045a1616.471 1616.471 0 0 0-3.5 3.07c-14.614 12.78-29.614 24.763-45.5 35.93l-2.046 1.445c-17.75 12.5-36.171 23.604-55.202 34.044-2.283 1.254-4.56 2.518-6.834 3.788-64.261 35.268-140.082 56.337-213.143 60.56-2.474.145-4.944.317-7.416.499-96.298 6.561-191.967-14.55-385.359-126.774-2.918-2.492-5.885-4.907-8.875-7.312-3.673-2.987-7.08-6.07-10.357-9.483-1.698-1.697-3.453-3.244-5.284-4.794-4.913-4.272-9.511-8.85-14.102-13.461a1509.32 1509.32 0 0 0-4.337-4.33c-5.229-5.225-10.237-10.569-15.045-16.182a1315.42 1315.42 0 0 0-4.25-4.625c-4.55-5.042-8.719-10.327-12.875-15.691-1.885-2.431-3.8-4.832-5.75-7.211-18.4-22.482-34.057-47.096-48.125-72.473l-1.61-2.875C302.99 1019.43 279.293 940.659 275 862l-.124-2.119c-.78-13.358-1.115-26.688-1.126-40.069l-.004-3.012c.005-16.91.882-33.532 2.848-50.324.372-3.186.706-6.374 1.027-9.566 9.098-85.687 42.102-170.893 123.957-285.09 2.27-2.643 4.443-5.342 6.61-8.07 9.647-11.812 20.56-22.58 31.312-33.375l2.497-2.511c4.297-4.286 8.668-8.415 13.27-12.371 2.165-1.865 4.259-3.804 6.358-5.743 5.042-4.55 10.327-8.719 15.691-12.875 2.431-1.885 4.832-3.8 7.211-5.75C532.812 351.606 589.925 321.726 649 302l2.696-.904A513.303 513.303 0 0 1 668 296l2.26-.684c29.124-8.742 59.554-14.804 89.74-18.316l2.686-.33c15.198-1.852 30.418-2.398 45.715-2.72Z"/>
  <path fill="#101517" d="M812.462 328.897C870.325 327.42 928.154 336.721 983 355l2.885.955C1033.206 371.823 1078.08 396.187 1118 426l1.835 1.367c7.218 5.4 14.162 11.086 21.005 16.95 3.931 3.36 7.97 6.586 12.015 9.808C1155 456 1155 456 1157 459l-3.156.078c-21.864.764-40.525 6.86-56.844 21.922l-2.133 1.855c-8.43 7.753-14.115 17.907-18.742 28.27l-.83 1.842c-4.685 11.034-5.842 21.904-5.732 33.783l.01 2.146c.073 10.56.769 20.069 4.427 30.104.516 1.523 1.03 3.046 1.543 4.57 8.083 23.412 20.45 44.199 33.488 65.162 20.278 32.62 37.279 66.22 45.094 104.08l.481 2.295c2.804 14.194 3.75 28.271 3.644 42.705l-.011 2.388c-.285 51.002-15.575 100.76-33.551 148.112-4.454 11.734-8.066 23.606-11.522 35.667-2.106 7.3-4.315 14.57-6.504 21.845-1.246 4.14-2.49 8.281-3.732 12.422-1.455 4.846-2.911 9.692-4.37 14.536-4.389 14.577-8.674 29.183-12.953 43.792a6936.28 6936.28 0 0 1-5.662 19.228 2848.12 2848.12 0 0 0-1.925 6.545c-.949 3.234-1.907 6.465-2.868 9.696l-.872 2.998c-.27.902-.54 1.804-.82 2.733l-.71 2.409C1072 1122 1072 1122 1070 1123l-1.031-3.201a4175.764 4175.764 0 0 0-23.151-69.753l-2.025-5.921-.994-2.907a3046.42 3046.42 0 0 1-8.611-25.656c-5.144-15.5-10.377-30.971-15.625-46.437l-1.249-3.68a8318.164 8318.164 0 0 0-11.931-34.972 2796.41 2796.41 0 0 1-16.863-50.495c-5.958-18.425-12.168-36.761-18.42-55.087a5262.483 5262.483 0 0 1-12.78-37.926 9670.095 9670.095 0 0 0-13.414-40.028l-.916-2.713c-2.162-6.409-4.326-12.816-6.49-19.224a88190.616 88190.616 0 0 1-8.32-24.643 9677.575 9677.575 0 0 1-13.221-39.49c-5.235-15.734-10.571-31.432-15.928-47.125-1.173-3.438-2.344-6.877-3.515-10.316l-1.08-3.155-.974-2.864-.86-2.517C892 593 892 593 892 592l1.945-.176c6.717-.61 13.434-1.228 20.15-1.85 2.502-.231 5.004-.46 7.507-.687 3.61-.328 7.219-.662 10.828-.998l3.356-.3c14.712-.969 14.712-.969 26.687-8.606 4.264-5.726 4.506-11.455 3.527-18.383-1.566-5.904-4.602-8.918-9.753-11.981-3.775-1.711-7.207-1.626-11.29-1.453l-2.705.058c-12.847.352-25.68 1.291-38.5 2.172-28.903 1.981-57.708 3.456-86.69 3.516l-2.018.006c-38.756.1-77.55-1.989-116.175-5.11-4.602-.334-9.194-.469-13.806-.52l-2.706-.088c-5.657-.055-8.883.594-13.357 4.4-5.096 5.662-6.41 9.65-6.25 17.176.473 5.34 1.747 9.36 5.688 13.199 4.677 2.966 8.501 4.07 14.011 4.66l2.215.253c1.552.176 3.105.348 4.658.517 2.313.252 4.626.516 6.938.783 8.358.944 16.696 1.678 25.1 2.067 3.947.193 7.755.616 11.64 1.345l.694 1.932a33083.05 33083.05 0 0 0 9.739 27.075 7724.407 7724.407 0 0 0 22.317 61.18 5878.527 5878.527 0 0 1 21.823 59.96c3.567 9.972 7.183 19.921 10.915 29.833l2.145 5.733a1302.8 1302.8 0 0 0 4.038 10.64c.594 1.584 1.186 3.168 1.778 4.752l.837 2.127c2.512 6.833 1.034 12.333-1.245 19.034l-.62 1.846c-.457 1.354-.916 2.708-1.378 4.06-.782 2.292-1.556 4.586-2.329 6.88a8459.52 8459.52 0 0 1-2.665 7.905c-3.702 10.958-7.352 21.933-11.006 32.907-2.332 7.004-4.666 14.008-7.001 21.01l-3.72 11.158a4780805.314 4780805.314 0 0 1-2.287 6.862L702 1126h-2l-.911-2.733-.612-1.837a256226.168 256226.168 0 0 1-5.357-16.067c-2.785-8.354-5.568-16.709-8.343-25.066-6.372-19.223-6.372-19.223-13.009-38.357-2.84-8.046-5.522-16.144-8.213-24.24l-1.592-4.78-4.144-12.456-3.914-11.766-.764-2.297c-15.02-45.292-15.02-45.292-30.379-90.47-3.472-10.07-6.849-20.171-10.211-30.279-4.591-13.8-9.215-27.59-13.863-41.37l-.949-2.812c-2.245-6.657-4.492-13.313-6.739-19.97-9.052-26.816-18.074-53.641-27-80.5a454507353.865 454507353.865 0 0 1-4.542-13.67 5617.95 5617.95 0 0 0-16.583-49.205 5335.207 5335.207 0 0 1-14.322-42.334c-2.639-7.895-5.24-15.793-7.553-23.791l3.08-.244a7629.88 7629.88 0 0 0 26.924-2.18c4.517-.375 9.035-.734 13.555-1.08 14.52-.872 14.52-.872 26.441-8.371 3.903-6.098 4.972-11.968 4-19.125-1.095-2.595-2.426-4.639-4-7v-2a174.883 174.883 0 0 0-4-2l-2.125-1.055c-3.754-1.234-7.281-1.24-11.187-1.195l-2.557.014c-15.905.21-31.852 1.473-47.697 2.771-8.196.64-16.402.835-24.618 1.07l-3.66.114-3.224.092c-3.323.16-6.612.415-9.925.7-7.43.585-14.828.616-22.277.587l-4.248-.005c-3.681-.003-7.362-.013-11.043-.024-3.774-.01-7.549-.015-11.324-.02-7.372-.01-14.743-.028-22.115-.049 1.238-3.176 2.463-5.93 4.434-8.715l1.45-2.058 1.554-2.165 1.614-2.266c5.1-7.106 10.452-13.992 15.948-20.796l2.266-2.82c15.493-19.117 31.835-38.382 50.632-54.356 2.12-1.84 4.17-3.746 6.219-5.666 6.417-5.992 13.155-11.439 20.114-16.787a400.465 400.465 0 0 0 5.171-4.086C595.598 373.11 690.648 337.244 789 330l2.334-.175c7.038-.51 14.076-.718 21.128-.928Z"/>
  <path fill="#626566" d="M832 868c2.74 1.37 2.801 2.672 3.822 5.533l1.07 2.968 1.159 3.28 1.23 3.424a2870.98 2870.98 0 0 1 2.642 7.394c2.127 5.978 4.277 11.949 6.424 17.92l2.233 6.216c4.451 12.395 9 24.752 13.571 37.103a7397.916 7397.916 0 0 1 23.287 63.85c5.785 16.08 11.57 32.16 17.5 48.187a11587.71 11587.71 0 0 1 18 49.063 789723.96 789723.96 0 0 0 25.688 70.384l3.558 9.74.712 1.952c3.29 9.008 6.573 18.017 9.852 27.029l5.529 15.18c1.254 3.443 2.507 6.885 3.758 10.328 6.69 18.494 6.69 18.494 13.922 36.78.87 2.225 1.542 4.337 2.043 6.669-25.121 8.27-50.008 14.937-76 20l-3.05.606c-72.388 14.187-153.498 9.532-223.95-12.606.626-6.54 2.635-12.427 4.75-18.625l1.188-3.522c4.237-12.496 8.633-24.937 13.022-37.38 6.268-17.774 12.436-35.579 18.352-53.473 4.115-12.436 8.45-24.79 12.807-37.143l1.666-4.724.826-2.343c2.615-7.42 5.198-14.852 7.764-22.29l1.115-3.224c2.02-5.867 4.002-11.746 5.956-17.635a1998.871 1998.871 0 0 1 10.922-31.946c1.637-4.67 3.269-9.343 4.902-14.015l.975-2.79a6620.32 6620.32 0 0 0 8.255-23.765l1.091-3.152c1.987-5.764 3.933-11.54 5.852-17.327 3.5-10.554 7.12-21.061 10.81-31.55 5.168-14.7 10.235-29.426 15.122-44.221a1334.755 1334.755 0 0 1 13.604-39.054c1.731-4.782 3.409-9.582 5.083-14.384l.908-2.601c.678-1.945 1.354-3.89 2.03-5.836ZM957 584c30.1 14.462 59.83 40.627 80 67 1 1.261 2.002 2.522 3.004 3.781 11.158 14.143 20.495 29.025 28.871 44.969l1.586 3.008c4.098 7.965 7.172 15.825 10.539 24.242l1-124c2.26 3.012 3.956 5.616 5.68 8.902l1.546 2.917 1.649 3.119c5.814 10.871 12.109 21.35 18.685 31.774 20.197 32.092 36.855 65.748 44.565 103.1l.481 2.295c2.804 14.194 3.75 28.271 3.644 42.706l-.011 2.387c-.285 51.002-15.575 100.76-33.552 148.112-4.453 11.734-8.065 23.606-11.521 35.667-2.106 7.3-4.315 14.57-6.504 21.845-1.246 4.14-2.49 8.281-3.732 12.422-1.455 4.846-2.911 9.692-4.37 14.536-4.389 14.577-8.674 29.183-12.953 43.792a6936.276 6936.276 0 0 1-5.662 19.228c-.644 2.18-1.286 4.362-1.925 6.545-.949 3.234-1.907 6.465-2.868 9.696l-.872 2.998c-.27.902-.54 1.804-.82 2.733l-.71 2.409C1072 1122 1072 1122 1070 1123l-1.031-3.201a4175.764 4175.764 0 0 0-23.151-69.753 99236.023 99236.023 0 0 1-3.019-8.828 3046.42 3046.42 0 0 1-8.611-25.656c-5.144-15.5-10.377-30.971-15.626-46.437l-1.248-3.68a8318.162 8318.162 0 0 0-11.931-34.972 2796.41 2796.41 0 0 1-16.863-50.495c-5.958-18.425-12.168-36.761-18.42-55.087a5262.483 5262.483 0 0 1-12.78-37.926 9670.091 9670.091 0 0 0-13.414-40.028l-.916-2.713c-2.162-6.409-4.326-12.816-6.49-19.224a88190.616 88190.616 0 0 1-8.32-24.643 9677.577 9677.577 0 0 1-13.221-39.49c-5.235-15.734-10.571-31.432-15.928-47.125a19101.92 19101.92 0 0 1-3.515-10.316l-1.08-3.155-.974-2.864-.86-2.517C892 593 892 593 892 592l1.945-.176c6.717-.61 13.434-1.228 20.15-1.85 2.502-.231 5.004-.46 7.507-.687 3.61-.328 7.219-.662 10.828-.998l3.356-.3c10.91-.746 10.91-.746 21.214-3.989Z"/>
  <path fill="#101517" d="M372 623c1.63 2.446 2.56 4.223 3.546 6.918l.889 2.412.96 2.643 1.028 2.804c1.134 3.093 2.262 6.19 3.39 9.285l2.4 6.564c7.133 19.506 14.19 39.039 21.252 58.57 4.765 13.179 9.55 26.348 14.41 39.491a12348.214 12348.214 0 0 1 18.063 49.25 29066092.938 29066092.938 0 0 0 17.847 48.91l.716 1.96 3.57 9.78 6.46 17.693 3.594 9.845a38509488.067 38509488.067 0 0 1 2.156 5.906l2.156 5.907.72 1.968a15165310.636 15165310.636 0 0 1 15.081 41.313l.718 1.966a166818.238 166818.238 0 0 0 17.457 47.802 24357.37 24357.37 0 0 1 15.74 43.193l1.254 3.455 2.484 6.843c.408 1.12.815 2.242 1.234 3.397l1.232 3.393c6.715 18.49 13.511 36.951 20.329 55.404 7.394 20.025 14.663 40.093 21.887 60.18a8155.019 8155.019 0 0 0 22.475 61.692c.987 2.679 1.97 5.358 2.955 8.038 1.424 3.874 2.866 7.74 4.314 11.606l2.253 6.066 1.087 2.871.976 2.643.875 2.336C608 1267 608 1267 607 1269c-43.632-21.957-83.634-49.221-119.399-82.517a833.604 833.604 0 0 0-5.19-4.756c-8.932-8.178-17.27-16.767-25.411-25.727l-2.559-2.781c-5.377-5.89-10.475-11.98-15.441-18.219l-1.535-1.921c-18.194-22.845-34.35-46.949-48.177-72.684a897.99 897.99 0 0 0-2.689-4.961c-13.346-24.49-23.669-50.04-32.599-76.434l-1.125-3.302c-4.576-13.515-8.375-27.01-11.294-40.975a435.417 435.417 0 0 0-1.854-8.223C321.64 848.342 326.06 764.556 371 624l1-1ZM1258 588c2.989 2.82 4.657 5.9 6.438 9.563l1.028 2.096c1.188 2.442 2.362 4.891 3.534 7.341l1.366 2.83C1286.55 643.482 1298.678 678.6 1307 715l.687 2.978c2.91 12.773 5.143 25.514 6.575 38.537.462 4.143.966 8.276 1.515 12.408 2.152 16.754 2.695 33.288 2.614 50.146-.017 3.582-.007 7.163.01 10.744.073 17.873-.84 35.32-3.02 53.078-.492 4.015-.94 8.035-1.386 12.055-7.344 62.57-31.241 125.082-62.995 179.054l-1.438 2.449A457.596 457.596 0 0 1 1200 1145l-1.91 2.21a752.845 752.845 0 0 1-5.09 5.79l-1.804 2.061c-6.212 7.016-12.762 13.659-19.398 20.272a2504.018 2504.018 0 0 0-5.581 5.587c-5.902 5.906-11.82 11.706-18.217 17.08l-2.922 2.563c-9.65 8.316-19.822 15.89-30.078 23.437l-1.91 1.418c-7.65 5.675-15.564 10.891-23.59 16.02l-2.863 1.83c-4.453 2.818-8.856 5.509-13.637 7.732 2.532-10.222 6.012-20.115 9.438-30.063a3490.217 3490.217 0 0 1 14.555-41.714c3.98-11.2 7.776-22.453 11.5-33.741a729.483 729.483 0 0 1 8.469-24.079c2.848-7.745 5.453-15.567 8.038-23.403 2.854-8.652 5.768-17.27 8.938-25.813 3.397-9.162 6.499-18.41 9.562-27.687 3.35-10.144 6.795-20.23 10.512-30.246 2.833-7.695 5.42-15.468 7.988-23.254 2.854-8.652 5.768-17.27 8.938-25.813 3.397-9.162 6.499-18.41 9.562-27.687 3.35-10.144 6.795-20.23 10.512-30.246 3.07-8.34 5.85-16.773 8.634-25.212a773.204 773.204 0 0 1 9.315-26.631c3.297-8.957 6.265-18.022 9.187-27.106 2.317-7.09 4.896-13.986 7.715-20.887 3.917-9.619 7.27-19.37 10.447-29.255.88-2.731 1.771-5.458 2.665-8.184 5.347-16.433 9.847-32.95 13.15-49.917l.767-3.9c4.848-25.01 7.464-49.632 7.369-75.127-.011-3.4 0-6.8.012-10.2A401.098 401.098 0 0 0 1258 588ZM597 816h208c-8.04 25.27-8.04 25.27-11.486 35.58l-1.206 3.62-3.237 9.702c-1.174 3.518-2.346 7.036-3.519 10.555-2.022 6.069-4.046 12.137-6.07 18.205-2.928 8.774-5.853 17.547-8.779 26.321-4.747 14.242-9.497 28.483-14.247 42.724a405130.119 405130.119 0 0 0-18.977 56.906C725.655 1055.076 713.828 1090.538 702 1126h-2l-.911-2.733-.612-1.837a256129.272 256129.272 0 0 1-5.357-16.067 20127.77 20127.77 0 0 1-8.343-25.066c-6.372-19.223-6.372-19.223-13.009-38.357-2.84-8.046-5.522-16.144-8.213-24.24l-1.592-4.78-4.144-12.456-3.914-11.766-.764-2.297c-15.144-45.585-15.144-45.585-30.579-91.072-4.92-14.334-9.718-28.708-14.488-43.094a2686.438 2686.438 0 0 0-4.82-14.372l-1.286-3.815c-.79-2.34-1.582-4.68-2.38-7.018l-1.041-3.096-.911-2.686C597 819 597 819 597 816ZM832 1098h85c5.624 13.498 5.624 13.498 7.365 18.359l1.198 3.33 1.246 3.49 2.035 5.667c.712 1.983 1.423 3.966 2.133 5.95 2.232 6.234 4.473 12.465 6.715 18.695l1.49 4.143c4.125 11.466 8.3 22.913 12.533 34.34a5887.155 5887.155 0 0 1 11.266 30.689l2.324 6.38c4.26 11.698 4.26 11.698 6.215 17.08 1.45 3.99 2.9 7.979 4.355 11.967l.695 1.908c2.99 8.191 6.063 16.333 9.407 24.387.863 2.206 1.525 4.304 2.023 6.615-25.121 8.27-50.008 14.937-76 20l-3.05.606c-13.18 2.584-26.39 4.03-39.763 5.144l-2.314.198c-11.689.978-23.094 1.052-34.873 1.052v-220ZM914.768 589.728C930.991 588.252 941.45 592.292 955 601l2.798 1.766C967.596 608.99 977.166 615.454 986 623l2.809 2.258c13.992 11.34 27.392 24.3 38.191 38.742l2.516 3.258C1061.844 709.664 1082 762.394 1082 816H967l-12-36a16223.2 16223.2 0 0 0-7.013-20.855l-3.038-9.011L938.5 731l-8.531-25.312-1.045-3.102c-4.72-14.012-9.414-28.033-14.08-42.063-5.196-15.62-10.495-31.203-15.813-46.781-1.173-3.438-2.344-6.877-3.515-10.316l-1.08-3.155-.974-2.864-.86-2.517C892 593 892 593 892 592a456.298 456.298 0 0 1 17.087-1.755c1.895-.16 3.789-.331 5.681-.517ZM753 1098h63v220c-27.032 0-27.032 0-38.25-1.125l-1.978-.192c-30.427-2.991-61.598-8.516-90.772-17.683.626-6.54 2.635-12.427 4.75-18.625l1.188-3.522c4.237-12.496 8.633-24.937 13.022-37.38 6.268-17.774 12.436-35.579 18.352-53.473 4.112-12.427 8.441-24.772 12.798-37.114a3761.526 3761.526 0 0 0 11.732-33.753l1.135-3.309.97-2.84c1.299-3.68 2.683-7.33 4.053-10.984Z"/>
  <path fill="#626566" d="M274 842h1l.136 3.063c1.172 26.385 1.172 26.385 4.49 52.566.39 2.472.698 4.944.987 7.43 1.794 15.182 5.136 29.913 8.679 44.763 1.217 5.46 1.831 10.545 1.815 16.148l-.001 2.062c-.003 2.28-.013 4.558-.024 6.837l-.01 4.953c-.009 4.536-.024 9.071-.04 13.607-.017 4.892-.028 9.783-.04 14.675-.02 8.474-.045 16.949-.071 25.424-.04 12.252-.073 24.505-.105 36.758-.052 19.88-.108 39.759-.168 59.638a223701.484 223701.484 0 0 0-.224 79.454c-.135 49.54-.277 99.081-.424 148.622l2.522-.016a75012.823 75012.823 0 0 1 166.344-.85l3.596-.016c19.135-.083 38.27-.195 57.406-.317 19.679-.125 39.358-.22 59.038-.285 12.113-.041 24.226-.106 36.34-.202 8.34-.065 16.681-.098 25.022-.108 4.791-.007 9.58-.026 14.371-.082 22.914-.259 43.771 1.78 66.015 7.383 11.135 2.75 22.592 4.51 34.002 5.626l2.417.249c1.653.169 3.306.335 4.959.498 2.468.245 4.935.5 7.402.757 10.844 1.107 21.678 1.851 32.566 2.363v1H274V842ZM1373 852h1v522H842v-1l2.588-.152c35.777-2.117 70.37-5.832 105.298-14.155 5.437-1.21 10.505-1.816 16.084-1.8l2.062.001c2.28.003 4.558.013 6.837.024l4.953.01c4.536.009 9.071.024 13.607.04 4.892.017 9.783.028 14.675.04 8.474.02 16.949.045 25.424.071 12.252.04 24.505.073 36.758.105 19.88.052 39.759.108 59.638.168 19.311.058 38.623.113 57.934.166l3.607.01 17.913.048c49.54.135 99.081.277 148.622.424l-.012-2.547a122695.61 122695.61 0 0 1-.703-171.242c-.07-19.299-.158-38.597-.253-57.895-.096-19.82-.174-39.638-.233-59.458-.038-12.218-.09-24.435-.162-36.653-.047-8.392-.076-16.784-.09-25.176-.01-4.833-.026-9.665-.066-14.498-.283-36.04-.283-36.04 4.903-52.405 1.132-3.907 1.815-7.907 2.53-11.907l.458-2.548c.426-2.389.84-4.78 1.253-7.171l.45-2.584c3.559-20.508 5.883-41.12 6.925-61.916Z"/>
  <path fill="#646768" d="M274 274h532v1l-1.815.028c-31.089.594-63.056 3.551-93.18 11.52-19.746 5.056-38.726 5.254-58.987 5.064-4.877-.039-9.753-.042-14.629-.05a5656.63 5656.63 0 0 1-25.243-.113c-12.165-.08-24.33-.126-36.495-.164-19.745-.063-39.49-.152-59.234-.26-19.162-.103-38.323-.194-57.484-.268l-3.59-.014-17.828-.068C388.343 290.49 339.17 290.26 290 290l.014 2.528a86168.75 86168.75 0 0 1 .798 166.613l.014 3.6c.079 19.17.183 38.341.296 57.512.116 19.708.204 39.415.268 59.123.04 12.137.1 24.273.189 36.409.058 8.35.09 16.7.102 25.05.007 4.801.025 9.6.076 14.4.224 22.097-1.306 42.092-6.935 63.523-6.347 25.033-7.795 51.567-9.822 77.242h-1V274ZM852 274h522v522h-1l-.104-1.891c-1.396-24.055-3.535-48.476-9.119-71.96-5.74-24.265-8.06-46.977-7.737-71.872.053-4.866.05-9.732.056-14.598.016-8.373.065-16.746.138-25.119.105-12.105.158-24.21.2-36.315.069-19.653.178-39.307.314-58.96.132-19.059.244-38.117.33-57.176l.017-3.577.079-17.772c.216-48.92.5-97.84.826-146.76l-2.541.013a101707.676 101707.676 0 0 1-167.356.744l-3.614.014c-19.262.074-38.525.17-57.787.274-19.791.106-39.582.189-59.373.25-12.195.04-24.39.096-36.584.176-8.383.053-16.765.083-25.148.096-4.824.008-9.647.026-14.47.07-20 .18-38.336-.273-57.701-5.942-9.839-2.818-19.984-4.37-30.114-5.695l-3.805-.505c-15.78-2.041-31.646-3.267-47.507-4.495v-1Z"/>
  <path fill="#101517" d="M596 566h66l3 12c2.612 4.413 5.339 6 10 8 2.762.483 5.392.847 8.172 1.098l2.314.241a978.2 978.2 0 0 0 7.264.723c2.436.24 4.872.481 7.307.734 1.51.157 3.022.305 4.534.444 5.184.535 5.184.535 7.409 2.76l-3.418 1.695C685.058 605.59 663.945 620.718 645 639l-1.783 1.717C635.609 648.08 628.435 655.569 622 664l-1.235 1.593C601.07 691.103 581.841 722.903 576 755c-1.81-3.36-3.01-6.793-4.208-10.413l-.643-1.933c-.703-2.117-1.403-4.235-2.102-6.353a10596.448 10596.448 0 0 1-4.655-14.032c-2.738-8.268-5.487-16.532-8.236-24.796-.27-.814-.54-1.628-.82-2.466a4149.823 4149.823 0 0 0-13.086-38.757 4693.796 4693.796 0 0 1-12.938-38.188l-.762-2.279c-2.638-7.892-5.237-15.788-7.55-23.783l3.08-.244c8.975-.712 17.95-1.437 26.924-2.18 4.517-.375 9.035-.734 13.555-1.08 14.241-1.093 14.241-1.093 26.379-8.058 2.864-4.423 2.864-4.423 5.062-14.438Z"/>
  <path fill="#111517" d="M372 623c1.63 2.446 2.56 4.223 3.546 6.918l.889 2.412.96 2.643 1.028 2.804c1.134 3.093 2.262 6.19 3.39 9.285l2.4 6.564c7.132 19.504 14.19 39.035 21.25 58.564 4.788 13.242 9.595 26.476 14.474 39.685l.786 2.126 1.602 4.336.835 2.26.854 2.312c4.202 11.375 8.383 22.757 12.561 34.14 1.274 3.471 2.549 6.941 3.825 10.411 1.428 3.884 2.854 7.769 4.28 11.653l1.323 3.596 1.2 3.273 1.056 2.876C449 831 449 831 449 832H330v11h-1c-.91-75 10.258-150.366 42-219l1-1Z"/>
  <path fill="#111617" d="M1258 588c2.989 2.82 4.657 5.9 6.438 9.563l1.028 2.096c1.188 2.442 2.362 4.891 3.534 7.341l1.366 2.83C1286.55 643.482 1298.678 678.6 1307 715l.687 2.978c3.17 13.912 5.406 27.779 6.957 41.959.353 3.041.77 6.067 1.204 9.098 2.838 21.427 2.152 40.698 2.152 62.965h-100c.716-4.293 1.346-7.31 2.863-11.227l1.171-3.071 1.278-3.327c8.932-23.694 17.42-47.826 23.688-72.375l.74-2.889c3.243-12.874 5.868-25.825 8.01-38.923l.602-3.64c2.905-18.497 3.979-36.797 3.909-55.513-.011-3.4 0-6.8.012-10.2A401.098 401.098 0 0 0 1258 588Z"/>
  <path fill="#101517" d="M973 832h109c0 53.415-20.172 105.62-52 148l-2.16 2.887L1026 985h-2a154541.907 154541.907 0 0 1-13.986-41.386c-1.72-5.085-3.437-10.17-5.155-15.255l-.865-2.563a9158.693 9158.693 0 0 1-13.158-39.3 3202.009 3202.009 0 0 0-12.941-38.087 4387.77 4387.77 0 0 1-2.473-7.167l-.748-2.145C973 834.227 973 834.227 973 832ZM967 566h104l2 11c.872 3.056.872 3.056 1.91 5.598l1.06 2.736 1.092 2.729 1.104 2.833c1.78 4.613 1.78 4.613 3.834 9.104a94.22 94.22 0 0 1 .12 5.176l.004 3.323-.01 3.662v3.843c0 3.483-.006 6.966-.013 10.45-.006 3.638-.006 7.276-.008 10.914-.003 6.892-.011 13.784-.021 20.676-.011 7.845-.017 15.69-.022 23.535-.01 16.14-.028 32.28-.05 48.421-1.638-2.456-2.683-4.454-3.777-7.148-10.737-26.004-24.268-50.097-42.223-71.852l-1.446-1.754C1023.23 635.633 1011.048 622.827 997 612l-3.04-2.414C982.537 600.565 970.32 592.734 958 585l1.242-1.61 1.633-2.14 1.617-2.11c3.303-4.689 3.628-6.983 4.508-13.14Z"/>
  <path fill="#111517" d="M832 868c2.74 1.37 2.801 2.672 3.822 5.533l1.07 2.968 1.159 3.28 1.23 3.424a2870.98 2870.98 0 0 1 2.642 7.394c2.127 5.978 4.277 11.949 6.424 17.92l2.233 6.216c4.869 13.557 9.857 27.069 14.857 40.577 5.552 15.011 11.067 30.034 16.493 45.09l.748 2.078c2.628 7.293 5.249 14.588 7.865 21.885l2.602 7.244 1.249 3.48a885.583 885.583 0 0 0 9.28 24.62l.934 2.397c.27.685.54 1.369.82 2.074.572 1.82.572 1.82.572 4.82-16.992 5.766-33.772 9.441-51.563 11.75l-2.953.387-2.863.347-2.486.304c-4.702.318-9.423.212-14.135.212V868ZM1098 633c2.935 2.935 4.66 4.772 6.664 8.168l1.446 2.43 1.515 2.59 1.597 2.7c1.08 1.83 2.16 3.66 3.235 5.492a903.64 903.64 0 0 0 4.2 7.05c10.72 17.887 19.794 36.112 27.343 55.57l.922 2.369c3.688 9.683 6.115 19.579 8.328 29.693l.747 3.404c3.253 15.582 4.296 30.712 4.128 46.596L1158 816h-60V633Z"/>
  <path fill="#101517" d="M1098 832h57c0 9.023 0 9.023-.848 13.738l-.572 3.189c-6.457 34.026-16.607 67.023-28.892 99.385-4.445 11.708-8.054 23.555-11.504 35.587-2.202 7.652-4.47 15.283-6.742 22.913-.808 2.72-1.607 5.44-2.406 8.161l-1.497 5.03-.687 2.361c-1.624 5.408-1.624 5.408-3.852 7.636V832ZM1081 918h1v164h-25c-5.414-14.441-10.41-28.983-15.25-43.625l-2.14-6.45c-3.48-10.483-3.48-10.483-4.765-14.403a199.463 199.463 0 0 0-1.767-5.047c-.285-.79-.57-1.58-.862-2.394l-.782-2.098c-.523-2.388-.274-3.7.566-5.983a133.225 133.225 0 0 1 4.938-6.375c9.333-11.633 17.73-23.628 25.062-36.625l1.219-2.16c6.995-12.53 12.587-25.471 17.781-38.84Z"/>
  <path fill="#111618" d="M815 918h1v164c-33.36-2.3-33.36-2.3-43.313-4.625l-3.216-.695A513.19 513.19 0 0 1 762 1075c.53-6.9 2.504-12.737 4.938-19.188a904494725.495 904494725.495 0 0 1 3.752-10.207c2.214-6.094 4.326-12.223 6.435-18.355l1.16-3.36a1770.19 1770.19 0 0 0 6.179-18.304c3.838-11.568 7.815-23.084 11.848-34.586 1.313-3.748 2.623-7.497 3.934-11.246l.972-2.778a3693.943 3693.943 0 0 0 5.942-17.136l.717-2.083c1.083-3.15 2.163-6.302 3.241-9.454l1.124-3.276.965-2.82C814 920 814 920 815 918Z"/>
  <path fill="#636666" d="M816 1374h16v274h-16v-274Z"/>
  <path fill="#636667" d="M1374 816h274v16h-274v-16ZM0 816h274v16H0v-16ZM816 0h16v274h-16V0Z"/>
  <path fill="#656868" d="M809 329h34v1h-11v220h56v1c-45.999 2.974-93.04 4.19-139 0v-1h67V330h-7v-1Z"/>
  <path fill="#616465" d="M681 587c3.146.312 6.292.624 9.438.938l2.662.263c1.763.176 3.527.355 5.29.537 1.735.174 3.47.335 5.208.481l2.437.222 2.172.182C710 590 710 590 712 592l-3.418 1.695C685.058 605.59 663.945 620.718 645 639l-1.783 1.717C635.609 648.08 628.435 655.569 622 664l-1.235 1.593C601.07 691.103 581.841 722.903 576 755c-2.425-4.631-4.008-9.499-5.688-14.438l-1.01-2.853-.939-2.768-.866-2.51C564.334 716.962 583.894 689.586 592 677c10.413-15.712 21.92-30.43 35-44l1.619-1.685c7.066-7.318 14.327-14.077 22.381-20.315l1.907-1.5c9.383-7.38 18.915-14.258 29.093-20.5l-1-2Z"/>
  <path fill="#636667" d="M597 816h208l-5 17-198-1c-4-10-4-10-5-16Z"/>
  <path fill="#616364" d="M566 589v135c-2.334-3.5-3.477-7.077-4.766-11.04l-.817-2.472c-.585-1.772-1.169-3.545-1.75-5.318-1.57-4.784-3.154-9.563-4.737-14.342-.49-1.477-.49-1.477-.988-2.985-3.291-9.928-6.673-19.825-10.067-29.718a5251.607 5251.607 0 0 1-14.322-42.334c-2.639-7.895-5.24-15.793-7.553-23.791a9529.2 9529.2 0 0 1 15.369-1.282c1.74-.144 3.48-.29 5.22-.436 2.511-.212 5.024-.42 7.536-.626l2.327-.199 2.243-.182 1.938-.161c3.452-.166 6.911-.114 10.367-.114Z"/>
  <path fill="#616465" d="M668 1030c4.821 2.684 9.39 5.567 13.938 8.688 13.036 8.79 26.763 15.817 41.062 22.312-2.098 8.075-4.57 15.98-7.23 23.887l-1.198 3.585c-1.25 3.74-2.505 7.477-3.76 11.216-.854 2.55-1.707 5.102-2.56 7.654-2.08 6.22-4.165 12.44-6.252 18.658h-2l-.911-2.733-.612-1.837a256129.271 256129.271 0 0 1-5.357-16.067c-2.785-8.354-5.568-16.709-8.343-25.066l-3.09-9.297-.76-2.286c-3.235-9.725-6.514-19.432-9.961-29.085-1.137-3.19-2.181-6.337-2.966-9.629Z"/>
  <path fill="#636667" d="M329 809h1v7l113-1 6 17H330v11h-1v-34ZM1068 539h1l1 27H967l-3-10-4-6h108v-11Z"/>
  <path fill="#616465" d="m1223 815 95 1v16h-100c1-6 1-6 5-17Z"/>
  <path fill="#111617" d="M550 590v86c-2.86-2.86-3.613-6.35-4.836-10.117l-.835-2.524c-.907-2.743-1.806-5.488-2.704-8.234a9524.25 9524.25 0 0 0-1.874-5.678c-1.284-3.89-2.565-7.78-3.845-11.67a3490.937 3490.937 0 0 0-5.465-16.433l-.841-2.516c-1.065-3.178-2.129-6.357-3.195-9.535l-2.175-6.504-1.237-3.697c-.757-2.358-1.44-4.68-1.993-7.092 4.458-.335 8.917-.667 13.375-1l3.852-.29 3.671-.273 3.396-.253A69.538 69.538 0 0 1 550 590Z"/>
  <path fill="#646768" d="M588 550h82l-6 9-2 7h-66l-4-12-1-2-3-1v-1Z"/>
  <path fill="#606364" d="M668 1030c4.821 2.684 9.39 5.567 13.938 8.688 13.036 8.79 26.763 15.817 41.062 22.312-3.075 11.522-3.075 11.522-5 17l-1-2c-1.722-.7-1.722-.7-3.832-1.254-5.978-1.884-11.336-4.747-16.856-7.684l-3.048-1.591c-4.937-2.6-9.706-5.249-14.264-8.471l-2 1c-1.315-3.916-2.627-7.833-3.938-11.75l-1.13-3.367-1.084-3.242-1-2.984A86.29 86.29 0 0 1 668 1030ZM1082 1081c1.03 4.12.936 5.087-.293 8.93l-.905 2.892-.99 3.053a5817.94 5817.94 0 0 0-1.96 6.219l-.968 3.054c-1.487 4.798-2.78 9.644-4.06 14.5C1072 1122 1072 1122 1070 1123c-1.853-5.678-3.705-11.356-5.554-17.035-.63-1.933-1.26-3.867-1.892-5.8-.905-2.772-1.808-5.545-2.71-8.317l-.862-2.636c-1.982-6.098-1.982-6.098-1.982-7.212l25-1Z"/>
  <path fill="#111618" d="M678 1056a61944.89 61944.89 0 0 1 8.6 4.585 1826.57 1826.57 0 0 1 10.42 5.587c6.557 3.54 13.105 6.933 19.98 9.828.043 1.666.04 3.334 0 5-1 1-1 1-3.867 1.114l-3.793-.016-2.014-.005c-2.13-.005-4.259-.018-6.389-.03A3970.039 3970.039 0 0 1 686 1082c-2.196-5.42-4.376-10.831-6.249-16.375l-1.016-2.96C678 1060 678 1060 678 1056Z"/>
  <path fill="#131819" d="M692 1098h18c-.66 4.62-1.18 8.033-2.629 12.277l-.947 2.803-.986 2.858-.999 2.939A1656.21 1656.21 0 0 1 702 1126h-2a3045.366 3045.366 0 0 1-4-11.75l-1.156-3.367-1.094-3.242-1.016-2.984C692 1102 692 1102 692 1098Z"/>
  <path fill="#14181A" d="M1063 1098h15c-1.474 8.11-3.231 16.223-6 24l-2 1a3563.932 3563.932 0 0 1-3.5-10.813l-1.012-3.103-.957-2.979-.888-2.745C1063 1101 1063 1101 1063 1098Z"/>
</svg>
