<svg id="woocommerce-logo" width="60" height="24" viewBox="0 0 60 24" fill="none"
	xmlns="http://www.w3.org/2000/svg">
	<path d="M7.54838 19.653C9.27555 19.653 10.6616 18.8 11.7064 16.8383L14.0306 12.4884V16.1773C14.0306 18.3523 15.4379 19.653 17.6129 19.653C19.3187 19.653 20.5768 18.9067 21.7922 16.8383L27.1443 7.79732C28.3171 5.81427 27.4855 4.32166 24.9054 4.32166C23.5194 4.32166 22.6238 4.76944 21.8135 6.28338L18.1246 13.2134V7.05101C18.1246 5.21723 17.2504 4.32166 15.6298 4.32166C14.3505 4.32166 13.3269 4.87606 12.538 6.41132L9.06232 13.2134V7.11498C9.06232 5.15326 8.25204 4.32166 6.29032 4.32166H2.28157C0.767632 4.32166 0 5.02532 0 6.32603C0 7.62674 0.810278 8.37305 2.28157 8.37305H3.92345V16.156C3.92345 18.3523 5.39475 19.653 7.54838 19.653Z" fill="#873EFF"/>
	<path d="M34.9709 4.32166C30.5997 4.32166 27.252 7.58409 27.252 11.998C27.252 16.4119 30.621 19.653 34.9709 19.653C39.3208 19.653 42.6472 16.3905 42.6686 11.998C42.6686 7.58409 39.3208 4.32166 34.9709 4.32166ZM34.9709 14.9406C33.329 14.9406 32.1989 13.7038 32.1989 11.998C32.1989 10.2921 33.329 9.03406 34.9709 9.03406C36.6128 9.03406 37.7429 10.2921 37.7429 11.998C37.7429 13.7038 36.6341 14.9406 34.9709 14.9406Z" fill="#873EFF"/>
	<path d="M51.4525 4.32166C47.1026 4.32166 43.7549 7.58409 43.7549 11.998C43.7549 16.4119 47.1026 19.653 51.4525 19.653C55.8024 19.653 59.1502 16.3905 59.1502 11.998C59.1502 7.60541 55.8024 4.32166 51.4525 4.32166ZM51.4525 14.9406C49.7893 14.9406 48.7018 13.7038 48.7018 11.998C48.7018 10.2921 49.8106 9.03406 51.4525 9.03406C53.0944 9.03406 54.2245 10.2921 54.2245 11.998C54.2245 13.7038 53.0944 14.9406 51.4525 14.9406Z" fill="#873EFF"/>
</svg>
