<svg width="172" height="112" viewBox="0 0 172 112" fill="none" xmlns="http://www.w3.org/2000/svg">
<g clip-path="url(#clip0_2_14741)">
<path d="M88.1491 99.501C115.441 99.501 137.566 77.3764 137.566 50.0843C137.566 22.7923 115.441 0.667664 88.1491 0.667664C60.857 0.667664 38.7324 22.7923 38.7324 50.0843C38.7324 77.3764 60.857 99.501 88.1491 99.501Z" fill="#F7F8FE"/>
<mask id="mask0_2_14741" style="mask-type:luminance" maskUnits="userSpaceOnUse" x="0" y="0" width="172" height="110">
<path d="M0 0H171.623V109.518H0V0Z" fill="white"/>
</mask>
<g mask="url(#mask0_2_14741)">
<path d="M50.6634 48.2021C49.7017 47.5043 49.2903 46.598 48.8101 45.6909L47.3681 42.9705C46.8879 42.0635 46.4758 41.0869 46.0637 40.1799C45.6516 39.2041 45.1714 38.297 45.1714 37.1106C45.1714 36.9716 45.2402 36.9014 45.3771 36.9014C45.4459 36.9014 45.4459 36.9014 45.5147 36.9716C46.4758 37.6687 46.8879 38.5757 47.3681 39.4828L48.8094 42.2032C49.2215 43.1095 49.7024 44.0868 50.1138 44.9931C50.5258 45.9696 51.0067 46.8767 51.0067 48.0624C51.0067 48.2021 50.9379 48.2716 50.8003 48.2716C50.7315 48.2021 50.7315 48.2021 50.6634 48.2021ZM46.2013 32.9257C45.1026 31.8797 44.4848 30.5535 43.7982 29.2983C43.1116 28.0423 42.4938 26.7169 41.876 25.4616C41.2582 24.1362 40.6404 22.8802 40.0914 21.5548C39.5417 20.23 38.8558 18.9741 38.7182 17.4394C38.7182 17.3692 38.787 17.2302 38.8558 17.2302C38.9239 17.2302 38.9927 17.2302 38.9927 17.3004C40.0914 18.3464 40.7092 19.6719 41.3958 20.9271C42.0817 22.1831 42.6995 23.5085 43.318 24.7638C43.9358 26.0892 44.5536 27.3445 45.1026 28.6699C45.6516 29.9954 46.3382 31.2513 46.4758 32.786C46.4758 32.8562 46.407 32.9952 46.3382 32.9952C46.3382 32.925 46.2694 32.925 46.2013 32.925V32.9257ZM49.9769 28.5309C49.3591 27.6934 49.3591 26.7864 49.2215 25.9495C49.0846 25.0425 49.0158 24.2057 48.9477 23.2986C48.8782 22.3916 48.8782 21.5548 48.8782 20.6477C48.8782 19.7414 48.7413 18.9038 49.2222 17.9968C49.2903 17.9273 49.4279 17.8578 49.496 17.9273L49.5648 17.9975C50.1825 18.8343 50.1825 19.7414 50.3201 20.5782C50.457 21.4853 50.5258 22.3221 50.5939 23.2291C50.6634 24.1355 50.6634 24.973 50.6634 25.88C50.6634 26.7864 50.8003 27.6239 50.3194 28.5302C50.2514 28.6706 50.1138 28.6713 49.9769 28.5309C49.9769 28.6011 49.9769 28.6011 49.9769 28.5309ZM55.0568 47.2256C54.7823 45.6909 55.0568 44.2953 55.2625 42.901C55.4689 41.5054 55.6746 40.0402 55.9491 38.6452C56.2236 37.2503 56.4981 35.7851 56.7733 34.3902C57.0471 32.9952 57.2535 31.5301 58.0777 30.2046C58.1458 30.1344 58.2146 30.0649 58.3515 30.1344C58.4203 30.1344 58.4203 30.2046 58.4203 30.2748C58.6948 31.8088 58.4203 33.2044 58.2146 34.5994C58.0089 35.9943 57.8025 37.4595 57.528 38.8544C57.2535 40.2501 56.979 41.7146 56.7045 43.1095C56.43 44.5052 56.2236 45.9696 55.4001 47.2951C55.3313 47.3653 55.2625 47.4348 55.1256 47.3653C55.0568 47.2951 55.0568 47.2256 55.0568 47.2256ZM56.979 23.9263C56.5669 22.9504 56.7726 22.0434 56.9102 21.1363C57.0478 20.2293 57.1847 19.323 57.3223 18.4854C57.528 17.5791 57.6656 16.7416 57.8713 15.8345C58.077 14.9282 58.2146 14.0907 58.9012 13.2538C58.97 13.1836 59.1069 13.1836 59.1757 13.2538L59.2445 13.324C59.6566 14.2999 59.4502 15.2069 59.3133 16.1139C59.1757 17.021 59.0388 17.9273 58.9012 18.7648C58.6948 19.6712 58.5579 20.5087 58.3522 21.415C58.1458 22.3221 58.0082 23.1596 57.3223 23.9965C57.2535 24.0667 57.1166 24.0667 57.0478 23.9965C57.0478 23.9965 56.979 23.9965 56.979 23.9263ZM64.05 27.5537C63.8436 26.4375 64.1869 25.5311 64.4621 24.5546C64.7359 23.578 65.0111 22.671 65.2856 21.6945C65.6289 20.7874 65.9034 19.8109 66.3154 18.9038C66.6587 17.9975 66.9332 17.021 67.7567 16.2536C67.8255 16.1834 67.9631 16.1834 68.0312 16.2536L68.1 16.3231C68.3057 17.4394 67.9631 18.3457 67.6879 19.323C67.4141 20.2988 67.1389 21.2058 66.8644 22.1824C66.5211 23.0894 66.2467 24.066 65.8346 24.973C65.4913 25.88 65.2168 26.8566 64.3933 27.6239C64.3245 27.6941 64.1869 27.6941 64.1188 27.6239C64.05 27.6239 64.05 27.6239 64.05 27.5537ZM73.3176 31.8783C73.18 30.9726 73.5921 30.3443 73.9354 29.716C74.2787 29.0884 74.622 28.3912 74.9653 27.7629C75.3086 27.1353 75.72 26.5077 76.1321 25.88C76.5442 25.2517 76.8875 24.6241 77.711 24.2752C77.8486 24.2057 77.9167 24.2752 77.9855 24.4156V24.4844C78.1231 25.3914 77.711 26.019 77.3677 26.6467C77.0244 27.275 76.6811 27.9728 76.3378 28.6004C75.9945 29.2281 75.5831 29.8557 75.171 30.484C74.7589 31.1116 74.4156 31.7393 73.5921 32.0882C73.5233 32.0882 73.3864 32.0173 73.3176 31.8783ZM63.4322 41.3663C63.5003 40.1806 64.05 39.3438 64.5302 38.4367C65.0111 37.5297 65.492 36.6234 66.041 35.7163C66.5899 34.8093 67.0701 33.9725 67.6879 33.0654C68.2376 32.2286 68.7178 31.3215 69.7477 30.6939C69.8165 30.6237 69.9534 30.6939 70.0222 30.7641V30.9031C69.9534 32.0889 69.4044 32.9257 68.9242 33.8327C68.4433 34.7398 67.9624 35.6468 67.4134 36.5532C66.8644 37.4602 66.3835 38.297 65.7658 39.2041C65.2168 40.0409 64.7366 40.9479 63.7067 41.5756C63.6379 41.6458 63.5003 41.5756 63.4322 41.5061C63.5003 41.4358 63.4322 41.3663 63.4322 41.3663ZM58.6267 51.0629C58.9005 50.0169 59.6559 49.3886 60.2744 48.6907C60.8922 47.9936 61.5788 47.3653 62.2647 46.6682C62.9513 46.0405 63.6379 45.4122 64.3933 44.7846C65.0799 44.157 65.7658 43.5293 66.7956 43.2499C66.9332 43.2499 67.002 43.3201 67.002 43.3896V43.4598C66.7268 44.5059 65.9722 45.1335 65.3544 45.8306C64.7366 46.5285 64.05 47.1561 63.3634 47.8539C62.6768 48.4815 61.9902 49.1099 61.2355 49.7375C60.5489 50.3651 59.8623 50.9927 58.8324 51.2721C58.6948 51.2721 58.6267 51.2019 58.6267 51.1324V51.0629ZM77.0932 49.5283C77.5741 48.6907 78.26 48.4822 78.8778 48.1333C79.5644 47.7844 80.1822 47.505 80.8688 47.1561L82.9285 46.3192C83.6151 46.0405 84.301 45.7611 85.194 45.9703C85.3309 45.9703 85.3997 46.11 85.3309 46.2497V46.3199C84.8507 47.1561 84.1641 47.366 83.5463 47.7142C82.8597 48.0631 82.242 48.3425 81.5554 48.6907L79.4956 49.5283C78.8097 49.807 78.1231 50.0864 77.2308 49.8772C77.1445 49.7812 77.0956 49.6573 77.0932 49.5283ZM79.153 56.1555C80.251 55.6669 81.3497 55.8059 82.4476 55.8059C83.5463 55.8059 84.6443 55.8761 85.743 55.9463C86.8417 56.0158 87.9397 56.0853 89.0384 56.225C90.1364 56.364 91.2351 56.364 92.265 56.9924C92.3331 57.0619 92.4019 57.2016 92.3331 57.2711C92.3331 57.3413 92.265 57.3413 92.265 57.3413C91.1663 57.8292 90.0676 57.6895 88.9696 57.6895C87.8709 57.6895 86.7729 57.6193 85.6742 57.5505C84.5762 57.4803 83.4775 57.4101 82.3788 57.2711C81.2809 57.1314 80.1822 57.1314 79.153 56.5037C79.0842 56.4335 79.0154 56.364 79.0842 56.225C79.0842 56.1548 79.153 56.1555 79.153 56.1555ZM58.6267 54.4812C59.5878 53.9925 60.4801 54.1323 61.3724 54.2018C62.2647 54.2018 63.2258 54.3415 64.1188 54.411C65.0104 54.5507 65.9034 54.6202 66.8644 54.7599C67.7567 54.8996 68.649 54.9691 69.542 55.5967C69.6101 55.6669 69.6789 55.8059 69.6101 55.8761L69.542 55.9463C68.5802 56.4342 67.6886 56.2945 66.7956 56.225C65.9034 56.225 64.9423 56.0846 64.05 56.0151C63.1577 55.8761 62.2647 55.8059 61.3036 55.6669C60.412 55.5272 59.519 55.4577 58.6267 54.8294C58.5579 54.7599 58.4891 54.6202 58.5579 54.5507C58.6267 54.5507 58.6267 54.4812 58.6267 54.4812ZM68.1681 47.5745C68.7859 46.5973 69.747 46.1093 70.6393 45.5512C71.5316 44.9931 72.4246 44.5052 73.3169 44.0166C74.2178 43.5239 75.1335 43.0587 76.0626 42.6216C77.0237 42.2032 77.916 41.6451 79.0835 41.6451C79.2204 41.6451 79.2892 41.7153 79.2892 41.8543V41.994C78.6714 42.9698 77.7103 43.4584 76.818 44.0166C75.9257 44.5747 75.0327 45.0626 74.1404 45.5512C73.2395 46.0438 72.3238 46.509 71.3947 46.9462C70.4336 47.3653 69.5413 47.9227 68.3738 47.9227C68.2369 47.9227 68.1681 47.8532 68.1681 47.7135C68.0993 47.644 68.0993 47.644 68.1681 47.5745ZM57.3216 56.8513C58.4884 56.9215 59.3126 57.4789 60.2049 57.9675C61.0972 58.4554 61.9895 59.0135 62.8137 59.5022C63.6372 60.0603 64.5295 60.6184 65.3537 61.1758C66.1772 61.734 67.0694 62.2219 67.6872 63.2686C67.756 63.3388 67.6872 63.4778 67.6191 63.548H67.4815C66.3148 63.4778 65.4906 62.9204 64.5983 62.4318C63.706 61.9432 62.8137 61.3857 61.9895 60.8971C61.166 60.339 60.2737 59.7809 59.4495 59.2228C58.626 58.6646 57.733 58.1767 57.1152 57.1307C57.0471 57.0605 57.1152 56.9208 57.184 56.8513H57.3216ZM78.1224 62.3623C79.0147 62.0134 79.8382 62.2921 80.5936 62.5013C81.349 62.641 82.1724 62.8502 82.9278 63.0594C83.6825 63.2686 84.4379 63.548 85.2614 63.8267C86.0168 64.1061 86.841 64.2452 87.4588 65.0132C87.5269 65.0827 87.5269 65.2217 87.4588 65.2919C87.4588 65.2919 87.39 65.2919 87.39 65.3621C86.4977 65.7103 85.6735 65.4316 84.9188 65.2217C84.1634 65.0827 83.3392 64.8735 82.5845 64.6643C81.8291 64.4544 81.0745 64.1757 80.2503 63.8962C79.4949 63.6175 78.6714 63.4778 78.0536 62.7105C77.9848 62.641 77.9848 62.5013 78.1224 62.3623ZM72.836 64.6636C74.5525 65.0827 75.9257 65.989 77.367 66.7564L81.6923 69.2683C83.1335 70.1746 84.5067 71.0121 85.948 71.9185C87.3212 72.8255 88.7632 73.6623 89.93 74.9878C89.9988 75.058 89.9988 75.197 89.93 75.2672C89.8612 75.3367 89.7924 75.3367 89.7924 75.3367C88.0766 74.9183 86.7034 74.0112 85.2614 73.2439L80.9369 70.7327C79.4949 69.8257 78.1224 68.9888 76.6804 68.0818C75.3079 67.1755 73.8659 66.3379 72.6991 65.0125C72.6658 64.9737 72.6476 64.9242 72.6476 64.8731C72.6476 64.822 72.6658 64.7726 72.6991 64.7338C72.7679 64.6636 72.836 64.6636 72.836 64.6636ZM78.4657 73.3141C79.4949 73.4531 80.0446 74.0112 80.7312 74.5694C81.4171 75.058 82.0356 75.6161 82.7214 76.1735C83.3392 76.7317 83.9577 77.2898 84.5755 77.9181C85.1933 78.5457 85.8799 79.0336 86.1544 80.0102C86.1544 80.1499 86.1544 80.2201 86.0168 80.2896H85.948C84.9188 80.1499 84.3691 79.5918 83.6825 79.0336C82.9966 78.5457 82.3781 77.9876 81.6923 77.4295C81.0745 76.8714 80.456 76.3132 79.8382 75.6856C79.2204 75.058 78.5338 74.5694 78.2593 73.5928C78.2593 73.4531 78.2593 73.3836 78.3969 73.3141H78.4657ZM61.5774 64.5246C62.4704 64.8033 62.813 65.4309 63.2939 65.989C63.7748 66.5471 64.1862 67.1755 64.5983 67.7329L65.8339 69.6165C66.2459 70.2448 66.658 70.8022 66.658 71.7795C66.658 71.9185 66.5204 71.9887 66.4516 71.9887H66.3828C65.4913 71.7093 65.1473 71.0816 64.6671 70.5235C64.1862 69.9654 63.7748 69.3371 63.3627 68.7796L62.1271 66.8961C61.715 66.2684 61.3029 65.7103 61.3029 64.7338C61.3029 64.5941 61.3717 64.5246 61.5774 64.5246C61.5093 64.5246 61.5093 64.5246 61.5774 64.5246ZM67.4815 76.5926C68.3738 77.2203 68.7171 78.1273 69.1292 78.9641C69.5413 79.801 69.9527 80.708 70.3648 81.5448C70.7081 82.4519 71.1202 83.2887 71.4635 84.1957C71.8068 85.1028 72.2182 85.9396 72.0813 87.0559C72.0813 87.1956 71.9437 87.2651 71.8749 87.2651C71.8068 87.2651 71.8068 87.2651 71.8068 87.1956C70.9138 86.5679 70.5705 85.6609 70.1591 84.8234C69.747 83.9865 69.3349 83.0795 68.9235 82.2427C68.5795 81.3356 68.1681 80.4988 67.8248 79.5918C67.4815 78.6854 67.0694 77.8479 67.207 76.7316C67.207 76.5926 67.3439 76.5224 67.4127 76.5224C67.4127 76.5926 67.4127 76.5926 67.4815 76.5926ZM58.5572 71.9887C59.2438 73.2439 59.3807 74.4999 59.5183 75.7551C59.724 77.0111 59.8616 78.3365 59.9985 79.5918C60.1361 80.8477 60.2737 82.1732 60.3425 83.4986C60.4106 84.8234 60.6163 86.0793 60.2049 87.4048C60.2049 87.4743 60.0673 87.5445 59.9992 87.5445C59.9304 87.5445 59.9304 87.4743 59.8616 87.4743C59.175 86.219 59.0374 84.9631 58.8998 83.7078C58.6941 82.4519 58.5572 81.1264 58.4196 79.8712C58.2827 78.6152 58.1458 77.2898 58.0763 75.9643C58.0082 74.6389 57.8025 73.3836 58.2139 72.0582C58.2139 71.9887 58.3515 71.9185 58.4196 71.9185C58.5572 71.9185 58.5572 71.9887 58.5572 71.9887ZM54.7816 59.432C55.3306 60.2695 55.2618 61.1063 55.2618 61.9432V64.3849C55.2618 65.2217 55.1937 66.0592 55.1249 66.8266C55.0561 67.6634 55.0561 68.5009 54.5071 69.2683C54.4383 69.3378 54.3007 69.4073 54.2326 69.3378L54.1638 69.2676C53.6141 68.4307 53.6829 67.5939 53.6829 66.7564V64.3154C53.6829 63.4778 53.7517 62.641 53.8205 61.8737C53.8893 61.0368 53.8893 60.1993 54.4383 59.432C54.5071 59.293 54.644 59.293 54.7816 59.432C54.7816 59.3618 54.7816 59.3618 54.7816 59.432ZM53.4084 81.1966C53.9574 81.8242 53.8893 82.4519 53.8893 83.0795C53.8893 83.7078 53.9574 84.3355 53.8893 84.8936C53.8893 85.5212 53.8205 86.1488 53.7517 86.7069C53.6829 87.3353 53.6829 87.9629 53.1339 88.521C53.0651 88.5905 52.9282 88.5905 52.7906 88.521C52.2416 87.8927 52.3104 87.2651 52.3104 86.6374C52.3104 86.0098 52.2416 85.3815 52.3104 84.8234C52.3104 84.1957 52.3785 83.5681 52.4473 83.01C52.5161 82.3824 52.5161 81.7541 53.0651 81.1966C53.1339 81.1264 53.2715 81.1264 53.4091 81.1966H53.4084ZM50.5251 72.4766C50.7308 73.7325 50.3195 74.7786 50.045 75.8948C49.7698 77.0111 49.4272 78.0571 49.0832 79.1733C48.7406 80.2201 48.3973 81.3356 47.9852 82.3824C47.5731 83.4284 47.2986 84.5447 46.4056 85.4517C46.3677 85.485 46.3191 85.5034 46.2687 85.5034C46.2183 85.5034 46.1696 85.485 46.1318 85.4517C46.1318 85.4517 46.063 85.3815 46.063 85.312C45.8573 84.056 46.2687 83.01 46.5432 81.8938C46.8184 80.7775 47.161 79.7315 47.505 78.6152C47.8476 77.5692 48.1909 76.4529 48.603 75.4062C49.0151 74.3602 49.2896 73.2439 50.1825 72.3369C50.2204 72.3036 50.269 72.2852 50.3194 72.2852C50.3699 72.2852 50.4185 72.3036 50.4563 72.3369C50.5251 72.4071 50.5251 72.4071 50.5251 72.4766ZM50.8684 59.2923C51.006 60.2695 50.5939 60.8971 50.2506 61.6645L49.2208 63.7565C48.8733 64.4544 48.4839 65.1305 48.0547 65.7812C47.6426 66.479 47.2993 67.1769 46.407 67.5953C46.2694 67.6655 46.2013 67.5953 46.1325 67.5251V67.4556C45.9949 66.479 46.4063 65.8514 46.7503 65.0841L47.7802 62.9913C48.1279 62.2939 48.5175 61.6183 48.947 60.968C49.3591 60.2709 49.7024 59.5731 50.5946 59.1547C50.6634 59.0845 50.8003 59.1547 50.8691 59.2944L50.8684 59.2923ZM42.6988 73.7325C42.5619 75.3367 41.8753 76.6621 41.2575 77.9876C40.6397 79.3131 40.0219 80.708 39.4041 82.0335C38.7175 83.3589 38.0997 84.6844 37.3443 86.0098C36.6577 87.3353 36.0399 88.66 34.8731 89.7763C34.8043 89.8465 34.6674 89.8465 34.5986 89.7763C34.5298 89.7068 34.5298 89.7068 34.5298 89.6373C34.6674 88.0324 35.3533 86.7069 35.9718 85.3815C36.5896 84.056 37.2074 82.6611 37.8252 81.3356C38.5118 80.0102 39.1296 78.6854 39.8843 77.36C40.5709 76.0345 41.1887 74.7091 42.3555 73.5928C42.3934 73.5591 42.4424 73.5405 42.4931 73.5405C42.5438 73.5405 42.5928 73.5591 42.6307 73.5928C42.6988 73.5928 42.6988 73.6623 42.6988 73.7325ZM37.2755 70.593C37.2074 71.5695 36.6577 72.1277 36.1775 72.756C35.6966 73.3836 35.2157 74.0112 34.7355 74.5694C34.2554 75.197 33.7064 75.7551 33.1567 76.3132C32.6077 76.8714 32.1275 77.499 31.2345 77.7082C31.0976 77.7082 31.0288 77.6387 30.9607 77.5692V77.499C31.0288 76.5224 31.5785 75.9643 32.0587 75.3367C32.5389 74.7091 33.0198 74.0814 33.5 73.5233C33.9809 72.895 34.5298 72.3369 35.0795 71.7795C35.6285 71.2213 36.1087 70.593 37.001 70.3838C37.1386 70.3143 37.2755 70.3838 37.2755 70.593C37.2755 70.5235 37.2755 70.5235 37.2755 70.593ZM44.072 58.5951C43.523 59.5022 42.6988 59.7816 41.9441 60.1993C41.2575 60.6879 40.5021 61.0368 39.6786 61.3857C38.9232 61.734 38.099 62.0829 37.3443 62.4318C36.5208 62.7807 35.7654 63.1296 34.8043 62.9899C34.6674 62.9899 34.5986 62.8502 34.5986 62.7807V62.7105C35.1476 61.8042 35.9718 61.5247 36.7265 61.1063C37.4819 60.6879 38.2373 60.2695 38.992 59.9199C39.7474 59.5717 40.5716 59.2228 41.3263 58.8738C42.1498 58.5256 42.9052 58.1767 43.8663 58.3164C44.0039 58.3164 44.072 58.4554 44.072 58.5256C44.1408 58.5951 44.072 58.5951 44.072 58.5951ZM32.0587 64.8735C31.0969 65.9195 29.9308 66.4081 28.7633 67.0358L25.2622 68.7101C24.0954 69.2676 22.8598 69.7562 21.6923 70.2448C20.5255 70.7327 19.3587 71.2908 17.9168 71.3603C17.7799 71.3603 17.7111 71.2908 17.7111 71.1511C17.7111 71.0816 17.7111 71.0816 17.7799 71.0121C18.7402 69.9661 19.907 69.4775 21.0745 68.8498L24.5756 67.1755C25.7431 66.6173 26.9787 66.1294 28.1455 65.6408C29.3123 65.1522 30.4798 64.5948 31.9211 64.5246C32.0587 64.5246 32.1275 64.5948 32.1275 64.7338C32.1275 64.804 32.1275 64.804 32.0587 64.8735ZM31.7842 58.037C30.3422 59.0135 28.8321 59.3625 27.2532 59.8511C25.7431 60.339 24.1642 60.7574 22.5846 61.1758C21.0057 61.5949 19.4956 61.9432 17.9168 62.3623C16.3379 62.7105 14.8278 63.1991 13.1113 63.0594C13.0425 63.0594 12.9056 62.9892 12.9744 62.8502C12.9744 62.78 13.0425 62.7105 13.0425 62.7105C14.4845 61.7347 15.9946 61.385 17.5735 60.8971C19.0835 60.4085 20.6624 59.9901 22.242 59.5717C23.8209 59.1533 25.331 58.8043 26.9099 58.3852C28.4888 58.037 29.9989 57.5491 31.7154 57.6881C31.7842 57.6881 31.9211 57.7583 31.853 57.8973C31.853 57.9675 31.853 58.037 31.7842 58.037ZM31.2345 51.9679C30.2734 52.4565 29.4499 52.3168 28.5576 52.3168C27.6646 52.3168 26.7723 52.2466 25.88 52.1778C24.9877 52.1076 24.0954 51.9679 23.2712 51.8289C22.3796 51.6892 21.4866 51.6892 20.6624 50.9913C20.5943 50.9218 20.5255 50.7821 20.5943 50.7126L20.6624 50.6424C21.6242 50.1545 22.4477 50.2942 23.34 50.2942C24.2323 50.2942 25.1246 50.3644 26.0176 50.4332C26.9092 50.5034 27.8022 50.6431 28.6257 50.7821C29.5187 50.9218 30.411 50.9218 31.2345 51.6197C31.3033 51.6892 31.3721 51.8289 31.3033 51.8984C31.2345 51.8984 31.2345 51.9679 31.2345 51.9679ZM47.3674 54.689C46.3375 55.1074 45.3764 54.9677 44.3465 54.8982C43.3854 54.828 42.3562 54.7585 41.3951 54.6188L38.5118 54.2004C37.55 54.0606 36.5896 53.9911 35.6285 53.2933C35.5597 53.2238 35.4909 53.0841 35.5597 53.0146L35.6285 52.9444C36.6577 52.526 37.6188 52.6657 38.6487 52.7359C39.6105 52.8054 40.6397 52.8749 41.6008 53.0146L44.4841 53.433C45.4452 53.5727 46.4063 53.6422 47.3674 54.3401C47.4362 54.4103 47.505 54.5493 47.4362 54.6188L47.3674 54.689ZM47.6419 50.7821C46.3375 50.6431 45.3076 50.0148 44.2784 49.4567C43.2109 48.8785 42.158 48.2739 41.1206 47.6433C40.0907 47.0157 39.0608 46.3873 38.0316 45.6902C37.001 45.0626 35.9718 44.4343 35.2164 43.318C35.1476 43.2485 35.1476 43.1088 35.2852 43.0393C35.3533 43.0393 35.3533 42.9691 35.4221 43.0393C36.7265 43.179 37.7564 43.8066 38.7863 44.3648C39.8538 44.9429 40.9067 45.5476 41.9441 46.1781C42.974 46.8065 44.0039 47.4341 45.0331 48.1312C46.063 48.7595 47.0929 49.3872 47.8483 50.5034C47.9164 50.5736 47.9164 50.7126 47.7795 50.7821C47.7107 50.7119 47.6419 50.7821 47.6419 50.7821ZM28.0086 45.1321C26.773 45.2718 25.8112 44.7832 24.782 44.4343C23.759 44.0811 22.7512 43.6855 21.7611 43.2485C20.7415 42.836 19.7342 42.394 18.7402 41.9231C17.7792 41.4351 16.75 41.0862 15.9258 40.1792C15.8926 40.1403 15.8744 40.0909 15.8744 40.0398C15.8744 39.9888 15.8926 39.9394 15.9258 39.9005C15.9258 39.9005 15.9946 39.8303 16.0634 39.8303C17.299 39.6913 18.26 40.1792 19.2899 40.5281C20.3127 40.8815 21.3203 41.2773 22.3101 41.7146C23.3297 42.1268 24.3371 42.5686 25.331 43.0393C26.2921 43.5272 27.322 43.8761 28.1455 44.7832C28.2143 44.8534 28.2143 44.9924 28.1455 45.0626C28.0767 45.0626 28.0767 45.1321 28.0086 45.1321ZM32.8134 41.4351C31.5778 41.1557 30.6167 40.4586 29.6556 39.8303C28.6896 39.1956 27.7506 38.5208 26.8411 37.8077C25.9488 37.1099 24.9877 36.4127 24.0954 35.7149C23.2024 35.0171 22.242 34.32 21.6242 33.2037C21.5554 33.1335 21.6242 32.9945 21.6923 32.9243H21.8299C23.0655 33.1335 23.9578 33.9008 24.9189 34.5292C25.8851 35.1638 26.8243 35.8386 27.7341 36.5517C28.6257 37.2496 29.5875 37.9467 30.4791 38.6445C31.3721 39.3424 32.3332 40.0395 32.951 41.1557C33.0198 41.2259 32.951 41.3649 32.8822 41.4351H32.8134ZM42.8364 40.877C41.7377 40.1792 41.1887 39.1332 40.5021 38.1566C39.8215 37.1828 39.1802 36.1821 38.5799 35.1568C37.9621 34.1108 37.3443 33.1335 36.7953 32.0875C36.2463 31.0414 35.5597 30.0642 35.4221 28.7387C35.4221 28.5997 35.4909 28.5302 35.5597 28.5302H35.6966C36.7953 29.2274 37.3443 30.2741 38.0309 31.2506C38.7116 32.2242 39.3528 33.2247 39.9531 34.2498C40.5709 35.2958 41.1887 36.273 41.7377 37.3191C42.2874 38.3651 42.9733 39.3424 43.1109 40.6678C43.1109 40.8068 43.0428 40.877 42.974 40.877H42.8364Z" fill="#00A32A"/>
<path d="M95.2166 21.6945C94.7364 20.9271 94.8052 20.2293 94.8052 19.5322C94.8052 18.8344 94.8733 18.1365 94.8733 17.4394C94.9421 16.7416 95.0109 16.0445 95.1485 15.3466C95.2854 14.6488 95.2854 13.9517 95.9032 13.2545C95.972 13.1843 96.1089 13.1843 96.2465 13.2545V13.324C96.7274 14.0914 96.6586 14.7885 96.6586 15.4863C96.6586 16.1835 96.5898 16.8813 96.5898 17.5784C96.521 18.2762 96.4521 18.9741 96.3153 19.6712C96.1777 20.369 96.1777 21.0668 95.5599 21.764C95.423 21.764 95.2854 21.764 95.2166 21.6945ZM98.031 17.5089C97.8941 16.3927 98.3743 15.4863 98.7176 14.5098C99.0609 13.6028 99.473 12.6262 99.8163 11.7192C100.228 10.8121 100.64 9.90581 101.121 8.99877C101.601 8.09173 101.944 7.1854 102.837 6.48757C102.905 6.41737 103.043 6.41736 103.112 6.55777C103.112 6.55777 103.112 6.62727 103.18 6.62727C103.317 7.74352 102.837 8.64985 102.494 9.62639C102.151 10.5334 101.739 11.51 101.395 12.417C100.983 13.3233 100.572 14.2304 100.091 15.1374C99.6106 16.0445 99.2673 16.9508 98.3743 17.6486C98.3062 17.7188 98.1686 17.7188 98.0998 17.5784L98.031 17.5089ZM98.7864 21.3456C99.2673 20.1598 100.091 19.462 100.914 18.6252C101.739 17.7883 102.562 17.021 103.386 16.2537C104.215 15.4898 105.062 14.7454 105.926 14.0212C106.818 13.3233 107.574 12.4865 108.809 12.1376C108.878 12.1376 109.015 12.1376 109.015 12.2773V12.417C108.535 13.6028 107.711 14.3006 106.887 15.1374C106.063 15.9742 105.24 16.7416 104.416 17.5089C103.587 18.2727 102.74 19.017 101.875 19.7414C100.983 20.4385 100.228 21.2761 98.9921 21.625C98.924 21.625 98.7864 21.625 98.7864 21.4853V21.3456ZM105.857 11.0221C105.72 10.1852 106.132 9.6973 106.406 9.13918C106.681 8.58105 107.024 8.09314 107.367 7.53431C107.711 7.04639 108.054 6.55848 108.466 6.06985C108.809 5.58123 109.153 5.02381 109.907 4.8139C110.045 4.8139 110.182 4.88411 110.182 4.95361C110.32 5.79044 109.907 6.27906 109.633 6.83719C109.358 7.39531 109.015 7.88323 108.672 8.44135C108.329 8.92997 107.985 9.41789 107.574 9.90651C107.231 10.3944 106.887 10.9525 106.132 11.1618C105.995 11.232 105.857 11.1611 105.857 11.0221ZM114.645 17.7195C114.919 17.0217 115.4 16.882 115.812 16.6033C116.263 16.3809 116.721 16.1713 117.185 15.9749C117.631 15.7816 118.089 15.6185 118.557 15.487C119.038 15.3473 119.45 15.1381 120.136 15.4168C120.274 15.487 120.343 15.6267 120.274 15.7657C119.999 16.4636 119.518 16.6033 119.107 16.882C118.695 17.0912 118.214 17.3004 117.734 17.5096C117.253 17.7188 116.842 17.8585 116.361 17.9982C115.88 18.1372 115.468 18.3471 114.782 18.0684C114.645 17.9982 114.576 17.8592 114.645 17.7195ZM104.622 22.7412C105.034 21.9739 105.72 21.7654 106.338 21.4165C106.956 21.1371 107.574 20.7881 108.26 20.5789C108.878 20.3002 109.564 20.091 110.251 19.8818C110.937 19.6719 111.555 19.3932 112.379 19.6024C112.516 19.6726 112.585 19.7421 112.516 19.8818V19.9513C112.104 20.7186 111.418 20.9278 110.8 21.2768C110.182 21.5555 109.564 21.9044 108.878 22.1136C108.26 22.393 107.574 22.6022 106.887 22.8114C106.201 23.0206 105.583 23.2993 104.759 23.0901C104.622 23.0901 104.553 22.9511 104.622 22.7412C104.622 22.8114 104.622 22.8114 104.622 22.7412ZM112.928 24.4858C113.477 23.9277 114.026 23.9277 114.576 23.8575C115.125 23.7873 115.674 23.7873 116.292 23.7185C116.842 23.7185 117.391 23.7185 118.008 23.788C118.557 23.8582 119.107 23.788 119.725 24.3461C119.793 24.4163 119.793 24.6248 119.725 24.695C119.175 25.2531 118.626 25.2531 118.077 25.3226C117.528 25.3928 116.978 25.3928 116.361 25.4623C115.812 25.4623 115.263 25.4623 114.645 25.3921C114.095 25.3219 113.546 25.3921 112.928 24.834C112.86 24.7645 112.86 24.6248 112.928 24.4858ZM99.5418 26.1595C100.297 25.8807 100.846 26.1595 101.464 26.3687C102.013 26.5786 102.631 26.7878 103.18 27.0665L104.827 27.9033C105.377 28.1827 105.926 28.3919 106.269 29.1593C106.338 29.299 106.269 29.438 106.132 29.438C105.377 29.7174 104.828 29.438 104.21 29.2288C103.661 29.0196 103.043 28.8104 102.494 28.5317L100.846 27.6941C100.297 27.4154 99.7475 27.2062 99.4042 26.4389C99.4042 26.3687 99.4042 26.2297 99.5418 26.1595ZM96.7955 27.9735C97.5508 28.3919 97.7565 29.0898 98.031 29.7174C98.3062 30.345 98.5807 30.9726 98.8552 31.6705C99.1297 32.2981 99.3354 32.9959 99.5418 33.6938C99.7475 34.3909 100.022 35.0185 99.7475 35.856C99.6787 35.9958 99.6106 36.0653 99.473 35.9957H99.4042C98.6495 35.5766 98.4431 34.8795 98.1686 34.2512C97.8941 33.6236 97.6197 32.9959 97.3452 32.2981C97.07 31.6705 96.8643 30.9726 96.6586 30.2755C96.4522 29.5777 96.1777 28.9501 96.4522 28.1132C96.521 27.9728 96.6586 27.904 96.7955 27.9735Z" fill="#546FF3"/>
<path d="M103.043 31.8095C103.935 32.1577 104.416 32.9257 104.896 33.5534C105.377 34.2505 105.857 34.8788 106.338 35.5759C106.813 36.2716 107.248 36.9935 107.642 37.7382C108.054 38.436 108.535 39.1339 108.603 40.1104C108.603 40.2501 108.535 40.3196 108.397 40.3196H108.328C107.436 39.9707 106.956 39.2034 106.475 38.5758C105.995 37.8779 105.514 37.2503 105.034 36.5525C104.558 35.857 104.123 35.135 103.729 34.3902C103.317 33.6931 102.836 32.9952 102.768 32.0187C102.768 31.879 102.836 31.8095 102.974 31.8095H103.043ZM93.2942 29.0884C93.5687 29.8564 93.2943 30.3443 93.1574 30.8329C92.951 31.3911 92.8141 31.879 92.6077 32.4371C92.402 32.9257 92.1275 33.4831 91.853 33.9718C91.5785 34.4597 91.4409 35.0178 90.6855 35.2972C90.5486 35.3674 90.411 35.2972 90.3429 35.1575C90.0677 34.3902 90.3429 33.9023 90.4798 33.4136C90.6855 32.8555 90.8231 32.3676 91.0288 31.8095C91.2352 31.3209 91.5097 30.7634 91.7842 30.2748C92.0587 29.7862 92.1963 29.2288 92.951 28.9494C93.0886 28.8792 93.2261 28.9494 93.2942 29.0891V29.0884Z" fill="#546FF3"/>
<path d="M86.3611 34.9476C86.0178 35.8553 85.4 36.2737 84.7822 36.7617C84.1644 37.2503 83.5466 37.7382 82.9288 38.1573C82.311 38.5757 81.6244 38.9942 81.0066 39.4126C80.32 39.831 79.771 40.3196 78.8099 40.2501C78.6723 40.2501 78.6035 40.1799 78.6035 40.0402V39.9707C78.9468 39.0637 79.5646 38.6452 80.1824 38.1573C80.8002 37.6687 81.418 37.1808 82.0358 36.7617C82.6543 36.3432 83.3402 35.9248 83.958 35.5064C84.6446 35.088 85.1943 34.5994 86.1554 34.6689C86.2923 34.6689 86.3611 34.7384 86.3611 34.9476C86.3611 34.8774 86.3611 34.8774 86.3611 34.9476Z" fill="#546FF3"/>
<path d="M83.6153 30.5535C83.3401 31.3209 82.7911 31.5301 82.3109 31.879C81.83 32.1577 81.281 32.5066 80.732 32.7158C80.1823 32.9952 79.6333 33.2044 79.0843 33.4137C78.5346 33.6229 78.0544 33.9718 77.2309 33.6924C77.0933 33.6229 77.0245 33.5534 77.0933 33.4137C77.3678 32.6463 77.9168 32.4371 78.3977 32.0882C78.8779 31.8095 79.4276 31.4606 79.9766 31.2514C80.5256 30.972 81.0753 30.7628 81.6243 30.5535C82.1733 30.3443 82.6542 29.9954 83.4777 30.2748C83.6153 30.2748 83.6834 30.4138 83.6153 30.5535ZM91.853 26.4382C91.5785 27.2055 91.0976 27.3445 90.6174 27.6239C90.1365 27.9026 89.6563 28.1118 89.1754 28.3218C88.6952 28.531 88.2143 28.7402 87.6653 28.8792C87.1845 29.0196 86.7043 29.2976 85.9489 29.0196C85.812 28.9494 85.7432 28.8097 85.812 28.67C86.0865 27.9026 86.5667 27.7636 87.0475 27.4842C87.5277 27.2055 88.0086 26.9963 88.4888 26.7871C88.9697 26.5772 89.4499 26.368 89.9996 26.229C90.4798 26.0886 90.9607 25.8099 91.7154 26.0886C91.853 26.1588 91.9218 26.2985 91.853 26.4382ZM86.5667 21.625C85.5375 21.9037 84.6445 21.5548 83.821 21.3456C82.9287 21.1364 82.0364 20.8577 81.2122 20.6477C80.3321 20.3769 79.4619 20.0746 78.6034 19.7414C77.7799 19.3925 76.8876 19.1833 76.1322 18.416C76.0988 18.3771 76.0804 18.3275 76.0804 18.2763C76.0804 18.225 76.0988 18.1754 76.1322 18.1365L76.201 18.067C77.2309 17.7883 78.1232 18.1373 78.9467 18.3465C79.839 18.5557 80.732 18.8344 81.5555 19.0436C82.4478 19.323 83.272 19.6017 84.1643 19.9506C84.9878 20.2995 85.8801 20.5087 86.6355 21.2761C86.7043 21.3463 86.7043 21.4853 86.6355 21.5548L86.5667 21.625ZM81.5555 14.719C80.732 14.9282 80.2511 14.5786 79.6333 14.2999L77.9856 13.4631C77.4351 13.1787 76.9072 12.8525 76.4067 12.4872C75.8577 12.1376 75.3087 11.8589 75.0335 11.0916C74.9654 10.9519 75.0335 10.8122 75.1711 10.8122C75.9946 10.6029 76.4755 10.9526 77.0933 11.2313L78.741 12.0681C79.29 12.3468 79.839 12.6957 80.3199 13.0446C80.8689 13.3936 81.4179 13.6723 81.6931 14.4396C81.7612 14.5098 81.6931 14.6488 81.5555 14.719ZM90.8919 20.4385C90.0677 20.1598 89.6563 19.5322 89.2442 18.9741C88.816 18.4046 88.404 17.8231 88.0086 17.2302C87.6174 16.641 87.2508 16.0358 86.9099 15.4161C86.5667 14.7885 86.1553 14.2304 86.2234 13.3241C86.2234 13.1837 86.361 13.1142 86.4298 13.1142H86.4986C87.322 13.3936 87.7341 14.0212 88.1455 14.5793C88.5576 15.1374 88.9697 15.6956 89.3818 16.3232C89.7932 16.9508 90.1365 17.5096 90.4798 18.1365C90.8231 18.7649 91.2352 19.323 91.1664 20.2293C91.1664 20.3697 91.0976 20.4385 90.8919 20.4385ZM86.4986 9.76612C85.6744 9.4867 85.3999 8.92928 84.9878 8.44066C84.6445 7.95275 84.2331 7.39462 83.8898 6.8365C83.5465 6.27838 83.272 5.72026 82.9287 5.16213C82.6542 4.60401 82.2421 4.04589 82.379 3.20906C82.379 3.06935 82.5166 2.99985 82.6542 2.99985C83.4777 3.20906 83.7522 3.83668 84.1643 4.3253C84.5076 4.81322 84.9197 5.37134 85.2623 5.92946C85.6056 6.48759 85.8808 7.04571 86.2234 7.60383C86.4986 8.16195 86.9099 8.72008 86.7731 9.55691C86.7731 9.69661 86.7043 9.76612 86.4986 9.76612C86.5667 9.76612 86.5667 9.76612 86.4986 9.76612ZM92.3332 10.5334C91.7842 9.90582 91.7842 9.20799 91.7154 8.51017C91.6466 7.81304 91.5785 7.18541 91.5785 6.48759V4.4643C91.5785 3.76718 91.5785 3.13885 92.0587 2.44172C92.1275 2.37152 92.2651 2.30202 92.402 2.37152C92.951 2.99985 92.951 3.69697 93.0198 4.3948C93.0886 5.09263 93.1574 5.72026 93.1574 6.41738V8.44066C93.1574 9.13849 93.1574 9.76612 92.6765 10.4639C92.5396 10.6732 92.402 10.6732 92.3332 10.5334C92.3332 10.6037 92.3332 10.6037 92.3332 10.5334ZM96.1095 8.71937C95.6286 7.95275 95.7662 7.18541 95.8343 6.48688C95.9031 5.78976 95.9031 5.02243 95.9719 4.3246C96.0407 3.62747 96.1776 2.86014 96.3152 2.16231C96.4521 1.46519 96.4521 0.697856 97.1387 0.0702312C97.2075 2.71071e-05 97.3451 2.71071e-05 97.4132 0.0702312V0.139733C97.8941 0.907064 97.7565 1.67439 97.7565 2.37222C97.6884 3.06935 97.6884 3.83668 97.6196 4.53451C97.5508 5.23164 97.4132 5.99897 97.2763 6.69679C97.1387 7.39462 97.1387 8.16195 96.4521 8.78888C96.384 8.85908 96.2464 8.85908 96.1095 8.71937Z" fill="#546FF3"/>
<path d="M141.555 48.2021C142.172 47.0859 143.134 46.4583 144.027 45.8299C144.919 45.1328 145.88 44.5052 146.772 43.8074L149.656 41.9238C150.617 41.2962 151.509 40.6685 152.813 40.4586C152.951 40.4586 153.02 40.5288 153.02 40.599V40.738C152.401 41.8543 151.44 42.4819 150.548 43.1095C149.656 43.8074 148.694 44.435 147.802 45.1328L144.919 47.0164C143.958 47.644 143.065 48.2716 141.761 48.4809C141.623 48.4809 141.555 48.4106 141.555 48.3418V48.2014V48.2021ZM126.177 57.6193C126.796 56.5031 127.757 55.9449 128.58 55.2471C129.473 54.55 130.365 53.9224 131.258 53.294C132.17 52.6496 133.109 52.0446 134.072 51.4807C135.033 50.9226 135.926 50.2247 137.161 50.0857C137.299 50.0857 137.367 50.1552 137.367 50.2247V50.3651C136.749 51.4807 135.788 52.0388 134.965 52.7359C134.072 53.4337 133.18 54.0614 132.287 54.6897C131.375 55.3342 130.436 55.9392 129.473 56.5031C128.511 57.0612 127.619 57.759 126.384 57.898C126.246 57.898 126.177 57.8278 126.177 57.759C126.109 57.6888 126.109 57.6193 126.177 57.6193ZM144.988 54.4805C145.605 53.7827 146.429 53.643 147.116 53.4345C147.871 53.2245 148.626 53.0153 149.381 52.8756L151.646 52.4572C152.401 52.3175 153.157 52.1778 154.049 52.5274C154.186 52.5969 154.186 52.7359 154.186 52.8061C154.186 52.8061 154.186 52.8763 154.118 52.8763C153.5 53.5735 152.676 53.7132 151.99 53.9224C151.234 54.1316 150.479 54.3408 149.724 54.4798L147.459 54.8989C146.703 55.0379 145.949 55.1776 145.056 54.8287C144.919 54.8287 144.919 54.6897 144.988 54.4805C144.988 54.55 144.919 54.55 144.988 54.4805ZM129.541 60.2702C130.708 59.8518 131.738 59.9908 132.837 60.061C133.935 60.1305 135.033 60.2702 136.131 60.3397C137.23 60.4794 138.328 60.6191 139.358 60.7581C140.457 60.8978 141.555 60.9673 142.585 61.6652C142.653 61.7354 142.722 61.8744 142.653 61.9439C142.653 62.0141 142.585 62.0141 142.585 62.0141C141.418 62.4325 140.388 62.2928 139.289 62.2233C138.191 62.1531 137.092 62.0141 135.995 61.9439C134.918 61.8088 133.843 61.6693 132.768 61.5255C131.669 61.3858 130.571 61.3163 129.541 60.6191C129.473 60.5489 129.404 60.4092 129.473 60.3397L129.541 60.2702ZM146.978 59.7816C147.802 59.3632 148.489 59.5029 149.243 59.5724C149.999 59.6426 150.685 59.7121 151.44 59.7816C152.127 59.9213 152.882 60.061 153.569 60.2C154.255 60.3397 155.01 60.4092 155.628 61.1071C155.697 61.1773 155.697 61.3163 155.628 61.3858H155.56C154.735 61.8049 154.049 61.6652 153.294 61.5957C152.539 61.5255 151.852 61.4553 151.098 61.3858C150.411 61.2468 149.656 61.1071 148.969 60.9674C148.282 60.8276 147.528 60.7581 146.91 60.061C146.841 60.061 146.841 59.9206 146.978 59.7816C146.91 59.8518 146.91 59.8518 146.978 59.7816ZM144.163 66.6181C145.125 66.4089 145.811 66.7571 146.635 66.9663C147.39 67.2457 148.145 67.4549 148.9 67.8038C149.656 68.0825 150.411 68.4314 151.098 68.7797C151.852 69.1293 152.608 69.408 153.157 70.1753C153.225 70.2455 153.225 70.3845 153.088 70.4547H153.02C152.059 70.6639 151.372 70.315 150.548 70.1058C149.793 69.8264 149.038 69.6172 148.282 69.269C147.532 68.9853 146.799 68.659 146.086 68.2917C145.331 67.9435 144.576 67.6641 144.027 66.8968C143.958 66.8968 143.958 66.7571 144.163 66.6181C144.095 66.6876 144.095 66.6876 144.163 66.6181ZM132.219 66.1997C133.248 66.2692 133.866 66.7571 134.553 67.2457C135.239 67.7336 135.926 68.1527 136.612 68.7109C137.299 69.1988 137.917 69.7569 138.603 70.315C139.221 70.8731 139.908 71.2916 140.25 72.2681C140.319 72.4078 140.25 72.4773 140.113 72.5475H140.045C139.015 72.4773 138.397 71.9894 137.71 71.5008C137.024 71.0129 136.338 70.5937 135.651 70.0356C134.965 69.5477 134.347 68.9896 133.66 68.4314C133.042 67.8733 132.356 67.4549 132.013 66.4784C131.944 66.3387 132.013 66.2692 132.15 66.1997H132.219ZM139.839 78.5465C140.594 78.616 140.869 79.0344 141.211 79.3833C141.555 79.7322 141.898 80.1506 142.172 80.4995C142.516 80.9179 142.791 81.3364 143.065 81.7548C143.34 82.1739 143.683 82.5221 143.546 83.2894C143.546 83.4291 143.409 83.4994 143.271 83.4994C142.516 83.4291 142.241 83.0107 141.898 82.6618C141.558 82.307 141.237 81.9344 140.937 81.5456C140.594 81.1272 140.319 80.7087 140.045 80.2903C139.77 79.8719 139.427 79.523 139.564 78.7557C139.564 78.616 139.701 78.5465 139.839 78.5465ZM127.207 78.1975C127.962 78.5465 128.099 79.1741 128.375 79.6627C128.649 80.2201 128.855 80.7782 129.129 81.3364C129.336 81.8945 129.541 82.4526 129.679 83.0802C129.816 83.6384 130.09 84.1965 129.816 84.9638C129.747 85.1035 129.61 85.173 129.541 85.1035C128.786 84.7546 128.649 84.127 128.375 83.6384C128.099 83.0802 127.894 82.5221 127.619 81.9647C127.413 81.4066 127.207 80.8484 127.07 80.2201C126.933 79.6627 126.658 79.1046 126.933 78.3372C126.933 78.1975 127.07 78.128 127.207 78.1975ZM131.12 72.0589C131.944 72.4078 132.287 73.1049 132.699 73.7333C133.111 74.3609 133.523 74.9885 133.866 75.6168C134.209 76.2445 134.553 76.9416 134.896 77.5699C135.239 78.267 135.651 78.8954 135.514 79.8017C135.514 79.9414 135.377 80.0109 135.239 80.0109H135.17C134.347 79.6627 134.004 78.9649 133.591 78.3372C133.18 77.7089 132.768 77.0813 132.425 76.4537C132.081 75.826 131.738 75.1282 131.395 74.5006C131.051 73.8028 130.64 73.1751 130.777 72.2681C130.846 72.1284 130.983 71.9894 131.12 72.0589ZM124.53 64.2459C125.285 64.7345 125.491 65.5018 125.766 66.1295L126.589 68.2222C126.796 68.9201 127.07 69.6172 127.207 70.315C127.413 71.0128 127.688 71.71 127.413 72.617C127.345 72.7567 127.276 72.8262 127.138 72.7567H127.07C126.315 72.2681 126.109 71.5008 125.835 70.8731L125.01 68.7804C124.805 68.0825 124.53 67.3854 124.393 66.6876C124.187 65.9897 123.912 65.2926 124.187 64.3856C124.255 64.2459 124.393 64.1764 124.53 64.2459C124.53 64.1764 124.53 64.1764 124.53 64.2459ZM120.754 63.1998C120.891 64.1764 120.479 64.9437 120.136 65.711L119.107 68.013C118.759 68.7782 118.37 69.5235 117.939 70.2455C117.528 71.0128 117.185 71.7802 116.361 72.2681C116.292 72.3376 116.155 72.2681 116.086 72.1986V72.1284C115.948 71.1519 116.361 70.3845 116.704 69.6172L117.734 67.3152C118.081 66.5501 118.471 65.8048 118.901 65.0827C119.313 64.3161 119.656 63.5487 120.479 63.0608C120.548 62.9906 120.686 63.0608 120.754 63.1303V63.1998ZM119.93 78.9649C120.274 79.7322 120.068 80.3598 119.93 81.0576C119.793 81.6853 119.656 82.3831 119.518 83.0107C119.381 83.6383 119.175 84.2667 118.901 84.9638C118.695 85.5914 118.557 86.2893 117.871 86.7779C117.803 86.8474 117.596 86.8474 117.528 86.7077C117.185 85.9403 117.39 85.3127 117.528 84.6149C117.665 83.9873 117.803 83.2894 117.939 82.6618C118.077 82.0342 118.283 81.4066 118.557 80.7087C118.764 80.0811 118.901 79.3833 119.587 78.8954C119.725 78.8252 119.862 78.8252 119.93 78.9649ZM115.263 75.965C115.263 77.221 114.713 78.267 114.301 79.3138C113.889 80.3598 113.408 81.4066 112.928 82.4526C112.447 83.4993 111.898 84.4759 111.418 85.5219C110.868 86.4985 110.457 87.6147 109.427 88.382C109.358 88.4515 109.221 88.4515 109.153 88.382C109.153 88.3125 109.084 88.3125 109.084 88.2423C109.084 86.9871 109.633 85.9403 110.045 84.8943C110.457 83.8476 110.937 82.8015 111.418 81.7548C111.898 80.7087 112.447 79.7322 112.928 78.6855C113.477 77.7089 113.889 76.5934 114.919 75.826C114.987 75.7558 115.125 75.7558 115.194 75.826C115.263 75.8955 115.263 75.8955 115.263 75.965ZM111.212 70.7334C111.143 71.5703 110.663 72.0589 110.251 72.5475C109.839 73.0354 109.427 73.5241 108.946 74.012C108.535 74.5006 108.054 74.919 107.574 75.4069C107.093 75.826 106.681 76.3835 105.857 76.4537C105.72 76.4537 105.652 76.3842 105.583 76.2445C105.652 75.4069 106.132 74.919 106.544 74.4304C106.956 73.9425 107.367 73.4538 107.848 72.9659C108.26 72.4773 108.741 72.0589 109.221 71.5703C109.702 71.1519 110.114 70.5937 110.937 70.5242C111.143 70.5242 111.212 70.5937 111.212 70.7334ZM107.367 64.5253C106.613 65.5011 105.583 65.8507 104.622 66.3387C103.661 66.8273 102.7 67.2457 101.738 67.7336C100.767 68.159 99.7822 68.5547 98.7863 68.9201C97.7564 69.2683 96.7953 69.7569 95.6286 69.6874C95.491 69.6874 95.4229 69.6172 95.4229 69.4782C95.4229 69.408 95.4229 69.408 95.491 69.3378C96.2464 68.3619 97.2762 68.013 98.2373 67.5244C99.1984 67.0365 100.16 66.6181 101.121 66.1295C102.092 65.7043 103.077 65.3089 104.073 64.9437C105.102 64.5948 106.063 64.1069 107.23 64.1764C107.367 64.1764 107.436 64.2466 107.436 64.3856C107.436 64.4558 107.436 64.5253 107.367 64.5253ZM118.695 60.6886C118.283 61.456 117.596 61.6645 116.978 61.9439C116.361 62.2233 115.743 62.502 115.125 62.7112C114.507 62.9204 113.889 63.1303 113.203 63.3395C112.585 63.5488 111.967 63.8275 111.143 63.4785C111.006 63.409 110.937 63.3395 111.006 63.1998V63.1296C111.418 62.3623 112.104 62.1538 112.723 61.8744C113.34 61.595 113.958 61.3163 114.576 61.1071C115.213 60.8877 115.854 60.6785 116.498 60.4794C117.116 60.2702 117.734 59.9908 118.557 60.3397C118.695 60.4099 118.764 60.5489 118.695 60.6886ZM105.583 56.0847C104.416 56.3634 103.386 56.0847 102.356 55.8754C101.326 55.6662 100.296 55.457 99.2672 55.1776L96.1776 54.3408C95.1484 54.0614 94.1185 53.8522 93.2262 53.0153C93.1927 52.9765 93.1743 52.9269 93.1743 52.8756C93.1743 52.8244 93.1927 52.7748 93.2262 52.7359L93.2943 52.6664C94.4618 52.3877 95.491 52.6664 96.5208 52.8756C97.5507 53.0848 98.5806 53.294 99.6105 53.5735L102.7 54.4103C103.729 54.6897 104.759 54.8989 105.652 55.7357C105.72 55.8059 105.72 55.945 105.652 56.0145L105.583 56.0847ZM116.224 58.2469C115.468 58.6654 114.85 58.4562 114.233 58.3171C113.615 58.1767 112.997 58.1072 112.379 57.898C111.761 57.759 111.143 57.5498 110.525 57.3399C109.907 57.1307 109.29 56.9917 108.809 56.2939C108.741 56.1542 108.741 56.0145 108.878 55.945C109.633 55.5265 110.251 55.7357 110.868 55.8747C111.486 56.0152 112.104 56.0847 112.723 56.2939C113.34 56.4336 113.958 56.6428 114.576 56.852C115.194 57.0612 115.812 57.2009 116.292 57.898C116.429 57.9682 116.361 58.1072 116.224 58.2469ZM103.523 49.3184C102.7 49.5276 102.151 49.178 101.601 48.8993C101.052 48.6206 100.434 48.3418 99.885 48.0624C99.3353 47.7837 98.7863 47.4348 98.2373 47.0859C97.6883 46.737 97.1387 46.4583 96.8642 45.6909C96.7954 45.5512 96.8642 45.4115 97.0018 45.4115C97.8252 45.2023 98.3742 45.5512 98.9239 45.8299C99.4729 46.1094 100.091 46.3881 100.64 46.6675C101.189 46.9462 101.738 47.2951 102.287 47.6433C102.836 47.9929 103.386 48.2716 103.661 49.039C103.729 49.1092 103.661 49.2482 103.523 49.3184ZM120.136 54.6195C119.107 54.4103 118.489 53.7827 117.803 53.2245C117.116 52.6664 116.429 52.0381 115.812 51.4807C115.194 50.853 114.507 50.2247 113.889 49.5971C113.272 48.9695 112.585 48.4106 112.31 47.3646C112.31 47.2256 112.379 47.1554 112.447 47.0859H112.516C113.546 47.2951 114.164 47.9227 114.85 48.4809C115.537 49.039 116.224 49.6673 116.841 50.2247C117.459 50.853 118.146 51.4807 118.764 52.1083C119.381 52.7359 120.068 53.2947 120.343 54.3408C120.343 54.4805 120.274 54.55 120.205 54.6195H120.136ZM110.114 47.0164C109.084 46.8072 108.466 46.1789 107.779 45.5512C107.093 44.9931 106.475 44.3648 105.788 43.7379C105.171 43.1095 104.553 42.4819 103.935 41.7841C103.317 41.1565 102.631 40.5288 102.425 39.4821C102.425 39.3431 102.494 39.2729 102.562 39.2034H102.631C103.661 39.4126 104.278 40.0402 104.965 40.6685C105.652 41.226 106.269 41.8543 106.956 42.4819C107.574 43.1095 108.192 43.7379 108.809 44.435C109.427 45.0633 110.114 45.6909 110.319 46.7377C110.319 46.8767 110.251 46.9462 110.182 47.0164H110.114ZM115.331 39.7615C114.37 38.9942 113.889 38.0176 113.408 37.0411C112.859 36.0646 112.379 35.088 111.898 34.1115C111.413 33.1246 110.955 32.1243 110.525 31.1117C110.114 30.0656 109.564 29.0884 109.564 27.9033C109.564 27.7629 109.633 27.6934 109.77 27.6934C109.839 27.6934 109.839 27.6934 109.907 27.7636C110.868 28.531 111.349 29.5075 111.83 30.484C112.379 31.4599 112.859 32.4371 113.34 33.4137C113.826 34.4004 114.284 35.4007 114.713 36.4135C115.125 37.4595 115.674 38.4361 115.674 39.6218C115.674 39.7615 115.606 39.831 115.468 39.831C115.399 39.831 115.331 39.8317 115.331 39.7615ZM121.578 50.0857C120.823 49.3879 120.686 48.4808 120.411 47.644C120.136 46.8072 119.93 45.9697 119.725 45.1328C119.518 44.296 119.381 43.4585 119.175 42.5514C119.038 41.7146 118.764 40.8777 119.107 39.9012C119.175 39.7608 119.244 39.7608 119.381 39.7608C119.381 39.7608 119.45 39.7608 119.45 39.831C120.205 40.5288 120.343 41.4359 120.617 42.2727C120.892 43.1095 121.097 43.9471 121.304 44.7839C121.509 45.6207 121.647 46.4583 121.853 47.3653C121.99 48.2021 122.265 49.039 121.921 50.0155C121.853 50.1552 121.784 50.1552 121.647 50.1552C121.647 50.085 121.578 50.0857 121.578 50.0857ZM124.187 34.7391C123.637 33.9718 123.637 33.2739 123.637 32.5066C123.569 31.7393 123.569 31.0422 123.569 30.2741C123.569 29.5075 123.569 28.8097 123.637 28.0416C123.706 27.275 123.637 26.5772 124.187 25.8098C124.255 25.7396 124.393 25.6708 124.461 25.7396L124.53 25.8098C125.079 26.5772 125.079 27.275 125.079 28.0423C125.148 28.8097 125.148 29.5075 125.148 30.2748C125.148 31.0422 125.148 31.7393 125.079 32.5073C125.01 33.2739 125.079 33.9718 124.53 34.7391C124.461 34.8093 124.324 34.8093 124.187 34.7391C124.255 34.7391 124.255 34.7391 124.187 34.7391ZM123.775 53.0153C123.569 52.0388 123.912 51.4112 124.187 50.6431C124.461 49.946 124.736 49.1787 125.079 48.4809L126.109 46.3888C126.452 45.6909 126.727 44.9931 127.55 44.5052C127.619 44.435 127.757 44.5052 127.825 44.5747V44.6449C128.031 45.6207 127.688 46.2491 127.413 47.0164C127.138 47.7135 126.864 48.4809 126.52 49.1787L125.491 51.2708C125.148 51.9686 124.873 52.6664 124.049 53.155C123.98 53.155 123.844 53.1557 123.775 53.0153ZM129.61 38.7148C129.336 38.0176 129.541 37.6687 129.679 37.1808C129.816 36.7617 130.022 36.2738 130.228 35.8554C130.434 35.4362 130.64 35.0178 130.915 34.5994C131.189 34.181 131.326 33.7626 132.013 33.5534C132.15 33.5534 132.287 33.5534 132.356 33.6924C132.63 34.3902 132.425 34.7384 132.287 35.227C132.134 35.6805 131.95 36.1233 131.738 36.5525C131.532 36.9709 131.326 37.39 131.051 37.8084C130.777 38.2268 130.64 38.6453 129.953 38.8545C129.816 38.9247 129.679 38.8538 129.61 38.7148ZM130.777 45.7604C130.64 44.8534 131.051 44.2953 131.395 43.6684C131.738 43.04 132.013 42.4819 132.425 41.8543C132.79 41.2575 133.179 40.6757 133.591 40.1104C134.004 39.5523 134.278 38.924 135.102 38.6453C135.239 38.5751 135.377 38.6453 135.377 38.785V38.8552C135.514 39.7608 135.102 40.3196 134.759 40.9473C134.416 41.5749 134.141 42.1337 133.729 42.7613C133.364 43.3581 132.975 43.9399 132.562 44.5052C132.15 45.0633 131.876 45.6909 131.051 45.9697C130.915 45.9697 130.846 45.8994 130.777 45.7604ZM137.985 39.831C138.191 38.8552 138.74 38.2963 139.289 37.7389C139.839 37.1106 140.388 36.5525 140.937 35.9944C141.487 35.4362 142.104 34.8781 142.722 34.3207C143.34 33.7626 143.889 33.2044 144.85 32.9952C144.988 32.9952 145.056 33.0654 145.125 33.1342V33.2044C144.919 34.1803 144.37 34.7391 143.82 35.2965C143.271 35.9249 142.722 36.483 142.172 37.0411C141.623 37.5992 141.006 38.1573 140.388 38.7155C139.77 39.2729 139.221 39.8317 138.26 40.0402C138.122 40.0402 138.054 39.9707 137.985 39.9012V39.831Z" fill="#F283AA"/>
<path d="M158.374 35.3668C157.962 35.2271 157.893 35.0178 157.688 34.7391C157.55 34.5299 157.413 34.2505 157.275 33.9718C157.139 33.6924 157.07 33.4832 156.932 33.2045C156.864 32.9251 156.726 32.7159 156.864 32.2974L157.07 32.2272C157.482 32.3676 157.55 32.5769 157.756 32.8556C157.893 33.0648 158.031 33.3442 158.168 33.6229C158.305 33.9023 158.374 34.1115 158.511 34.3902C158.58 34.6696 158.717 34.8788 158.58 35.2973L158.374 35.3668Z" fill="#F0C930"/>
<path d="M156.246 34.4597C156.383 34.0413 156.589 33.9718 156.864 33.7626C157.07 33.6222 157.344 33.4832 157.619 33.3435C157.893 33.2045 158.1 33.1343 158.374 32.9953C158.649 32.9251 158.854 32.7854 159.266 32.9251L159.335 33.1343C159.198 33.5527 158.992 33.6229 158.717 33.8321C158.511 33.9718 158.237 34.1108 157.962 34.2505C157.688 34.3902 157.482 34.4597 157.207 34.5994C156.932 34.6696 156.726 34.8086 156.314 34.6696L156.246 34.4597Z" fill="#F0C930"/>
<path d="M3.36439 74.4304L3.98218 73.2447C4.05098 73.0355 3.84458 72.8262 3.63818 72.8957L2.47209 73.5936L1.4422 72.617C1.3046 72.4773 1.0301 72.617 1.0301 72.8262L1.3046 74.2212L0.137807 74.8495C-0.0685929 74.9885 0.000207115 75.2679 0.206607 75.2679L1.511 75.4069L1.7848 76.8721C1.8536 77.0813 2.12879 77.1515 2.26569 76.9416L2.81469 75.6169L4.25668 75.8261C4.46238 75.8261 4.59998 75.5467 4.46238 75.4069L3.36439 74.4304Z" fill="#2A46CE"/>
<path d="M56.2239 3.34874L56.7048 2.4417C56.7729 2.30199 56.636 2.09278 56.4303 2.23249L55.5373 2.72041L54.7826 2.02328C54.645 1.88287 54.4386 2.02328 54.5081 2.16229L54.7138 3.20833L53.8215 3.69695C53.6839 3.76715 53.6839 4.04586 53.8903 4.04586L54.8507 4.11607L55.0571 5.23231C55.0571 5.44082 55.3316 5.44082 55.4004 5.30181L55.8125 4.25577L56.9105 4.39478C57.1169 4.39478 57.185 4.18557 57.0481 4.04586L56.2239 3.34874Z" fill="#F0C930"/>
<path d="M167.298 39.9707L167.916 38.7154C168.054 38.5055 167.779 38.2963 167.573 38.3665L166.337 39.0637L165.307 38.0878C165.102 37.9474 164.895 38.0878 164.895 38.2963L165.171 39.692L164.003 40.3891C163.797 40.5288 163.866 40.8075 164.072 40.8777L165.376 41.0174L165.651 42.4819C165.72 42.6911 165.994 42.7613 166.132 42.5521L166.749 41.1564L168.191 41.3656C168.397 41.3656 168.534 41.0869 168.397 40.9472L167.298 39.9707Z" fill="#8C8F94"/>
<path d="M135.583 3.9062L136.681 1.60421C136.887 1.18579 136.475 0.767374 136.064 1.04679L133.867 2.30203L131.945 0.558166C131.601 0.279455 131.121 0.558166 131.189 0.976582L131.67 3.55799L129.473 4.81323C129.062 5.02244 129.198 5.58057 129.679 5.65077L132.082 5.85998L132.563 8.58039C132.631 8.9988 133.248 9.0683 133.386 8.65059L134.485 6.13869L137.162 6.4876C137.574 6.55781 137.848 5.99898 137.505 5.72027L135.583 3.9062ZM96.8645 106.38C96.8645 105.613 97.0021 104.775 97.0709 104.008C97.2766 102.683 97.5511 101.358 97.9632 100.032C98.3714 98.7276 98.8526 97.4467 99.4045 96.1958C99.9497 94.9384 100.592 93.7255 101.327 92.5683C102.769 90.2663 104.484 88.1041 106.613 86.3602L106.475 86.2205C104.21 87.7551 102.288 89.9174 100.778 92.2194C99.2676 94.5214 98.1001 97.1021 97.2766 99.8232C96.8645 101.149 96.5212 102.544 96.3155 103.939C96.1779 104.775 96.1098 105.613 96.041 106.45H96.8645V106.38Z" fill="#2A46CE"/>
<path d="M170.594 78.4067C171.163 78.4067 171.623 77.9385 171.623 77.3607C171.623 76.7829 171.163 76.314 170.594 76.314C170.319 76.3164 170.055 76.428 169.862 76.6242C169.669 76.8205 169.562 77.0854 169.564 77.3607C169.564 77.9385 170.025 78.4067 170.594 78.4067Z" fill="#C475BD"/>
<path d="M88.4201 103.868C88.9698 105.194 89.8621 106.449 90.892 107.496C91.5098 108.193 92.2645 108.821 92.9511 109.449H94.3931C93.432 108.611 92.4021 107.844 91.5786 106.938C90.6175 105.961 89.7933 104.775 89.2443 103.589C88.6953 102.334 88.352 101.008 88.1456 99.6828C87.9399 98.3574 87.8023 96.9624 87.8023 95.637C87.8023 94.242 87.8711 92.9166 88.0775 91.5216C88.2192 90.1491 88.495 88.7938 88.901 87.475C89.6564 84.8248 90.7544 82.2434 92.4021 79.9414L92.2645 79.8024C90.4111 81.9647 89.1067 84.6156 88.2832 87.2658C87.4654 89.9572 87.049 92.7545 87.0476 95.5675C87.0476 96.9624 87.1845 98.3574 87.3909 99.7523C87.5299 101.167 87.8767 102.554 88.4201 103.868ZM77.2991 94.0328C78.2602 96.1951 78.878 98.4971 79.2901 100.799C79.4949 101.976 79.6325 103.164 79.7022 104.356C79.771 105.542 79.771 106.729 79.6334 107.914C79.5646 108.402 79.4958 108.821 79.4277 109.309L80.2512 109.518C80.32 109.03 80.4569 108.472 80.4569 107.984C80.5945 106.755 80.5945 105.515 80.4569 104.287C80.3888 103.101 80.1824 101.845 79.9767 100.659C79.4958 98.2879 78.878 95.9157 77.78 93.6839C77.2303 92.5676 76.6813 91.5216 75.9266 90.5444C75.1712 89.5678 74.347 88.6615 73.3859 88.0332L73.249 88.1729C74.1413 88.9402 74.8967 89.8472 75.5145 90.8238C76.2779 91.7906 76.8805 92.8742 77.2991 94.0328Z" fill="#2A46CE"/>
<path d="M65.2171 102.054C64.5306 101.845 64.3249 101.427 64.1192 101.008C63.844 100.59 63.6383 100.171 63.4326 99.7523C63.2201 99.3232 63.0365 98.8804 62.8829 98.4268C62.746 97.9389 62.4715 97.5205 62.8148 96.8922L63.1581 96.7532C63.844 96.9624 64.0497 97.3808 64.2561 97.7992C64.5305 98.2176 64.7369 98.636 64.9426 99.0552C65.1483 99.4736 65.3547 99.9615 65.4916 100.381C65.6292 100.869 65.9037 101.287 65.5604 101.915L65.2171 102.054Z" fill="#F0C930"/>
<path d="M61.5103 100.381C61.716 99.6828 62.1281 99.4736 62.5394 99.2644C62.9515 98.985 63.3636 98.7758 63.775 98.5666C64.197 98.3513 64.633 98.1649 65.0801 98.0084C65.5603 97.8694 65.9717 97.59 66.5895 97.9389L66.7271 98.2879C66.5214 98.985 66.1093 99.1942 65.6979 99.4041C65.2858 99.6828 64.8737 99.892 64.4623 100.101C64.0406 100.316 63.6048 100.503 63.1579 100.659C62.677 100.799 62.2649 101.078 61.6472 100.729L61.5103 100.381Z" fill="#F0C930"/>
<path d="M7.00255 21.2761C7.5712 21.2761 8.03244 20.8071 8.03244 20.23C8.03244 19.6515 7.5712 19.1833 7.00255 19.1833C6.4339 19.1833 5.97266 19.6515 5.97266 20.2293C5.97266 20.8071 6.4339 21.2761 7.00255 21.2761Z" fill="#C475BD"/>
<path d="M21.2817 77.0813C21.4874 76.1742 22.1052 75.826 22.6542 75.3374C23.2032 74.8495 23.7529 74.4304 24.3019 73.9425C24.8509 73.524 25.4687 73.1056 26.0184 72.6865C26.6362 72.2681 27.1852 71.8497 28.0775 71.8497C28.2151 71.8497 28.2839 71.9192 28.2839 72.0589V72.1284C28.0775 73.0354 27.4597 73.3843 26.9107 73.8729C26.3617 74.3609 25.812 74.7793 25.263 75.2679C24.714 75.6863 24.0962 76.1047 23.5465 76.5232C22.9287 76.9416 22.3797 77.3607 21.4874 77.3607C21.3498 77.3607 21.2817 77.2905 21.2817 77.0813C21.2817 77.1515 21.2817 77.1515 21.2817 77.0813Z" fill="#00A32A"/>
</g>
</g>
<defs>
<clipPath id="clip0_2_14741">
<rect width="172" height="109.518" fill="white"/>
</clipPath>
</defs>
</svg>