<svg width="140" height="38" viewBox="0 0 140 38" fill="none" xmlns="http://www.w3.org/2000/svg">
<path fill-rule="evenodd" clip-rule="evenodd" d="M26.9028 33.1643L31.9913 18.3454C32.9386 15.9504 33.2569 14.0382 33.2569 12.3371C33.2569 11.7223 33.2157 11.1453 33.1446 10.6097C34.4438 12.9972 35.1852 15.7429 35.1852 18.6584C35.1852 24.8478 31.8565 30.2526 26.9028 33.1605V33.1643ZM20.8221 10.7945C21.8255 10.7417 22.7279 10.6361 22.7279 10.6361C23.6228 10.5305 23.518 9.1991 22.6231 9.2519C22.6231 9.2519 19.9272 9.46312 18.1823 9.46312C16.5423 9.46312 13.794 9.2519 13.794 9.2519C12.8954 9.1991 12.7905 10.5833 13.6892 10.6361C13.6892 10.6361 14.5391 10.7417 15.4378 10.7945L18.0326 17.9607L14.3856 28.974L8.31984 10.7907C9.32706 10.7379 10.2257 10.6323 10.2257 10.6323C11.1206 10.5267 11.0157 9.19533 10.1209 9.24813C10.1209 9.24813 7.42495 9.45934 5.68011 9.45934C5.36933 9.45934 4.99864 9.4518 4.60549 9.44049C7.5897 4.89185 12.7082 1.88206 18.5268 1.88206C22.8665 1.88206 26.813 3.55291 29.7747 6.29114C29.7036 6.28737 29.6324 6.27606 29.5613 6.27606C27.9213 6.27606 26.7643 7.71306 26.7643 9.2519C26.7643 10.6361 27.5543 11.8053 28.4043 13.1895C29.0371 14.3059 29.7784 15.7429 29.7784 17.8174C29.7784 19.2544 29.3553 21.061 28.5091 23.2448L26.8466 28.8382L20.8258 10.8021V10.7945H20.8221ZM18.5268 35.4424C16.8905 35.4424 15.3142 35.1972 13.8202 34.7597L18.8189 20.1294L23.9411 34.2618C23.9748 34.3448 24.016 34.4202 24.0609 34.4919C22.3273 35.1029 20.4664 35.4424 18.5306 35.4424H18.5268ZM1.86841 18.6584C1.86841 16.2257 2.38887 13.9175 3.30996 11.828L11.2554 33.7602C5.69508 31.0408 1.86841 25.3041 1.86841 18.6584ZM18.5268 0C8.31235 0 0 8.3731 0 18.6622C0 28.9513 8.31235 37.3244 18.5268 37.3244C28.7413 37.3244 37.0536 28.9513 37.0536 18.6622C37.0536 8.3731 28.745 0 18.5268 0Z" fill="#3858E9"/>
<path d="M127.519 20.1318L127.519 31.5947H122.937L122.937 12.0314H127.317L127.317 15.3556H127.545C127.992 14.2603 128.705 13.39 129.684 12.7446C130.671 12.0993 131.89 11.7767 133.342 11.7767C134.684 11.7767 135.852 12.0654 136.848 12.6428C137.852 13.2201 138.628 14.0565 139.177 15.1518C139.734 16.2472 140.008 17.576 140 19.1384L140 31.5947H135.418L135.418 19.8516C135.418 18.544 135.08 17.5208 134.405 16.7821C133.738 16.0434 132.814 15.674 131.633 15.674C130.831 15.674 130.118 15.8523 129.494 16.209C128.878 16.5571 128.393 17.0623 128.038 17.7246C127.692 18.3869 127.519 19.1893 127.519 20.1318Z" fill="#3858E9"/>
<path d="M109.446 31.5947L109.446 12.0315H113.889L113.889 15.292H114.091C114.445 14.1627 115.053 13.2924 115.914 12.681C116.783 12.0612 117.774 11.7513 118.888 11.7513C119.141 11.7513 119.424 11.764 119.736 11.7895C120.057 11.8065 120.323 11.8362 120.534 11.8786L120.534 16.1199C120.34 16.052 120.032 15.9925 119.61 15.9416C119.196 15.8822 118.795 15.8524 118.407 15.8524C117.572 15.8524 116.821 16.035 116.154 16.4001C115.496 16.7567 114.977 17.2534 114.597 17.8903C114.218 18.5271 114.028 19.2616 114.028 20.0937L114.028 31.5947H109.446Z" fill="#3858E9"/>
<path d="M95.2124 31.9895C93.9805 31.9895 92.8708 31.7687 91.8835 31.3272C90.9047 30.8772 90.1284 30.2149 89.5546 29.3403C88.9892 28.4657 88.7065 27.3874 88.7065 26.1052C88.7065 25.0014 88.9091 24.0886 89.3141 23.3669C89.7191 22.6451 90.2718 22.0678 90.9722 21.6347C91.6726 21.2017 92.4616 20.8748 93.3391 20.654C94.2252 20.4248 95.1407 20.2592 96.0858 20.1573C97.225 20.0384 98.149 19.9323 98.8578 19.8389C99.5666 19.737 100.081 19.5841 100.402 19.3804C100.731 19.1681 100.896 18.8412 100.896 18.3996L100.896 18.3232C100.896 17.3637 100.613 16.6208 100.048 16.0943C99.4822 15.5679 98.6679 15.3047 97.6047 15.3047C96.4824 15.3047 95.5922 15.5509 94.934 16.0434C94.2842 16.5359 93.8454 17.1175 93.6176 17.7883L89.3394 17.1769C89.6769 15.9882 90.2339 14.9948 91.0102 14.1966C91.7865 13.39 92.7358 12.7871 93.8581 12.388C94.9804 11.9805 96.2208 11.7767 97.5794 11.7767C98.516 11.7767 99.4484 11.8871 100.377 12.1078C101.305 12.3286 102.153 12.6937 102.921 13.2032C103.689 13.7041 104.305 14.3877 104.769 15.2537C105.241 16.1198 105.478 17.2024 105.478 18.5015L105.478 31.5947H101.073L101.073 28.9073H100.921C100.642 29.4507 100.25 29.9601 99.7438 30.4356C99.2459 30.9026 98.6173 31.2805 97.8578 31.5692C97.1068 31.8494 96.225 31.9895 95.2124 31.9895ZM96.4022 28.6016C97.322 28.6016 98.1194 28.419 98.7945 28.0539C99.4695 27.6803 99.9885 27.1878 100.351 26.5765C100.723 25.9651 100.908 25.2986 100.908 24.5768L100.908 22.2715C100.765 22.3904 100.52 22.5008 100.174 22.6027C99.8366 22.7046 99.4569 22.7937 99.035 22.8702C98.6131 22.9466 98.1954 23.0145 97.7819 23.0739C97.3684 23.1334 97.0098 23.1843 96.706 23.2268C96.0225 23.3202 95.4107 23.473 94.8707 23.6853C94.3306 23.8976 93.9045 24.1948 93.5923 24.5768C93.2801 24.9505 93.124 25.4344 93.124 26.0288C93.124 26.8779 93.432 27.519 94.048 27.952C94.664 28.3851 95.4487 28.6016 96.4022 28.6016Z" fill="#3858E9"/>
<path d="M77.7368 31.9767C75.7876 31.9767 74.1042 31.5692 72.6865 30.754C71.2774 29.9304 70.193 28.7671 69.4336 27.2642C68.6742 25.7528 68.2944 23.974 68.2944 21.9277C68.2944 19.9153 68.6742 18.1492 69.4336 16.6293C70.2015 15.1009 71.2731 13.9122 72.6486 13.0631C74.024 12.2055 75.6399 11.7767 77.4963 11.7767C78.6946 11.7767 79.8253 11.972 80.8885 12.3626C81.9602 12.7446 82.9053 13.339 83.7238 14.1457C84.5507 14.9523 85.2005 15.9797 85.673 17.2279C86.1456 18.4676 86.3818 19.945 86.3818 21.6602L86.3818 23.0739H70.4462L70.4462 19.9662H81.9897C81.9813 19.0832 81.7914 18.2978 81.4201 17.61C81.0489 16.9137 80.5299 16.3661 79.8633 15.967C79.2051 15.5679 78.4372 15.3684 77.5596 15.3684C76.623 15.3684 75.8003 15.5976 75.0914 16.0561C74.3826 16.5062 73.8299 17.1005 73.4333 17.8392C73.0452 18.5695 72.8469 19.3719 72.8384 20.2464L72.8384 22.9593C72.8384 24.0971 73.0452 25.0736 73.4586 25.8887C73.8721 26.6953 74.4501 27.3152 75.1927 27.7482C75.9353 28.1728 76.8044 28.3851 77.8001 28.3851C78.4667 28.3851 79.0701 28.2917 79.6101 28.1049C80.1502 27.9096 80.6185 27.6251 81.0151 27.2515C81.4117 26.8779 81.7113 26.4151 81.9138 25.8632L86.192 26.3472C85.9219 27.485 85.4072 28.4785 84.6478 29.3276C83.8968 30.1682 82.9348 30.822 81.7619 31.289C80.589 31.7475 79.2473 31.9767 77.7368 31.9767Z" fill="#3858E9"/>
<path d="M49.7837 31.5948L49.7837 5.5105H54.4796L54.4796 27.6338H65.8965L65.8965 31.5948H49.7837Z" fill="#3858E9"/>
</svg>
