<svg width="183" height="120" viewBox="0 0 183 120" fill="none" xmlns="http://www.w3.org/2000/svg">
<g clip-path="url(#clip0_2_14345)">
<path d="M181 0.5H2C1.17157 0.5 0.5 1.17157 0.5 2V118C0.5 118.828 1.17157 119.5 2 119.5H181C181.828 119.5 182.5 118.828 182.5 118V2C182.5 1.17157 181.828 0.5 181 0.5Z" fill="white" stroke="#C3C4C7"/>
<path d="M172 106H28V109H172V106Z" fill="#EEEEEE"/>
<path d="M126 106H11V109H126V106Z" fill="#656970"/>
<path d="M78.3623 42.172L78.3477 41.7723L77.7939 41.7924L77.9874 42.3117L78.3623 42.172ZM87.2283 65.962L86.8534 66.1017L87.2627 67.2L87.6103 66.0806L87.2283 65.962ZM81.4043 41.964L81.4428 42.3623L81.4519 42.3612L81.4043 41.964ZM81.2483 39.078L81.2323 38.6784L81.2251 38.6786L81.218 38.6792L81.2483 39.078ZM73.5783 39.338L73.2431 39.1197L72.8621 39.7044L73.5592 39.7376L73.5783 39.338ZM108.73 34.97L108.666 35.3649L109.983 35.5779L109.001 34.6755L108.73 34.97ZM106.346 43.8336L106.006 44.0445L106.008 44.048L106.346 43.8336ZM106.346 43.8336L106.686 43.6229L106.684 43.6196L106.346 43.8336ZM106.78 44.538L107.127 44.3389L107.122 44.3302L106.78 44.538ZM104.57 63.934L104.194 64.0702L104.552 65.0591L104.942 64.0822L104.57 63.934ZM96.6923 42.172L96.6775 41.7723L96.1295 41.7926L96.3161 42.3082L96.6923 42.172ZM98.8243 41.73L98.7845 41.332L98.7054 41.3399L98.6354 41.3774L98.8243 41.73ZM98.6683 38.558L98.6443 38.1586L98.635 38.1594L98.6683 38.558ZM86.4223 38.558L86.455 38.1593L86.4462 38.1588L86.4223 38.558ZM86.2663 41.73L86.3009 41.3315L86.2916 41.3307L86.2822 41.3304L86.2663 41.73ZM88.6583 41.938L89.0335 41.7994L88.9456 41.5615L88.6929 41.5395L88.6583 41.938ZM91.9343 50.804L92.3163 50.9226L92.3566 50.7929L92.3095 50.6654L91.9343 50.804ZM112.266 52L112.64 52.1421L112.641 52.1409L112.266 52ZM104.674 72.228L104.3 72.0877L103.909 73.1313L104.874 72.5745L104.674 72.228ZM113.384 40.95L113.736 40.7593L112.988 41.0017L113.384 40.95ZM82.8601 73.034L82.6861 73.3942L83.577 73.8247L83.2356 72.896L82.8601 73.034ZM71.7581 42.666L72.1339 42.5289L71.7933 41.5959L71.3922 42.5045L71.7581 42.666ZM93.338 55.7959L93.7132 55.6573L93.3217 54.5981L92.9592 55.6675L93.338 55.7959ZM100.046 73.9439L100.174 74.323L100.564 74.1914L100.421 73.8053L100.046 73.9439ZM87.046 74.2559L86.6674 74.1271L86.5344 74.5179L86.9292 74.6385L87.046 74.2559ZM93.0001 26.4C107.105 26.4 118.6 37.8949 118.6 52H119.4C119.4 37.4531 107.547 25.6 93.0001 25.6V26.4ZM67.4001 52C67.4001 37.8947 78.8693 26.4 93.0001 26.4V25.6C78.4269 25.6 66.6001 37.4533 66.6001 52H67.4001ZM93.0001 77.6C78.869 77.6 67.4001 66.1311 67.4001 52H66.6001C66.6001 66.5729 78.4272 78.4 93.0001 78.4V77.6ZM118.6 52C118.6 66.1308 107.105 77.6 93.0001 77.6V78.4C107.547 78.4 119.4 66.5732 119.4 52H118.6ZM77.9874 42.3117L86.8534 66.1017L87.6031 65.8223L78.7371 42.0324L77.9874 42.3117ZM81.4043 41.964C81.3657 41.5659 81.3657 41.5659 81.3657 41.5659C81.3655 41.5659 81.3651 41.566 81.3647 41.566C81.364 41.5661 81.3629 41.5662 81.3614 41.5663C81.3584 41.5666 81.3539 41.567 81.348 41.5676C81.336 41.5687 81.3183 41.5704 81.2951 41.5726C81.2487 41.5769 81.1807 41.5831 81.0946 41.5908C80.9223 41.6061 80.6775 41.6271 80.3883 41.6498C79.8091 41.6951 79.0548 41.7466 78.3477 41.7723L78.3768 42.5718C79.0997 42.5455 79.8664 42.493 80.4507 42.4473C80.7432 42.4244 80.9909 42.4032 81.1655 42.3876C81.2528 42.3799 81.3219 42.3735 81.3693 42.3691C81.393 42.3669 81.4113 42.3652 81.4236 42.364C81.4298 42.3634 81.4346 42.363 81.4378 42.3627C81.4394 42.3625 81.4406 42.3624 81.4414 42.3623C81.4419 42.3623 81.4426 42.3623 81.4428 42.3623C81.4427 42.3623 81.4429 42.3623 81.4428 42.3623C81.4429 42.3623 81.4428 42.3622 81.4043 41.964ZM81.2642 39.4777C81.4221 39.4714 81.5568 39.542 81.675 39.7127C81.7999 39.8933 81.8853 40.1644 81.9019 40.465C81.9184 40.765 81.8638 41.0503 81.7569 41.2542C81.6542 41.45 81.52 41.5473 81.3566 41.5669L81.4519 42.3612C81.9385 42.3028 82.2723 41.9938 82.4654 41.6258C82.6542 41.2658 82.7231 40.8295 82.7007 40.4211C82.6782 40.0131 82.5621 39.5888 82.3328 39.2575C82.0967 38.9164 81.7244 38.6587 81.2323 38.6784L81.2642 39.4777ZM75.0863 39.764C76.2944 39.764 77.8444 39.692 79.0873 39.6204C79.7098 39.5845 80.2573 39.5487 80.6492 39.5218C80.8452 39.5083 81.0023 39.4971 81.1105 39.4893C81.1647 39.4853 81.2066 39.4823 81.235 39.4801C81.2492 39.4791 81.26 39.4783 81.2673 39.4777C81.271 39.4775 81.2737 39.4773 81.2756 39.4771C81.2766 39.477 81.2773 39.477 81.2778 39.4769C81.2778 39.4769 81.2785 39.4769 81.2483 39.078C81.218 38.6792 81.218 38.6792 81.218 38.6792C81.2179 38.6792 81.2182 38.6792 81.218 38.6792C81.2176 38.6793 81.2163 38.6793 81.2154 38.6794C81.2136 38.6795 81.211 38.6797 81.2074 38.68C81.2003 38.6805 81.1897 38.6813 81.1757 38.6823C81.1477 38.6844 81.1063 38.6875 81.0526 38.6914C80.9454 38.6992 80.7893 38.7103 80.5944 38.7237C80.2047 38.7504 79.6602 38.7861 79.0413 38.8217C77.8011 38.8931 76.2701 38.964 75.0863 38.964V39.764ZM73.5592 39.7376C74.116 39.7641 74.619 39.764 75.0863 39.764V38.964C74.6175 38.964 74.1325 38.964 73.5973 38.9385L73.5592 39.7376ZM93.0003 28.486C84.7242 28.486 77.4494 32.6647 73.2431 39.1197L73.9134 39.5564C77.9751 33.3233 85.0003 29.286 93.0003 29.286V28.486ZM109.001 34.6755C104.768 30.7868 99.1601 28.486 93.0003 28.486V29.286C98.9564 29.286 104.372 31.5093 108.46 35.2646L109.001 34.6755ZM104.84 39.078C104.84 36.2582 107.113 35.1137 108.666 35.3649L108.794 34.5752C106.811 34.2544 104.04 35.7099 104.04 39.078H104.84ZM106.686 43.6229C105.663 41.9742 104.84 40.6281 104.84 39.078H104.04C104.04 40.8975 105.012 42.4426 106.006 44.0445L106.686 43.6229ZM106.684 43.6196L106.008 44.048L106.009 44.0484L106.684 43.6196ZM106.687 43.624L106.686 43.6229L106.006 44.0445L106.007 44.0459L106.687 43.624ZM107.122 44.3302C106.976 44.0896 106.829 43.8541 106.687 43.624L106.007 44.0459C106.15 44.2765 106.294 44.5089 106.438 44.7459L107.122 44.3302ZM108.61 50.934C108.61 48.0222 108.08 45.9994 107.127 44.3389L106.433 44.7371C107.3 46.2486 107.81 48.1258 107.81 50.934H108.61ZM104.57 63.934C104.942 64.0822 104.942 64.0823 104.942 64.0822C104.942 64.0821 104.942 64.0824 104.942 64.0822C104.942 64.0819 104.942 64.0809 104.942 64.0803C104.943 64.0792 104.944 64.0774 104.945 64.0752C104.946 64.0706 104.949 64.0639 104.952 64.0551C104.959 64.0374 104.97 64.0112 104.983 63.977C105.01 63.9086 105.05 63.808 105.1 63.6787C105.2 63.4202 105.342 63.047 105.514 62.5872C105.856 61.6678 106.313 60.4009 106.77 59.0118C107.227 57.6235 107.685 56.1087 108.03 54.6943C108.373 53.287 108.61 51.9522 108.61 50.934H107.81C107.81 51.8529 107.592 53.1115 107.253 54.5049C106.915 55.8913 106.463 57.3844 106.01 58.7618C105.557 60.1384 105.104 61.3952 104.764 62.3079C104.594 62.7642 104.453 63.1342 104.354 63.3899C104.304 63.5178 104.265 63.617 104.239 63.6842C104.226 63.7178 104.215 63.7433 104.209 63.7604C104.205 63.769 104.203 63.7754 104.201 63.7796C104.2 63.7818 104.2 63.7834 104.199 63.7844C104.199 63.7849 104.199 63.7853 104.199 63.7855C104.199 63.7854 104.199 63.7857 104.199 63.7855C104.199 63.7855 104.199 63.7858 104.57 63.934ZM96.3161 42.3082L104.194 64.0702L104.946 63.7979L97.0684 42.0359L96.3161 42.3082ZM98.8243 41.73C98.6354 41.3774 98.6353 41.3775 98.6354 41.3774C98.6352 41.3774 98.6356 41.3773 98.6354 41.3774C98.6356 41.3772 98.6367 41.3767 98.6369 41.3766C98.6369 41.3766 98.6368 41.3766 98.6354 41.3774C98.6325 41.3788 98.6269 41.3817 98.6185 41.3856C98.6018 41.3936 98.5741 41.4062 98.5354 41.4223C98.4581 41.4543 98.3371 41.4997 98.173 41.5475C97.8452 41.6428 97.3447 41.7476 96.6775 41.7723L96.7071 42.5718C97.4438 42.5445 98.0093 42.4282 98.3965 42.3156C98.59 42.2593 98.7386 42.204 98.8417 42.1613C98.8932 42.14 98.9334 42.1218 98.962 42.1082C98.9763 42.1014 98.9877 42.0957 98.9962 42.0914C99.0005 42.0892 99.004 42.0874 99.0069 42.0859C99.0083 42.0852 99.0095 42.0846 99.0105 42.084C99.0111 42.0837 99.0115 42.0835 99.012 42.0833C99.0118 42.0834 99.0122 42.0831 99.012 42.0833C99.0121 42.0833 99.0128 42.0828 99.0129 42.0828C99.013 42.0827 99.0131 42.0826 98.8243 41.73ZM98.6922 38.9573C98.8258 38.9493 98.9578 39.0113 99.0846 39.2144C99.2158 39.4244 99.3046 39.7395 99.3217 40.0858C99.3389 40.4315 99.2824 40.7614 99.1702 40.9962C99.0599 41.227 98.925 41.318 98.7845 41.332L98.8641 42.128C99.3735 42.0771 99.7066 41.7293 99.8921 41.341C100.076 40.9567 100.143 40.4871 100.121 40.0462C100.099 39.6061 99.9862 39.1476 99.7631 38.7906C99.5357 38.4265 99.1607 38.1276 98.6443 38.1586L98.6922 38.9573ZM92.4803 39.27C93.7154 39.27 95.2727 39.1914 96.5158 39.1132C97.1386 39.0741 97.6846 39.035 98.075 39.0057C98.2703 38.991 98.4267 38.9788 98.5344 38.9702C98.5882 38.9659 98.6299 38.9625 98.6581 38.9602C98.6723 38.9591 98.683 38.9582 98.6903 38.9576C98.694 38.9573 98.6967 38.957 98.6986 38.9569C98.6995 38.9568 98.7002 38.9568 98.7007 38.9567C98.7005 38.9567 98.7009 38.9567 98.7007 38.9567C98.7007 38.9567 98.7015 38.9567 98.6683 38.558C98.635 38.1594 98.635 38.1594 98.635 38.1594C98.6349 38.1594 98.6353 38.1593 98.635 38.1594C98.6346 38.1594 98.6334 38.1596 98.6325 38.1596C98.6307 38.1598 98.6281 38.16 98.6246 38.1603C98.6175 38.1609 98.607 38.1617 98.5931 38.1629C98.5653 38.1651 98.5242 38.1685 98.4709 38.1727C98.3642 38.1812 98.209 38.1933 98.0151 38.2079C97.6271 38.2371 97.0844 38.2759 96.4657 38.3148C95.2258 38.3927 93.6892 38.47 92.4803 38.47V39.27ZM86.4223 38.558C86.3895 38.9567 86.3895 38.9567 86.3896 38.9567C86.3893 38.9566 86.3897 38.9567 86.3896 38.9567C86.39 38.9567 86.3915 38.9569 86.3924 38.9569C86.3943 38.9571 86.3971 38.9573 86.4008 38.9576C86.4081 38.9582 86.419 38.9591 86.4333 38.9602C86.4619 38.9626 86.504 38.9659 86.5583 38.9702C86.667 38.9788 86.8247 38.991 87.0209 39.0057C87.4133 39.035 87.96 39.0741 88.5777 39.1132C89.8105 39.1913 91.3357 39.27 92.4803 39.27V38.47C91.3628 38.47 89.859 38.3928 88.6283 38.3148C88.0143 38.276 87.4706 38.2371 87.0805 38.2079C86.8855 38.1933 86.729 38.1812 86.6212 38.1727C86.5674 38.1684 86.5257 38.1651 86.4976 38.1628C86.4835 38.1617 86.4728 38.1608 86.4657 38.1602C86.4621 38.16 86.4594 38.1597 86.4576 38.1596C86.4567 38.1595 86.4555 38.1594 86.455 38.1593C86.455 38.1593 86.455 38.1594 86.4223 38.558ZM86.2822 41.3304C86.1538 41.3252 86.0277 41.2513 85.9195 41.0274C85.8086 40.798 85.7515 40.4668 85.7688 40.1149C85.786 39.7628 85.8752 39.4391 86.0079 39.2221C86.1372 39.0106 86.2697 38.9496 86.3983 38.9573L86.4462 38.1588C85.9248 38.1275 85.5503 38.437 85.3254 38.8048C85.1038 39.1671 84.9915 39.6315 84.9697 40.0757C84.948 40.52 85.0144 40.9932 85.1993 41.3756C85.3868 41.7636 85.7287 42.1089 86.2503 42.1297L86.2822 41.3304ZM88.6929 41.5395L86.3009 41.3315L86.2316 42.1285L88.6236 42.3365L88.6929 41.5395ZM92.3095 50.6654L89.0335 41.7994L88.283 42.0767L91.5591 50.9427L92.3095 50.6654ZM87.6103 66.0806L92.3163 50.9226L91.5522 50.6854L86.8462 65.8434L87.6103 66.0806ZM112.641 52.1409L112.697 51.9898L111.949 51.708L111.892 51.8592L112.641 52.1409ZM107.021 67.0961C108.887 62.103 110.756 57.1011 112.64 52.1421L111.892 51.858C110.008 56.8194 108.137 61.8232 106.271 66.816L107.021 67.0961ZM107.019 67.1003L107.021 67.0961L106.271 66.816L106.27 66.8202L107.019 67.1003ZM105.049 72.3683C105.705 70.615 106.362 68.8582 107.019 67.1003L106.27 66.8202C105.613 68.5781 104.956 70.3347 104.3 72.0877L105.049 72.3683ZM115.714 52C115.714 60.414 111.29 67.9504 104.474 71.8815L104.874 72.5745C111.942 68.4976 116.514 60.694 116.514 52H115.714ZM113.033 41.1408C114.819 44.4331 115.714 48.059 115.714 52H116.514C116.514 47.933 115.589 44.1749 113.736 40.7593L113.033 41.1408ZM112.697 51.9898C113.353 50.249 114.574 46.991 113.781 40.8984L112.988 41.0017C113.759 46.9206 112.577 50.0409 111.949 51.708L112.697 51.9898ZM69.4861 52C69.4861 61.3301 74.7987 69.5828 82.6861 73.3942L83.0342 72.6739C75.4256 68.9972 70.2861 61.0259 70.2861 52H69.4861ZM71.3922 42.5045C70.0933 45.4468 69.4861 48.5707 69.4861 52H70.2861C70.2861 48.6693 70.8749 45.6572 72.1241 42.8276L71.3922 42.5045ZM74.4672 48.9232C73.6893 46.7909 72.9116 44.6593 72.1339 42.5289L71.3824 42.8032C72.1601 44.9336 72.9377 47.0651 73.7157 49.1973L74.4672 48.9232ZM74.4704 48.932L74.4672 48.9232L73.7157 49.1973L73.7189 49.2062L74.4704 48.932ZM83.2356 72.896C80.302 64.9159 77.3846 56.9195 74.4704 48.932L73.7189 49.2062C76.633 57.1936 79.5507 65.1909 82.4847 73.172L83.2356 72.896ZM92.9629 55.9346L99.6709 74.0826L100.421 73.8053L93.7132 55.6573L92.9629 55.9346ZM89.987 66.8734C91.2357 63.2168 92.4809 59.5706 93.7169 55.9244L92.9592 55.6675C91.7235 59.3128 90.4787 62.9581 89.2299 66.6148L89.987 66.8734ZM87.4247 74.3848C88.2793 71.8737 89.134 69.3711 89.987 66.8734L89.2299 66.6148C88.3769 69.1125 87.5222 71.6155 86.6674 74.1271L87.4247 74.3848ZM93 74.7139C90.9824 74.7139 88.9941 74.4329 87.1629 73.8734L86.9292 74.6385C88.842 75.223 90.9097 75.5139 93 75.5139V74.7139ZM99.9182 73.5649C97.7209 74.3059 95.424 74.7139 93 74.7139V75.5139C95.516 75.5139 97.8992 75.09 100.174 74.323L99.9182 73.5649Z" fill="#BDBDC1"/>
<path d="M14 90H12V98H14V90Z" fill="#3858E9"/>
<path d="M18 90H16V98H18V90Z" fill="#3858E9"/>
<g opacity="0.3">
<path d="M168.417 89.9167L165.5 92.25H163.167V95.75H165.5L168.417 98.0834V89.9167Z" stroke="#656970" stroke-linecap="round" stroke-linejoin="round"/>
<path d="M171.065 91.935C171.612 92.482 171.919 93.2237 171.919 93.9971C171.919 94.7705 171.612 95.5122 171.065 96.0592" stroke="#656970" stroke-linecap="round" stroke-linejoin="round"/>
</g>
</g>
<defs>
<clipPath id="clip0_2_14345">
<rect width="183" height="120" fill="white"/>
</clipPath>
</defs>
</svg>
