<svg width="214" height="139" viewBox="0 0 214 139" fill="none" xmlns="http://www.w3.org/2000/svg">
<rect width="213.525" height="138.02" rx="1.62376" fill="#1E1E1E"/>
<path d="M9.42773 13.8105V9.87961H11.8631V10.3209H9.91807V11.5822H11.7623V12.0181H9.91807V13.3692H11.8631V13.8105H9.42773ZM13.7755 13.8623C13.0318 13.8623 12.5441 13.2603 12.5441 12.345V12.3395C12.5441 11.4187 13.029 10.8222 13.7755 10.8222C14.1786 10.8222 14.53 11.0237 14.6908 11.337H14.7344V9.70799H15.2084V13.8105H14.7344V13.342H14.6908C14.511 13.6689 14.1841 13.8623 13.7755 13.8623ZM13.8844 13.4428C14.4184 13.4428 14.7453 13.0233 14.7453 12.345V12.3395C14.7453 11.6612 14.4184 11.2417 13.8844 11.2417C13.3478 11.2417 13.029 11.6557 13.029 12.3395V12.345C13.029 13.0287 13.3478 13.4428 13.8844 13.4428ZM16.3688 10.3073C16.189 10.3073 16.0419 10.1602 16.0419 9.9804C16.0419 9.80061 16.189 9.6535 16.3688 9.6535C16.5486 9.6535 16.6957 9.80061 16.6957 9.9804C16.6957 10.1602 16.5486 10.3073 16.3688 10.3073ZM16.1291 13.8105V10.8739H16.6031V13.8105H16.1291ZM18.54 13.8323C17.9352 13.8323 17.6819 13.609 17.6819 13.0478V11.2662H17.2188V10.8739H17.6819V10.1139H18.1722V10.8739H18.8151V11.2662H18.1722V12.9279C18.1722 13.2739 18.2921 13.4128 18.5972 13.4128C18.6816 13.4128 18.728 13.4101 18.8151 13.4019V13.8051C18.7225 13.8214 18.6326 13.8323 18.54 13.8323ZM20.6866 13.8623C19.8503 13.8623 19.3327 13.2848 19.3327 12.345V12.3395C19.3327 11.397 19.8503 10.8222 20.6866 10.8222C21.5229 10.8222 22.0405 11.397 22.0405 12.3395V12.345C22.0405 13.2848 21.5229 13.8623 20.6866 13.8623ZM20.6866 13.4428C21.2423 13.4428 21.5556 13.0369 21.5556 12.345V12.3395C21.5556 11.6449 21.2423 11.2417 20.6866 11.2417C20.1309 11.2417 19.8176 11.6449 19.8176 12.3395V12.345C19.8176 13.0369 20.1309 13.4428 20.6866 13.4428ZM22.776 13.8105V10.8739H23.25V11.3098H23.2936C23.4053 11.002 23.6804 10.8222 24.0782 10.8222C24.1681 10.8222 24.2689 10.8331 24.3152 10.8412V11.3016C24.2171 11.2853 24.1272 11.2744 24.0237 11.2744C23.5715 11.2744 23.25 11.5604 23.25 11.9908V13.8105H22.776Z" fill="white"/>
<rect x="4.46323" y="19.158" width="74.7592" height="11.1581" rx="0.557904" fill="#3858E9"/>
<path fill-rule="evenodd" clip-rule="evenodd" d="M12.8318 26.9686H14.5055V23.5827L12.2739 22.5054L10.0423 23.5827V26.9686H11.716H12.8318ZM12.8318 26.5502H14.0871V23.8453L12.2739 22.97L10.4607 23.8453V26.5502H11.716V25.0159H12.8318V26.5502Z" fill="white"/>
<path d="M19.1058 25.8019C18.5032 25.8019 18.1142 25.4853 18.0741 25.0372L18.0722 25.0163H18.4155L18.4174 25.0372C18.4422 25.3118 18.7282 25.4853 19.1248 25.4853C19.4986 25.4853 19.7713 25.2928 19.7713 25.0124V25.0105C19.7713 24.7817 19.613 24.6253 19.2354 24.5414L18.9303 24.4747C18.3792 24.3527 18.1409 24.099 18.1409 23.7005V23.6986C18.1428 23.2428 18.5413 22.9206 19.1096 22.9206C19.6588 22.9206 20.0421 23.2447 20.0707 23.6547L20.0726 23.6814H19.7293L19.7255 23.6566C19.6874 23.4145 19.4585 23.2352 19.1 23.2371C18.7568 23.239 18.4917 23.4011 18.4917 23.6891V23.691C18.4917 23.9103 18.6424 24.059 19.0161 24.141L19.3212 24.2096C19.8952 24.3374 20.1221 24.5681 20.1221 24.9648V24.9667C20.1221 25.4815 19.7198 25.8019 19.1058 25.8019ZM20.8277 23.2848C20.7018 23.2848 20.5989 23.1818 20.5989 23.056C20.5989 22.9301 20.7018 22.8271 20.8277 22.8271C20.9536 22.8271 21.0565 22.9301 21.0565 23.056C21.0565 23.1818 20.9536 23.2848 20.8277 23.2848ZM20.6599 25.7371V23.6814H20.9917V25.7371H20.6599ZM22.3475 25.7523C21.9242 25.7523 21.7468 25.5959 21.7468 25.2031V23.956H21.4227V23.6814H21.7468V23.1494H22.0901V23.6814H22.5401V23.956H22.0901V25.1192C22.0901 25.3614 22.174 25.4587 22.3875 25.4587C22.4467 25.4587 22.4791 25.4567 22.5401 25.451V25.7332C22.4753 25.7447 22.4123 25.7523 22.3475 25.7523ZM23.8444 25.7733C23.2571 25.7733 22.9024 25.3614 22.9024 24.7169V24.715C22.9024 24.08 23.2647 23.6452 23.8234 23.6452C24.3822 23.6452 24.7216 24.0609 24.7216 24.6749V24.8046H23.2418C23.2514 25.2298 23.4859 25.4777 23.852 25.4777C24.1305 25.4777 24.3021 25.3461 24.3574 25.2222L24.365 25.205H24.6968L24.693 25.2203C24.6224 25.4987 24.3288 25.7733 23.8444 25.7733ZM23.8215 23.9408C23.5164 23.9408 23.2838 24.1486 23.2476 24.5395H24.3841C24.3497 24.1334 24.1247 23.9408 23.8215 23.9408Z" fill="white"/>
<rect x="4.46323" y="30.3162" width="74.7592" height="11.1581" rx="0.557904" fill="#1E1E1E"/>
<path fill-rule="evenodd" clip-rule="evenodd" d="M10.6002 33.6636H13.9476C14.2557 33.6636 14.5055 33.9134 14.5055 34.2215V37.5689C14.5055 37.877 14.2557 38.1268 13.9476 38.1268H10.6002C10.292 38.1268 10.0423 37.877 10.0423 37.5689V34.2215C10.0423 33.9134 10.292 33.6636 10.6002 33.6636ZM13.9476 34.082H10.6002C10.5231 34.082 10.4607 34.1444 10.4607 34.2215V35.0583H14.0871V34.2215C14.0871 34.1444 14.0246 34.082 13.9476 34.082ZM14.0871 35.4768H11.716L11.716 37.7084H13.9476C14.0246 37.7084 14.0871 37.6459 14.0871 37.5689V35.4768ZM11.2976 35.4768H10.4607V37.5689C10.4607 37.6459 10.5231 37.7084 10.6002 37.7084H11.2976L11.2976 35.4768Z" fill="#BBBBBB"/>
<path d="M18.9189 36.8953V34.4525H18.0322V34.1436H20.1488V34.4525H19.2621V36.8953H18.9189ZM21.0947 36.9315C20.5073 36.9315 20.1527 36.5196 20.1527 35.8751V35.8732C20.1527 35.2382 20.515 34.8034 21.0737 34.8034C21.6324 34.8034 21.9718 35.2191 21.9718 35.8331V35.9628H20.4921C20.5016 36.388 20.7362 36.6359 21.1023 36.6359C21.3807 36.6359 21.5523 36.5043 21.6076 36.3804L21.6152 36.3632H21.947L21.9432 36.3785C21.8727 36.6569 21.579 36.9315 21.0947 36.9315ZM21.0718 35.099C20.7667 35.099 20.534 35.3068 20.4978 35.6977H21.6343C21.6 35.2916 21.375 35.099 21.0718 35.099ZM22.4867 36.8953V34.8396H22.8185V35.1524H22.849C22.9405 34.9312 23.135 34.8034 23.4039 34.8034C23.6823 34.8034 23.8768 34.9502 23.9722 35.1638H24.0027C24.1133 34.9464 24.3478 34.8034 24.632 34.8034C25.0515 34.8034 25.286 35.0437 25.286 35.4746V36.8953H24.9542V35.5509C24.9542 35.2477 24.815 35.0971 24.5252 35.0971C24.2391 35.0971 24.0504 35.3125 24.0504 35.5738V36.8953H23.7186V35.4994C23.7186 35.2553 23.5508 35.0971 23.2914 35.0971C23.0225 35.0971 22.8185 35.3316 22.8185 35.6215V36.8953H22.4867ZM25.8848 37.5817V34.8396H26.2166V35.1676H26.2471C26.373 34.9388 26.6018 34.8034 26.8878 34.8034C27.4084 34.8034 27.7497 35.2248 27.7497 35.8655V35.8694C27.7497 36.5139 27.4103 36.9315 26.8878 36.9315C26.6056 36.9315 26.3596 36.7904 26.2471 36.5711H26.2166V37.5817H25.8848ZM26.8116 36.6378C27.1872 36.6378 27.4103 36.348 27.4103 35.8694V35.8655C27.4103 35.3869 27.1872 35.0971 26.8116 35.0971C26.4378 35.0971 26.209 35.3907 26.209 35.8655V35.8694C26.209 36.3442 26.4378 36.6378 26.8116 36.6378ZM28.2875 36.8953V34.0235H28.6193V36.8953H28.2875ZM29.8206 36.9315C29.4297 36.9315 29.1342 36.695 29.1342 36.3213V36.3175C29.1342 35.9513 29.4049 35.7397 29.8836 35.7111L30.4728 35.6748V35.488C30.4728 35.2344 30.3183 35.0971 30.0113 35.0971C29.7653 35.0971 29.6033 35.1886 29.5499 35.3488L29.548 35.3545H29.2162L29.2181 35.343C29.2715 35.0208 29.5842 34.8034 30.0228 34.8034C30.5243 34.8034 30.8046 35.0608 30.8046 35.488V36.8953H30.4728V36.5921H30.4423C30.3126 36.8114 30.0971 36.9315 29.8206 36.9315ZM29.4736 36.3137C29.4736 36.5215 29.6509 36.6436 29.8893 36.6436C30.2268 36.6436 30.4728 36.4224 30.4728 36.1287V35.9418L29.9236 35.9761C29.6109 35.9952 29.4736 36.1058 29.4736 36.3098V36.3137ZM32.1413 36.9105C31.718 36.9105 31.5407 36.7542 31.5407 36.3613V35.1142H31.2165V34.8396H31.5407V34.3076H31.8839V34.8396H32.3339V35.1142H31.8839V36.2774C31.8839 36.5196 31.9678 36.6169 32.1814 36.6169C32.2405 36.6169 32.2729 36.6149 32.3339 36.6092V36.8914C32.2691 36.9029 32.2062 36.9105 32.1413 36.9105ZM33.6383 36.9315C33.0509 36.9315 32.6962 36.5196 32.6962 35.8751V35.8732C32.6962 35.2382 33.0586 34.8034 33.6173 34.8034C34.176 34.8034 34.5154 35.2191 34.5154 35.8331V35.9628H33.0357C33.0452 36.388 33.2798 36.6359 33.6459 36.6359C33.9243 36.6359 34.0959 36.5043 34.1512 36.3804L34.1588 36.3632H34.4906L34.4868 36.3785C34.4163 36.6569 34.1226 36.9315 33.6383 36.9315ZM33.6154 35.099C33.3103 35.099 33.0776 35.3068 33.0414 35.6977H34.1779C34.1436 35.2916 33.9186 35.099 33.6154 35.099ZM35.7358 36.9315C35.2782 36.9315 34.9635 36.7103 34.9254 36.3709H35.2648C35.3201 36.5425 35.4841 36.655 35.7473 36.655C36.0238 36.655 36.2202 36.5234 36.2202 36.3365V36.3327C36.2202 36.1935 36.1153 36.0963 35.8617 36.0353L35.5432 35.959C35.1581 35.8674 34.9845 35.6996 34.9845 35.4041V35.4022C34.9845 35.0608 35.3125 34.8034 35.7492 34.8034C36.1802 34.8034 36.4795 35.0189 36.5253 35.3545H36.1992C36.1554 35.1924 35.9952 35.0799 35.7473 35.0799C35.5032 35.0799 35.324 35.2058 35.324 35.3869V35.3907C35.324 35.5299 35.4269 35.6176 35.6691 35.6768L35.9856 35.753C36.3727 35.8465 36.5596 36.0143 36.5596 36.3079V36.3118C36.5596 36.6779 36.203 36.9315 35.7358 36.9315Z" fill="white" fill-opacity="0.7"/>
<rect x="4.46323" y="41.4741" width="74.7592" height="11.1581" rx="0.557904" fill="#1E1E1E"/>
<g clip-path="url(#clip0_2472_576)">
<path d="M13.306 45.1562L14.8681 46.7183C15.0634 46.8857 15.0634 47.2205 14.8402 47.4157L13.2781 48.9778C13.1944 49.0615 13.0549 49.1173 12.9434 49.1173C12.8318 49.1173 12.6923 49.0615 12.6086 48.9778L11.0465 47.4157C10.8512 47.2205 10.8512 46.9136 11.0465 46.7183L12.6086 45.1562C12.8039 44.9609 13.1107 44.9609 13.306 45.1562Z" fill="white" fill-opacity="0.7"/>
<path d="M11.716 45.2399L9.95857 46.9973C9.93068 47.0252 9.93068 47.081 9.98647 47.081L11.7439 48.8384L11.437 49.1452L9.67962 47.4157C9.48436 47.2205 9.48436 46.9136 9.67962 46.7183L11.437 44.9609L11.716 45.2399Z" fill="white" fill-opacity="0.7"/>
</g>
<path d="M18.9189 48.0532V45.6105H18.0322V45.3016H20.1488V45.6105H19.2621V48.0532H18.9189ZM21.0947 48.0895C20.5073 48.0895 20.1527 47.6776 20.1527 47.033V47.0311C20.1527 46.3961 20.515 45.9614 21.0737 45.9614C21.6324 45.9614 21.9718 46.3771 21.9718 46.9911V47.1207H20.4921C20.5016 47.546 20.7362 47.7939 21.1023 47.7939C21.3807 47.7939 21.5523 47.6623 21.6076 47.5384L21.6152 47.5212H21.947L21.9432 47.5365C21.8727 47.8149 21.579 48.0895 21.0947 48.0895ZM21.0718 46.2569C20.7667 46.2569 20.534 46.4648 20.4978 46.8557H21.6343C21.6 46.4495 21.375 46.2569 21.0718 46.2569ZM22.4867 48.0532V45.9976H22.8185V46.3103H22.849C22.9405 46.0891 23.135 45.9614 23.4039 45.9614C23.6823 45.9614 23.8768 46.1082 23.9722 46.3218H24.0027C24.1133 46.1044 24.3478 45.9614 24.632 45.9614C25.0515 45.9614 25.286 46.2016 25.286 46.6326V48.0532H24.9542V46.7089C24.9542 46.4057 24.815 46.255 24.5252 46.255C24.2391 46.255 24.0504 46.4705 24.0504 46.7317V48.0532H23.7186V46.6574C23.7186 46.4133 23.5508 46.255 23.2914 46.255C23.0225 46.255 22.8185 46.4896 22.8185 46.7794V48.0532H22.4867ZM25.8848 48.7397V45.9976H26.2166V46.3256H26.2471C26.373 46.0967 26.6018 45.9614 26.8878 45.9614C27.4084 45.9614 27.7497 46.3828 27.7497 47.0235V47.0273C27.7497 47.6718 27.4103 48.0895 26.8878 48.0895C26.6056 48.0895 26.3596 47.9483 26.2471 47.729H26.2166V48.7397H25.8848ZM26.8116 47.7958C27.1872 47.7958 27.4103 47.5059 27.4103 47.0273V47.0235C27.4103 46.5449 27.1872 46.255 26.8116 46.255C26.4378 46.255 26.209 46.5487 26.209 47.0235V47.0273C26.209 47.5021 26.4378 47.7958 26.8116 47.7958ZM28.2875 48.0532V45.1814H28.6193V48.0532H28.2875ZM29.8206 48.0895C29.4297 48.0895 29.1342 47.853 29.1342 47.4792V47.4754C29.1342 47.1093 29.4049 46.8976 29.8836 46.869L30.4728 46.8328V46.6459C30.4728 46.3923 30.3183 46.255 30.0113 46.255C29.7653 46.255 29.6033 46.3465 29.5499 46.5067L29.548 46.5124H29.2162L29.2181 46.501C29.2715 46.1787 29.5842 45.9614 30.0228 45.9614C30.5243 45.9614 30.8046 46.2188 30.8046 46.6459V48.0532H30.4728V47.75H30.4423C30.3126 47.9693 30.0971 48.0895 29.8206 48.0895ZM29.4736 47.4716C29.4736 47.6795 29.6509 47.8015 29.8893 47.8015C30.2268 47.8015 30.4728 47.5803 30.4728 47.2866V47.0998L29.9236 47.1341C29.6109 47.1532 29.4736 47.2638 29.4736 47.4678V47.4716ZM32.1413 48.0685C31.718 48.0685 31.5407 47.9121 31.5407 47.5193V46.2722H31.2165V45.9976H31.5407V45.4656H31.8839V45.9976H32.3339V46.2722H31.8839V47.4354C31.8839 47.6776 31.9678 47.7748 32.1814 47.7748C32.2405 47.7748 32.2729 47.7729 32.3339 47.7672V48.0494C32.2691 48.0609 32.2062 48.0685 32.1413 48.0685ZM33.6383 48.0895C33.0509 48.0895 32.6962 47.6776 32.6962 47.033V47.0311C32.6962 46.3961 33.0586 45.9614 33.6173 45.9614C34.176 45.9614 34.5154 46.3771 34.5154 46.9911V47.1207H33.0357C33.0452 47.546 33.2798 47.7939 33.6459 47.7939C33.9243 47.7939 34.0959 47.6623 34.1512 47.5384L34.1588 47.5212H34.4906L34.4868 47.5365C34.4163 47.8149 34.1226 48.0895 33.6383 48.0895ZM33.6154 46.2569C33.3103 46.2569 33.0776 46.4648 33.0414 46.8557H34.1779C34.1436 46.4495 33.9186 46.2569 33.6154 46.2569ZM36.1287 48.7397V45.9976H36.4605V46.3256H36.491C36.6168 46.0967 36.8457 45.9614 37.1317 45.9614C37.6523 45.9614 37.9936 46.3828 37.9936 47.0235V47.0273C37.9936 47.6718 37.6542 48.0895 37.1317 48.0895C36.8495 48.0895 36.6035 47.9483 36.491 47.729H36.4605V48.7397H36.1287ZM37.0554 47.7958C37.4311 47.7958 37.6542 47.5059 37.6542 47.0273V47.0235C37.6542 46.5449 37.4311 46.255 37.0554 46.255C36.6817 46.255 36.4528 46.5487 36.4528 47.0235V47.0273C36.4528 47.5021 36.6817 47.7958 37.0554 47.7958ZM39.0767 48.0895C38.6858 48.0895 38.3902 47.853 38.3902 47.4792V47.4754C38.3902 47.1093 38.661 46.8976 39.1397 46.869L39.7289 46.8328V46.6459C39.7289 46.3923 39.5744 46.255 39.2674 46.255C39.0214 46.255 38.8593 46.3465 38.806 46.5067L38.804 46.5124H38.4722L38.4742 46.501C38.5275 46.1787 38.8403 45.9614 39.2789 45.9614C39.7804 45.9614 40.0607 46.2188 40.0607 46.6459V48.0532H39.7289V47.75H39.6984C39.5687 47.9693 39.3532 48.0895 39.0767 48.0895ZM38.7297 47.4716C38.7297 47.6795 38.907 47.8015 39.1454 47.8015C39.4829 47.8015 39.7289 47.5803 39.7289 47.2866V47.0998L39.1797 47.1341C38.867 47.1532 38.7297 47.2638 38.7297 47.4678V47.4716ZM40.6671 48.0532V45.9976H40.9989V46.3027H41.0294C41.1076 46.0872 41.3002 45.9614 41.5786 45.9614C41.6415 45.9614 41.7121 45.969 41.7445 45.9747V46.297C41.6758 46.2855 41.6129 46.2779 41.5404 46.2779C41.2239 46.2779 40.9989 46.4781 40.9989 46.7794V48.0532H40.6671ZM42.9229 48.0685C42.4996 48.0685 42.3223 47.9121 42.3223 47.5193V46.2722H41.9981V45.9976H42.3223V45.4656H42.6655V45.9976H43.1155V46.2722H42.6655V47.4354C42.6655 47.6776 42.7494 47.7748 42.963 47.7748C43.0221 47.7748 43.0545 47.7729 43.1155 47.7672V48.0494C43.0507 48.0609 42.9878 48.0685 42.9229 48.0685ZM44.2788 48.0895C43.8211 48.0895 43.5065 47.8683 43.4683 47.5288H43.8078C43.8631 47.7004 44.027 47.813 44.2902 47.813C44.5667 47.813 44.7631 47.6814 44.7631 47.4945V47.4907C44.7631 47.3515 44.6582 47.2542 44.4046 47.1932L44.0862 47.1169C43.701 47.0254 43.5274 46.8576 43.5274 46.562V46.5601C43.5274 46.2188 43.8554 45.9614 44.2921 45.9614C44.7231 45.9614 45.0224 46.1768 45.0682 46.5124H44.7421C44.6983 46.3504 44.5381 46.2379 44.2902 46.2379C44.0461 46.2379 43.8669 46.3637 43.8669 46.5449V46.5487C43.8669 46.6879 43.9698 46.7756 44.212 46.8347L44.5286 46.911C44.9157 47.0044 45.1025 47.1722 45.1025 47.4659V47.4697C45.1025 47.8358 44.7459 48.0895 44.2788 48.0895Z" fill="white" fill-opacity="0.7"/>
<defs>
<clipPath id="clip0_2472_576">
<rect width="6.69485" height="6.69485" fill="white" transform="translate(8.92645 43.7058)"/>
</clipPath>
</defs>
</svg>
