<svg width="52" height="52" viewBox="0 0 52 52" fill="none" xmlns="http://www.w3.org/2000/svg">
<rect width="52" height="52" rx="4" fill="#873EFF"/>
<path d="M37.7993 21.813C35.4157 21.813 33.5913 23.5954 33.5913 26C33.5913 28.4045 35.4157 30.187 37.7993 30.187C40.1828 30.187 42.0002 28.4045 42.0002 26C42.0002 23.5954 40.1689 21.813 37.7993 21.813ZM37.7993 27.6147C36.9046 27.6147 36.2894 26.9296 36.2894 26C36.2894 25.0703 36.8976 24.3853 37.7993 24.3853C38.701 24.3853 39.3091 25.0703 39.3091 26C39.3091 26.9296 38.694 27.6147 37.7993 27.6147Z" fill="white"/>
<path d="M28.8937 21.813C26.5102 21.813 24.6858 23.5954 24.6858 26C24.6858 28.4045 26.5172 30.187 28.8937 30.187C31.2703 30.187 33.0947 28.4045 33.0947 26C33.0947 23.5954 31.2633 21.813 28.8937 21.813ZM28.8937 27.6147C27.999 27.6147 27.3839 26.9296 27.3839 26C27.3839 25.0703 27.992 24.3853 28.8937 24.3853C29.7955 24.3853 30.4036 25.0703 30.4036 26C30.4036 26.9296 29.7955 27.6147 28.8937 27.6147Z" fill="white"/>
<path d="M14.1101 30.187C15.0537 30.187 15.8087 29.7186 16.3818 28.6422L17.647 26.2726V28.2857C17.647 29.467 18.4159 30.187 19.6112 30.187C20.5339 30.187 21.2119 29.7676 21.8829 28.6422L24.8117 23.7143C25.4548 22.6378 25.0005 21.813 23.5885 21.813C22.8336 21.813 22.3443 22.0646 21.9039 22.8894L19.8838 26.671V23.3088C19.8838 22.3023 19.4085 21.813 18.5208 21.813C17.8288 21.813 17.2766 22.1136 16.8432 22.9524L14.9419 26.664V23.3438C14.9419 22.2673 14.5015 21.813 13.4251 21.813H11.2442C10.4194 21.813 10 22.1974 10 22.9104C10 23.6234 10.4334 24.0218 11.2442 24.0218H12.1389V28.2787C12.1459 29.467 12.9358 30.187 14.1101 30.187Z" fill="white"/>
</svg>
