<svg width="24" height="24" viewBox="0 0 24 24" fill="none" xmlns="http://www.w3.org/2000/svg">
<path d="M24 12C24 13.5759 23.6896 15.1363 23.0866 16.5922C22.4835 18.0481 21.5996 19.371 20.4853 20.4853C19.371 21.5996 18.0481 22.4835 16.5922 23.0866C15.1363 23.6896 13.5759 24 12 24C8.8174 24 5.76513 22.7357 3.5147 20.4853C1.26426 18.2348 0 15.1826 0 12C0 8.8174 1.26426 5.76516 3.5147 3.51472C5.76513 1.26428 8.8174 0 12 0C15.1826 0 18.2349 1.26428 20.4853 3.51472C22.7357 5.76516 24 8.8174 24 12ZM7.61599 11.4595C7.61599 11.0295 7.44517 10.617 7.14109 10.313C6.837 10.0089 6.42458 9.83803 5.99454 9.83803C5.56449 9.83803 5.15207 10.0089 4.84798 10.313C4.5439 10.617 4.37308 11.0295 4.37308 11.4595C4.37308 11.8896 4.5439 12.302 4.84798 12.6061C5.15207 12.9101 5.56449 13.081 5.99454 13.081C6.42458 13.081 6.837 12.9101 7.14109 12.6061C7.44517 12.302 7.61599 11.8896 7.61599 11.4595ZM19.6269 11.4595C19.6269 11.0295 19.4561 10.617 19.152 10.313C18.8479 10.0089 18.4355 9.83803 18.0055 9.83803C17.5754 9.83803 17.163 10.0089 16.8589 10.313C16.5548 10.617 16.384 11.0295 16.384 11.4595C16.384 11.8896 16.5548 12.302 16.8589 12.6061C17.163 12.9101 17.5754 13.081 18.0055 13.081C18.4355 13.081 18.8479 12.9101 19.152 12.6061C19.4561 12.302 19.6269 11.8896 19.6269 11.4595ZM8.68607 17.0992C9.82165 15.3794 12.071 14.7516 13.9054 15.7561C14.4786 16.0673 14.9045 16.5805 15.3139 17.0773C15.8872 17.7652 16.7989 17.5578 17.0992 16.717C17.1692 16.5224 17.1868 16.3127 17.1504 16.1087C17.1141 15.9047 17.0249 15.7135 16.8917 15.5541C14.1183 12.2238 9.45041 12.2293 6.98817 15.8162C6.59509 16.3876 6.69517 16.8517 7.28844 17.2084L7.53959 17.3612C8.00547 17.6415 8.38762 17.5541 8.68607 17.0992Z" fill="#FACFD2"/>
<path d="M5.99451 13.081C6.89002 13.081 7.61597 12.355 7.61597 11.4595C7.61597 10.564 6.89002 9.83801 5.99451 9.83801C5.09899 9.83801 4.37305 10.564 4.37305 11.4595C4.37305 12.355 5.09899 13.081 5.99451 13.081Z" fill="#691C1C"/>
<path d="M18.0057 13.081C18.9013 13.081 19.6272 12.355 19.6272 11.4595C19.6272 10.564 18.9013 9.83801 18.0057 9.83801C17.1102 9.83801 16.3843 10.564 16.3843 11.4595C16.3843 12.355 17.1102 13.081 18.0057 13.081Z" fill="#691C1C"/>
<path d="M13.9051 15.7561C12.0707 14.7516 9.82139 15.3794 8.68581 17.0991C8.38736 17.5541 8.00521 17.6415 7.53933 17.3612L7.28818 17.2083C6.69491 16.8516 6.59483 16.3876 6.98791 15.8162C9.45015 12.2293 14.118 12.2238 16.8915 15.5541C17.0246 15.7134 17.1138 15.9046 17.1502 16.1086C17.1866 16.3126 17.1689 16.5224 17.0989 16.717C16.7987 17.5577 15.8869 17.7652 15.3137 17.0773C14.9042 16.5805 14.4784 16.0673 13.9051 15.7561Z" fill="#691C1C"/>
</svg>
