<svg width="24" height="24" viewBox="0 0 24 24" fill="none" xmlns="http://www.w3.org/2000/svg">
<path d="M24 12C24 15.1826 22.7357 18.2348 20.4853 20.4853C18.2348 22.7357 15.1826 24 12 24C8.8174 24 5.76516 22.7357 3.51472 20.4853C1.26429 18.2348 0 15.1826 0 12C0 8.8174 1.26429 5.76516 3.51472 3.51472C5.76516 1.26428 8.8174 0 12 0C15.1826 0 18.2348 1.26428 20.4853 3.51472C22.7357 5.76516 24 8.8174 24 12ZM7.61602 11.4595C7.61602 11.0295 7.44518 10.617 7.14109 10.313C6.83701 10.0089 6.42458 9.83804 5.99454 9.83804C5.78161 9.83804 5.57076 9.87998 5.37403 9.96146C5.17731 10.0429 4.99856 10.1624 4.84799 10.313C4.69743 10.4635 4.57798 10.6423 4.49649 10.839C4.41501 11.0357 4.37307 11.2466 4.37307 11.4595C4.37307 11.6724 4.41501 11.8833 4.49649 12.08C4.57798 12.2767 4.69743 12.4555 4.84799 12.6061C4.99856 12.7566 5.17731 12.8761 5.37403 12.9576C5.57076 13.039 5.78161 13.081 5.99454 13.081C6.42458 13.081 6.83701 12.9102 7.14109 12.6061C7.44518 12.302 7.61602 11.8896 7.61602 11.4595ZM19.6269 11.4595C19.6269 11.0295 19.4561 10.617 19.152 10.313C18.8479 10.0089 18.4355 9.83804 18.0055 9.83804C17.5754 9.83804 17.163 10.0089 16.8589 10.313C16.5548 10.617 16.384 11.0295 16.384 11.4595C16.384 11.8896 16.5548 12.302 16.8589 12.6061C17.163 12.9102 17.5754 13.081 18.0055 13.081C18.4355 13.081 18.8479 12.9102 19.152 12.6061C19.4561 12.302 19.6269 11.8896 19.6269 11.4595ZM17.4378 16.3061C17.438 16.1721 17.4118 16.0393 17.3608 15.9153C17.3097 15.7914 17.2347 15.6787 17.14 15.5837C17.0454 15.4887 16.933 15.4133 16.8092 15.3618C16.6854 15.3103 16.5527 15.2836 16.4187 15.2834L7.57425 15.268C7.44018 15.2678 7.30738 15.2939 7.18343 15.345C7.05947 15.3961 6.94679 15.4711 6.85182 15.5658C6.75685 15.6604 6.68146 15.7728 6.62993 15.8966C6.57841 16.0204 6.55176 16.1531 6.55152 16.2871L6.55131 16.4291C6.55107 16.5632 6.57724 16.696 6.62833 16.8199C6.67942 16.9439 6.75442 17.0565 6.84906 17.1515C6.94369 17.2465 7.05611 17.3219 7.17988 17.3734C7.30365 17.4249 7.43636 17.4516 7.57043 17.4518L16.4148 17.4672C16.5489 17.4674 16.6817 17.4413 16.8057 17.3902C16.9296 17.3391 17.0423 17.2641 17.1373 17.1695C17.2322 17.0748 17.3076 16.9624 17.3592 16.8386C17.4107 16.7149 17.4373 16.5822 17.4376 16.4481L17.4378 16.3061Z" fill="#C3C4C7"/>
<path d="M5.99452 13.081C6.89004 13.081 7.616 12.355 7.616 11.4595C7.616 10.564 6.89004 9.83801 5.99452 9.83801C5.09901 9.83801 4.37305 10.564 4.37305 11.4595C4.37305 12.355 5.09901 13.081 5.99452 13.081Z" fill="#2C3338"/>
<path d="M18.0053 13.081C18.9008 13.081 19.6267 12.355 19.6267 11.4595C19.6267 10.564 18.9008 9.83801 18.0053 9.83801C17.1097 9.83801 16.3838 10.564 16.3838 11.4595C16.3838 12.355 17.1097 13.081 18.0053 13.081Z" fill="#2C3338"/>
<path d="M16.4185 15.2833L7.57415 15.2679C7.01031 15.2669 6.55242 15.7232 6.55144 16.287L6.55119 16.429C6.55021 16.9928 7.0065 17.4507 7.57034 17.4517L16.4147 17.4671C16.9786 17.4681 17.4364 17.0118 17.4374 16.448L17.4377 16.306C17.4387 15.7422 16.9824 15.2843 16.4185 15.2833Z" fill="#2C3338"/>
</svg>
